<svg width="175" height="70" viewBox="0 0 175 70" fill="none" xmlns="http://www.w3.org/2000/svg">
<g id="button_download">
<path id="Path 8490" d="M165.133 2.10469e-07H12.9811C11.3587 -0.000335116 9.76126 0.400024 8.33076 1.16552C6.90025 1.93101 5.68094 3.03795 4.78112 4.388C4.74812 4.435 4.71112 4.477 4.68112 4.523C4.65112 4.569 4.61212 4.611 4.58112 4.658C4.55012 4.705 4.51212 4.746 4.48112 4.793C4.45012 4.84 4.41212 4.881 4.38112 4.928C4.35012 4.975 4.31212 5.016 4.28112 5.062C4.25012 5.108 4.21212 5.15 4.18112 5.197C4.15012 5.244 4.11212 5.285 4.08112 5.332C4.05012 5.379 4.01212 5.42 3.98112 5.467C3.95012 5.514 3.91212 5.555 3.88112 5.602C3.85012 5.649 3.81112 5.69 3.78112 5.736C3.75112 5.782 3.71212 5.825 3.68112 5.872C3.65012 5.919 3.61312 5.959 3.58112 6.006C3.54912 6.053 3.51212 6.094 3.48112 6.141C3.45012 6.188 3.41212 6.229 3.38112 6.276C3.35012 6.323 3.31212 6.364 3.28112 6.411C3.25012 6.458 3.21212 6.499 3.18112 6.546C3.15012 6.593 3.11212 6.633 3.08112 6.68C3.05012 6.727 3.01212 6.768 2.98112 6.815C2.95012 6.862 2.91112 6.903 2.88112 6.95C2.85112 6.997 2.81212 7.038 2.78112 7.085C2.75012 7.132 2.71312 7.173 2.68112 7.219C2.64912 7.265 2.61112 7.308 2.58112 7.354C2.55112 7.4 2.51212 7.442 2.48112 7.489C2.45012 7.536 2.41212 7.577 2.38112 7.624C2.35012 7.671 2.31212 7.712 2.28112 7.759C2.25012 7.806 2.21212 7.846 2.18112 7.893C2.15012 7.94 2.11112 7.981 2.08112 8.029C2.05112 8.077 2.01112 8.116 1.98112 8.163C1.95112 8.21 1.91212 8.251 1.88112 8.298C1.85012 8.345 1.81212 8.386 1.78112 8.433C0.626589 10.0774 0.0048996 12.0367 0.00012207 14.046L0.00012207 60.133C0.000387269 62.75 1.04017 65.2597 2.89075 67.1101C4.74133 68.9605 7.25114 70 9.86812 70H162.02C163.643 70 165.24 69.5993 166.67 68.8337C168.101 68.068 169.32 66.9611 170.22 65.611C170.252 65.565 170.288 65.523 170.32 65.477C170.352 65.431 170.389 65.388 170.42 65.341C170.451 65.294 170.49 65.253 170.52 65.206C170.55 65.159 170.589 65.119 170.62 65.072C170.651 65.025 170.689 64.984 170.72 64.937C170.751 64.89 170.79 64.849 170.82 64.803C170.85 64.757 170.889 64.714 170.92 64.667C170.951 64.62 170.989 64.58 171.02 64.533C171.051 64.486 171.089 64.445 171.12 64.398C171.151 64.351 171.189 64.31 171.22 64.263C171.251 64.216 171.289 64.175 171.32 64.128C171.351 64.081 171.389 64.041 171.42 63.994C171.451 63.947 171.49 63.906 171.52 63.859C171.55 63.812 171.589 63.771 171.62 63.724C171.651 63.677 171.69 63.636 171.72 63.589C171.75 63.542 171.789 63.501 171.82 63.454C171.851 63.407 171.888 63.366 171.92 63.319C171.952 63.272 171.989 63.231 172.02 63.185C172.051 63.139 172.089 63.097 172.12 63.049C172.151 63.001 172.189 62.962 172.22 62.915C172.251 62.868 172.289 62.827 172.32 62.78C172.351 62.733 172.388 62.692 172.42 62.646C172.452 62.6 172.489 62.557 172.52 62.51C172.551 62.463 172.59 62.422 172.62 62.375C172.65 62.328 172.689 62.288 172.72 62.241C172.751 62.194 172.789 62.153 172.82 62.106C172.851 62.059 172.889 62.018 172.92 61.971C172.951 61.924 172.989 61.883 173.02 61.836C173.051 61.789 173.089 61.748 173.12 61.701C173.151 61.654 173.189 61.614 173.22 61.567C174.375 59.9224 174.996 57.9626 175 55.953V9.867C175 8.57121 174.745 7.28809 174.249 6.09091C173.753 4.89373 173.027 3.80595 172.11 2.88968C171.194 1.97342 170.106 1.24663 168.909 0.750813C167.712 0.254997 166.429 -0.000131135 165.133 2.10469e-07Z" fill="#004E8F"/>
<path id="Path 8491" d="M165.091 0H12.9391C10.3223 0.000265168 7.81278 1.03991 5.96241 2.89027C4.11205 4.74063 3.07241 7.25019 3.07214 9.867V55.954C3.07241 58.5708 4.11205 61.0804 5.96241 62.9307C7.81278 64.7811 10.3223 65.8207 12.9391 65.821H165.091C167.708 65.821 170.218 64.7814 172.068 62.931C173.919 61.0806 174.958 58.5709 174.958 55.954V9.867C174.958 7.25011 173.919 4.7404 172.068 2.88998C170.218 1.03956 167.708 0 165.091 0Z" fill="#0082EB"/>
<path id="Path 8492" d="M51.56 42.9475C51.56 43.1005 51.391 43.1475 51.289 43.1855H49.049C48.9941 43.1617 48.9446 43.1269 48.9037 43.0832C48.8628 43.0395 48.8312 42.9879 48.811 42.9315V29.9995H43.911C43.831 30.0071 43.7504 29.9982 43.674 29.9733C43.5976 29.9484 43.5272 29.9082 43.467 29.855C43.4068 29.8018 43.3582 29.7369 43.3241 29.6641C43.29 29.5914 43.2713 29.5124 43.2689 29.4322C43.2666 29.3519 43.2808 29.272 43.3106 29.1974C43.3403 29.1228 43.3851 29.0551 43.4421 28.9985C43.4991 28.942 43.5671 28.8977 43.6419 28.8684C43.7167 28.8392 43.7967 28.8256 43.877 28.8285H58.263C58.4139 28.8264 58.5595 28.8843 58.6677 28.9895C58.7759 29.0947 58.8379 29.2386 58.84 29.3895C58.8421 29.5404 58.7842 29.686 58.679 29.7942C58.5738 29.9024 58.4299 29.9644 58.279 29.9665H51.56V42.9475ZM55.039 39.5375C54.699 39.5852 54.3533 39.5056 54.0683 39.3141C53.7833 39.1225 53.5792 38.8324 53.495 38.4995C53.054 36.5825 52.765 35.0385 52.409 33.3075C52.392 33.0365 52.545 32.8485 52.697 32.9335C53.51 33.1272 54.3399 33.2411 55.175 33.2735C55.4641 35.0156 55.8605 36.7382 56.362 38.4315H57.839C58.5 38.4315 58.518 39.5315 57.839 39.5315L55.039 39.5375Z" fill="#0042F9"/>
<path id="Path 8493" d="M82.5341 42.0828C82.6096 42.0754 82.6857 42.0839 82.7577 42.1078C82.8296 42.1317 82.8958 42.1704 82.9518 42.2215C83.0078 42.2726 83.0524 42.335 83.0828 42.4044C83.1132 42.4739 83.1286 42.549 83.1281 42.6248C83.1356 42.695 83.1279 42.7661 83.1055 42.8331C83.0831 42.9001 83.0465 42.9615 82.9981 43.013C82.9498 43.0646 82.8909 43.1051 82.8255 43.1318C82.7601 43.1585 82.6897 43.1708 82.6191 43.1678H80.4641C80.2404 43.167 80.0199 43.1146 79.8197 43.0147C79.6196 42.9148 79.4452 42.7701 79.3101 42.5918C78.9453 42.7879 78.5362 42.8871 78.1221 42.8798H76.4221C76.3171 42.8723 76.2165 42.8348 76.1322 42.7717C76.048 42.7085 75.9837 42.6225 75.9471 42.5238C75.8631 42.2358 76.0471 41.8108 76.3211 41.8108H76.9001C77.0296 41.8121 77.1576 41.7819 77.2729 41.7229C77.3882 41.6638 77.4874 41.5777 77.5621 41.4718L78.3621 39.4528C77.7478 37.1027 77.3165 34.7085 77.0721 32.2918H68.3151C68.2084 32.3109 68.0987 32.304 67.9953 32.2716C67.8919 32.2392 67.7978 32.1823 67.7211 32.1058C67.6606 31.9434 67.6374 31.7694 67.6531 31.5968C67.686 31.4927 67.7484 31.4005 67.8327 31.3313C67.917 31.262 68.0196 31.2188 68.1281 31.2068H71.0811V30.3408H68.6881C68.5748 30.3314 68.4666 30.2897 68.3763 30.2205C68.2861 30.1514 68.2176 30.0577 68.1791 29.9508C68.1457 29.7816 68.176 29.606 68.2641 29.4578C68.3336 29.3832 68.4176 29.3237 68.511 29.2829C68.6044 29.2421 68.7052 29.221 68.8071 29.2208H71.0811V28.4918C71.8314 28.5148 72.5745 28.3392 73.2351 27.9828C73.4221 27.8828 73.5751 27.9648 73.5751 28.1348V29.2208H75.8661C75.9747 29.2147 76.0831 29.2365 76.181 29.2841C76.2788 29.3317 76.3629 29.4035 76.4251 29.4928C76.4836 29.6772 76.4715 29.8768 76.3911 30.0528C76.3389 30.1373 76.2667 30.2078 76.1809 30.258C76.0952 30.3082 75.9984 30.3366 75.8991 30.3408H73.5751V31.2068H76.9521C76.7871 30.2234 76.6736 29.232 76.6121 28.2368C76.6119 28.1779 76.6276 28.1201 76.6575 28.0694C76.6874 28.0187 76.7305 27.977 76.7821 27.9488C77.1041 27.8488 77.3071 28.1348 77.5961 28.1858C78.0953 28.3229 78.6074 28.4084 79.1241 28.4408C79.1911 29.3568 79.2931 30.3068 79.4121 31.2068H82.4001C82.5065 31.197 82.6133 31.2192 82.707 31.2705C82.8007 31.3218 82.877 31.3999 82.9261 31.4948C82.9598 31.5724 82.9772 31.6562 82.9772 31.7408C82.9772 31.8254 82.9598 31.9091 82.9261 31.9868C82.8787 32.0841 82.8033 32.1651 82.7096 32.2195C82.6159 32.2738 82.5082 32.299 82.4001 32.2918H79.6151C79.6671 32.9918 79.8011 33.9918 79.9041 34.7698C80.0541 34.2542 80.1565 33.726 80.2101 33.1918C80.9232 33.2027 81.633 33.0938 82.3101 32.8698C82.3456 32.8512 82.3855 32.8427 82.4255 32.8451C82.4654 32.8474 82.504 32.8606 82.5371 32.8832C82.5702 32.9058 82.5965 32.9369 82.6132 32.9733C82.6299 33.0097 82.6365 33.05 82.6321 33.0898C82.2427 35.1964 81.6636 37.2634 80.9021 39.2658C81.1391 40.1488 81.3261 40.9128 81.6151 41.7598C81.6654 41.8624 81.7423 41.9497 81.8378 42.0125C81.9333 42.0753 82.0439 42.1113 82.1581 42.1168L82.5341 42.0828ZM71.4341 32.9198C72.1746 32.9575 72.912 32.7995 73.5721 32.4618C73.6721 32.4118 73.9111 32.4118 73.9111 32.5808V33.8708H76.7111C76.8055 33.8677 76.8983 33.8959 76.975 33.9511C77.0517 34.0063 77.108 34.0853 77.1351 34.1758C77.2351 34.3118 77.1861 34.4808 77.1351 34.7018C77.0597 34.7929 76.9628 34.8639 76.8532 34.9084C76.7436 34.9529 76.6247 34.9695 76.5071 34.9568H73.9071V35.5158H75.5071C75.6784 35.5001 75.851 35.5191 76.0148 35.5717C76.1785 35.6243 76.3299 35.7094 76.46 35.8219C76.5901 35.9344 76.6961 36.072 76.7717 36.2265C76.8473 36.3809 76.891 36.5491 76.9001 36.7208V39.0118C76.9029 39.1292 76.8821 39.246 76.839 39.3553C76.7959 39.4646 76.7314 39.5641 76.6491 39.648C76.5669 39.7319 76.4687 39.7985 76.3603 39.8438C76.2519 39.8891 76.1356 39.9122 76.0181 39.9118H73.9181V40.5228H77.0001C77.1691 40.5228 77.3001 40.6928 77.3551 40.8448C77.3836 40.933 77.3908 41.0268 77.3762 41.1183C77.3616 41.2099 77.3256 41.2968 77.2711 41.3718C77.1186 41.4991 76.9268 41.5698 76.7281 41.5718H73.9141V42.9288C73.9166 42.9615 73.9123 42.9943 73.9014 43.0253C73.8906 43.0562 73.8734 43.0845 73.851 43.1085C73.8287 43.1325 73.8016 43.1515 73.7715 43.1645C73.7414 43.1774 73.7089 43.184 73.6761 43.1838H71.7251C71.5551 43.1838 71.4371 43.1158 71.4371 42.9838V41.5738H68.2301C68.162 41.573 68.0949 41.5579 68.033 41.5294C67.9712 41.5009 67.916 41.4597 67.8712 41.4085C67.8264 41.3572 67.7929 41.2971 67.7729 41.232C67.7528 41.1669 67.7468 41.0984 67.7551 41.0308C67.7561 40.9598 67.7717 40.8899 67.8008 40.8252C67.83 40.7605 67.8721 40.7025 67.9246 40.6548C67.9771 40.607 68.0389 40.5706 68.1061 40.5477C68.1732 40.5249 68.2444 40.516 68.3151 40.5218H71.4371V39.9448H69.3001C69.187 39.9524 69.0736 39.9371 68.9666 39.8999C68.8596 39.8627 68.7611 39.8043 68.6771 39.7283C68.5932 39.6522 68.5253 39.56 68.4777 39.4572C68.4301 39.3544 68.4037 39.243 68.4001 39.1298V35.7878C69.0538 35.7675 69.6935 35.5931 70.2671 35.2788C70.3851 35.1788 70.6401 35.2108 70.6401 35.3978V35.9228C70.8994 35.8208 71.1671 35.7415 71.4401 35.6858V34.9908H68.5181C68.4021 34.9789 68.2941 34.9263 68.2134 34.8422C68.1326 34.7581 68.0843 34.6481 68.0771 34.5318C68.0611 34.4541 68.0636 34.3737 68.0842 34.2972C68.1049 34.2206 68.1432 34.1499 68.1961 34.0908C68.26 34.0255 68.3367 33.9741 68.4213 33.9397C68.506 33.9053 68.5968 33.8886 68.6881 33.8908H71.4371L71.4341 32.9198ZM71.4701 36.6998C71.1746 36.7414 70.8846 36.8151 70.6051 36.9198V37.1998H71.4701V36.6998ZM70.6391 38.8548H71.4701V38.2608H70.6391V38.8548ZM74.7121 36.9378C74.7149 36.8924 74.708 36.847 74.6919 36.8045C74.6758 36.762 74.6508 36.7233 74.6187 36.6912C74.5865 36.6591 74.5479 36.6341 74.5054 36.618C74.4629 36.6019 74.4175 36.595 74.3721 36.5978H73.8461V37.1588H74.7121V36.9378ZM73.8461 38.8208H74.7111V38.2448H73.8461V38.8208ZM82.1101 29.6408C82.2075 29.6639 82.2987 29.7077 82.3777 29.7691C82.4567 29.8305 82.5216 29.9082 82.5681 29.9968C82.6013 30.0717 82.6184 30.1528 82.6184 30.2348C82.6184 30.3168 82.6013 30.3978 82.5681 30.4728C82.5299 30.5396 82.4788 30.5981 82.4176 30.6448C82.3565 30.6915 82.2866 30.7255 82.2121 30.7448C81.4481 30.8118 80.1751 30.9978 79.9211 30.2688C79.7324 29.7044 79.6236 29.1163 79.5981 28.5218C79.6009 28.4679 79.6182 28.4158 79.6481 28.3709C79.678 28.3261 79.7195 28.2901 79.7681 28.2668C80.1251 28.2838 80.4131 28.4368 80.7531 28.4668C81.1451 28.5343 81.5423 28.5677 81.9401 28.5668L82.1101 29.6408Z" fill="#0042F9"/>
<path id="Path 8494" d="M91.8241 42.5576C91.1791 42.5576 91.1961 41.4886 91.8411 41.4886H92.4001V38.0786C93.1877 38.1048 93.9676 37.9172 94.6571 37.5356C94.8101 37.5016 95.0641 37.5866 95.0641 37.7726V38.5026C96.2127 38.0589 97.4327 37.8288 98.6641 37.8236H104.064C104.499 37.8529 104.906 38.0435 105.208 38.358C105.509 38.6725 105.682 39.0883 105.692 39.5236L105.709 41.3896H106.252C106.407 41.3827 106.559 41.4378 106.674 41.5427C106.788 41.6476 106.857 41.7938 106.864 41.9491C106.87 42.1044 106.815 42.2561 106.71 42.3707C106.606 42.4854 106.459 42.5537 106.304 42.5606L91.8241 42.5576ZM92.5871 31.9196C93.1707 30.7482 93.6642 29.534 94.0631 28.2876C94.8491 28.3366 95.6364 28.2152 96.3711 27.9316C96.434 27.9203 96.4989 27.9289 96.5567 27.9564C96.6144 27.9838 96.6621 28.0287 96.6931 28.0846C96.6548 28.4064 96.5692 28.7208 96.4391 29.0176C98.3054 28.3397 100.3 28.0902 102.276 28.2876C102.627 28.3011 102.97 28.3972 103.276 28.5682C103.583 28.7392 103.845 28.9802 104.041 29.2716C104.448 30.1206 104.753 31.0196 105.194 31.8346L106.11 31.8166C106.91 31.7996 106.91 32.9366 106.246 32.9366H104.074C103.805 32.9557 103.536 32.9104 103.288 32.8043C103.04 32.6982 102.821 32.5344 102.649 32.3266H95.1841C95.0356 32.5279 94.8361 32.686 94.6061 32.7846C94.3217 32.9272 94.0083 33.0025 93.6901 33.0046H91.9761C91.899 33.0114 91.8213 33.0019 91.7481 32.9767C91.6748 32.9516 91.6077 32.9113 91.551 32.8586C91.4943 32.8059 91.4494 32.7418 91.419 32.6706C91.3886 32.5994 91.3736 32.5226 91.3748 32.4452C91.376 32.3678 91.3934 32.2915 91.426 32.2212C91.4585 32.151 91.5054 32.0884 91.5637 32.0374C91.622 31.9864 91.6903 31.9483 91.7643 31.9254C91.8383 31.9025 91.9162 31.8955 91.9931 31.9046L92.5871 31.9196ZM93.0121 33.5646C93.8085 33.6186 94.6036 33.4419 95.3021 33.0556C95.3477 33.0439 95.3953 33.0432 95.4412 33.0533C95.4872 33.0635 95.5301 33.0843 95.5665 33.114C95.6029 33.1438 95.6317 33.1818 95.6508 33.2248C95.6698 33.2678 95.6785 33.3146 95.6761 33.3616V34.0736C96.5702 33.615 97.5548 33.3602 98.5591 33.3276H103.294C103.496 33.3077 103.7 33.3287 103.894 33.3892C104.088 33.4497 104.268 33.5485 104.423 33.6798C104.579 33.8111 104.706 33.9722 104.797 34.1536C104.889 34.3349 104.943 34.5329 104.957 34.7356V36.5506C104.953 36.6526 104.927 36.7526 104.882 36.8443C104.837 36.9359 104.773 37.0172 104.695 37.083C104.617 37.1488 104.526 37.1977 104.428 37.2265C104.33 37.2554 104.227 37.2636 104.126 37.2506H93.7411C93.5384 37.2369 93.3485 37.1466 93.21 36.998C93.0715 36.8495 92.9946 36.6537 92.9951 36.4506L93.0121 33.5646ZM96.0651 39.1806C95.728 39.1735 95.3931 39.2372 95.0821 39.3676V41.4376H96.0651V39.1806ZM102.174 31.2066C102.014 30.6619 101.778 30.1422 101.474 29.6626C101.329 29.5066 101.14 29.3996 100.931 29.3566C99.3215 29.1744 97.6915 29.3601 96.1641 29.8996C96.0111 30.3576 95.8071 30.7646 95.6541 31.2226L102.174 31.2066ZM102.309 34.9726C102.32 34.9019 102.314 34.8298 102.293 34.7615C102.271 34.6933 102.235 34.6308 102.186 34.5786C102.137 34.5264 102.077 34.4859 102.011 34.4601C101.944 34.4343 101.872 34.4239 101.801 34.4296H97.9001C97.1452 34.4306 96.3992 34.5929 95.7121 34.9056L95.6941 36.1776H102.311L102.309 34.9726ZM98.5771 41.4216H99.5271V38.9096H98.5771V41.4216ZM102.038 38.8586V41.3866H103.038L103.055 39.2866C103.035 39.1843 102.985 39.0899 102.913 39.0146C102.841 38.9393 102.749 38.8862 102.647 38.8616L102.038 38.8586Z" fill="#0042F9"/>
<path id="Path 8495" d="M115.942 42.4726C115.831 42.5081 115.712 42.5126 115.599 42.4856C115.485 42.4587 115.381 42.4012 115.298 42.3196C115.23 42.235 115.186 42.1334 115.171 42.0258C115.156 41.9182 115.171 41.8086 115.213 41.7086C115.277 41.5994 115.371 41.5112 115.484 41.4546L117.097 41.0466L117.113 35.6006H115.993C115.383 35.6006 115.348 34.5006 115.96 34.5006H117.079L117.062 30.1736L115.671 30.1906C115.332 30.1906 115.196 29.9026 115.196 29.6306C115.188 29.4939 115.232 29.3593 115.321 29.255C115.41 29.1506 115.535 29.0845 115.671 29.0706H121.118C121.763 29.0706 121.763 30.1396 121.066 30.1396H119.692V34.4996H120.914C121.052 34.508 121.182 34.5688 121.277 34.6697C121.372 34.7706 121.425 34.904 121.425 35.0426C121.425 35.1811 121.372 35.3145 121.277 35.4154C121.182 35.5163 121.052 35.5772 120.914 35.5856H119.761L119.777 40.4036L121.423 40.0146C121.507 40.0059 121.592 40.0166 121.672 40.0459C121.751 40.0752 121.823 40.1223 121.881 40.1836C121.937 40.2414 121.978 40.3115 122.001 40.388C122.024 40.4646 122.03 40.5456 122.016 40.6246C122.016 40.6986 121.996 40.7712 121.957 40.8342C121.918 40.8972 121.862 40.9482 121.796 40.9816L115.942 42.4726ZM121.287 43.1856C120.608 43.1856 120.507 42.0856 121.253 42.0996L122.679 42.1156V34.5656H121.491C121.34 34.5723 121.193 34.5189 121.082 34.4171C120.97 34.3152 120.904 34.1733 120.897 34.0226C120.89 33.8718 120.944 33.7245 121.046 33.6131C121.147 33.5017 121.289 33.4353 121.44 33.4286H130.059C130.671 33.4286 130.722 34.5146 130.077 34.5146H128.821L128.804 42.0656L130.077 42.0486C130.777 42.0306 130.789 43.1346 130.161 43.1346H127.549C127.211 43.1366 126.885 43.0065 126.641 42.7719C126.397 42.5374 126.254 42.2169 126.242 41.8786L126.224 34.5486H125.224V41.9806C125.224 42.297 125.1 42.6008 124.878 42.8263C124.656 43.0518 124.354 43.1808 124.037 43.1856H121.287ZM122.119 29.7126C121.981 29.7066 121.851 29.6477 121.756 29.5481C121.661 29.4485 121.607 29.3159 121.607 29.1781C121.607 29.0402 121.661 28.9076 121.756 28.808C121.851 28.7084 121.981 28.6495 122.119 28.6436H128.939C129.639 28.6436 129.652 29.7126 128.991 29.7126H122.119Z" fill="#0042F9"/>
<path id="Path 8496" d="M53.9831 40.5246C53.9831 40.6776 53.8141 40.7246 53.7121 40.7626H51.4721C51.4172 40.7388 51.3677 40.704 51.3268 40.6603C51.2858 40.6166 51.2543 40.565 51.2341 40.5086V27.5786H46.3341C46.2541 27.5862 46.1735 27.5773 46.0971 27.5524C46.0207 27.5275 45.9503 27.4873 45.8901 27.4341C45.8299 27.3809 45.7813 27.316 45.7472 27.2432C45.7131 27.1705 45.6944 27.0915 45.692 27.0113C45.6897 26.931 45.7039 26.8511 45.7336 26.7765C45.7634 26.7019 45.8082 26.6342 45.8652 26.5776C45.9222 26.5211 45.9902 26.4768 46.065 26.4475C46.1398 26.4183 46.2198 26.4047 46.3001 26.4076H60.6861C60.837 26.4055 60.9826 26.4634 61.0908 26.5686C61.199 26.6738 61.261 26.8177 61.2631 26.9686C61.2652 27.1195 61.2073 27.2651 61.1021 27.3733C60.9969 27.4815 60.853 27.5435 60.7021 27.5456H53.9831V40.5246ZM57.4621 37.1146C57.1225 37.1624 56.7771 37.0833 56.4922 36.8923C56.2073 36.7013 56.0029 36.412 55.9181 36.0796C55.4771 34.1626 55.1881 32.6186 54.8321 30.8876C54.8151 30.6166 54.9681 30.4286 55.1201 30.5136C55.9331 30.7073 56.763 30.8212 57.5981 30.8536C57.8872 32.5957 58.2836 34.3184 58.7851 36.0116H60.2621C60.9231 36.0116 60.9411 37.1116 60.2621 37.1116L57.4621 37.1146Z" fill="white"/>
<path id="Path 8497" d="M84.9582 39.6599C85.0336 39.6525 85.1098 39.661 85.1817 39.6849C85.2537 39.7088 85.3198 39.7475 85.3758 39.7986C85.4318 39.8497 85.4765 39.9121 85.5069 39.9815C85.5372 40.051 85.5527 40.1261 85.5522 40.2019C85.5597 40.2721 85.552 40.3432 85.5296 40.4102C85.5072 40.4772 85.4705 40.5386 85.4222 40.5901C85.3739 40.6417 85.315 40.6822 85.2496 40.7089C85.1842 40.7356 85.1138 40.7479 85.0432 40.7449H82.8882C82.6645 40.7441 82.444 40.6917 82.2438 40.5918C82.0437 40.4919 81.8693 40.3472 81.7342 40.1689C81.3694 40.365 80.9603 40.4642 80.5462 40.4569H78.8462C78.7412 40.4494 78.6405 40.4119 78.5563 40.3488C78.4721 40.2856 78.4078 40.1996 78.3712 40.1009C78.2872 39.8129 78.4712 39.3879 78.7452 39.3879H79.3212C79.4507 39.3892 79.5786 39.359 79.694 39.3C79.8093 39.2409 79.9085 39.1548 79.9832 39.0489L80.7832 37.0299C80.1689 34.6798 79.7376 32.2856 79.4932 29.8689H70.7392C70.6325 29.888 70.5228 29.8811 70.4194 29.8487C70.316 29.8163 70.2219 29.7594 70.1452 29.6829C70.0847 29.5205 70.0614 29.3465 70.0772 29.1739C70.11 29.0698 70.1724 28.9776 70.2568 28.9084C70.3411 28.8391 70.4437 28.7959 70.5522 28.7839H73.5002V27.9179H71.1122C70.9989 27.9085 70.8907 27.8668 70.8004 27.7976C70.7102 27.7285 70.6417 27.6348 70.6032 27.5279C70.5698 27.3587 70.6001 27.1831 70.6882 27.0349C70.7576 26.9603 70.8417 26.9008 70.9351 26.86C71.0285 26.8192 71.1293 26.7981 71.2312 26.7979H73.5002V26.0689C74.2505 26.0919 74.9935 25.9163 75.6542 25.5599C75.8412 25.4599 75.9942 25.5419 75.9942 25.7119V26.7999H78.2902C78.3988 26.7938 78.5072 26.8156 78.605 26.8632C78.7029 26.9108 78.7869 26.9826 78.8492 27.0719C78.9077 27.2563 78.8956 27.4559 78.8152 27.6319C78.7629 27.7164 78.6908 27.7869 78.605 27.8371C78.5192 27.8873 78.4225 27.9157 78.3232 27.9199H76.0002V28.7859H79.3772C79.2121 27.8025 79.0986 26.8111 79.0372 25.8159C79.037 25.757 79.0526 25.6992 79.0826 25.6485C79.1125 25.5978 79.1555 25.5561 79.2072 25.5279C79.5292 25.4279 79.7322 25.7139 80.0212 25.7649C80.5204 25.902 81.0324 25.9875 81.5492 26.0199C81.6162 26.9359 81.7182 27.8859 81.8372 28.7859H84.8232C84.9295 28.7761 85.0364 28.7983 85.1301 28.8496C85.2238 28.9009 85.3001 28.979 85.3492 29.0739C85.3829 29.1515 85.4002 29.2353 85.4002 29.3199C85.4002 29.4045 85.3829 29.4882 85.3492 29.5659C85.3017 29.6632 85.2263 29.7442 85.1327 29.7986C85.039 29.8529 84.9312 29.8781 84.8232 29.8709H82.0392C82.0912 30.5709 82.2252 31.5709 82.3282 32.3489C82.4782 31.8333 82.5806 31.3051 82.6342 30.7709C83.3473 30.7818 84.0571 30.6729 84.7342 30.4489C84.7697 30.4303 84.8095 30.4218 84.8495 30.4242C84.8895 30.4265 84.9281 30.4397 84.9612 30.4623C84.9942 30.4849 85.0205 30.516 85.0373 30.5524C85.054 30.5888 85.0605 30.6291 85.0562 30.6689C84.6667 32.7755 84.0877 34.8425 83.3262 36.8449C83.5632 37.7279 83.7502 38.4919 84.0392 39.3389C84.0895 39.4415 84.1664 39.5288 84.2619 39.5916C84.3574 39.6544 84.468 39.6904 84.5822 39.6959L84.9582 39.6599ZM73.8612 30.4999C74.6023 30.5368 75.3401 30.3778 76.0002 30.0389C76.1002 29.9889 76.3392 29.9889 76.3392 30.1579V31.4479H79.1392C79.2336 31.4448 79.3264 31.473 79.4031 31.5282C79.4798 31.5834 79.5361 31.6624 79.5632 31.7529C79.6632 31.8889 79.6142 32.0529 79.5632 32.2789C79.4878 32.37 79.3909 32.441 79.2813 32.4855C79.1717 32.53 79.0528 32.5466 78.9352 32.5339H76.3352V33.0929H77.9352C78.1063 33.0777 78.2787 33.0972 78.4421 33.1502C78.6055 33.2032 78.7565 33.2886 78.8861 33.4012C79.0158 33.5139 79.1214 33.6516 79.1967 33.806C79.2719 33.9604 79.3153 34.1283 79.3242 34.2999V36.5909C79.327 36.7083 79.3062 36.8251 79.2631 36.9344C79.22 37.0437 79.1554 37.1432 79.0732 37.2271C78.991 37.311 78.8928 37.3776 78.7844 37.4229C78.676 37.4682 78.5596 37.4913 78.4422 37.4909H76.3422V38.0999H79.4312C79.6002 38.0999 79.7312 38.2699 79.7862 38.4219C79.8146 38.5101 79.8219 38.6039 79.8073 38.6954C79.7927 38.787 79.7567 38.8739 79.7022 38.9489C79.5497 39.0762 79.3578 39.1469 79.1592 39.1489H76.3382V40.5059C76.3407 40.5386 76.3363 40.5714 76.3255 40.6024C76.3146 40.6333 76.2975 40.6616 76.2751 40.6856C76.2527 40.7096 76.2256 40.7286 76.1955 40.7416C76.1654 40.7545 76.1329 40.7611 76.1002 40.7609H74.1492C73.9792 40.7609 73.8612 40.6929 73.8612 40.5609V39.1509H70.6542C70.5861 39.1501 70.5189 39.135 70.4571 39.1065C70.3952 39.078 70.3401 39.0368 70.2953 38.9856C70.2504 38.9343 70.2169 38.8742 70.1969 38.8091C70.1769 38.744 70.1709 38.6755 70.1792 38.6079C70.1802 38.5369 70.1957 38.467 70.2249 38.4023C70.2541 38.3376 70.2962 38.2796 70.3487 38.2319C70.4012 38.1841 70.463 38.1477 70.5301 38.1248C70.5973 38.102 70.6684 38.0931 70.7392 38.0989H73.8612V37.5219H71.7222C71.6091 37.5295 71.4957 37.5142 71.3887 37.477C71.2816 37.4398 71.1832 37.3814 71.0992 37.3054C71.0152 37.2293 70.9474 37.1371 70.8998 37.0343C70.8522 36.9315 70.8258 36.8201 70.8222 36.7069V33.3649C71.4759 33.3446 72.1156 33.1702 72.6892 32.8559C72.8072 32.7559 73.0622 32.7879 73.0622 32.9749V33.4999C73.3215 33.3979 73.5892 33.3186 73.8622 33.2629V32.5679H70.9422C70.8262 32.556 70.7182 32.5034 70.6374 32.4193C70.5567 32.3352 70.5084 32.2252 70.5012 32.1089C70.4852 32.0312 70.4876 31.9508 70.5083 31.8743C70.529 31.7977 70.5673 31.727 70.6202 31.6679C70.6841 31.6026 70.7608 31.5512 70.8454 31.5168C70.93 31.4824 71.0208 31.4658 71.1122 31.4679H73.8612V30.4999ZM73.8942 34.2839C73.5987 34.3255 73.3086 34.3992 73.0292 34.5039V34.7759H73.8942V34.2839ZM73.0632 36.4389H73.8942V35.8449H73.0632V36.4389ZM77.1362 34.5219C77.1389 34.4765 77.1321 34.4311 77.1159 34.3886C77.0998 34.3461 77.0749 34.3074 77.0427 34.2753C77.0106 34.2432 76.972 34.2182 76.9295 34.2021C76.887 34.186 76.8415 34.1791 76.7962 34.1819H76.2702V34.7429H77.1362V34.5219ZM76.2702 36.3999H77.1352V35.8239H76.2702V36.3999ZM84.5342 27.2199C84.6315 27.243 84.7228 27.2868 84.8018 27.3482C84.8808 27.4096 84.9457 27.4873 84.9922 27.5759C85.0253 27.6508 85.0425 27.7319 85.0425 27.8139C85.0425 27.8959 85.0253 27.9769 84.9922 28.0519C84.954 28.1187 84.9028 28.1772 84.8417 28.2239C84.7806 28.2706 84.7107 28.3046 84.6362 28.3239C83.8722 28.3909 82.5992 28.5769 82.3452 27.8479C82.1564 27.2835 82.0477 26.6954 82.0222 26.1009C82.025 26.047 82.0422 25.9949 82.0722 25.95C82.1021 25.9052 82.1435 25.8692 82.1922 25.8459C82.5492 25.8629 82.8372 26.0159 83.1772 26.0459C83.5692 26.1134 83.9664 26.1468 84.3642 26.1459L84.5342 27.2199Z" fill="white"/>
<path id="Path 8498" d="M94.2472 40.1347C93.6022 40.1347 93.6192 39.0657 94.2642 39.0657H94.8232V35.6557C95.6108 35.6819 96.3907 35.4943 97.0802 35.1127C97.2332 35.0787 97.4872 35.1637 97.4872 35.3497V36.0797C98.6358 35.6359 99.8558 35.4058 101.087 35.4007H106.487C106.922 35.43 107.33 35.6206 107.631 35.9351C107.932 36.2496 108.105 36.6653 108.115 37.1007L108.132 38.9667H108.675C108.83 38.9598 108.982 39.0149 109.097 39.1198C109.211 39.2247 109.28 39.3709 109.287 39.5262C109.294 39.6815 109.239 39.8331 109.134 39.9478C109.029 40.0625 108.882 40.1308 108.727 40.1377L94.2472 40.1347ZM95.0102 29.4997C95.5938 28.3283 96.0873 27.1141 96.4862 25.8677C97.2722 25.9167 98.0595 25.7953 98.7942 25.5117C98.8571 25.5003 98.922 25.509 98.9798 25.5365C99.0375 25.5639 99.0852 25.6087 99.1162 25.6647C99.0779 25.9865 98.9923 26.3009 98.8622 26.5977C100.729 25.9198 102.723 25.6703 104.699 25.8677C105.05 25.8812 105.393 25.9773 105.7 26.1483C106.006 26.3193 106.268 26.5603 106.464 26.8517C106.871 27.7007 107.176 28.5997 107.617 29.4147L108.533 29.3967C109.333 29.3797 109.333 30.5167 108.669 30.5167H106.5C106.231 30.5358 105.962 30.4905 105.714 30.3843C105.466 30.2782 105.247 30.1145 105.075 29.9067H97.6072C97.4587 30.108 97.2591 30.2661 97.0292 30.3647C96.7448 30.5073 96.4313 30.5825 96.1132 30.5847H94.4002C94.3231 30.5915 94.2454 30.582 94.1722 30.5568C94.0989 30.5317 94.0318 30.4914 93.9751 30.4387C93.9184 30.386 93.8735 30.3219 93.8431 30.2507C93.8127 30.1795 93.7977 30.1027 93.7989 30.0253C93.8001 29.9479 93.8175 29.8716 93.85 29.8013C93.8826 29.7311 93.9295 29.6684 93.9878 29.6175C94.0461 29.5665 94.1144 29.5284 94.1884 29.5055C94.2624 29.4826 94.3403 29.4755 94.4172 29.4847L95.0102 29.4997ZM95.4352 31.1447C96.2316 31.1987 97.0266 31.0219 97.7252 30.6357C97.7707 30.624 97.8184 30.6232 97.8643 30.6334C97.9103 30.6435 97.9531 30.6643 97.9895 30.6941C98.0259 30.7239 98.0548 30.7618 98.0739 30.8048C98.0929 30.8478 98.1016 30.8947 98.0992 30.9417V31.6537C98.9933 31.1951 99.9779 30.9403 100.982 30.9077H105.717C105.919 30.8878 106.124 30.9087 106.318 30.9692C106.512 31.0297 106.691 31.1286 106.847 31.2599C107.002 31.3912 107.129 31.5523 107.22 31.7337C107.312 31.915 107.366 32.1129 107.38 32.3157V34.1307C107.376 34.2327 107.35 34.3327 107.305 34.4244C107.26 34.516 107.196 34.5973 107.118 34.6631C107.04 34.7289 106.949 34.7778 106.851 34.8066C106.753 34.8355 106.65 34.8437 106.549 34.8307H96.1642C95.9615 34.817 95.7716 34.7267 95.6331 34.5781C95.4946 34.4295 95.4177 34.2338 95.4182 34.0307L95.4352 31.1447ZM98.4882 36.7607C98.151 36.7536 97.8162 36.8173 97.5052 36.9477V39.0177H98.4882V36.7607ZM104.597 28.7867C104.437 28.2419 104.201 27.7223 103.897 27.2427C103.752 27.0867 103.563 26.9797 103.354 26.9367C101.745 26.7545 100.115 26.9402 98.5872 27.4797C98.4342 27.9377 98.2302 28.3447 98.0772 28.8027L104.597 28.7867ZM104.732 32.5527C104.743 32.482 104.737 32.4098 104.716 32.3416C104.694 32.2734 104.658 32.2108 104.609 32.1586C104.56 32.1065 104.5 32.0659 104.434 32.0402C104.367 32.0144 104.295 32.0039 104.224 32.0097H100.324C99.5693 32.0107 98.8233 32.173 98.1362 32.4857L98.1182 33.7577H104.735L104.732 32.5527ZM101 38.9997H101.95V36.4867H101V38.9997ZM104.461 36.4367V38.9647H105.461L105.478 36.8647C105.458 36.7623 105.408 36.668 105.336 36.5927C105.264 36.5174 105.172 36.4643 105.07 36.4397L104.461 36.4367Z" fill="white"/>
<path id="Path 8499" d="M118.365 40.0497C118.254 40.0852 118.135 40.0897 118.022 40.0628C117.908 40.0358 117.804 39.9784 117.721 39.8967C117.653 39.8121 117.609 39.7106 117.594 39.603C117.579 39.4954 117.594 39.3857 117.636 39.2857C117.7 39.1766 117.794 39.0883 117.907 39.0317L119.52 38.6237L119.536 33.1777H118.416C117.806 33.1777 117.771 32.0777 118.383 32.0777H119.5L119.483 27.7507L118.092 27.7677C117.753 27.7677 117.617 27.4797 117.617 27.2077C117.609 27.0711 117.653 26.9365 117.742 26.8321C117.83 26.7277 117.956 26.6616 118.092 26.6477H123.539C124.184 26.6477 124.184 27.7167 123.487 27.7167H122.113V32.0777H123.335C123.473 32.0861 123.603 32.147 123.698 32.2479C123.793 32.3488 123.846 32.4821 123.846 32.6207C123.846 32.7593 123.793 32.8926 123.698 32.9935C123.603 33.0944 123.473 33.1553 123.335 33.1637H122.182L122.198 37.9817L123.844 37.5927C123.928 37.584 124.013 37.5947 124.093 37.624C124.172 37.6533 124.244 37.7004 124.302 37.7617C124.357 37.8196 124.398 37.8896 124.422 37.9662C124.445 38.0428 124.45 38.1238 124.437 38.2027C124.437 38.2767 124.416 38.3493 124.378 38.4123C124.339 38.4754 124.283 38.5264 124.217 38.5597L118.365 40.0497ZM123.71 40.7627C123.031 40.7627 122.93 39.6627 123.676 39.6767L125.102 39.6927V32.1427H123.914C123.763 32.1495 123.616 32.0961 123.505 31.9942C123.393 31.8924 123.327 31.7505 123.32 31.5997C123.313 31.4489 123.367 31.3016 123.468 31.1902C123.57 31.0788 123.712 31.0125 123.863 31.0057H132.482C133.094 31.0057 133.145 32.0917 132.5 32.0917H131.244L131.227 39.6427L132.5 39.6257C133.2 39.6077 133.212 40.7117 132.584 40.7117H129.972C129.634 40.7137 129.308 40.5836 129.064 40.3491C128.819 40.1145 128.676 39.794 128.665 39.4557L128.647 32.1257H127.647V39.5577C127.647 39.8742 127.523 40.178 127.3 40.4035C127.078 40.6289 126.776 40.758 126.46 40.7627H123.71ZM124.542 27.2897C124.404 27.2837 124.274 27.2248 124.179 27.1252C124.083 27.0257 124.03 26.8931 124.03 26.7552C124.03 26.6173 124.083 26.4848 124.179 26.3852C124.274 26.2856 124.404 26.2267 124.542 26.2207H131.362C132.062 26.2207 132.075 27.2897 131.414 27.2897H124.542Z" fill="white"/>
<path id="Path 8500" d="M162.621 56.7349H162.145C161.984 56.7349 161.83 56.6711 161.717 56.5574C161.603 56.4438 161.539 56.2897 161.539 56.1289C161.539 55.9682 161.603 55.8141 161.717 55.7004C161.83 55.5868 161.984 55.5229 162.145 55.5229H162.621C163.162 55.5224 163.681 55.3073 164.063 54.9249C164.445 54.5424 164.661 54.0238 164.661 53.4829V12.3379C164.661 11.797 164.446 11.2782 164.063 10.8957C163.681 10.5132 163.162 10.2982 162.621 10.2979H160.521C160.36 10.2979 160.206 10.2341 160.093 10.1204C159.979 10.0068 159.915 9.85266 159.915 9.69194C159.915 9.53122 159.979 9.37708 160.093 9.26343C160.206 9.14978 160.36 9.08594 160.521 9.08594H162.621C163.483 9.08726 164.309 9.43034 164.919 10.0399C165.528 10.6496 165.871 11.476 165.872 12.3379V53.4829C165.871 54.3449 165.528 55.1713 164.919 55.7809C164.309 56.3905 163.483 56.7336 162.621 56.7349ZM151.74 56.7349H149.124C148.963 56.7349 148.809 56.6711 148.696 56.5574C148.582 56.4438 148.518 56.2897 148.518 56.1289C148.518 55.9682 148.582 55.8141 148.696 55.7004C148.809 55.5868 148.963 55.5229 149.124 55.5229H151.74C151.901 55.5229 152.055 55.5868 152.169 55.7004C152.282 55.8141 152.346 55.9682 152.346 56.1289C152.346 56.2897 152.282 56.4438 152.169 56.5574C152.055 56.6711 151.901 56.7349 151.74 56.7349ZM142.879 56.7349H130.393C130.232 56.7349 130.078 56.6711 129.965 56.5574C129.851 56.4438 129.787 56.2897 129.787 56.1289C129.787 55.9682 129.851 55.8141 129.965 55.7004C130.078 55.5868 130.232 55.5229 130.393 55.5229H142.879C143.04 55.5229 143.194 55.5868 143.308 55.7004C143.421 55.8141 143.485 55.9682 143.485 56.1289C143.485 56.2897 143.421 56.4438 143.308 56.5574C143.194 56.6711 143.04 56.7349 142.879 56.7349ZM101.715 56.7349H87.9281C87.7673 56.7349 87.6132 56.6711 87.4996 56.5574C87.3859 56.4438 87.3221 56.2897 87.3221 56.1289C87.3221 55.9682 87.3859 55.8141 87.4996 55.7004C87.6132 55.5868 87.7673 55.5229 87.9281 55.5229H101.715C101.876 55.5229 102.03 55.5868 102.144 55.7004C102.257 55.8141 102.321 55.9682 102.321 56.1289C102.321 56.2897 102.257 56.4438 102.144 56.5574C102.03 56.6711 101.876 56.7349 101.715 56.7349ZM77.5221 56.7349H71.1691C71.0083 56.7349 70.8542 56.6711 70.7406 56.5574C70.6269 56.4438 70.5631 56.2897 70.5631 56.1289C70.5631 55.9682 70.6269 55.8141 70.7406 55.7004C70.8542 55.5868 71.0083 55.5229 71.1691 55.5229H77.5221C77.6828 55.5229 77.8369 55.5868 77.9506 55.7004C78.0642 55.8141 78.1281 55.9682 78.1281 56.1289C78.1281 56.2897 78.0642 56.4438 77.9506 56.5574C77.8369 56.6711 77.6828 56.7349 77.5221 56.7349ZM64.9221 56.7349H52.4381C52.2773 56.7349 52.1232 56.6711 52.0096 56.5574C51.8959 56.4438 51.8321 56.2897 51.8321 56.1289C51.8321 55.9682 51.8959 55.8141 52.0096 55.7004C52.1232 55.5868 52.2773 55.5229 52.4381 55.5229H64.9261C65.0868 55.5229 65.2409 55.5868 65.3546 55.7004C65.4682 55.8141 65.5321 55.9682 65.5321 56.1289C65.5321 56.2897 65.4682 56.4438 65.3546 56.5574C65.2409 56.6711 65.0868 56.7349 64.9261 56.7349M19.6041 56.7349H15.4101C14.5481 56.7336 13.7218 56.3905 13.1124 55.7809C12.5029 55.1713 12.1601 54.3449 12.1591 53.4829V12.3359C12.1601 11.4743 12.5029 10.6483 13.1121 10.039C13.7214 9.42975 14.5474 9.087 15.4091 9.08594H17.9841C18.1448 9.08594 18.2989 9.14978 18.4126 9.26343C18.5262 9.37708 18.5901 9.53122 18.5901 9.69194C18.5901 9.85266 18.5262 10.0068 18.4126 10.1204C18.2989 10.2341 18.1448 10.2979 17.9841 10.2979H15.4091C14.8687 10.2985 14.3506 10.5134 13.9686 10.8954C13.5865 11.2775 13.3716 11.7956 13.3711 12.3359V53.4829C13.3713 54.0237 13.5862 54.5423 13.9685 54.9248C14.3508 55.3073 14.8693 55.5224 15.4101 55.5229H19.6001C19.7608 55.5229 19.9149 55.5868 20.0286 55.7004C20.1422 55.8141 20.2061 55.9682 20.2061 56.1289C20.2061 56.2897 20.1422 56.4438 20.0286 56.5574C19.9149 56.6711 19.7608 56.7349 19.6001 56.7349M130.853 10.2999H118.366C118.205 10.2999 118.051 10.2361 117.938 10.1224C117.824 10.0088 117.76 9.85466 117.76 9.69394C117.76 9.53322 117.824 9.37908 117.938 9.26543C118.051 9.15178 118.205 9.08794 118.366 9.08794H130.853C130.933 9.08794 131.011 9.10361 131.085 9.13407C131.158 9.16452 131.225 9.20916 131.282 9.26543C131.338 9.3217 131.382 9.38851 131.413 9.46203C131.443 9.53555 131.459 9.61436 131.459 9.69394C131.459 9.77352 131.443 9.85232 131.413 9.92584C131.382 9.99937 131.338 10.0662 131.282 10.1224C131.225 10.1787 131.158 10.2234 131.085 10.2538C131.011 10.2843 130.933 10.2999 130.853 10.2999ZM112.122 10.2999H110.5C110.42 10.2999 110.342 10.2843 110.268 10.2538C110.195 10.2234 110.128 10.1787 110.072 10.1224C110.015 10.0662 109.971 9.99937 109.94 9.92584C109.91 9.85232 109.894 9.77352 109.894 9.69394C109.894 9.61436 109.91 9.53555 109.94 9.46203C109.971 9.38851 110.015 9.3217 110.072 9.26543C110.128 9.20916 110.195 9.16452 110.268 9.13407C110.342 9.10361 110.42 9.08794 110.5 9.08794H112.121C112.282 9.08794 112.436 9.15178 112.55 9.26543C112.663 9.37908 112.727 9.53322 112.727 9.69394C112.727 9.85466 112.663 10.0088 112.55 10.1224C112.436 10.2361 112.283 10.2999 112.122 10.2999ZM100.094 10.2999H86.3071C86.1463 10.2999 85.9922 10.2361 85.8786 10.1224C85.7649 10.0088 85.701 9.85466 85.701 9.69394C85.701 9.53322 85.7649 9.37908 85.8786 9.26543C85.9922 9.15178 86.1463 9.08794 86.3071 9.08794H100.1C100.261 9.08794 100.415 9.15178 100.529 9.26543C100.642 9.37908 100.706 9.53322 100.706 9.69394C100.706 9.85466 100.642 10.0088 100.529 10.1224C100.415 10.2361 100.261 10.2999 100.1 10.2999M52.9001 10.2999H40.4111C40.2503 10.2999 40.0962 10.2361 39.9826 10.1224C39.8689 10.0088 39.8051 9.85466 39.8051 9.69394C39.8051 9.53322 39.8689 9.37908 39.9826 9.26543C40.0962 9.15178 40.2503 9.08794 40.4111 9.08794H52.9001C52.9796 9.08794 53.0584 9.10361 53.132 9.13407C53.2055 9.16452 53.2723 9.20916 53.3286 9.26543C53.3848 9.3217 53.4295 9.38851 53.4599 9.46203C53.4904 9.53555 53.5061 9.61436 53.5061 9.69394C53.5061 9.77352 53.4904 9.85232 53.4599 9.92584C53.4295 9.99937 53.3848 10.0662 53.3286 10.1224C53.2723 10.1787 53.2055 10.2234 53.132 10.2538C53.0584 10.2843 52.9796 10.2999 52.9001 10.2999ZM34.1691 10.2999H28.3891C28.2283 10.2999 28.0742 10.2361 27.9606 10.1224C27.8469 10.0088 27.7831 9.85466 27.7831 9.69394C27.7831 9.53322 27.8469 9.37908 27.9606 9.26543C28.0742 9.15178 28.2283 9.08794 28.3891 9.08794H34.1681C34.3288 9.08794 34.4829 9.15178 34.5966 9.26543C34.7102 9.37908 34.7741 9.53322 34.7741 9.69394C34.7741 9.85466 34.7102 10.0088 34.5966 10.1224C34.4829 10.2361 34.3298 10.2999 34.1691 10.2999Z" fill="white"/>
</g>
</svg>
