<svg width="175" height="70" viewBox="0 0 175 70" fill="none" xmlns="http://www.w3.org/2000/svg">
<g id="button_save">
<path id="Path 8501" d="M165.133 2.10469e-07H12.981C11.3585 -0.000335116 9.76113 0.400024 8.33063 1.16552C6.90012 1.93101 5.68081 3.03795 4.78099 4.388C4.74799 4.435 4.71098 4.477 4.68098 4.523C4.65098 4.569 4.61199 4.611 4.58099 4.658C4.54999 4.705 4.51199 4.746 4.48099 4.793C4.44999 4.84 4.412 4.881 4.381 4.928C4.35 4.975 4.31199 5.016 4.28099 5.062C4.24999 5.108 4.21198 5.15 4.18098 5.197C4.14998 5.244 4.11199 5.285 4.08099 5.332C4.04999 5.379 4.01199 5.42 3.98099 5.467C3.94999 5.514 3.912 5.555 3.881 5.602C3.85 5.649 3.81099 5.69 3.78099 5.736C3.75099 5.782 3.71198 5.825 3.68098 5.872C3.64998 5.919 3.61299 5.959 3.58099 6.006C3.54899 6.053 3.51199 6.094 3.48099 6.141C3.44999 6.188 3.412 6.229 3.381 6.276C3.35 6.323 3.31199 6.364 3.28099 6.411C3.24999 6.458 3.21198 6.499 3.18098 6.546C3.14998 6.593 3.11199 6.633 3.08099 6.68C3.04999 6.727 3.01199 6.768 2.98099 6.815C2.94999 6.862 2.911 6.903 2.881 6.95C2.851 6.997 2.81199 7.038 2.78099 7.085C2.74999 7.132 2.71298 7.173 2.68098 7.219C2.64898 7.265 2.61099 7.308 2.58099 7.354C2.55099 7.4 2.51199 7.442 2.48099 7.489C2.44999 7.536 2.412 7.577 2.381 7.624C2.35 7.671 2.31199 7.712 2.28099 7.759C2.24999 7.806 2.21198 7.846 2.18098 7.893C2.14998 7.94 2.11099 7.981 2.08099 8.029C2.05099 8.077 2.01099 8.116 1.98099 8.163C1.95099 8.21 1.912 8.251 1.881 8.298C1.85 8.345 1.81199 8.386 1.78099 8.433C0.632135 10.0793 0.0160783 12.0385 0.0159912 14.046V60.133C0.0162527 62.7472 1.05383 65.2545 2.90096 67.1044C4.74808 68.9544 7.25379 69.9958 9.868 70H162.02C163.642 70 165.24 69.5993 166.67 68.8337C168.101 68.068 169.32 66.9611 170.22 65.611C170.252 65.565 170.288 65.523 170.32 65.477C170.352 65.431 170.389 65.388 170.42 65.341C170.451 65.294 170.49 65.253 170.52 65.206C170.55 65.159 170.589 65.119 170.62 65.072C170.651 65.025 170.689 64.984 170.72 64.937C170.751 64.89 170.79 64.849 170.82 64.803C170.85 64.757 170.889 64.714 170.92 64.667C170.951 64.62 170.989 64.58 171.02 64.533C171.051 64.486 171.089 64.445 171.12 64.398C171.151 64.351 171.189 64.31 171.22 64.263C171.251 64.216 171.289 64.175 171.32 64.128C171.351 64.081 171.389 64.041 171.42 63.994C171.451 63.947 171.49 63.906 171.52 63.859C171.55 63.812 171.589 63.771 171.62 63.724C171.651 63.677 171.69 63.636 171.72 63.589C171.75 63.542 171.789 63.501 171.82 63.454C171.851 63.407 171.888 63.366 171.92 63.319C171.952 63.272 171.989 63.231 172.02 63.185C172.051 63.139 172.089 63.097 172.12 63.049C172.151 63.001 172.189 62.962 172.22 62.915C172.251 62.868 172.289 62.827 172.32 62.78C172.351 62.733 172.388 62.692 172.42 62.646C172.452 62.6 172.489 62.557 172.52 62.51C172.551 62.463 172.59 62.422 172.62 62.375C172.65 62.328 172.689 62.288 172.72 62.241C172.751 62.194 172.789 62.153 172.82 62.106C172.851 62.059 172.889 62.018 172.92 61.971C172.951 61.924 172.989 61.883 173.02 61.836C173.051 61.789 173.089 61.748 173.12 61.701C173.151 61.654 173.189 61.614 173.22 61.567C174.37 59.9207 174.986 57.961 174.985 55.953V9.867C174.985 7.25262 173.948 4.74503 172.101 2.89498C170.253 1.04494 167.747 0.00371003 165.133 2.10469e-07Z" fill="#2576A2"/>
<path id="Path 8502" d="M165.092 0H12.9401C10.3233 0.000265168 7.81376 1.03991 5.96339 2.89027C4.11303 4.74063 3.07339 7.25019 3.07312 9.867V55.954C3.07339 58.5708 4.11303 61.0804 5.96339 62.9307C7.81376 64.7811 10.3233 65.8207 12.9401 65.821H165.092C167.709 65.821 170.219 64.7814 172.069 62.931C173.92 61.0806 174.959 58.5709 174.959 55.954V9.867C174.959 7.25011 173.92 4.7404 172.069 2.88998C170.219 1.03956 167.709 0 165.092 0Z" fill="#3DB0F4"/>
<path id="Path 8503" d="M51.8661 36.7888C51.9747 36.961 52.028 37.1623 52.0191 37.3658V42.0828C52.0277 42.1647 52.0192 42.2475 51.9944 42.3261C51.9695 42.4046 51.9288 42.4772 51.8746 42.5393C51.8205 42.6014 51.7542 42.6517 51.6798 42.6871C51.6053 42.7224 51.5244 42.7421 51.4421 42.7448H48.3701C48.0481 42.7448 47.7101 42.6258 47.7101 42.2178V36.8568C48.2274 36.7644 48.7225 36.5747 49.1691 36.2978C49.1932 36.276 49.2229 36.2615 49.2549 36.256C49.2869 36.2504 49.3198 36.254 49.3498 36.2663C49.3798 36.2787 49.4057 36.2993 49.4245 36.3257C49.4433 36.3521 49.4543 36.3834 49.4561 36.4158V36.9928C49.994 36.6085 50.6459 36.4172 51.3061 36.4498C51.2724 36.2957 51.29 36.1349 51.3561 35.9918C51.4444 35.8985 51.555 35.8293 51.6775 35.7906C51.7999 35.7519 51.9302 35.7451 52.0561 35.7708C52.2411 35.2448 52.4111 34.7188 52.5641 34.1708H51.9011C51.8174 34.1588 51.7376 34.1277 51.668 34.0797C51.5984 34.0318 51.5408 33.9684 51.4999 33.8945C51.4589 33.8205 51.4356 33.7381 51.4318 33.6537C51.428 33.5692 51.4439 33.4851 51.4781 33.4078C51.5178 33.3127 51.5831 33.2305 51.6668 33.1705C51.7505 33.1104 51.8493 33.0749 51.9521 33.0678H53.9051V31.2068H52.5481C52.4253 31.1975 52.3108 31.1412 52.2286 31.0495C52.1464 30.9578 52.1029 30.8378 52.1071 30.7148C51.9716 30.7714 51.8276 30.8052 51.6811 30.8148H47.7961C47.6441 31.7648 47.4741 32.5628 47.1851 34.0398V42.7598C47.1691 42.9468 47.0851 43.0488 46.8981 43.0488H44.9981C44.9623 43.0493 44.9269 43.0427 44.8937 43.0292C44.8606 43.0158 44.8305 42.9959 44.8053 42.9706C44.78 42.9453 44.76 42.9152 44.7466 42.8821C44.7332 42.849 44.7265 42.8135 44.7271 42.7778V35.8048L44.0271 35.8218C43.9226 35.8145 43.8237 35.7718 43.7468 35.7007C43.6699 35.6296 43.6195 35.5344 43.6041 35.4308C43.555 35.2741 43.5675 35.1045 43.6391 34.9568C43.6847 34.8753 43.751 34.8073 43.8312 34.7596C43.9114 34.7118 44.0028 34.686 44.0961 34.6848H44.5041C45.0178 32.6106 45.4025 30.5065 45.6561 28.3848C46.4048 28.3851 47.1433 28.2112 47.8131 27.8768C47.8649 27.8669 47.9185 27.8728 47.9668 27.8939C48.0152 27.915 48.056 27.9501 48.0841 27.9948C48.0661 28.5805 48.0093 29.1645 47.9141 29.7428H48.8811C48.7819 29.2715 48.6222 28.8151 48.4061 28.3848C48.4401 27.9778 48.8991 28.1648 49.1351 28.0448C49.4734 27.9729 49.7997 27.853 50.1041 27.6888C50.4771 27.6218 50.4411 28.0448 50.5941 28.2318C50.7728 28.6082 50.8767 29.0157 50.9001 29.4318C50.7352 29.5842 50.5289 29.6844 50.3071 29.7198L51.8671 29.7538C52.0371 29.7538 52.3591 30.0088 52.2911 30.2118C52.3911 30.1448 52.5801 30.1778 52.7321 30.1778H53.9041V28.3558C54.6364 28.3551 55.3556 28.1624 55.9901 27.7968C56.1091 27.7968 56.2951 27.7788 56.2951 27.9658V30.1878H56.9951L57.0951 29.7988C57.5985 29.8298 58.1035 29.7723 58.5871 29.6288C58.7391 29.5938 58.8941 29.6628 58.8761 29.8658C58.6221 30.9518 58.3161 32.0048 57.9931 33.0728H58.5541C58.7921 33.0728 59.0281 33.5138 58.9091 33.8538C58.8658 33.9413 58.8014 34.0166 58.7215 34.0729C58.6417 34.1291 58.5491 34.1645 58.4521 34.1758H54.3621C54.2104 34.5565 54.0858 34.9475 53.9891 35.3458C54.1998 35.3012 54.3973 35.2085 54.5661 35.0748C54.7201 34.9908 54.9391 34.9908 54.9741 35.2118V35.8218C55.5803 35.4104 56.2696 35.1373 56.9931 35.0218C57.1509 34.9911 57.3135 34.9965 57.469 35.0374C57.6244 35.0784 57.7686 35.1538 57.8908 35.2582C58.0131 35.3626 58.1102 35.4931 58.175 35.6402C58.2398 35.7873 58.2706 35.9471 58.2651 36.1078V42.1998C58.2621 42.3504 58.2033 42.4947 58.1 42.6044C57.9967 42.7142 57.8563 42.7816 57.7061 42.7938H53.1901C53.0372 42.7992 52.8875 42.7489 52.769 42.6521C52.6505 42.5553 52.5712 42.4187 52.5461 42.2678V36.7888H51.8661ZM48.2351 35.4148C48.1519 35.419 48.069 35.4024 47.9938 35.3664C47.9187 35.3304 47.8537 35.2762 47.8048 35.2088C47.7559 35.1413 47.7247 35.0627 47.7139 34.9801C47.7031 34.8975 47.7132 34.8135 47.7431 34.7358C47.7752 34.6405 47.8339 34.5564 47.9122 34.4933C47.9905 34.4303 48.0852 34.3909 48.1851 34.3798H51.2731C51.3757 34.3944 51.4729 34.4348 51.5557 34.497C51.6386 34.5592 51.7044 34.6413 51.7471 34.7358C51.7638 34.8094 51.7655 34.8856 51.7523 34.9599C51.739 35.0342 51.711 35.105 51.6699 35.1683C51.6288 35.2316 51.5754 35.286 51.5129 35.3284C51.4504 35.3707 51.3801 35.4001 51.3061 35.4148H48.2351ZM51.3921 32.0888C51.6281 32.0888 51.7821 32.3428 51.8331 32.4788C51.8571 32.571 51.8538 32.6681 51.8236 32.7585C51.7934 32.8488 51.7377 32.9285 51.6631 32.9878C51.586 33.066 51.4835 33.1142 51.3741 33.1238H48.2181C48.1296 33.1113 48.0447 33.0808 47.9687 33.0339C47.8926 32.9871 47.827 32.9251 47.7761 32.8518C47.7156 32.7247 47.7038 32.5799 47.7431 32.4448C47.7734 32.3484 47.8316 32.2633 47.9103 32.1999C47.9889 32.1366 48.0845 32.0979 48.1851 32.0888H51.3921ZM50.1921 37.8748C50.1921 37.3148 49.6491 37.5868 49.4451 37.7748V41.6948H50.1921V37.8748ZM55.8751 36.5858C55.8751 36.0258 55.1471 36.4658 54.9751 36.5688V38.3838H55.8751V36.5858ZM55.8751 39.4358H54.9751V41.7268H55.8751V39.4358ZM56.2151 32.9028C56.4452 32.353 56.6269 31.7841 56.7581 31.2028H56.2151V32.9028Z" fill="#2298F4"/>
<path id="Path 8504" d="M69.47 43.1857C69.412 43.1665 69.3598 43.1332 69.318 43.0886C69.2763 43.0441 69.2464 42.9898 69.231 42.9307V36.9417L67.942 36.9237C67.8407 36.8909 67.749 36.8336 67.6752 36.7569C67.6014 36.6801 67.5477 36.5862 67.519 36.4837C67.5062 36.3955 67.5133 36.3056 67.5396 36.2205C67.5658 36.1354 67.6108 36.0572 67.671 35.9917C68.026 35.6347 68.706 36.0427 69.046 35.6517C69.894 34.2267 70.675 32.8187 71.386 31.3257H68.011C67.823 31.3257 67.585 31.0537 67.534 30.9007C67.5129 30.8111 67.5143 30.7177 67.5382 30.6289C67.5622 30.54 67.6078 30.4585 67.671 30.3917L68.011 30.2397L71.929 30.2057L72.778 28.2877C73.5607 28.3072 74.341 28.1925 75.085 27.9487C75.1617 27.9262 75.2439 27.9328 75.316 27.9671C75.3881 28.0014 75.4451 28.061 75.476 28.1347V28.3347L74.661 30.2017H82.28C82.3957 30.2236 82.5041 30.2737 82.5958 30.3475C82.6876 30.4213 82.7597 30.5164 82.806 30.6247C82.8292 30.7079 82.8337 30.7953 82.8192 30.8806C82.8046 30.9658 82.7715 31.0467 82.722 31.1177C82.6614 31.1831 82.5875 31.2348 82.5052 31.2693C82.4229 31.3038 82.3342 31.3203 82.245 31.3177L74.169 31.2997L72.862 33.9637L71.878 35.7967L71.895 42.8887C71.895 43.0417 71.827 43.1777 71.695 43.1777L69.47 43.1857ZM75.458 35.9407C74.849 35.9227 74.813 34.8407 75.425 34.8407H77.513L77.767 34.7057L78.835 33.5687C78.835 33.5017 78.886 33.4497 78.853 33.3817L78.733 33.2977L74.339 33.3147C74.2206 33.284 74.1125 33.2222 74.026 33.1357C73.9395 33.0492 73.8777 32.9411 73.847 32.8227C73.8356 32.7355 73.845 32.6469 73.8746 32.5641C73.9041 32.4814 73.953 32.4068 74.017 32.3467C74.1171 32.2635 74.242 32.216 74.372 32.2117L81.194 32.1947C81.4909 32.232 81.7661 32.3696 81.974 32.5847C82.0841 32.7387 82.1488 32.9205 82.1609 33.1094C82.1729 33.2984 82.1317 33.4869 82.042 33.6537C81.494 34.4391 80.8301 35.137 80.073 35.7237C79.6956 35.9115 79.2724 35.9882 78.853 35.9447L78.87 37.1667H82.229C82.3502 37.1785 82.4669 37.2184 82.57 37.2831C82.6731 37.3479 82.7597 37.4357 82.823 37.5397C82.8451 37.6321 82.8475 37.7282 82.8303 37.8217C82.8131 37.9152 82.7766 38.0041 82.723 38.0827C82.6682 38.1442 82.5995 38.1917 82.5226 38.2212C82.4458 38.2508 82.3629 38.2616 82.281 38.2527L78.854 38.2687L78.836 41.8827C78.8023 42.2019 78.6696 42.5027 78.4566 42.7429C78.2437 42.9832 77.9609 43.1509 77.648 43.2227H74.426C74.3423 43.2026 74.2643 43.1635 74.1981 43.1083C74.132 43.0531 74.0795 42.9834 74.0449 42.9046C74.0102 42.8257 73.9942 42.7399 73.9983 42.6539C74.0023 42.5679 74.0262 42.4839 74.068 42.4087C74.1791 42.261 74.3441 42.1632 74.527 42.1367H75.94C75.9931 42.1198 76.0417 42.0914 76.0825 42.0535C76.1233 42.0157 76.1552 41.9693 76.176 41.9177L76.193 38.2687H72.766C72.6571 38.2603 72.5519 38.225 72.4601 38.1658C72.3682 38.1066 72.2926 38.0254 72.24 37.9297C72.208 37.8446 72.1944 37.7537 72.2003 37.663C72.2061 37.5723 72.2313 37.4839 72.274 37.4037C72.3781 37.2822 72.5234 37.2035 72.682 37.1827H76.176L76.193 35.9617L75.458 35.9407Z" fill="#2298F4"/>
<path id="Path 8505" d="M93.1819 41.7097C93.22 42.0922 93.1368 42.4771 92.9439 42.8097C92.7858 42.9763 92.5858 43.0973 92.3648 43.16C92.1438 43.2226 91.91 43.2246 91.6879 43.1657C91.6042 43.1325 91.5297 43.0798 91.4706 43.0119C91.4114 42.9441 91.3694 42.8631 91.3479 42.7757C91.331 42.666 91.3424 42.5539 91.3811 42.4499C91.4198 42.3459 91.4845 42.2536 91.5689 42.1817C91.6993 42.1141 91.848 42.0903 91.9929 42.1137V39.0627C92.3375 39.0105 92.6737 38.9133 92.9929 38.7737C93.0198 38.7708 93.0471 38.7734 93.0729 38.7813C93.0988 38.7892 93.1228 38.8023 93.1435 38.8198C93.1641 38.8373 93.181 38.8588 93.1931 38.883C93.2053 38.9072 93.2123 38.9336 93.2139 38.9607L93.1819 41.7097ZM103.872 28.4247C104.622 28.5486 105.392 28.4602 106.094 28.1697C106.144 28.1603 106.195 28.1652 106.242 28.1836C106.289 28.2021 106.33 28.2334 106.36 28.274C106.39 28.3146 106.408 28.3628 106.412 28.4131C106.416 28.4635 106.405 28.5139 106.382 28.5587C106.094 29.1197 105.823 29.9847 105.059 29.9847H99.1709V31.5127C99.4929 31.4437 99.8499 31.3127 100.188 31.2237C101.613 30.9501 103.066 30.8417 104.516 30.9007C104.849 30.8678 105.185 30.9341 105.48 31.0912C105.776 31.2483 106.019 31.4892 106.178 31.7837C106.355 32.4183 106.396 33.0831 106.298 33.7347C106.272 33.8687 106.203 33.9908 106.102 34.0825C106.001 34.1743 105.873 34.2308 105.737 34.2437L99.1709 34.2607V41.9467C99.1744 42.2479 99.0623 42.5391 98.8577 42.7602C98.6531 42.9814 98.3715 43.1157 98.0709 43.1357H96.4249C96.1912 43.1334 95.9669 43.0429 95.7971 42.8823C95.6272 42.7217 95.5243 42.5029 95.5089 42.2697V38.9777C95.5089 38.8247 95.6609 38.7237 95.7449 38.7917C96.0507 38.9215 96.3695 39.018 96.6959 39.0797V42.1337L97.1199 42.1167V38.0277C96.9393 38.1779 96.7097 38.2566 96.4749 38.2487H92.3849C92.2201 38.2283 92.0623 38.1703 91.9235 38.0791C91.7848 37.9878 91.6689 37.8659 91.5849 37.7227C91.5064 37.5579 91.4729 37.3753 91.4876 37.1934C91.5024 37.0114 91.5649 36.8366 91.6689 36.6867C92.4341 35.8454 93.0896 34.9106 93.6199 33.9047H92.3809C92.169 33.9036 91.9628 33.8352 91.7923 33.7094C91.6217 33.5836 91.4955 33.4068 91.4319 33.2047C91.2449 32.6277 91.7189 32.2377 91.9239 31.7797C92.414 30.7734 92.8223 29.7294 93.1449 28.6577C93.9421 28.646 94.7325 28.5087 95.4869 28.2507C95.5288 28.2362 95.5738 28.2339 95.6169 28.2438C95.66 28.2538 95.6994 28.2756 95.7307 28.3069C95.762 28.3382 95.7838 28.3776 95.7938 28.4207C95.8037 28.4638 95.8013 28.5088 95.7869 28.5507L94.7689 30.9617C94.4815 31.5933 94.1528 32.2053 93.7849 32.7937H94.2769C94.3684 32.5847 94.4708 32.3807 94.5839 32.1827C95.331 32.3088 96.0981 32.2328 96.8059 31.9627C96.9229 31.9457 97.0269 31.9787 97.0599 32.0807L97.0779 29.9807C97.0867 29.6884 97.2079 29.4108 97.4164 29.2059C97.6249 29.0009 97.9046 28.8844 98.1969 28.8807H103.626L103.872 28.4247ZM93.9109 43.1687C93.7919 43.1687 93.7109 43.1517 93.7109 43.0327V39.0457C93.7109 38.9277 93.8109 38.9097 93.9109 38.8927L94.7429 38.8757C94.8429 38.8757 94.9429 38.9277 94.9429 39.0287V43.0507C94.9429 43.1177 94.9099 43.1687 94.7909 43.1687H93.9109ZM97.0849 32.3267C96.2511 34.0132 95.2742 35.6251 94.1649 37.1447L95.4559 37.1627C95.3115 36.8688 95.1471 36.5851 94.9639 36.3137C95.4745 36.1657 95.9689 35.967 96.4399 35.7207C96.8289 35.6517 96.8459 35.8897 97.0499 36.3647L97.0849 32.3267ZM104.075 32.4267C104.075 32.0027 103.6 31.8997 103.227 31.8837C101.86 31.7796 100.486 31.9229 99.1709 32.3067V33.2067H104.071L104.075 32.4267ZM106.501 42.1487C106.48 42.3573 106.404 42.5567 106.281 42.7266C106.158 42.8964 105.993 43.0307 105.801 43.1157C105.292 43.2814 104.752 43.328 104.223 43.2517C104.134 43.2477 104.047 43.2243 103.968 43.1832C103.889 43.1421 103.82 43.0842 103.766 43.0137C103.713 42.9423 103.678 42.8585 103.666 42.7703C103.654 42.682 103.665 42.5921 103.697 42.5091C103.729 42.426 103.782 42.3525 103.85 42.2954C103.919 42.2383 104 42.1995 104.088 42.1827H104.512C104.577 42.18 104.638 42.1519 104.683 42.1044C104.727 42.0568 104.751 41.9937 104.749 41.9287V39.5887H104.325V41.5737C104.328 41.5952 104.326 41.6173 104.32 41.6381C104.314 41.659 104.303 41.6782 104.288 41.6944C104.274 41.7106 104.256 41.7235 104.236 41.732C104.215 41.7405 104.194 41.7445 104.172 41.7437L103.358 41.7267C103.239 41.7267 103.158 41.6587 103.158 41.5577V39.5887H102.716V42.1997C102.716 42.2997 102.683 42.3697 102.58 42.3697H101.78C101.68 42.3697 101.58 42.3187 101.58 42.1997V39.5887H101.14V43.0887C101.14 43.1727 101.09 43.2067 101.004 43.2067H99.7499C99.6499 43.2067 99.5799 43.1557 99.5799 43.0707V35.4487C100.027 35.401 100.459 35.2625 100.851 35.0417C100.882 35.0215 100.919 35.0106 100.956 35.0101C100.994 35.0097 101.03 35.0197 101.062 35.0391C101.094 35.0584 101.12 35.0864 101.137 35.1197C101.154 35.153 101.161 35.1904 101.158 35.2277V36.0767C102.392 35.3651 103.807 35.0288 105.23 35.1087C105.464 35.1131 105.692 35.182 105.89 35.3078C106.087 35.4336 106.246 35.6114 106.349 35.8217C106.434 36.0438 106.48 36.2789 106.486 36.5167L106.501 42.1487ZM101.581 36.5147C101.443 36.5511 101.311 36.6084 101.19 36.6847V38.4997H101.581V36.5147ZM103.159 38.5007V36.1607C103.01 36.1742 102.863 36.1969 102.717 36.2287L102.735 38.5027L103.159 38.5007ZM104.737 36.7007C104.737 36.4637 104.466 36.3457 104.329 36.3107V38.4997H104.719L104.737 36.7007Z" fill="#2298F4"/>
<path id="Path 8506" d="M116.316 38.2312C116.167 38.2351 116.022 38.1835 115.909 38.0865C115.796 37.9894 115.724 37.8539 115.705 37.7062L115.688 32.3272C116.187 32.2078 116.662 32.0071 117.096 31.7332C117.215 31.7332 117.351 31.7662 117.385 31.8862V32.3442C117.469 32.3942 117.537 32.3092 117.606 32.2762V30.7002H115.84C115.73 30.6887 115.625 30.6481 115.535 30.5825C115.446 30.517 115.376 30.4288 115.332 30.3272C115.3 30.2358 115.292 30.1376 115.31 30.0424C115.327 29.9472 115.37 29.8582 115.432 29.7842C115.483 29.7208 115.547 29.6698 115.621 29.6352C115.694 29.6005 115.775 29.5831 115.856 29.5842H117.62L117.604 28.4982C118.33 28.4404 119.041 28.2567 119.704 27.9552C119.738 27.9212 120.096 27.9042 120.061 28.1422V29.6012L121.876 29.6182C121.973 29.6304 122.065 29.6683 122.143 29.7278C122.221 29.7874 122.281 29.8666 122.318 29.9572C122.353 30.0405 122.365 30.1316 122.352 30.221C122.34 30.3105 122.305 30.3951 122.249 30.4662C122.195 30.546 122.122 30.61 122.035 30.6519C121.949 30.6937 121.853 30.7118 121.757 30.7042H120.057V31.6042C120.65 31.6042 121.312 31.5192 121.721 31.9932C121.933 32.246 122.051 32.5635 122.058 32.8932V33.3852C122.178 33.3682 122.264 33.2492 122.382 33.2322L130.152 33.2152C130.249 33.2182 130.344 33.2506 130.422 33.3081C130.501 33.3655 130.56 33.4454 130.593 33.5372C130.637 33.6338 130.655 33.7406 130.643 33.8463C130.631 33.952 130.591 34.0525 130.527 34.1372C130.321 34.3742 129.948 34.2892 129.659 34.3062V40.2442C130.017 40.2782 130.459 40.0922 130.659 40.4832C130.695 40.5625 130.715 40.6482 130.719 40.7354C130.722 40.8226 130.707 40.9095 130.677 40.9912C130.489 41.3642 130.048 41.2792 129.693 41.3482V43.0782C129.693 43.2142 129.624 43.2992 129.454 43.2992L127.435 43.2822C127.318 43.2992 127.249 43.2142 127.249 43.0822V41.5742L123.142 42.0502C122.634 42.1002 121.954 42.3042 121.667 41.8292C121.629 41.7556 121.609 41.674 121.609 41.5912C121.609 41.5084 121.629 41.4268 121.667 41.3532C121.903 40.8612 122.515 41.0822 122.956 40.9642L122.974 34.2952L122.515 34.2782C122.443 34.2882 122.37 34.2776 122.304 34.2474C122.238 34.2173 122.182 34.169 122.142 34.1082L122.109 37.6722C122.105 37.8258 122.043 37.9722 121.936 38.0821C121.828 38.192 121.683 38.2574 121.53 38.2652H120.055V39.5002H121.802C122.056 39.5002 122.226 39.7382 122.312 39.8742C122.344 39.9534 122.358 40.0389 122.352 40.1243C122.346 40.2096 122.32 40.2924 122.277 40.3662C122.235 40.4437 122.174 40.5093 122.1 40.5567C122.026 40.6042 121.941 40.6319 121.853 40.6372L120.053 40.6202V43.0122C120.053 43.0493 120.045 43.086 120.031 43.1201C120.016 43.1542 119.995 43.1849 119.968 43.2104C119.941 43.2359 119.909 43.2556 119.874 43.2683C119.839 43.2809 119.802 43.2864 119.765 43.2842L117.915 43.2672C117.694 43.2672 117.644 43.1142 117.644 42.9622V40.6242L115.794 40.6412C115.677 40.627 115.567 40.5816 115.474 40.5097C115.382 40.4379 115.31 40.3424 115.267 40.2332C115.2 39.9962 115.335 39.5212 115.607 39.5212H117.64V38.2492L116.316 38.2312ZM117.385 35.3472V37.1802L117.961 37.1632V35.3472H117.385ZM117.961 32.9372C117.761 32.958 117.569 33.0266 117.401 33.1372V34.2912H117.961V32.9372ZM120.321 33.1582C120.321 32.7852 119.963 32.7002 119.743 32.7002V34.3122H120.321V33.1582ZM120.321 35.3472H119.74V37.1802H120.318L120.321 35.3472ZM129.653 32.1742C129.66 32.2363 129.654 32.2992 129.635 32.3587C129.616 32.4183 129.584 32.4731 129.543 32.5196C129.501 32.5661 129.45 32.6032 129.393 32.6285C129.335 32.6537 129.273 32.6666 129.211 32.6662L123.477 32.6832C123.349 32.6884 123.224 32.6435 123.129 32.5579C123.034 32.4723 122.975 32.3529 122.967 32.2252L122.985 28.6622C123.703 28.6646 124.409 28.4835 125.037 28.1362C125.137 28.0512 125.377 28.0852 125.377 28.2712V29.1372C126.405 28.596 127.558 28.3382 128.719 28.3902C128.927 28.4303 129.121 28.5279 129.277 28.6719C129.433 28.8159 129.545 29.0006 129.602 29.2052C129.646 29.3881 129.663 29.5764 129.653 29.7642V32.1742ZM127.123 30.1382C127.109 30.0306 127.068 29.9284 127.002 29.8419C126.937 29.7554 126.85 29.6875 126.75 29.6452C126.282 29.554 125.797 29.6452 125.394 29.9002V31.5802H127.108L127.123 30.1382ZM127.223 34.2952H125.423V35.5852H127.223V34.2952ZM127.223 36.6202L125.423 36.6022V37.9092H127.223V36.6202ZM127.223 38.9102H125.423V40.6752L127.223 40.4752V38.9102Z" fill="#2298F4"/>
<path id="Path 8507" d="M54.2892 34.3659C54.3977 34.5382 54.4511 34.7395 54.4422 34.9429V39.6599C54.4507 39.7419 54.4423 39.8247 54.4175 39.9032C54.3926 39.9818 54.3519 40.0544 54.2977 40.1165C54.2436 40.1786 54.1773 40.2289 54.1028 40.2642C54.0284 40.2996 53.9475 40.3192 53.8652 40.3219H50.7932C50.4712 40.3219 50.1332 40.2029 50.1332 39.7949V34.4339C50.6505 34.3415 51.1456 34.1519 51.5922 33.8749C51.6163 33.8532 51.646 33.8387 51.678 33.8331C51.71 33.8276 51.7428 33.8312 51.7728 33.8435C51.8029 33.8558 51.8288 33.8764 51.8476 33.9029C51.8664 33.9293 51.8774 33.9605 51.8792 33.9929V34.5699C52.4171 34.1857 53.069 33.9943 53.7292 34.0269C53.6955 33.8729 53.7131 33.7121 53.7792 33.5689C53.8675 33.4756 53.9781 33.4064 54.1006 33.3678C54.223 33.3291 54.3533 33.3223 54.4792 33.3479C54.6642 32.8219 54.8342 32.2959 54.9872 31.7529H54.3242C54.2405 31.741 54.1607 31.7098 54.0911 31.6619C54.0215 31.614 53.9639 31.5505 53.9229 31.4766C53.882 31.4027 53.8587 31.3203 53.8549 31.2358C53.8511 31.1514 53.867 31.0672 53.9012 30.9899C53.9408 30.8948 54.0062 30.8127 54.0899 30.7526C54.1736 30.6926 54.2724 30.657 54.3752 30.6499H56.3282V28.7839H54.9712C54.8484 28.7747 54.7339 28.7183 54.6517 28.6266C54.5695 28.5349 54.526 28.415 54.5302 28.2919C54.3947 28.3486 54.2507 28.3824 54.1042 28.3919H50.2192C50.0672 29.3419 49.8972 30.1399 49.6082 31.6169V40.3369C49.5922 40.5239 49.5082 40.6259 49.3212 40.6259H47.4212C47.3854 40.6265 47.35 40.6198 47.3168 40.6064C47.2837 40.593 47.2536 40.573 47.2284 40.5477C47.2031 40.5225 47.1831 40.4924 47.1697 40.4593C47.1563 40.4261 47.1496 40.3906 47.1502 40.3549V33.3819L46.4502 33.3989C46.3457 33.3916 46.2468 33.3489 46.1699 33.2778C46.093 33.2067 46.0426 33.1115 46.0272 33.0079C45.9781 32.8512 45.9906 32.6817 46.0622 32.5339C46.1078 32.4525 46.174 32.3845 46.2542 32.3367C46.3345 32.289 46.4258 32.2632 46.5192 32.2619H46.9272C47.4409 30.1877 47.8256 28.0837 48.0792 25.9619C48.8279 25.9623 49.5664 25.7884 50.2362 25.4539C50.288 25.444 50.3416 25.45 50.3899 25.471C50.4383 25.4921 50.4791 25.5273 50.5072 25.5719C50.4892 26.1577 50.4324 26.7416 50.3372 27.3199H51.3042C51.205 26.8487 51.0453 26.3922 50.8292 25.9619C50.8632 25.5549 51.3222 25.7419 51.5582 25.6219C51.8965 25.55 52.2228 25.4301 52.5272 25.2659C52.9002 25.1989 52.8642 25.6219 53.0172 25.8089C53.1959 26.1853 53.2998 26.5929 53.3232 27.0089C53.1583 27.1614 52.952 27.2616 52.7302 27.2969L54.2902 27.3309C54.4602 27.3309 54.7822 27.5859 54.7142 27.7889C54.8142 27.7219 55.0032 27.7549 55.1552 27.7549H56.3272V25.9329C57.0595 25.9323 57.7787 25.7395 58.4132 25.3739C58.5322 25.3739 58.7182 25.3559 58.7182 25.5429V27.7649H59.4182L59.5182 27.3759C60.0216 27.407 60.5266 27.3494 61.0102 27.2059C61.1622 27.1709 61.3172 27.2399 61.2992 27.4429C61.0452 28.5289 60.7392 29.5819 60.4162 30.6499H60.9772C61.2152 30.6499 61.4512 31.0909 61.3322 31.4309C61.2889 31.5185 61.2245 31.5938 61.1446 31.65C61.0648 31.7063 60.9722 31.7416 60.8752 31.7529H56.7852C56.6335 32.1337 56.5089 32.5246 56.4122 32.9229C56.6229 32.8784 56.8204 32.7856 56.9892 32.6519C57.1432 32.5679 57.3622 32.5679 57.3972 32.7889V33.3989C58.0034 32.9875 58.6927 32.7144 59.4162 32.5989C59.574 32.5683 59.7366 32.5737 59.8921 32.6146C60.0475 32.6555 60.1917 32.731 60.3139 32.8353C60.4362 32.9397 60.5333 33.0703 60.5981 33.2174C60.6629 33.3645 60.6937 33.5243 60.6882 33.6849V39.7769C60.6852 39.9276 60.6264 40.0718 60.5231 40.1816C60.4198 40.2913 60.2794 40.3588 60.1292 40.3709H55.6152C55.4623 40.3764 55.3126 40.326 55.1941 40.2292C55.0756 40.1325 54.9963 39.9958 54.9712 39.8449V34.3659H54.2892ZM50.6582 32.9919C50.575 32.9961 50.492 32.9795 50.4169 32.9435C50.3418 32.9076 50.2768 32.8534 50.2279 32.7859C50.179 32.7185 50.1478 32.6399 50.137 32.5573C50.1262 32.4746 50.1362 32.3907 50.1662 32.3129C50.1983 32.2176 50.257 32.1335 50.3353 32.0705C50.4136 32.0074 50.5083 31.968 50.6082 31.9569H53.6962C53.7987 31.9716 53.896 32.0119 53.9788 32.0741C54.0617 32.1364 54.1275 32.2185 54.1702 32.3129C54.1868 32.3865 54.1886 32.4627 54.1753 32.537C54.1621 32.6113 54.1341 32.6822 54.093 32.7455C54.0519 32.8088 53.9985 32.8632 53.936 32.9055C53.8735 32.9478 53.8032 32.9772 53.7292 32.9919H50.6582ZM53.8152 29.6659C54.0512 29.6659 54.2052 29.9199 54.2562 30.0559C54.2802 30.1481 54.2769 30.2453 54.2467 30.3356C54.2165 30.426 54.1607 30.5056 54.0862 30.5649C54.0091 30.6432 53.9066 30.6914 53.7972 30.7009H50.6402C50.5517 30.6885 50.4668 30.6579 50.3908 30.6111C50.3147 30.5643 50.2491 30.5023 50.1982 30.4289C50.1377 30.3019 50.1259 30.157 50.1652 30.0219C50.1955 29.9256 50.2537 29.8404 50.3323 29.7771C50.411 29.7137 50.5066 29.675 50.6072 29.6659H53.8152ZM52.6102 35.4519C52.6102 34.8919 52.0672 35.1639 51.8632 35.3519V39.2719H52.6102V35.4519ZM58.2932 34.1629C58.2932 33.6029 57.5652 34.0429 57.3932 34.1459V35.9609H58.2932V34.1629ZM58.2932 37.0129H57.3932V39.2999H58.2932V37.0129ZM58.6332 30.4799C58.8633 29.9301 59.045 29.3613 59.1762 28.7799H58.6332V30.4799Z" fill="white"/>
<path id="Path 8508" d="M71.8931 40.7628C71.8351 40.7437 71.7829 40.7103 71.7411 40.6658C71.6994 40.6212 71.6694 40.5669 71.6541 40.5078V34.5188L70.3651 34.5008C70.2638 34.4681 70.1721 34.4108 70.0983 34.334C70.0245 34.2572 69.9708 34.1634 69.9421 34.0608C69.9293 33.9727 69.9364 33.8828 69.9627 33.7977C69.9889 33.7126 70.0339 33.6344 70.0941 33.5688C70.4491 33.2118 71.1291 33.6198 71.4691 33.2288C72.3171 31.8038 73.0981 30.3958 73.8091 28.9028H70.4341C70.2461 28.9028 70.0081 28.6308 69.9571 28.4778C69.936 28.3883 69.9374 28.2949 69.9613 28.206C69.9853 28.1172 70.0309 28.0356 70.0941 27.9688L70.4341 27.8168L74.3521 27.7828L75.2011 25.8648C75.9838 25.8843 76.7641 25.7697 77.5081 25.5258C77.5848 25.5034 77.667 25.5099 77.7391 25.5442C77.8112 25.5785 77.8682 25.6382 77.8991 25.7118V25.9118L77.0841 27.7788H84.7031C84.8188 27.8008 84.9272 27.8509 85.0189 27.9246C85.1106 27.9984 85.1828 28.0936 85.2291 28.2018C85.2523 28.2851 85.2568 28.3725 85.2423 28.4577C85.2277 28.5429 85.1946 28.6239 85.1451 28.6948C85.0845 28.7603 85.0106 28.812 84.9283 28.8465C84.846 28.881 84.7573 28.8974 84.6681 28.8948L76.5921 28.8768L75.2851 31.5408L74.3011 33.3738L74.3181 40.4658C74.3181 40.6188 74.2501 40.7548 74.1181 40.7548L71.8931 40.7628ZM77.8811 33.5178C77.2721 33.4998 77.2361 32.4178 77.8481 32.4178H79.9401L80.1941 32.2828L81.2621 31.1458C81.2621 31.0788 81.3131 31.0268 81.2801 30.9588L81.1601 30.8748L76.7661 30.8918C76.6477 30.8611 76.5396 30.7993 76.4531 30.7128C76.3666 30.6263 76.3048 30.5182 76.2741 30.3998C76.2627 30.3127 76.2721 30.2241 76.3017 30.1413C76.3312 30.0585 76.3801 29.984 76.4441 29.9238C76.5442 29.8406 76.6691 29.7931 76.7991 29.7888L83.6211 29.7718C83.9179 29.8092 84.1931 29.9468 84.4011 30.1618C84.5112 30.3158 84.5759 30.4976 84.588 30.6866C84.6 30.8755 84.5588 31.0641 84.4691 31.2308C83.921 32.0163 83.2572 32.7142 82.5001 33.3008C82.1226 33.4887 81.6995 33.5653 81.2801 33.5218L81.2971 34.7438H84.6561C84.7772 34.7557 84.894 34.7956 84.997 34.8604C85.1001 34.9251 85.1868 35.0129 85.2501 35.1168C85.2722 35.2093 85.2746 35.3054 85.2574 35.3989C85.2402 35.4924 85.2037 35.5812 85.1501 35.6598C85.0953 35.7213 85.0266 35.7688 84.9497 35.7984C84.8728 35.828 84.79 35.8387 84.7081 35.8298L81.2811 35.8458L81.2631 39.4598C81.2294 39.7791 81.0967 40.0798 80.8837 40.3201C80.6707 40.5603 80.388 40.728 80.0751 40.7998H76.8531C76.7694 40.7798 76.6913 40.7407 76.6252 40.6855C76.5591 40.6303 76.5066 40.5606 76.472 40.4817C76.4373 40.4029 76.4213 40.3171 76.4254 40.231C76.4294 40.145 76.4533 40.0611 76.4951 39.9858C76.6062 39.8381 76.7712 39.7403 76.9541 39.7138H78.3631C78.4161 39.6969 78.4648 39.6685 78.5056 39.6307C78.5464 39.5928 78.5783 39.5464 78.5991 39.4948L78.6161 35.8458H75.1891C75.0802 35.8375 74.975 35.8021 74.8832 35.743C74.7913 35.6838 74.7157 35.6026 74.6631 35.5068C74.6311 35.4218 74.6175 35.3308 74.6234 35.2401C74.6292 35.1494 74.6544 35.061 74.6971 34.9808C74.8012 34.8594 74.9465 34.7807 75.1051 34.7598H78.5991L78.6161 33.5388L77.8811 33.5178Z" fill="white"/>
<path id="Path 8509" d="M95.6053 39.2868C95.6434 39.6694 95.5601 40.0543 95.3673 40.3868C95.2092 40.5535 95.0091 40.6745 94.7881 40.7372C94.5671 40.7998 94.3333 40.8018 94.1113 40.7428C94.0276 40.7097 93.953 40.657 93.8939 40.5891C93.8347 40.5213 93.7927 40.4403 93.7713 40.3528C93.7544 40.2432 93.7658 40.1311 93.8045 40.0271C93.8432 39.9231 93.9078 39.8308 93.9923 39.7588C94.1227 39.6913 94.2713 39.6675 94.4163 39.6908V36.6398C94.7608 36.5876 95.097 36.4905 95.4163 36.3508C95.4432 36.348 95.4704 36.3506 95.4963 36.3585C95.5222 36.3664 95.5461 36.3795 95.5668 36.397C95.5875 36.4145 95.6044 36.436 95.6165 36.4602C95.6286 36.4844 95.6357 36.5108 95.6373 36.5378L95.6053 39.2868ZM106.295 25.9998C107.045 26.1237 107.815 26.0354 108.517 25.7448C108.567 25.7355 108.618 25.7404 108.665 25.7588C108.712 25.7773 108.753 25.8086 108.783 25.8492C108.813 25.8898 108.831 25.938 108.835 25.9883C108.839 26.0387 108.829 26.0891 108.805 26.1338C108.517 26.6948 108.246 27.5598 107.482 27.5598H101.594V29.0898C101.916 29.0208 102.273 28.8898 102.611 28.8008C104.037 28.5273 105.489 28.4189 106.939 28.4778C107.272 28.445 107.608 28.5113 107.904 28.6684C108.199 28.8255 108.442 29.0664 108.601 29.3608C108.778 29.9955 108.819 30.6603 108.721 31.3118C108.695 31.4459 108.627 31.568 108.525 31.6597C108.424 31.7515 108.296 31.808 108.16 31.8208L101.594 31.8378V39.5238C101.598 39.8251 101.486 40.1163 101.281 40.3374C101.076 40.5586 100.795 40.6929 100.494 40.7128H98.8483C98.6145 40.7106 98.3903 40.6201 98.2204 40.4595C98.0505 40.2989 97.9476 40.0801 97.9323 39.8468V36.5548C97.9323 36.4018 98.0843 36.3008 98.1683 36.3688C98.474 36.4987 98.7929 36.5952 99.1193 36.6568V39.7108L99.5433 39.6938V35.5998C99.3626 35.7501 99.1331 35.8288 98.8983 35.8208H94.8083C94.6435 35.8005 94.4856 35.7425 94.3469 35.6512C94.2081 35.56 94.0923 35.4381 94.0083 35.2948C93.9298 35.1301 93.8962 34.9475 93.9109 34.7656C93.9257 34.5836 93.9882 34.4088 94.0923 34.2588C94.8574 33.4176 95.513 32.4828 96.0433 31.4768H94.8043C94.5923 31.4758 94.3862 31.4074 94.2156 31.2816C94.045 31.1558 93.9188 30.979 93.8553 30.7768C93.6683 30.1998 94.1423 29.8098 94.3473 29.3518C94.8373 28.3456 95.2456 27.3016 95.5683 26.2298C96.3655 26.2182 97.1559 26.0809 97.9103 25.8228C97.9521 25.8084 97.9971 25.8061 98.0402 25.816C98.0833 25.826 98.1227 25.8478 98.154 25.8791C98.1853 25.9104 98.2072 25.9498 98.2171 25.9929C98.227 26.036 98.2247 26.081 98.2103 26.1228L97.1923 28.5338C96.9048 29.1655 96.5761 29.7775 96.2083 30.3658H96.7003C96.7917 30.1569 96.8942 29.9529 97.0073 29.7548C97.7543 29.881 98.5215 29.805 99.2293 29.5348C99.3463 29.5178 99.4503 29.5508 99.4833 29.6528L99.5013 27.5528C99.51 27.2606 99.6313 26.983 99.8398 26.7781C100.048 26.5731 100.328 26.4566 100.62 26.4528H106.049L106.295 25.9998ZM96.3343 40.7438C96.2153 40.7438 96.1343 40.7268 96.1343 40.6078V36.6228C96.1343 36.5048 96.2343 36.4868 96.3343 36.4698L97.1663 36.4528C97.2663 36.4528 97.3663 36.5048 97.3663 36.6058V40.6278C97.3663 40.6948 97.3333 40.7458 97.2143 40.7458L96.3343 40.7438ZM99.5083 29.8998C98.6745 31.5864 97.6976 33.1983 96.5883 34.7178L97.8793 34.7358C97.7348 34.442 97.5704 34.1583 97.3873 33.8868C97.8978 33.7389 98.3922 33.5402 98.8633 33.2938C99.2523 33.2248 99.2693 33.4628 99.4733 33.9378L99.5083 29.8998ZM106.498 29.9998C106.498 29.5758 106.023 29.4728 105.65 29.4568C104.284 29.3528 102.91 29.4961 101.594 29.8798V30.7798H106.494L106.498 29.9998ZM108.924 39.7218C108.903 39.9305 108.828 40.1299 108.705 40.2997C108.582 40.4696 108.416 40.6039 108.224 40.6888C107.716 40.8546 107.176 40.9012 106.646 40.8248C106.557 40.8209 106.47 40.7975 106.391 40.7564C106.313 40.7153 106.244 40.6574 106.189 40.5868C106.136 40.5155 106.102 40.4317 106.09 40.3435C106.078 40.2552 106.088 40.1653 106.12 40.0823C106.153 39.9992 106.205 39.9257 106.274 39.8686C106.342 39.8115 106.424 39.7727 106.511 39.7558H106.935C107 39.7532 107.062 39.7251 107.106 39.6776C107.15 39.63 107.174 39.5669 107.172 39.5018V37.1658H106.748V39.1508C106.751 39.1724 106.75 39.1945 106.743 39.2153C106.737 39.2362 106.726 39.2554 106.712 39.2716C106.697 39.2878 106.679 39.3007 106.659 39.3092C106.639 39.3177 106.617 39.3217 106.595 39.3208L105.781 39.3038C105.662 39.3038 105.581 39.2358 105.581 39.1348V37.1658H105.14V39.7788C105.14 39.8788 105.107 39.9488 105.004 39.9488H104.204C104.104 39.9488 104.004 39.8978 104.004 39.7788V37.1658H103.562V40.6658C103.562 40.7498 103.512 40.7838 103.426 40.7838H102.172C102.072 40.7838 102.002 40.7328 102.002 40.6478V33.0258C102.449 32.9782 102.882 32.8397 103.273 32.6188C103.305 32.5987 103.341 32.5878 103.379 32.5873C103.416 32.5869 103.453 32.5969 103.485 32.6163C103.517 32.6356 103.543 32.6636 103.559 32.6969C103.576 32.7302 103.584 32.7676 103.58 32.8048V33.6538C104.815 32.9423 106.23 32.606 107.652 32.6858C107.886 32.6903 108.115 32.7592 108.312 32.885C108.509 33.0108 108.668 33.1886 108.771 33.3988C108.857 33.6226 108.903 33.8594 108.908 34.0988L108.924 39.7218ZM104.004 34.0878C103.866 34.1243 103.734 34.1816 103.613 34.2578V36.0798H104.004V34.0878ZM105.582 36.0738V33.7378C105.434 33.7514 105.286 33.7741 105.14 33.8058L105.158 36.0798L105.582 36.0738ZM107.16 34.2738C107.16 34.0368 106.889 33.9188 106.752 33.8838V36.0798H107.142L107.16 34.2738Z" fill="white"/>
<path id="Path 8510" d="M118.74 35.8084C118.591 35.812 118.447 35.7603 118.334 35.6633C118.221 35.5663 118.148 35.4309 118.13 35.2834L118.113 29.9044C118.612 29.785 119.087 29.5843 119.521 29.3104C119.64 29.3104 119.775 29.3434 119.81 29.4634V29.9214C119.894 29.9714 119.962 29.8864 120.031 29.8534V28.2754H118.265C118.155 28.2639 118.05 28.2233 117.96 28.1577C117.871 28.0922 117.801 28.004 117.757 27.9024C117.725 27.811 117.717 27.7128 117.735 27.6176C117.752 27.5224 117.795 27.4334 117.857 27.3594C117.908 27.296 117.972 27.245 118.046 27.2104C118.119 27.1757 118.2 27.1583 118.281 27.1594H120.04L120.025 26.0734C120.751 26.0156 121.462 25.8319 122.125 25.5304C122.159 25.4964 122.516 25.4794 122.481 25.7174V27.1764L124.297 27.1934C124.394 27.2056 124.486 27.2435 124.564 27.303C124.641 27.3626 124.702 27.4418 124.739 27.5324C124.774 27.6157 124.785 27.7068 124.773 27.7962C124.761 27.8857 124.726 27.9703 124.67 28.0414C124.616 28.1211 124.543 28.1852 124.456 28.2271C124.37 28.2689 124.274 28.2869 124.178 28.2794H122.478V29.1794C123.072 29.1794 123.734 29.0944 124.142 29.5684C124.354 29.8209 124.474 30.1385 124.48 30.4684V30.9604C124.599 30.9434 124.68 30.8244 124.804 30.8074L132.574 30.7904C132.671 30.7934 132.766 30.8258 132.844 30.8832C132.923 30.9407 132.982 31.0206 133.015 31.1124C133.058 31.2083 133.075 31.3142 133.063 31.4189C133.052 31.5236 133.012 31.6232 132.949 31.7074C132.743 31.9444 132.37 31.8594 132.081 31.8764V37.8104C132.439 37.8444 132.881 37.6584 133.081 38.0494C133.117 38.1287 133.137 38.2144 133.14 38.3016C133.144 38.3887 133.129 38.4757 133.099 38.5574C132.911 38.9304 132.47 38.8454 132.115 38.9144V40.6444C132.115 40.7804 132.046 40.8654 131.876 40.8654L129.857 40.8484C129.74 40.8654 129.671 40.7804 129.671 40.6484V39.1514L125.564 39.6274C125.056 39.6774 124.376 39.8814 124.089 39.4064C124.051 39.3328 124.031 39.2512 124.031 39.1684C124.031 39.0856 124.051 39.004 124.089 38.9304C124.325 38.4384 124.937 38.6594 125.378 38.5414L125.396 31.8724L124.937 31.8554C124.865 31.8654 124.792 31.8547 124.726 31.8246C124.66 31.7945 124.604 31.7462 124.564 31.6854L124.531 35.2494C124.527 35.403 124.465 35.5494 124.358 35.6593C124.25 35.7692 124.105 35.8346 123.952 35.8424H122.476V37.0814H124.24C124.494 37.0814 124.664 37.3194 124.75 37.4554C124.782 37.5345 124.796 37.6201 124.79 37.7055C124.784 37.7908 124.758 37.8736 124.715 37.9474C124.673 38.0249 124.612 38.0905 124.538 38.1379C124.464 38.1854 124.379 38.2131 124.291 38.2184L122.491 38.2014V40.5934C122.491 40.6304 122.484 40.6671 122.469 40.7012C122.455 40.7353 122.433 40.7661 122.406 40.7915C122.379 40.817 122.348 40.8367 122.313 40.8494C122.278 40.8621 122.241 40.8676 122.204 40.8654L120.354 40.8484C120.133 40.8484 120.083 40.6954 120.083 40.5434V38.2004L118.233 38.2174C118.116 38.2032 118.006 38.1577 117.913 38.0859C117.821 38.0141 117.749 37.9186 117.706 37.8094C117.639 37.5724 117.774 37.0974 118.046 37.0974H120.065V35.8264L118.74 35.8084ZM119.81 32.9244V34.7574L120.386 34.7404V32.9244H119.81ZM120.386 30.5144C120.186 30.5352 119.994 30.6038 119.826 30.7144V31.8684H120.386V30.5144ZM122.746 30.7354C122.746 30.3624 122.388 30.2774 122.168 30.2774V31.8894H122.746V30.7354ZM122.746 32.9244H122.168V34.7574H122.746V32.9244ZM132.078 29.7514C132.085 29.8135 132.079 29.8764 132.06 29.9359C132.041 29.9954 132.009 30.0503 131.968 30.0968C131.926 30.1433 131.875 30.1804 131.817 30.2056C131.76 30.2309 131.698 30.2438 131.636 30.2434L125.902 30.2604C125.774 30.2656 125.649 30.2207 125.554 30.1351C125.459 30.0495 125.4 29.9301 125.392 29.8024L125.41 26.2394C126.128 26.2418 126.834 26.0607 127.462 25.7134C127.562 25.6284 127.802 25.6624 127.802 25.8484V26.7144C128.83 26.1732 129.983 25.9154 131.144 25.9674C131.352 26.0075 131.546 26.1051 131.702 26.2491C131.858 26.3931 131.97 26.5778 132.027 26.7824C132.071 26.9653 132.088 27.1536 132.078 27.3414V29.7514ZM129.548 27.7154C129.534 27.6077 129.493 27.5056 129.427 27.4191C129.362 27.3326 129.275 27.2647 129.175 27.2224C128.707 27.1314 128.221 27.2226 127.818 27.4774V29.1574H129.533L129.548 27.7154ZM129.648 31.8724H127.848V33.1624H129.648V31.8724ZM129.648 34.1974L127.848 34.1794V35.4864H129.648V34.1974ZM129.648 36.4874H127.848V38.2524L129.648 38.0524V36.4874Z" fill="white"/>
<path id="Path 8511" d="M162.621 56.7349H162.14C161.979 56.7349 161.825 56.6711 161.712 56.5574C161.598 56.4438 161.534 56.2897 161.534 56.1289C161.534 55.9682 161.598 55.8141 161.712 55.7004C161.825 55.5868 161.979 55.5229 162.14 55.5229H162.616C163.157 55.5224 163.675 55.3073 164.058 54.9249C164.44 54.5424 164.656 54.0238 164.656 53.4829V12.3379C164.656 11.797 164.441 11.2782 164.058 10.8957C163.676 10.5132 163.157 10.2982 162.616 10.2979H160.516C160.355 10.2979 160.201 10.2341 160.088 10.1204C159.974 10.0068 159.91 9.85266 159.91 9.69194C159.91 9.53122 159.974 9.37708 160.088 9.26343C160.201 9.14978 160.355 9.08594 160.516 9.08594H162.616C163.478 9.08726 164.304 9.43034 164.914 10.0399C165.523 10.6496 165.866 11.476 165.867 12.3379V53.4829C165.866 54.3449 165.523 55.1713 164.914 55.7809C164.304 56.3905 163.478 56.7336 162.616 56.7349M151.735 56.7349H149.119C148.958 56.7349 148.804 56.6711 148.691 56.5574C148.577 56.4438 148.513 56.2897 148.513 56.1289C148.513 55.9682 148.577 55.8141 148.691 55.7004C148.804 55.5868 148.958 55.5229 149.119 55.5229H151.74C151.901 55.5229 152.055 55.5868 152.169 55.7004C152.282 55.8141 152.346 55.9682 152.346 56.1289C152.346 56.2897 152.282 56.4438 152.169 56.5574C152.055 56.6711 151.901 56.7349 151.74 56.7349M142.879 56.7349H130.393C130.232 56.7349 130.078 56.6711 129.965 56.5574C129.851 56.4438 129.787 56.2897 129.787 56.1289C129.787 55.9682 129.851 55.8141 129.965 55.7004C130.078 55.5868 130.232 55.5229 130.393 55.5229H142.879C143.04 55.5229 143.194 55.5868 143.308 55.7004C143.421 55.8141 143.485 55.9682 143.485 56.1289C143.485 56.2897 143.421 56.4438 143.308 56.5574C143.194 56.6711 143.04 56.7349 142.879 56.7349ZM101.715 56.7349H87.928C87.7673 56.7349 87.6132 56.6711 87.4995 56.5574C87.3859 56.4438 87.3221 56.2897 87.3221 56.1289C87.3221 55.9682 87.3859 55.8141 87.4995 55.7004C87.6132 55.5868 87.7673 55.5229 87.928 55.5229H101.715C101.876 55.5229 102.03 55.5868 102.144 55.7004C102.257 55.8141 102.321 55.9682 102.321 56.1289C102.321 56.2897 102.257 56.4438 102.144 56.5574C102.03 56.6711 101.876 56.7349 101.715 56.7349ZM77.5221 56.7349H71.169C71.0083 56.7349 70.8542 56.6711 70.7405 56.5574C70.6269 56.4438 70.563 56.2897 70.563 56.1289C70.563 55.9682 70.6269 55.8141 70.7405 55.7004C70.8542 55.5868 71.0083 55.5229 71.169 55.5229H77.5221C77.6828 55.5229 77.8369 55.5868 77.9506 55.7004C78.0642 55.8141 78.1281 55.9682 78.1281 56.1289C78.1281 56.2897 78.0642 56.4438 77.9506 56.5574C77.8369 56.6711 77.6828 56.7349 77.5221 56.7349ZM64.9221 56.7349H52.44C52.2793 56.7349 52.1252 56.6711 52.0116 56.5574C51.8979 56.4438 51.834 56.2897 51.834 56.1289C51.834 55.9682 51.8979 55.8141 52.0116 55.7004C52.1252 55.5868 52.2793 55.5229 52.44 55.5229H64.928C65.0888 55.5229 65.2429 55.5868 65.3566 55.7004C65.4702 55.8141 65.5341 55.9682 65.5341 56.1289C65.5341 56.2897 65.4702 56.4438 65.3566 56.5574C65.2429 56.6711 65.0888 56.7349 64.928 56.7349M19.606 56.7349H15.41C14.5481 56.7336 13.7218 56.3905 13.1124 55.7809C12.5029 55.1713 12.1601 54.3449 12.1591 53.4829V12.3359C12.1601 11.4743 12.5029 10.6483 13.1121 10.039C13.7214 9.42975 14.5474 9.087 15.4091 9.08594H17.9841C18.1448 9.08594 18.2989 9.14978 18.4126 9.26343C18.5262 9.37708 18.5901 9.53122 18.5901 9.69194C18.5901 9.85266 18.5262 10.0068 18.4126 10.1204C18.2989 10.2341 18.1448 10.2979 17.9841 10.2979H15.4091C14.8687 10.2985 14.3506 10.5134 13.9686 10.8954C13.5865 11.2775 13.3716 11.7956 13.371 12.3359V53.4829C13.3713 54.0237 13.5862 54.5423 13.9685 54.9248C14.3508 55.3073 14.8693 55.5224 15.41 55.5229H19.604C19.7648 55.5229 19.9189 55.5868 20.0326 55.7004C20.1462 55.8141 20.2101 55.9682 20.2101 56.1289C20.2101 56.2897 20.1462 56.4438 20.0326 56.5574C19.9189 56.6711 19.7648 56.7349 19.604 56.7349M130.853 10.2999H118.366C118.286 10.2999 118.208 10.2843 118.134 10.2538C118.061 10.2234 117.994 10.1787 117.938 10.1224C117.881 10.0662 117.837 9.99937 117.806 9.92584C117.776 9.85232 117.76 9.77352 117.76 9.69394C117.76 9.61436 117.776 9.53555 117.806 9.46203C117.837 9.38851 117.881 9.3217 117.938 9.26543C117.994 9.20916 118.061 9.16452 118.134 9.13407C118.208 9.10361 118.286 9.08794 118.366 9.08794H130.853C131.014 9.08794 131.168 9.15178 131.282 9.26543C131.395 9.37908 131.459 9.53322 131.459 9.69394C131.459 9.85466 131.395 10.0088 131.282 10.1224C131.168 10.2361 131.014 10.2999 130.853 10.2999ZM112.122 10.2999H110.501C110.34 10.2999 110.186 10.2361 110.073 10.1224C109.959 10.0088 109.895 9.85466 109.895 9.69394C109.895 9.53322 109.959 9.37908 110.073 9.26543C110.186 9.15178 110.34 9.08794 110.501 9.08794H112.122C112.283 9.08794 112.437 9.15178 112.551 9.26543C112.664 9.37908 112.728 9.53322 112.728 9.69394C112.728 9.85466 112.664 10.0088 112.551 10.1224C112.437 10.2361 112.283 10.2999 112.122 10.2999ZM100.095 10.2999H86.307C86.1463 10.2999 85.9922 10.2361 85.8785 10.1224C85.7649 10.0088 85.701 9.85466 85.701 9.69394C85.701 9.53322 85.7649 9.37908 85.8785 9.26543C85.9922 9.15178 86.1463 9.08794 86.307 9.08794H100.095C100.256 9.08794 100.41 9.15178 100.524 9.26543C100.637 9.37908 100.701 9.53322 100.701 9.69394C100.701 9.85466 100.637 10.0088 100.524 10.1224C100.41 10.2361 100.256 10.2999 100.095 10.2999ZM52.8951 10.2999H40.4111C40.2503 10.2999 40.0962 10.2361 39.9825 10.1224C39.8689 10.0088 39.8051 9.85466 39.8051 9.69394C39.8051 9.53322 39.8689 9.37908 39.9825 9.26543C40.0962 9.15178 40.2503 9.08794 40.4111 9.08794H52.899C52.9786 9.08794 53.0574 9.10361 53.131 9.13407C53.2045 9.16452 53.2713 9.20916 53.3276 9.26543C53.3838 9.3217 53.4285 9.38851 53.4589 9.46203C53.4894 9.53555 53.5051 9.61436 53.5051 9.69394C53.5051 9.77352 53.4894 9.85232 53.4589 9.92584C53.4285 9.99937 53.3838 10.0662 53.3276 10.1224C53.2713 10.1787 53.2045 10.2234 53.131 10.2538C53.0574 10.2843 52.9786 10.2999 52.899 10.2999M34.168 10.2999H28.3891C28.3095 10.2999 28.2307 10.2843 28.1572 10.2538C28.0836 10.2234 28.0168 10.1787 27.9605 10.1224C27.9043 10.0662 27.8596 9.99937 27.8292 9.92584C27.7987 9.85232 27.7831 9.77352 27.7831 9.69394C27.7831 9.61436 27.7987 9.53555 27.8292 9.46203C27.8596 9.38851 27.9043 9.3217 27.9605 9.26543C28.0168 9.20916 28.0836 9.16452 28.1572 9.13407C28.2307 9.10361 28.3095 9.08794 28.3891 9.08794H34.168C34.2476 9.08794 34.3264 9.10361 34.4 9.13407C34.4735 9.16452 34.5403 9.20916 34.5966 9.26543C34.6528 9.3217 34.6975 9.38851 34.7279 9.46203C34.7584 9.53555 34.774 9.61436 34.774 9.69394C34.774 9.77352 34.7584 9.85232 34.7279 9.92584C34.6975 9.99937 34.6528 10.0662 34.5966 10.1224C34.5403 10.1787 34.4735 10.2234 34.4 10.2538C34.3264 10.2843 34.2476 10.2999 34.168 10.2999Z" fill="white"/>
</g>
</svg>
