<svg width="35" height="35" viewBox="0 0 35 35" fill="none" xmlns="http://www.w3.org/2000/svg">
<g clip-path="url(#clip0_130_42668)">
<path d="M17.498 0C14.0369 0 10.6534 1.02636 7.77557 2.94928C4.89771 4.87221 2.6547 7.60533 1.33016 10.803C0.00562859 14.0007 -0.340929 17.5194 0.334313 20.9141C1.00955 24.3088 2.67626 27.427 5.12368 29.8744C7.5711 32.3218 10.6893 33.9885 14.084 34.6637C17.4786 35.339 20.9973 34.9924 24.195 33.6679C27.3927 32.3434 30.1258 30.1003 32.0488 27.2225C33.9717 24.3446 34.998 20.9612 34.998 17.5C34.998 12.8587 33.1543 8.40752 29.8724 5.12563C26.5905 1.84374 22.1393 0 17.498 0ZM17.73 5.752C19.372 5.752 21.7011 9.664 22.0431 15.92H13.413C13.755 9.664 16.086 5.752 17.73 5.752ZM13.6771 4.799C11.7671 7.127 10.477 11.119 10.244 15.919H4.49804C4.8019 13.3804 5.82891 10.9827 7.45678 9.01121C9.08465 7.03975 11.2448 5.57765 13.68 4.799M4.49804 19.08H10.2461C10.4781 23.88 11.769 27.872 13.679 30.2C11.244 29.4212 9.08407 27.959 7.45638 25.9876C5.8287 24.0161 4.80182 21.6184 4.49804 19.08ZM17.732 29.248C16.087 29.248 13.758 25.336 13.416 19.08H22.046C21.704 25.336 19.3741 29.248 17.7331 29.248M21.782 30.201C23.692 27.873 24.982 23.881 25.217 19.081H30.965C30.6614 21.6198 29.6343 24.0177 28.0062 25.9892C26.3781 27.9608 24.2176 29.4227 21.782 30.201ZM25.217 15.919C24.984 11.119 23.693 7.127 21.782 4.799C24.2175 5.57749 26.3778 7.03952 28.0059 9.011C29.6339 10.9825 30.6611 13.3803 30.965 15.919H25.217Z" fill="white"/>
</g>
<defs>
<clipPath id="clip0_130_42668">
<rect width="35.001" height="35" fill="white"/>
</clipPath>
</defs>
</svg>
