<svg width="35" height="35" viewBox="0 0 35 35" fill="none" xmlns="http://www.w3.org/2000/svg">
<g clip-path="url(#clip0_130_42670)">
<path d="M17.589 14.2749C16.9508 14.2745 16.3268 14.4634 15.796 14.8177C15.2652 15.172 14.8514 15.6757 14.607 16.2652C14.3626 16.8547 14.2985 17.5035 14.4228 18.1294C14.5471 18.7553 14.8543 19.3304 15.3055 19.7817C15.7567 20.233 16.3316 20.5404 16.9575 20.6649C17.5834 20.7894 18.2321 20.7255 18.8217 20.4812C19.4113 20.237 19.9152 19.8233 20.2696 19.2927C20.6241 18.762 20.8132 18.1381 20.813 17.4999C20.8119 16.6451 20.4719 15.8256 19.8676 15.221C19.2632 14.6165 18.4438 14.2762 17.589 14.2749Z" fill="white"/>
<path d="M21.5811 9.202H13.4191C12.3009 9.20306 11.2288 9.64766 10.438 10.4382C9.64722 11.2288 9.20237 12.3008 9.20105 13.419V21.583C9.20237 22.7012 9.64722 23.7732 10.438 24.5638C11.2288 25.3543 12.3009 25.7989 13.4191 25.8H21.5811C22.6992 25.7989 23.7713 25.3543 24.5621 24.5638C25.3529 23.7732 25.7977 22.7012 25.799 21.583V13.415C25.7977 12.2968 25.3529 11.2248 24.5621 10.4342C23.7713 9.64366 22.6992 9.19906 21.5811 9.198M17.5811 22.532C16.5852 22.532 15.6118 22.2367 14.7838 21.6834C13.9558 21.1302 13.3104 20.3438 12.9293 19.4238C12.5482 18.5038 12.4485 17.4914 12.6428 16.5147C12.8371 15.538 13.3166 14.6409 14.0208 13.9367C14.7249 13.2326 15.6221 12.753 16.5988 12.5587C17.5755 12.3645 18.5878 12.4642 19.5079 12.8453C20.4279 13.2264 21.2142 13.8717 21.7675 14.6997C22.3208 15.5277 22.616 16.5012 22.616 17.497C22.6145 18.8319 22.0835 20.1116 21.1396 21.0555C20.1957 21.9994 18.9159 22.5304 17.5811 22.532ZM22.91 13.322C22.6727 13.322 22.4407 13.2516 22.2434 13.1198C22.046 12.9879 21.8922 12.8005 21.8014 12.5812C21.7106 12.3619 21.6868 12.1207 21.7331 11.8879C21.7794 11.6551 21.8937 11.4413 22.0615 11.2735C22.2293 11.1056 22.4432 10.9914 22.6759 10.9451C22.9087 10.8988 23.15 10.9225 23.3693 11.0133C23.5885 11.1042 23.7759 11.258 23.9078 11.4553C24.0397 11.6527 24.11 11.8847 24.11 12.122C24.11 12.4403 23.9836 12.7455 23.7586 12.9705C23.5335 13.1956 23.2283 13.322 22.91 13.322Z" fill="white"/>
<path d="M17.5 0C14.0388 0 10.6554 1.02636 7.77752 2.94928C4.89966 4.87221 2.65665 7.60533 1.33212 10.803C0.00758171 14.0007 -0.338976 17.5194 0.336266 20.9141C1.01151 24.3088 2.67821 27.427 5.12563 29.8744C7.57305 32.3218 10.6912 33.9885 14.0859 34.6637C17.4806 35.339 20.9993 34.9924 24.197 33.6679C27.3947 32.3434 30.1278 30.1003 32.0507 27.2225C33.9736 24.3446 35 20.9612 35 17.5C35 12.8587 33.1563 8.40752 29.8744 5.12563C26.5925 1.84374 22.1413 0 17.5 0ZM28.108 21.735C28.1059 23.4245 27.4337 25.0441 26.239 26.2387C25.0443 27.4333 23.4245 28.1051 21.735 28.107H13.266C11.5765 28.1051 9.95674 27.4333 8.762 26.2387C7.56726 25.0441 6.89512 23.4245 6.893 21.735V13.265C6.89485 11.5754 7.56691 9.95562 8.76171 8.76101C9.95651 7.5664 11.5764 6.89459 13.266 6.893H21.735C23.4246 6.89459 25.0445 7.5664 26.2393 8.76101C27.4341 9.95562 28.1061 11.5754 28.108 13.265V21.735Z" fill="white"/>
</g>
<defs>
<clipPath id="clip0_130_42670">
<rect width="35" height="35" fill="white"/>
</clipPath>
</defs>
</svg>
