<svg width="35" height="35" viewBox="0 0 35 35" fill="none" xmlns="http://www.w3.org/2000/svg">
<g clip-path="url(#clip0_130_42674)">
<path d="M17.499 0C14.0379 0 10.6544 1.02636 7.77655 2.94928C4.89869 4.87221 2.65568 7.60533 1.33115 10.803C0.00661647 14.0007 -0.339956 17.5194 0.335285 20.9141C1.01053 24.3088 2.67725 27.427 5.12467 29.8744C7.57209 32.3218 10.6903 33.9885 14.0849 34.6637C17.4796 35.339 20.9983 34.9924 24.196 33.6679C27.3937 32.3434 30.1268 30.1003 32.0497 27.2225C33.9727 24.3446 34.999 20.9612 34.999 17.5C34.999 12.8587 33.1553 8.40752 29.8734 5.12563C26.5915 1.84374 22.1403 0 17.499 0ZM24.389 8.835H22.338C21.9888 8.78877 21.6336 8.82167 21.2987 8.93126C20.9639 9.04086 20.658 9.22434 20.4036 9.46813C20.1492 9.71193 19.953 10.0098 19.8293 10.3397C19.7056 10.6696 19.6576 11.0231 19.689 11.374V14.423H24.197L23.477 19.123H19.689V30.48H14.61V19.122H10.482V14.422H14.61V10.842C14.61 6.768 17.037 4.518 20.75 4.518C21.9695 4.53515 23.1861 4.64144 24.39 4.836L24.389 8.835Z" fill="white"/>
</g>
<defs>
<clipPath id="clip0_130_42674">
<rect width="35" height="35" fill="white"/>
</clipPath>
</defs>
</svg>
