<svg width="327" height="53" viewBox="0 0 327 53" fill="none" xmlns="http://www.w3.org/2000/svg">
<path d="M10.176 26.613H14.48V27.573H10.176V26.613ZM6.336 19.957H13.664V20.949H6.336V19.957ZM4.848 26.613H9.088V27.573H4.848V26.613ZM0.624 22.437H5.648V23.541H0.624V22.437ZM2.608 18.213H3.776V32.917H2.608V18.213ZM8.736 26.613H9.744C9.744 26.613 9.744 26.949 9.728 27.093C9.6 30.773 9.472 32.053 9.136 32.485C8.928 32.757 8.688 32.869 8.352 32.885C8.064 32.933 7.616 32.933 7.152 32.901C7.136 32.613 7.056 32.197 6.896 31.941C7.344 31.989 7.712 31.989 7.904 31.989C8.08 31.989 8.176 31.957 8.272 31.813C8.496 31.541 8.624 30.293 8.736 26.821V26.613ZM14.144 26.613H15.168C15.168 26.613 15.168 26.949 15.152 27.093C15.04 30.757 14.928 32.053 14.592 32.485C14.368 32.757 14.144 32.853 13.792 32.885C13.488 32.933 12.992 32.933 12.48 32.901C12.448 32.597 12.352 32.181 12.208 31.909C12.704 31.957 13.12 31.957 13.312 31.957C13.504 31.957 13.6 31.941 13.712 31.797C13.92 31.525 14.032 30.293 14.144 26.821V26.613ZM13.424 19.957H14.544C14.544 19.957 14.512 20.277 14.496 20.437C14.288 22.805 14.08 23.765 13.696 24.149C13.44 24.421 13.168 24.517 12.752 24.549C12.4 24.565 11.744 24.581 11.072 24.533C11.04 24.213 10.928 23.781 10.752 23.509C11.408 23.573 12.048 23.573 12.304 23.573C12.544 23.573 12.672 23.557 12.784 23.445C13.056 23.189 13.248 22.309 13.424 20.117V19.957ZM9.632 18.197H10.768C10.544 21.445 9.664 23.637 6.32 24.885C6.208 24.629 5.92 24.229 5.712 24.037C8.8 22.965 9.456 21.029 9.632 18.197ZM6.528 24.965H7.584C7.488 28.405 7.056 31.253 5.072 32.949C4.928 32.725 4.624 32.373 4.4 32.213C6.176 30.709 6.448 28.085 6.528 24.965ZM11.792 24.933H12.864C12.768 28.469 12.32 31.237 10.256 32.917C10.112 32.677 9.792 32.325 9.552 32.149C11.424 30.693 11.728 28.133 11.792 24.933ZM21.664 21.893H25.088V22.949H21.664V21.893ZM24.768 21.893H25.776C25.776 21.893 25.76 22.309 25.76 22.437C25.664 29.365 25.584 31.557 25.216 32.165C24.992 32.533 24.736 32.661 24.352 32.709C24.032 32.757 23.552 32.741 23.072 32.725C23.04 32.421 22.944 31.973 22.784 31.701C23.28 31.749 23.696 31.749 23.92 31.749C24.096 31.749 24.208 31.701 24.32 31.493C24.592 31.061 24.688 28.837 24.768 22.165V21.893ZM22.736 18.197H23.728C23.696 24.677 23.552 29.589 21.376 32.949C21.216 32.773 20.784 32.389 20.56 32.229C22.656 29.237 22.768 24.261 22.736 18.197ZM18.704 18.197H19.824V20.773H18.704V18.197ZM16.816 20.341H21.568V21.349H16.816V20.341ZM16.656 24.613H21.744V25.621H16.656V24.613ZM17.328 21.845L18.208 21.621C18.512 22.437 18.72 23.509 18.752 24.213L17.792 24.469C17.792 23.765 17.6 22.661 17.328 21.845ZM20.304 21.557L21.312 21.781C21.024 22.709 20.72 23.813 20.448 24.501L19.632 24.293C19.872 23.557 20.176 22.357 20.304 21.557ZM16.576 28.053C17.872 27.877 19.792 27.573 21.712 27.253L21.776 28.245C20 28.565 18.16 28.885 16.8 29.125L16.576 28.053ZM28.08 18.197H29.2V20.773H28.08V18.197ZM28.08 24.981H29.2V32.949H28.08V24.981ZM26.112 20.325H31.168V21.349H26.112V20.325ZM26.016 24.597H31.36V25.621H26.016V24.597ZM26.176 27.893H31.12V28.917H26.176V27.893ZM26.608 21.845L27.472 21.605C27.808 22.437 28.032 23.541 28.064 24.261L27.136 24.517C27.12 23.797 26.896 22.677 26.608 21.845ZM29.76 21.525L30.8 21.781C30.496 22.709 30.176 23.797 29.872 24.501L29.056 24.277C29.296 23.525 29.632 22.325 29.76 21.525ZM18.704 24.997H19.824V27.781C19.824 29.413 19.488 31.557 17.52 32.933C17.376 32.693 17.04 32.325 16.784 32.133C18.528 31.013 18.704 29.109 18.704 27.781V24.997ZM39.328 23.317H40.56V32.917H39.328V23.317ZM35.696 26.021V27.413H44.4V26.021H35.696ZM35.696 23.733V25.093H44.4V23.733H35.696ZM34.528 22.757H45.616V28.373H34.528V22.757ZM32.912 29.605H47.104V30.661H32.912V29.605ZM35.184 19.637V21.157H38.256V19.637H35.184ZM34.096 18.837H39.376V21.957H34.096V18.837ZM41.76 19.637V21.157H44.864V19.637H41.76ZM40.672 18.837H46V21.957H40.672V18.837ZM57.424 18.389H58.624V22.037H57.424V18.389ZM53.248 21.349H63.024V22.501H53.248V21.349ZM54.576 23.749L55.648 23.573C56.256 25.701 56.816 28.437 56.944 30.021L55.76 30.277C55.648 28.677 55.152 25.893 54.576 23.749ZM60.416 23.429L61.696 23.653C61.104 26.213 60.176 29.493 59.424 31.477L58.352 31.221C59.104 29.205 59.984 25.813 60.416 23.429ZM52.848 31.029H63.424V32.181H52.848V31.029ZM52.416 18.245L53.552 18.613C52.464 21.301 50.752 23.989 48.992 25.749C48.864 25.477 48.528 24.837 48.304 24.549C49.92 23.045 51.488 20.661 52.416 18.245ZM50.752 22.373L51.888 21.237L51.904 21.253V32.885H50.752V22.373Z" fill="black"/>
<path d="M103.6 34.218C103.3 34.518 102.9 34.818 102.5 35.118C102.4 35.218 102.3 35.218 102.3 35.318C99.2999 37.618 96.8999 39.818 98.1999 44.218C99.7999 43.418 101.4 42.418 102.8 41.218C102.5 40.518 102.2 39.818 102.2 39.018C102 37.218 102.6 35.518 103.6 34.218Z" fill="white"/>
<path d="M111 33.318C111.2 33.718 111.3 34.218 111.5 34.618C111.5 34.718 111.6 34.818 111.6 34.918C112.9 38.518 114.2 41.418 118.8 41.618C118.5 39.818 118 38.018 117.4 36.318C116.6 36.418 115.9 36.418 115.1 36.218C113.4 35.718 111.9 34.718 111 33.318Z" fill="white"/>
<path d="M112.4 26.018C112.9 26.018 113.3 25.918 113.8 25.918H114.1C117.9 25.818 121.1 25.418 122.7 21.218C120.9 20.918 119 20.818 117.2 20.918C117.1 21.718 116.8 22.418 116.4 23.018C115.4 24.518 114 25.618 112.4 26.018Z" fill="white"/>
<path d="M105.9 22.418C106 22.018 106.1 21.518 106.3 21.118C106.3 21.018 106.4 20.918 106.4 20.818C107.5 17.218 108.1 14.018 104.5 11.218C103.7 12.818 103 14.618 102.5 16.318C103.2 16.718 103.8 17.118 104.3 17.718C105.4 19.118 106 20.818 105.9 22.418C105.9 22.518 105.9 22.518 105.9 22.418Z" fill="white"/>
<path d="M100.5 27.518C100.1 27.318 99.7 27.018 99.3 26.718C99.2 26.618 99.1 26.618 99.1 26.518C96 24.418 93.2 22.818 89.4 25.318C90.7 26.618 92.1 27.818 93.7 28.818C94.2 28.318 94.9 27.818 95.6 27.618C97.1 26.918 98.9 26.918 100.5 27.518Z" fill="white"/>
<path d="M106.7 29.418C105 40.318 87.6 36.718 89.6 52.918C91.1 43.518 109.6 46.118 106.7 29.418Z" fill="#355297"/>
<path d="M103.7 34.918C102.6 36.218 102.1 38.018 102.2 39.718C102.5 44.718 108.6 45.118 106.7 53.018C104.3 48.018 100 49.218 98.2 44.918C97 40.518 99.3 38.318 102.3 36.018C102.5 35.818 103.4 35.118 103.7 34.918Z" fill="#B3B301"/>
<path d="M103.6 34.918C103.3 35.218 102.9 35.518 102.5 35.818C102.4 35.918 102.3 35.918 102.3 36.018C99.2999 38.318 96.8999 40.518 98.1999 44.918C99.7999 44.118 101.4 43.118 102.8 41.918C102.5 41.218 102.2 40.518 102.2 39.718C102.1 37.918 102.6 36.218 103.6 34.918Z" fill="#242D0C"/>
<path d="M106.7 29.418C116.6 34.418 107.7 49.818 123.8 52.918C115.3 48.618 123.5 31.818 106.7 29.418Z" fill="#355297"/>
<path d="M111 33.918C111.9 35.418 113.4 36.418 115.1 36.818C120 38.018 122.2 32.418 129.1 36.618C123.6 37.318 123.4 41.818 118.8 42.218C114.2 42.018 112.9 39.118 111.6 35.518C111.5 35.318 111.1 34.218 111 33.918Z" fill="#B3B301"/>
<path d="M111 34.018C111.2 34.418 111.3 34.918 111.5 35.318C111.5 35.418 111.6 35.518 111.6 35.618C112.9 39.218 114.2 42.118 118.8 42.318C118.5 40.518 118 38.718 117.4 37.018C116.6 37.118 115.9 37.118 115.1 36.918C113.4 36.418 111.9 35.418 111 34.018Z" fill="#242D0C"/>
<path d="M106.7 29.418C114.5 21.518 126.4 34.718 134.4 20.418C127.6 27.118 114.1 14.118 106.7 29.418Z" fill="#355297"/>
<path d="M112.3 26.718C114 26.318 115.4 25.218 116.3 23.718C119 19.518 114.3 15.618 120.5 10.318C119.5 15.818 123.7 17.418 122.6 21.918C121 26.218 117.8 26.518 114 26.718C113.8 26.718 112.6 26.718 112.3 26.718Z" fill="#B3B301"/>
<path d="M112.4 26.718C112.9 26.718 113.3 26.618 113.8 26.618C113.9 26.618 114 26.618 114.1 26.618C117.9 26.518 121.1 26.118 122.7 21.918C120.9 21.618 119 21.518 117.2 21.618C117.1 22.418 116.8 23.118 116.4 23.718C115.4 25.218 114 26.318 112.4 26.718Z" fill="#242D0C"/>
<path d="M106.7 29.418C101.6 19.618 117.8 12.318 106.7 0.317993C111 8.81799 94.4 17.618 106.7 29.418Z" fill="#355297"/>
<path d="M105.9 23.218C106 21.518 105.4 19.818 104.3 18.518C101.1 14.618 96 17.918 92.8 10.418C97.7 13.018 100.5 9.518 104.5 11.918C108.1 14.718 107.4 17.918 106.4 21.518C106.3 21.818 106 22.918 105.9 23.218Z" fill="#B3B301"/>
<path d="M105.9 23.118C106 22.718 106.1 22.218 106.3 21.818C106.3 21.718 106.4 21.618 106.4 21.518C107.5 17.918 108.1 14.718 104.5 11.918C103.7 13.518 103 15.318 102.5 17.018C103.2 17.418 103.8 17.818 104.3 18.418C105.4 19.818 106 21.518 105.9 23.118C105.9 23.218 105.9 23.218 105.9 23.118Z" fill="#242D0C"/>
<path d="M106.7 29.418C95.8 31.218 93.9 13.518 79 20.418C88.4 18.918 91.7 37.418 106.7 29.418Z" fill="#355297"/>
<path d="M100.5 28.218C98.9 27.618 97.1 27.618 95.5 28.318C90.8 30.118 92.4 36.018 84.3 36.718C88.3 32.918 85.9 29.118 89.4 26.118C93.2 23.618 96 25.218 99.1 27.318C99.3 27.418 100.3 28.118 100.5 28.218Z" fill="#B3B301"/>
<path d="M100.5 28.218C100.1 28.018 99.7 27.718 99.3 27.418C99.2 27.318 99.1 27.318 99.1 27.218C96 25.118 93.2 23.518 89.4 26.018C90.7 27.318 92.1 28.518 93.7 29.518C94.2 29.018 94.9 28.518 95.6 28.318C97.1 27.618 98.9 27.618 100.5 28.218Z" fill="#242D0C"/>
<path d="M188.341 27.754C186.541 27.954 185.741 26.454 183.841 26.554C183.541 26.254 183.041 26.254 182.741 25.954C182.441 25.854 181.941 26.054 181.841 25.854C182.041 25.254 182.141 24.654 182.041 24.054C182.541 23.854 182.941 23.454 183.641 23.654C184.141 22.854 185.641 23.654 185.341 22.054C184.741 21.754 184.041 21.654 183.341 21.654C182.841 21.054 182.441 20.254 181.341 20.154C180.841 21.154 181.241 22.354 179.941 22.654C178.841 22.954 176.941 21.954 176.141 23.254C175.941 23.554 176.241 23.554 176.341 23.854C177.641 23.354 178.941 23.854 180.241 23.954C180.441 24.254 180.541 24.554 180.641 24.854C180.041 25.754 178.641 25.954 177.241 26.454C176.241 26.754 175.241 27.254 174.241 27.754C173.941 27.954 173.741 28.354 173.241 28.454C173.041 28.254 172.841 27.954 172.841 27.654H171.641C170.741 28.454 171.441 29.254 171.741 30.054C172.241 31.454 172.941 33.754 174.541 33.654C174.541 32.554 174.841 31.654 174.141 30.654C175.241 28.754 177.241 27.754 179.341 26.954C180.141 27.154 180.841 26.354 181.141 27.054C180.841 27.454 180.841 28.254 180.341 28.454C179.641 28.254 179.441 27.054 178.341 27.654C178.741 28.354 179.041 29.754 177.641 29.554V30.254C178.741 30.354 179.241 29.454 180.341 29.854C180.741 32.554 177.641 31.654 177.141 33.454C178.041 33.754 178.841 33.154 179.741 33.154C180.141 33.954 179.441 35.854 180.941 35.654C181.041 34.854 181.141 33.954 181.441 33.154C182.141 33.154 182.841 33.054 183.441 32.754C183.841 31.254 181.041 31.854 181.441 30.554C181.641 29.854 183.041 30.354 183.541 29.754C183.541 29.454 183.341 29.254 183.441 28.854C183.141 28.654 182.341 28.854 182.141 28.754C182.241 27.354 183.341 27.554 184.841 27.454C185.641 28.254 187.441 28.154 187.941 29.254C187.541 30.754 186.941 32.154 185.241 32.454C185.641 33.354 184.541 34.054 185.141 35.154C186.441 35.054 186.941 34.154 187.941 33.754C188.741 32.254 190.541 31.154 190.441 29.054C189.841 28.554 188.941 28.254 188.341 27.754Z" fill="black"/>
<path d="M161.841 35.454C161.741 35.154 161.741 34.754 161.741 34.454C162.041 34.054 162.741 34.054 162.941 33.554C163.041 33.254 162.841 33.154 162.741 32.954C162.641 32.754 161.941 33.054 161.841 32.754C161.741 32.154 162.041 31.454 162.641 31.254C163.441 31.454 164.141 32.054 164.841 31.454C164.541 30.254 163.441 29.354 162.141 29.554C161.941 29.754 162.141 30.254 161.941 30.454C160.941 30.454 160.541 31.054 159.541 30.754C160.341 29.854 161.041 29.054 161.941 28.254C162.341 27.954 162.841 28.154 162.641 27.454C162.341 26.354 160.741 27.454 160.241 27.654C159.041 28.054 156.441 27.654 156.641 29.154C157.841 29.154 158.341 28.454 159.341 28.754C158.341 28.854 158.441 29.954 157.341 29.954C157.141 30.954 155.641 30.754 155.641 32.054C156.241 32.654 157.441 32.154 157.941 31.854C158.841 31.854 159.541 31.954 160.241 31.954C160.941 33.554 158.341 33.354 157.741 34.254C158.141 34.954 159.541 34.154 160.041 34.354C159.841 34.754 159.741 35.154 159.741 35.654C157.641 36.054 155.541 36.354 153.441 36.454V36.954C154.441 37.554 156.741 37.554 158.041 37.154C159.141 37.554 160.941 37.154 161.741 37.054C163.141 36.854 164.741 37.954 166.441 37.654C166.541 37.254 166.541 36.754 166.241 36.454C164.741 35.854 163.241 35.854 161.841 35.454Z" fill="black"/>
<path d="M204.014 27.204C204.114 26.004 204.414 24.804 204.914 23.704C207.114 23.404 209.414 24.204 211.014 23.104C210.014 22.404 208.714 22.104 207.514 22.304C205.814 23.004 204.014 22.704 202.014 22.904C201.414 23.004 200.714 23.304 200.114 23.304C198.914 23.304 198.314 23.804 197.014 24.104C195.514 24.404 194.014 24.704 192.514 25.204C191.914 24.704 191.114 24.204 190.314 24.804C190.414 25.804 190.814 26.404 190.914 27.304C191.614 27.804 193.314 26.404 194.114 26.004C194.914 25.604 195.714 25.304 196.514 25.104C198.314 24.604 201.114 23.204 202.914 23.804C202.414 24.704 202.714 26.304 202.314 27.404C200.814 27.904 200.114 27.404 198.814 27.904C198.614 29.704 197.014 30.204 196.114 31.204C196.414 32.004 195.614 32.204 195.914 32.904C198.514 32.704 199.814 30.304 200.914 28.304C201.314 28.304 202.214 28.204 202.314 28.304C201.914 31.904 201.814 35.504 202.214 39.104C202.614 39.204 202.714 39.504 203.114 39.604C204.114 37.504 204.014 35.104 204.314 32.304C205.014 32.604 205.214 32.104 206.014 32.104C207.514 30.804 209.014 29.504 209.114 26.804C207.814 25.504 205.814 27.304 204.014 27.204ZM204.214 31.904C203.914 30.604 203.814 29.304 204.114 28.004C204.914 27.704 205.814 27.604 206.714 27.504C206.914 29.404 205.914 31.204 204.214 31.904Z" fill="black"/>
<path d="M216.366 33.995C216.366 32.795 215.666 31.595 215.566 30.395C215.566 29.795 215.966 28.795 215.366 28.295H215.166C214.666 30.095 214.866 32.595 214.566 34.695C214.066 34.795 213.766 35.095 213.866 35.795C215.066 36.295 215.466 35.195 216.366 34.995C216.666 34.895 217.166 35.095 217.566 34.995C218.366 34.895 219.166 34.495 219.766 34.395C220.766 34.295 222.466 34.995 222.466 33.695C220.866 33.095 218.266 33.695 216.366 33.995Z" fill="black"/>
<path d="M219.166 32.995C219.366 33.195 219.766 32.895 220.166 32.895C220.766 31.895 220.566 30.495 220.666 29.395C221.166 29.295 221.566 29.295 222.066 29.295C222.266 28.595 223.166 28.595 223.266 27.895C222.566 27.595 221.766 27.595 221.066 27.895C220.966 26.195 221.466 25.095 222.766 24.795C222.366 23.495 220.366 24.395 219.266 24.395C218.166 25.195 215.666 24.695 215.166 26.195C216.666 25.895 218.166 25.695 219.666 25.595C220.066 27.795 218.566 30.595 219.166 32.995Z" fill="black"/>
<path d="M230.366 32.595C231.666 31.195 230.766 29.895 230.566 27.895C231.566 27.495 233.366 27.795 233.266 26.295C231.466 25.395 229.566 27.195 227.666 27.495C227.966 26.895 228.166 26.295 228.366 25.595C228.666 24.395 228.466 22.895 228.666 21.895C228.866 20.895 229.166 19.895 228.066 19.995C227.466 20.095 227.666 20.395 227.466 20.795C227.266 21.195 227.066 21.095 226.966 21.395C226.866 21.895 227.066 22.195 227.166 22.695C226.566 23.795 226.966 24.995 226.466 26.095C226.266 26.595 225.766 26.895 225.566 27.395C225.466 27.695 225.566 28.195 225.366 28.495C224.866 29.495 223.366 29.895 222.766 30.695C224.566 30.795 226.666 31.095 227.666 32.495C226.266 33.795 224.466 34.695 222.566 34.995C224.566 36.895 227.266 33.995 229.066 33.395C230.666 35.395 232.566 36.495 236.066 36.695C236.366 36.295 236.866 36.195 236.966 35.695C234.966 34.495 231.666 34.595 230.366 32.595ZM228.666 31.595C227.966 30.895 226.566 30.895 225.366 30.595C226.366 29.395 227.866 28.495 229.466 28.195C229.566 29.495 229.566 30.995 228.666 31.595Z" fill="black"/>
<path d="M252.841 21.054V19.954C251.541 19.854 248.641 19.454 247.941 20.554C249.041 21.254 251.441 22.354 252.841 21.054Z" fill="black"/>
<path d="M200.941 21.154C201.441 22.554 202.941 22.154 204.241 21.754C204.541 21.454 204.741 21.054 204.841 20.554C203.341 20.054 200.841 18.954 199.441 20.254C199.841 20.654 200.341 21.054 200.941 21.154Z" fill="black"/>
<path d="M317.341 30.954C315.041 30.654 312.641 30.854 310.441 31.554C309.941 32.754 311.141 33.654 311.341 34.754C311.841 34.754 312.041 35.054 312.741 34.954C313.241 34.254 312.641 33.454 312.541 32.754C312.741 31.954 314.241 31.854 315.241 32.054C314.641 32.654 314.641 33.754 313.441 33.854V34.554C314.441 35.054 316.041 34.654 317.441 34.654C317.441 34.554 317.441 34.454 317.541 34.454C317.641 33.754 317.141 33.654 316.841 33.454C317.641 32.854 318.441 31.754 317.341 30.954Z" fill="black"/>
<path d="M287.941 24.154C286.141 24.854 284.441 25.854 282.941 27.054C282.441 27.254 282.041 27.354 282.041 28.054C284.441 27.754 286.241 26.054 289.141 25.954C289.741 25.654 290.341 25.354 290.941 25.154C290.941 24.854 290.941 24.654 291.041 24.354C290.441 23.554 288.441 22.854 287.941 24.154Z" fill="black"/>
<path d="M299.241 32.454C296.941 32.054 294.141 33.054 292.641 31.954C292.541 30.554 292.741 29.154 293.241 27.754C295.641 27.354 298.241 27.554 300.641 27.254C300.741 25.854 299.441 25.854 299.041 24.954C297.841 24.754 297.441 25.154 296.741 25.554C295.641 26.054 294.541 26.454 293.441 26.754C293.841 25.754 294.941 23.954 293.541 23.154C291.241 23.754 292.341 26.154 291.741 28.854C291.741 29.054 291.541 29.154 291.441 29.354C291.241 30.454 291.141 31.654 291.241 32.754C291.741 33.954 292.841 33.754 294.041 33.754C296.141 33.854 298.241 34.054 300.341 34.454C301.241 33.654 301.641 32.354 301.141 31.254C300.341 31.454 300.041 32.154 299.241 32.454Z" fill="black"/>
<path d="M246.141 23.254C245.241 22.954 244.741 23.754 244.341 24.154C244.141 26.654 243.541 29.754 242.141 31.854C240.941 32.454 239.841 33.354 239.041 34.554C239.141 34.854 239.341 34.854 239.541 35.054C243.841 34.054 245.441 30.254 245.541 25.254C245.841 24.754 246.441 24.054 246.141 23.254Z" fill="black"/>
<path d="M273.541 20.454C272.741 19.354 271.241 18.854 269.941 19.254C270.041 21.054 273.541 24.054 273.541 20.454Z" fill="black"/>
<path d="M286.341 28.854C286.341 28.954 286.141 28.954 286.041 28.954C285.841 29.454 286.141 29.854 286.341 30.254C286.141 31.854 285.341 32.854 284.941 34.254C285.441 35.254 286.541 35.754 287.641 35.454C288.341 33.554 288.141 30.054 286.341 28.854Z" fill="black"/>
<path d="M311.841 28.454C311.741 26.854 312.941 26.454 313.241 25.254C314.241 23.754 317.641 24.654 318.741 23.554C318.941 23.054 317.641 22.854 317.641 22.354C317.641 21.954 317.841 22.254 318.041 22.054C318.641 21.354 320.441 21.554 320.741 20.854C321.341 19.354 318.441 19.154 316.941 19.354C316.241 19.454 315.541 19.654 314.941 20.154C315.141 20.654 316.041 20.454 316.441 20.654C316.841 21.854 315.641 22.954 314.541 23.354C314.541 22.854 314.541 22.354 314.641 21.854C314.241 21.654 313.841 21.554 313.341 21.554C311.841 22.654 311.341 24.254 310.941 26.454C310.141 27.354 309.941 28.954 309.341 30.154C308.741 30.254 308.141 30.554 307.741 30.954C306.541 31.354 304.641 31.554 304.741 32.854C305.641 32.954 306.241 32.354 307.141 32.154C308.041 32.054 308.841 31.854 309.641 31.454C310.341 30.954 310.241 29.754 311.241 29.754C311.341 29.554 311.341 29.054 311.641 29.054C313.941 29.454 315.541 28.154 318.141 28.354C320.141 28.554 322.041 29.054 323.941 29.854C323.641 31.254 323.241 33.154 322.141 34.054C321.241 33.954 321.141 34.454 320.541 34.354C320.641 35.554 321.041 36.554 322.241 36.754C322.641 36.654 322.641 36.054 323.341 36.254C323.341 35.654 323.841 35.554 324.041 35.254C324.541 34.454 324.941 33.654 325.241 32.854C325.741 31.954 326.941 30.754 326.941 29.454C325.341 28.154 322.041 28.554 320.041 27.654C317.341 27.554 314.541 27.854 311.841 28.454Z" fill="black"/>
<path d="M253.441 32.854C254.541 32.954 255.141 32.454 255.141 31.454C254.441 30.854 252.841 31.154 251.941 30.754C251.941 31.154 251.841 31.554 251.741 31.954C252.341 32.254 253.241 32.254 253.441 32.854Z" fill="black"/>
<path d="M276.441 34.354C275.841 33.554 273.141 33.154 272.841 32.054C272.741 31.454 273.341 30.854 273.541 29.954C273.641 29.554 273.441 29.054 273.541 28.754C273.641 28.254 274.141 27.854 274.141 27.454C274.041 26.954 273.541 26.554 273.041 26.654C273.041 26.654 273.041 26.654 272.941 26.654C272.541 27.254 272.741 28.554 272.441 29.354C272.341 29.554 272.141 29.754 272.041 29.954C271.841 30.554 271.641 31.154 271.141 31.154C270.641 30.854 270.141 30.554 269.641 30.154C268.741 29.554 267.641 29.354 266.541 29.554C266.741 31.154 269.041 30.854 269.841 31.954C269.441 33.054 267.641 32.654 266.941 33.554C266.141 33.554 265.341 33.754 264.641 34.254C265.641 35.554 266.941 34.554 267.841 34.254C268.941 33.954 269.941 33.554 270.941 32.954C272.341 33.854 273.141 35.354 275.041 35.854C275.141 36.054 275.341 36.254 275.541 36.454C277.541 36.454 280.541 37.254 280.741 34.554C279.341 34.354 277.941 34.254 276.441 34.354Z" fill="black"/>
<path d="M257.141 26.954C256.641 26.054 257.541 25.054 257.241 24.154C255.441 24.054 256.441 26.154 255.841 27.254C253.741 27.254 252.541 28.154 250.641 28.354C250.341 28.054 249.941 27.954 249.541 27.954C249.141 26.954 250.341 26.754 250.841 26.254C251.041 25.954 251.041 25.654 251.241 25.354C251.941 24.454 252.741 23.654 253.641 22.854C253.941 22.754 254.341 22.754 254.341 22.254C253.841 21.554 252.641 22.054 251.741 22.054C250.441 22.954 248.441 23.254 246.841 23.954C247.641 24.954 249.441 23.954 250.641 24.054C249.841 24.954 249.541 25.854 248.441 26.754C247.641 27.354 245.841 27.654 245.841 28.754C246.941 29.654 248.041 27.954 249.041 28.154C248.941 28.354 248.741 28.354 248.741 28.654C248.641 29.754 249.041 30.954 248.941 32.054C248.841 33.154 247.841 33.454 247.541 34.454C248.041 34.854 248.141 35.754 249.241 35.654C249.441 35.154 250.041 35.154 250.341 34.654C251.041 33.654 250.641 32.054 250.641 30.454C251.541 29.054 253.941 28.554 255.741 28.354C255.941 30.554 255.741 32.354 256.041 34.954C255.141 35.954 253.741 36.254 252.541 35.654C252.841 36.154 252.941 37.154 253.441 37.454C254.341 38.054 255.441 37.254 256.241 36.854C256.541 37.054 256.941 37.054 257.341 37.054C257.241 36.554 257.641 36.354 257.841 35.954C257.541 33.454 257.241 30.954 256.941 28.354C257.641 27.654 259.641 28.254 260.041 27.154C259.341 26.654 258.241 26.854 257.141 26.954Z" fill="black"/>
<path d="M269.241 26.754C270.741 25.454 273.641 26.454 275.841 26.454C276.641 26.454 277.341 26.154 277.841 26.654C278.141 26.354 278.541 26.254 278.541 25.754C278.441 25.454 278.241 25.154 278.041 24.954C277.041 24.254 275.941 24.854 274.941 25.054C274.741 25.054 274.541 24.954 274.341 24.954C273.741 25.054 273.041 25.354 272.341 25.454C271.241 25.554 269.941 25.254 268.941 25.454C268.541 25.554 268.241 25.754 267.841 25.954C266.641 26.254 265.441 26.654 264.241 27.154C265.141 29.254 267.141 26.454 269.241 26.754Z" fill="black"/>
<path d="M156.841 19.054C156.841 19.354 156.941 19.654 157.041 19.854C157.441 20.154 158.241 20.054 158.941 20.054C160.141 19.054 162.441 19.354 163.941 18.954C163.941 18.654 163.741 18.454 163.841 18.054C163.341 17.754 162.841 17.454 162.341 17.354C162.341 17.254 162.341 17.154 162.241 17.054C162.341 16.654 163.041 16.754 163.441 16.654C163.641 16.354 163.941 16.154 163.841 15.554C163.441 15.054 162.841 14.754 162.141 14.854C161.641 14.154 160.741 13.954 160.041 14.454C159.641 14.754 159.341 15.154 159.341 15.654C158.641 15.654 157.741 15.754 157.441 16.354C157.941 16.754 159.041 16.554 159.341 17.154C159.241 17.354 159.241 17.654 159.141 17.954C158.241 18.154 157.941 18.954 156.841 19.054Z" fill="black"/>
<path d="M159.241 24.554C159.841 24.354 159.741 23.654 160.341 23.354C161.141 23.554 161.241 23.154 161.841 23.054C162.241 23.154 162.241 23.554 162.841 23.354C163.341 22.954 163.741 22.354 163.841 21.654C164.341 21.354 164.841 21.154 165.041 20.554C164.341 19.754 162.741 19.254 161.941 20.254C160.641 20.154 159.341 20.954 158.141 21.354C157.341 20.954 155.841 20.154 154.841 20.754C154.941 21.354 155.141 21.954 155.241 22.454C156.341 22.754 157.841 24.954 159.241 24.554ZM162.041 21.054C161.841 22.154 159.841 23.054 159.041 22.354C159.841 22.054 160.541 20.954 162.041 21.054Z" fill="black"/>
<path d="M168.141 24.154C167.841 24.054 167.141 24.554 166.741 24.654C164.441 25.254 161.841 24.854 159.441 24.954C157.641 25.654 154.241 25.754 152.441 27.154C151.441 26.754 151.441 25.354 149.941 25.354C149.441 25.954 148.541 26.554 148.241 27.454C147.941 28.454 148.441 29.454 148.841 30.554C149.441 30.654 149.741 31.054 150.541 30.954C150.541 30.454 151.141 30.354 151.341 29.954C151.641 29.454 151.541 28.754 152.041 28.354C152.041 27.854 151.941 27.754 152.241 27.454C153.141 27.454 153.941 27.354 154.841 27.254C155.841 26.754 156.941 26.454 158.141 26.454C160.041 25.654 163.441 25.754 165.741 26.154C165.441 26.254 164.941 26.254 165.041 26.854C166.541 26.854 167.941 26.654 169.441 26.354C170.141 26.254 170.841 26.454 170.941 25.854C171.041 24.854 168.841 24.554 168.141 24.154Z" fill="black"/>
</svg>
