<svg width="306" height="57" viewBox="0 0 306 57" fill="none" xmlns="http://www.w3.org/2000/svg">
<g clip-path="url(#clip0_153_29289)">
<mask id="mask0_153_29289" style="mask-type:luminance" maskUnits="userSpaceOnUse" x="2" y="40" width="13" height="17">
<path d="M14.9199 40.79H2.06995V56.46H14.9199V40.79Z" fill="white"/>
</mask>
<g mask="url(#mask0_153_29289)">
<path d="M8.49995 40.79C6.7946 40.79 5.15911 41.4675 3.95325 42.6733C2.74739 43.8792 2.06995 45.5147 2.06995 47.22C2.06995 49.59 4.65995 53.14 6.82995 55.7C7.0346 55.9405 7.28903 56.1335 7.57565 56.266C7.86226 56.3984 8.17422 56.467 8.48995 56.467C8.80567 56.467 9.11763 56.3984 9.40424 56.266C9.69086 56.1335 9.94529 55.9405 10.1499 55.7C12.3199 53.14 14.9099 49.59 14.9099 47.22C14.91 45.5182 14.2353 43.8857 13.0337 42.6804C11.8322 41.4751 10.2018 40.7953 8.49995 40.79ZM8.82995 54.56C8.78998 54.6003 8.74246 54.6322 8.69012 54.6539C8.63777 54.6757 8.58164 54.6869 8.52495 54.6869C8.46825 54.6869 8.41212 54.6757 8.35978 54.6539C8.30743 54.6322 8.25991 54.6003 8.21995 54.56C5.49995 51.35 3.86995 48.56 3.86995 47.21C3.86995 45.9688 4.36302 44.7785 5.24069 43.9008C6.11836 43.0231 7.30873 42.53 8.54995 42.53C9.79116 42.53 10.9815 43.0231 11.8592 43.9008C12.7369 44.7785 13.2299 45.9688 13.2299 47.21C13.2299 48.6 11.5999 51.35 8.87995 54.56" fill="white"/>
<path d="M9.82992 46.9501C9.82992 47.2132 9.75192 47.4703 9.60578 47.689C9.45964 47.9077 9.25192 48.0782 9.00889 48.1789C8.76587 48.2795 8.49845 48.3059 8.24045 48.2546C7.98246 48.2032 7.74547 48.0766 7.55947 47.8906C7.37347 47.7046 7.2468 47.4676 7.19548 47.2096C7.14416 46.9516 7.1705 46.6842 7.27116 46.4412C7.37183 46.1981 7.5423 45.9904 7.76101 45.8443C7.97973 45.6981 8.23687 45.6201 8.49992 45.6201C8.85266 45.6201 9.19095 45.7602 9.44037 46.0097C9.6898 46.2591 9.82992 46.5974 9.82992 46.9501Z" fill="white"/>
</g>
<path d="M14.78 30.0999C14.43 29.9299 12.78 29.0999 12.43 28.9899C12.08 28.8799 11.88 28.8199 11.66 29.1599C11.44 29.4999 10.77 30.2699 10.57 30.4899C10.37 30.7099 10.17 30.7499 9.82003 30.5699C8.80824 30.1724 7.87407 29.6004 7.06003 28.8799C6.31009 28.1959 5.66634 27.4038 5.15003 26.5299C4.95003 26.1899 5.15003 26.0099 5.30003 25.8299C5.45003 25.6499 5.64003 25.4299 5.82003 25.2299L5.94003 25.0699C6.02154 24.9378 6.09501 24.8009 6.16003 24.6599C6.21081 24.5681 6.23744 24.4648 6.23744 24.3599C6.23744 24.255 6.21081 24.1517 6.16003 24.0599C6.07003 23.8899 5.39003 22.2099 5.10003 21.5299C4.81003 20.8499 4.49003 20.9999 4.29003 20.9999C4.09003 20.9999 3.86003 20.9999 3.63003 20.9999C3.45535 21.0044 3.28348 21.0449 3.12518 21.1189C2.96688 21.1929 2.82555 21.2988 2.71003 21.4299C2.3224 21.7951 2.01541 22.2372 1.80875 22.728C1.6021 23.2188 1.50035 23.7474 1.51003 24.2799C1.5171 24.6729 1.57765 25.0632 1.69003 25.4399C1.96089 26.2916 2.37702 27.09 2.92003 27.7999C3.09003 28.0199 5.30003 31.5799 8.79003 32.9499C12.28 34.3199 12.29 33.8499 12.92 33.7999C13.3999 33.711 13.8553 33.5205 14.2554 33.2411C14.6556 32.9617 14.9913 32.5998 15.24 32.1799C15.4649 31.6714 15.5345 31.1078 15.44 30.5599C15.36 30.4199 15.12 30.3399 14.78 30.1699" fill="white"/>
<path d="M13.57 2.08993H3.43002C3.11197 2.08461 2.79605 2.14283 2.50079 2.26117C2.20553 2.37952 1.93687 2.55562 1.71054 2.77915C1.48422 3.00268 1.3048 3.26913 1.18279 3.5629C1.06078 3.85667 0.998647 4.17184 1.00002 4.48993V10.4199C1.00266 11.3553 1.37542 12.2517 2.03685 12.9131C2.69828 13.5745 3.59462 13.9473 4.53002 13.9499H12.39C12.8608 13.9592 13.3286 13.8746 13.7662 13.7008C14.2038 13.5271 14.6024 13.2678 14.9386 12.9382C15.2747 12.6085 15.5418 12.2151 15.724 11.781C15.9063 11.3469 16.0001 10.8808 16 10.4099V4.48993C16 3.85607 15.7482 3.24816 15.3 2.79995C14.8518 2.35174 14.2439 2.09993 13.61 2.09993M13.21 3.67993L9.27002 8.13994C9.18358 8.24501 9.07661 8.33134 8.95565 8.39364C8.8347 8.45594 8.7023 8.4929 8.56656 8.50226C8.43083 8.51162 8.29461 8.49319 8.16624 8.44808C8.03788 8.40297 7.92007 8.33215 7.82002 8.23993L7.72002 8.13994L3.82002 3.67993H13.21ZM12.47 12.3699H4.57002C4.03959 12.3699 3.53088 12.1592 3.15581 11.7841C2.78074 11.4091 2.57002 10.9004 2.57002 10.3699V4.69993L6.53002 9.17993C6.77502 9.46184 7.07767 9.68789 7.41753 9.84279C7.75738 9.9977 8.12653 10.0779 8.50002 10.0779C8.87352 10.0779 9.24266 9.9977 9.58252 9.84279C9.92237 9.68789 10.225 9.46184 10.47 9.17993L14.38 4.69993V10.4099C14.38 10.9404 14.1693 11.4491 13.7942 11.8241C13.4192 12.1992 12.9105 12.4099 12.38 12.4099" fill="white"/>
<path d="M24.38 10.4901C25.0849 11.0326 25.9505 11.3246 26.84 11.3201C27.4251 11.3495 28.002 11.1726 28.47 10.8201C28.6691 10.6597 28.8279 10.455 28.9338 10.2224C29.0397 9.9897 29.0898 9.73551 29.08 9.48006C29.08 8.2334 28.1733 7.61006 26.36 7.61006H25.46V6.32006H26.31C27.93 6.32006 28.74 5.74006 28.74 4.58006C28.74 3.42006 28.1167 2.87673 26.87 2.95006C26.1112 2.96154 25.377 3.22148 24.78 3.69006V2.25006C25.5375 1.84064 26.3892 1.6372 27.25 1.66006C28.0539 1.62496 28.8452 1.86871 29.49 2.35006C29.7724 2.57092 29.9984 2.85552 30.1496 3.18055C30.3009 3.50558 30.373 3.86181 30.36 4.22006C30.3959 4.84662 30.1995 5.4644 29.8083 5.95518C29.4172 6.44596 28.8588 6.77526 28.24 6.88006C28.9171 6.91992 29.5567 7.20419 30.04 7.68006C30.2626 7.90468 30.4375 8.17191 30.5543 8.46573C30.6712 8.75956 30.7275 9.07395 30.72 9.39006C30.7385 9.83536 30.6511 10.2787 30.4651 10.6837C30.2791 11.0887 29.9998 11.4439 29.65 11.7201C28.8463 12.3175 27.8603 12.6179 26.86 12.5701C25.9974 12.6037 25.1414 12.4069 24.38 12.0001V10.4901Z" fill="white"/>
<path d="M38.3401 12.4201H31.9301V11.8401L36.1601 6.13011H32.3301V4.86011H38.3301V5.49011L34.1701 11.1501H38.3201L38.3401 12.4201Z" fill="white"/>
<path d="M46.4399 12.42H44.8399V8.08998C44.8399 6.69665 44.3166 5.99998 43.2699 5.99998C43.0289 5.99929 42.7906 6.05078 42.5714 6.15089C42.3522 6.25101 42.1572 6.39739 41.9999 6.57998C41.6382 7.01362 41.4495 7.56564 41.4699 8.12998V12.42H39.8199V1.22998H41.4299V6.06998C41.6701 5.63905 42.0233 5.28186 42.4516 5.03691C42.8798 4.79196 43.3667 4.66855 43.8599 4.67998C45.5666 4.67998 46.4199 5.70998 46.4199 7.76998L46.4399 12.42Z" fill="white"/>
<path d="M48.4 2.25995C48.3964 2.13478 48.4194 2.01027 48.4677 1.89473C48.516 1.77919 48.5884 1.67528 48.68 1.58995C48.871 1.41615 49.1219 1.32298 49.38 1.32995C49.6382 1.32298 49.889 1.41615 50.08 1.58995C50.1746 1.67352 50.2495 1.77687 50.2997 1.89265C50.3498 2.00844 50.3738 2.13384 50.37 2.25995C50.3738 2.38607 50.3498 2.51147 50.2997 2.62725C50.2495 2.74304 50.1746 2.84639 50.08 2.92995C49.889 3.10376 49.6382 3.19693 49.38 3.18995C49.1205 3.19421 48.8695 3.09739 48.68 2.91995C48.5897 2.83576 48.518 2.73347 48.4698 2.61976C48.4215 2.50605 48.3978 2.38346 48.4 2.25995ZM48.56 12.42V4.85995H50.17V12.42H48.56Z" fill="white"/>
<path d="M58.86 4.8601L55.53 13.4201C54.8633 15.1401 53.9066 16.0001 52.66 16.0001C52.3218 16.0102 51.9843 15.9663 51.66 15.8701V14.4901C51.9175 14.6074 52.197 14.6688 52.48 14.6701C52.7791 14.666 53.0691 14.567 53.3082 14.3872C53.5473 14.2074 53.723 13.9563 53.81 13.6701L54.34 12.4101L51.34 4.8601H53.12L54.94 10.2501C55.0132 10.4866 55.0733 10.727 55.12 10.9701C55.1649 10.7299 55.225 10.4927 55.3 10.2601L57.19 4.8501L58.86 4.8601Z" fill="white"/>
<path d="M66.5201 12.4201H64.9201V11.2401C64.7003 11.662 64.3661 12.0133 63.9557 12.2539C63.5454 12.4944 63.0755 12.6144 62.6001 12.6001C60.8201 12.6001 59.9301 11.5301 59.9301 9.39011V4.86011H61.5301V9.20011C61.5301 10.6134 62.0734 11.3201 63.1601 11.3201C63.4064 11.3273 63.6512 11.2789 63.8763 11.1785C64.1013 11.0781 64.3009 10.9282 64.4601 10.7401C64.8118 10.3137 64.9934 9.77234 64.9701 9.22011V4.86011H66.5701L66.5201 12.4201Z" fill="white"/>
<path d="M77.59 4.5901C77.3633 7.00344 77.25 8.3801 77.25 8.7201C77.25 9.6201 77.5067 10.0701 78.02 10.0701C78.2801 10.0575 78.5315 9.97207 78.7454 9.82356C78.9593 9.67504 79.1273 9.46941 79.23 9.2301C79.5735 8.56351 79.7388 7.81944 79.71 7.0701C79.7322 6.48961 79.6354 5.91072 79.4256 5.36901C79.2158 4.8273 78.8974 4.33423 78.49 3.9201C78.0344 3.49562 77.497 3.16849 76.9107 2.95873C76.3244 2.74896 75.7015 2.66096 75.08 2.7001C74.4103 2.68332 73.7447 2.80929 73.1274 3.06965C72.5102 3.33 71.9554 3.71877 71.5 4.2101C71.0248 4.71677 70.6546 5.31256 70.4109 5.96306C70.1672 6.61356 70.0547 7.3059 70.08 8.0001C70.049 8.64341 70.1491 9.28631 70.3743 9.88971C70.5995 10.4931 70.9451 11.0444 71.39 11.5101C71.873 11.9578 72.4423 12.3023 73.063 12.5224C73.6837 12.7425 74.3428 12.8336 75 12.7901C76.0662 12.8117 77.1242 12.6001 78.1 12.1701V13.2601C77.074 13.6562 75.9793 13.8432 74.88 13.8101C74.085 13.8452 73.2911 13.7218 72.5443 13.4471C71.7975 13.1724 71.1127 12.7519 70.53 12.2101C69.9674 11.6667 69.5253 11.0111 69.2324 10.2858C68.9396 9.56054 68.8025 8.7818 68.83 8.0001C68.8069 7.17186 68.9508 6.34744 69.2531 5.57602C69.5555 4.80461 70.0102 4.102 70.59 3.5101C71.1745 2.91542 71.8766 2.44911 72.6514 2.14091C73.4262 1.83271 74.2567 1.68939 75.09 1.7201C76.6238 1.661 78.1236 2.18234 79.29 3.1801C79.829 3.6563 80.2564 4.24555 80.5416 4.90584C80.8268 5.56613 80.9628 6.28121 80.94 7.0001C80.9948 8.08025 80.6614 9.14438 80 10.0001C79.7408 10.3503 79.4032 10.6349 79.0142 10.8311C78.6252 11.0273 78.1957 11.1297 77.76 11.1301C77.5382 11.159 77.3127 11.137 77.1008 11.0656C76.8888 10.9942 76.6959 10.8754 76.5368 10.7182C76.3776 10.561 76.2565 10.3696 76.1825 10.1585C76.1086 9.94742 76.0838 9.72223 76.11 9.5001C76.0226 9.88104 75.8312 10.2302 75.557 10.5087C75.2829 10.7872 74.9367 10.9841 74.5572 11.0775C74.1777 11.1708 73.7797 11.1569 73.4077 11.0373C73.0356 10.9177 72.704 10.6971 72.45 10.4001C72.0098 9.82954 71.7897 9.1196 71.83 8.4001C71.7889 7.40525 72.0927 6.42674 72.69 5.6301C72.9408 5.28844 73.2693 5.01138 73.6484 4.82184C74.0274 4.6323 74.4462 4.53573 74.87 4.5401C75.1941 4.53508 75.513 4.62175 75.79 4.7901C76.0482 4.93946 76.2382 5.18328 76.32 5.4701L76.4 4.6601L77.59 4.5901ZM73.09 8.3301C73.0679 8.77855 73.1868 9.22266 73.43 9.6001C73.5328 9.75053 73.672 9.87251 73.8346 9.95468C73.9972 10.0369 74.1779 10.0766 74.36 10.0701C74.6387 10.0656 74.9104 9.98248 75.1439 9.83033C75.3775 9.67819 75.5633 9.4632 75.68 9.2101C76.0344 8.51124 76.2031 7.73299 76.17 6.9501C76.17 5.9701 75.7633 5.4801 74.95 5.4801C74.6723 5.48383 74.4009 5.56305 74.1649 5.70927C73.9288 5.85548 73.737 6.06318 73.61 6.3101C73.2471 6.92031 73.0635 7.62036 73.08 8.3301H73.09Z" fill="white"/>
<path d="M90 11.7299C90 14.5766 88.5866 15.9999 85.76 15.9999C84.9166 16.026 84.0784 15.8584 83.31 15.5099V13.9999C84.0395 14.4373 84.8697 14.6784 85.72 14.6999C87.5066 14.6999 88.4 13.7866 88.4 11.9599V11.2099C88.1509 11.651 87.7845 12.0144 87.3414 12.2598C86.8984 12.5051 86.3959 12.6229 85.89 12.5999C85.4588 12.6181 85.0293 12.5375 84.6341 12.3641C84.2389 12.1908 83.8886 11.9294 83.61 11.5999C83.006 10.8298 82.7006 9.86741 82.75 8.88995C82.6928 7.79412 83.0258 6.71348 83.69 5.83995C83.99 5.46939 84.372 5.17355 84.8058 4.97572C85.2396 4.7779 85.7134 4.6835 86.19 4.69995C86.6286 4.6749 87.0658 4.77076 87.4537 4.97707C87.8416 5.18338 88.1655 5.49223 88.39 5.86995V4.86995H90V11.7299ZM88.42 7.99995C88.4268 7.73714 88.3817 7.47557 88.2873 7.23019C88.1929 6.98482 88.0511 6.76046 87.87 6.56995C87.6952 6.38303 87.4827 6.2355 87.2464 6.13721C87.0102 6.03892 86.7557 5.99213 86.5 5.99995C86.1986 5.98915 85.8992 6.05177 85.6274 6.18243C85.3556 6.31308 85.1197 6.50785 84.94 6.74995C84.528 7.35873 84.3277 8.0861 84.37 8.81995C84.3366 9.47824 84.5308 10.128 84.92 10.6599C85.088 10.8809 85.3063 11.0588 85.5567 11.1788C85.8071 11.2987 86.0824 11.3574 86.36 11.3499C86.6436 11.3571 86.9252 11.2996 87.1834 11.1818C87.4415 11.0639 87.6695 10.8889 87.85 10.6699C88.2462 10.1902 88.4526 9.58175 88.43 8.95995L88.42 7.99995Z" fill="white"/>
<path d="M103.46 12.4201H101.85V8.09008C101.896 7.52615 101.77 6.96153 101.49 6.47008C101.353 6.29712 101.176 6.16086 100.973 6.07358C100.771 5.9863 100.55 5.95074 100.33 5.97008C100.097 5.97347 99.8689 6.03241 99.6636 6.142C99.4584 6.25158 99.2823 6.40864 99.15 6.60008C98.8151 7.0421 98.6421 7.58577 98.66 8.14008V12.4301H97.06V8.00008C97.06 6.66675 96.5467 6.00008 95.52 6.00008C95.2887 5.99872 95.0604 6.05351 94.8549 6.15976C94.6494 6.266 94.4727 6.42053 94.34 6.61008C94.0121 7.06609 93.8466 7.6189 93.87 8.18008V12.4501H92.28V4.86008H93.89V6.05008C94.1225 5.61842 94.4719 5.26097 94.8981 5.01867C95.3243 4.77637 95.8102 4.65903 96.3 4.68008C96.776 4.6534 97.247 4.78791 97.6371 5.06189C98.0272 5.33586 98.3136 5.73332 98.45 6.19008C98.6846 5.71959 99.05 5.32681 99.5023 5.05895C99.9547 4.79109 100.475 4.65953 101 4.68008C102.653 4.68008 103.48 5.70342 103.48 7.75008L103.46 12.4201Z" fill="white"/>
<path d="M105.77 5.3699C106.582 4.90495 107.505 4.66987 108.44 4.6899C110.347 4.6899 111.3 5.6899 111.3 7.6899V12.4699H109.74V11.2699C109.52 11.6853 109.188 12.0305 108.781 12.2657C108.374 12.501 107.91 12.6168 107.44 12.5999C106.801 12.6352 106.173 12.42 105.69 11.9999C105.475 11.7906 105.306 11.5379 105.196 11.2587C105.086 10.9794 105.036 10.6799 105.05 10.3799C105.05 8.9599 105.897 8.1299 107.59 7.8899L109.78 7.5899C109.78 6.46324 109.287 5.8999 108.3 5.8999C107.391 5.90061 106.509 6.21099 105.8 6.7799L105.77 5.3699ZM108.09 8.9099C107.671 8.93358 107.267 9.07959 106.93 9.3299C106.812 9.44647 106.72 9.58728 106.661 9.74264C106.603 9.898 106.578 10.0642 106.59 10.2299C106.596 10.3809 106.636 10.5286 106.707 10.662C106.778 10.7953 106.878 10.9109 107 10.9999C107.259 11.2189 107.591 11.333 107.93 11.3199C108.181 11.326 108.431 11.2783 108.662 11.18C108.893 11.0817 109.1 10.935 109.27 10.7499C109.449 10.5566 109.588 10.3299 109.679 10.0828C109.769 9.83564 109.811 9.573 109.8 9.3099V8.6799L108.09 8.9099Z" fill="white"/>
<path d="M113.26 2.25995C113.256 2.13478 113.279 2.01027 113.328 1.89473C113.376 1.77919 113.448 1.67528 113.54 1.58995C113.731 1.41615 113.982 1.32298 114.24 1.32995C114.498 1.32298 114.749 1.41615 114.94 1.58995C115.035 1.67352 115.11 1.77687 115.16 1.89265C115.21 2.00844 115.234 2.13384 115.23 2.25995C115.234 2.38607 115.21 2.51147 115.16 2.62725C115.11 2.74304 115.035 2.84639 114.94 2.92995C114.749 3.10376 114.498 3.19693 114.24 3.18995C113.98 3.19421 113.729 3.09739 113.54 2.91995C113.45 2.83576 113.378 2.73347 113.33 2.61976C113.282 2.50605 113.258 2.38346 113.26 2.25995ZM113.42 12.42V4.85995H115V12.42H113.42Z" fill="white"/>
<path d="M117.28 12.42V1.22998H118.89V12.42H117.28Z" fill="white"/>
<path d="M120.78 11.63C120.777 11.5 120.802 11.3709 120.853 11.2517C120.905 11.1325 120.983 11.0261 121.08 10.94C121.276 10.7636 121.531 10.666 121.795 10.666C122.059 10.666 122.314 10.7636 122.51 10.94C122.607 11.0261 122.685 11.1325 122.736 11.2517C122.788 11.3709 122.813 11.5 122.81 11.63C122.811 11.7572 122.786 11.8833 122.736 12.0004C122.686 12.1174 122.613 12.2229 122.52 12.31C122.321 12.4899 122.063 12.5895 121.795 12.5895C121.527 12.5895 121.269 12.4899 121.07 12.31C120.976 12.2236 120.902 12.1184 120.852 12.0011C120.802 11.8839 120.777 11.7574 120.78 11.63Z" fill="white"/>
<path d="M130.07 12.0999C129.415 12.4573 128.675 12.6301 127.93 12.5999C127.439 12.6258 126.947 12.5504 126.486 12.3784C126.025 12.2064 125.604 11.9414 125.25 11.5999C124.91 11.2347 124.646 10.805 124.474 10.3361C124.302 9.86721 124.226 9.36869 124.25 8.86993C124.224 8.32183 124.308 7.77412 124.497 7.25895C124.686 6.74379 124.976 6.27154 125.35 5.86993C125.977 5.2955 126.754 4.90926 127.59 4.7554C128.426 4.60154 129.289 4.68629 130.08 4.99993V6.49993C129.567 6.15377 128.958 5.97874 128.34 5.99993C128.006 5.98769 127.673 6.04744 127.364 6.17512C127.056 6.3028 126.778 6.49543 126.55 6.73993C126.068 7.29125 125.821 8.00883 125.86 8.73993C125.818 9.44021 126.051 10.1292 126.51 10.6599C126.737 10.8918 127.01 11.0731 127.311 11.192C127.613 11.3109 127.936 11.3648 128.26 11.3499C128.911 11.3442 129.543 11.1265 130.06 10.7299L130.07 12.0999Z" fill="white"/>
<path d="M131.3 8.71009C131.269 8.17233 131.347 7.63385 131.529 7.12693C131.711 6.62001 131.994 6.1551 132.36 5.76009C132.742 5.39152 133.196 5.10544 133.693 4.91965C134.19 4.73385 134.72 4.65231 135.25 4.68009C135.749 4.64841 136.25 4.72096 136.72 4.89311C137.19 5.06526 137.619 5.33326 137.98 5.68009C138.675 6.46542 139.035 7.49251 138.98 8.54009C139.007 9.0729 138.927 9.60572 138.745 10.1072C138.563 10.6087 138.282 11.0687 137.92 11.4601C137.55 11.8283 137.107 12.1154 136.62 12.3031C136.133 12.4907 135.612 12.5749 135.09 12.5501C134.58 12.574 134.071 12.4922 133.594 12.3098C133.117 12.1274 132.684 11.8483 132.32 11.4901C131.625 10.7353 131.258 9.73533 131.3 8.71009ZM132.93 8.71009C132.889 9.40965 133.106 10.1 133.54 10.6501C133.743 10.8822 133.996 11.0656 134.28 11.1867C134.564 11.3079 134.872 11.3637 135.18 11.3501C136.633 11.3501 137.36 10.4534 137.36 8.66009C137.417 7.94801 137.219 7.23881 136.8 6.66009C136.599 6.43591 136.349 6.26011 136.071 6.14582C135.792 6.03154 135.491 5.98172 135.19 6.00009C134.878 5.98278 134.566 6.0389 134.279 6.16394C133.993 6.28898 133.74 6.47946 133.54 6.72009C133.116 7.28271 132.904 7.97657 132.94 8.68009L132.93 8.71009Z" fill="white"/>
<path d="M152 12.42H150.39V8.09002C150.427 7.52301 150.291 6.95817 150 6.47002C149.863 6.29705 149.686 6.1608 149.483 6.07352C149.281 5.98624 149.06 5.95067 148.84 5.97002C148.607 5.9734 148.379 6.03235 148.174 6.14193C147.968 6.25152 147.792 6.40858 147.66 6.60002C147.325 7.04204 147.152 7.58571 147.17 8.14002V12.43H145.57V8.00002C145.57 6.66669 145.057 6.00002 144.03 6.00002C143.799 5.99865 143.57 6.05345 143.365 6.15969C143.159 6.26594 142.983 6.42047 142.85 6.61002C142.522 7.06603 142.357 7.61884 142.38 8.18002V12.45H140.77V4.86002H142.38V6.05002C142.61 5.62306 142.955 5.2687 143.375 5.0267C143.796 4.78471 144.275 4.66466 144.76 4.68002C145.251 4.63196 145.743 4.75644 146.152 5.03204C146.561 5.30764 146.86 5.71712 147 6.19002C147.233 5.7227 147.595 5.33206 148.044 5.06441C148.492 4.79677 149.008 4.66336 149.53 4.68002C151.183 4.68002 152.01 5.70335 152.01 7.75002L152 12.42Z" fill="white"/>
<path d="M24 27.7099C23.9202 26.2331 24.2673 24.7646 25 23.4799C25.2811 23.023 25.6756 22.6466 26.1452 22.3873C26.6148 22.128 27.1435 21.9945 27.68 21.9999C29.98 21.9999 31.13 23.8066 31.13 27.4199C31.2162 28.8452 30.8898 30.2652 30.19 31.5099C29.908 31.9804 29.5051 32.3667 29.0233 32.6288C28.5414 32.8908 27.9981 33.019 27.45 32.9999C26.9343 33.0267 26.4207 32.9158 25.9621 32.6785C25.5034 32.4413 25.1161 32.0863 24.84 31.6499C24.1902 30.4435 23.8988 29.0765 24 27.7099ZM25.63 27.6499C25.63 30.3166 26.2966 31.6499 27.63 31.6499C28.9633 31.6499 29.6066 30.2732 29.56 27.5199C29.56 24.6932 28.93 23.2799 27.67 23.2799C26.41 23.2799 25.7166 24.7332 25.59 27.6399L25.63 27.6499Z" fill="white"/>
<path d="M36.0713 33.149C35.6239 33.1419 35.1764 33.0567 34.729 32.8934C34.2815 32.73 33.8731 32.4548 33.5038 32.0677C33.1345 31.6771 32.838 31.1497 32.6143 30.4857C32.3905 29.8181 32.2787 28.98 32.2787 27.9715C32.2787 27.0056 32.3692 26.1497 32.5503 25.404C32.7315 24.6547 32.9942 24.0244 33.3387 23.513C33.6832 22.9981 34.0986 22.6075 34.5851 22.3412C35.0752 22.0748 35.6274 21.9417 36.2418 21.9417C36.8526 21.9417 37.3959 22.0642 37.8717 22.3092C38.3511 22.5507 38.7418 22.888 39.0436 23.3213C39.3454 23.7545 39.5408 24.2534 39.6295 24.8181H38.3298C38.2091 24.328 37.9747 23.9214 37.6267 23.5983C37.2787 23.2751 36.817 23.1135 36.2418 23.1135C35.3966 23.1135 34.7307 23.4811 34.2442 24.2162C33.7613 24.9512 33.518 25.9828 33.5145 27.311H33.5997C33.7986 27.0091 34.0347 26.7517 34.3082 26.5386C34.5851 26.322 34.8905 26.1551 35.2244 26.0379C35.5582 25.9207 35.9115 25.8621 36.2844 25.8621C36.9094 25.8621 37.4811 26.0184 37.9996 26.3309C38.518 26.6398 38.9335 27.0677 39.246 27.6146C39.5585 28.1579 39.7148 28.7811 39.7148 29.4843C39.7148 30.159 39.5638 30.7769 39.262 31.338C38.9601 31.8955 38.5358 32.3394 37.9889 32.6696C37.4456 32.9963 36.8064 33.1561 36.0713 33.149ZM36.0713 31.9772C36.5187 31.9772 36.92 31.8653 37.2751 31.6416C37.6338 31.4179 37.9161 31.1178 38.1221 30.7414C38.3316 30.3649 38.4364 29.9459 38.4364 29.4843C38.4364 29.0333 38.3352 28.6231 38.1327 28.2538C37.9339 27.8809 37.6587 27.5844 37.3071 27.3642C36.9591 27.1441 36.5614 27.034 36.1139 27.034C35.7766 27.034 35.4623 27.1015 35.1711 27.2364C34.8799 27.3678 34.6242 27.5489 34.404 27.7797C34.1874 28.0105 34.017 28.2751 33.8927 28.5734C33.7684 28.8681 33.7062 29.1789 33.7062 29.5056C33.7062 29.9388 33.8075 30.3436 34.0099 30.7201C34.2158 31.0965 34.4964 31.4001 34.8515 31.6309C35.2101 31.8618 35.6168 31.9772 36.0713 31.9772Z" fill="white"/>
<path d="M45.14 29.24H41.14V28.05H45.14V29.24Z" fill="white"/>
<path d="M53.45 32.8H46.87V31.46L49.94 28.46C50.4998 27.9315 51.0056 27.3487 51.45 26.72C51.7701 26.2517 51.9409 25.6973 51.94 25.13C51.94 23.9567 51.32 23.37 50.08 23.37C49.071 23.4078 48.1136 23.8258 47.4 24.54V23C48.2696 22.3657 49.3239 22.0354 50.4 22.06C51.244 22.0181 52.0727 22.2967 52.72 22.84C53.0093 23.1093 53.2361 23.4386 53.3847 23.8048C53.5332 24.1711 53.5999 24.5653 53.58 24.96C53.5553 25.633 53.3554 26.288 53 26.86C52.4695 27.7 51.8269 28.4637 51.09 29.13L48.74 31.37H53.44L53.45 32.8Z" fill="white"/>
<path d="M62.33 30.19H61V32.8H59.48V30.19H54.63V29.19L59.24 22.25H61V29H62.33V30.19ZM59.48 29V24.82C59.48 24.5067 59.48 24.15 59.48 23.75C59.367 24.0328 59.2333 24.3069 59.08 24.57L56.16 29H59.48Z" fill="white"/>
<path d="M70.48 22.84L66.48 32.84H64.76L68.66 23.63H63.46V22.21H70.46L70.48 22.84Z" fill="white"/>
<path d="M78.47 32.8H71.88V31.46L74.95 28.46C75.5098 27.9315 76.0156 27.3487 76.46 26.72C76.8017 26.2519 76.9904 25.6896 77 25.11C77 23.9367 76.38 23.35 75.14 23.35C74.131 23.3878 73.1737 23.8058 72.46 24.52V23C73.3296 22.3657 74.3839 22.0354 75.46 22.06C76.304 22.0181 77.1327 22.2967 77.78 22.84C78.0693 23.1093 78.2961 23.4386 78.4447 23.8048C78.5932 24.1711 78.6599 24.5653 78.64 24.96C78.5973 25.6386 78.3765 26.2939 78 26.86C77.4695 27.7 76.8269 28.4637 76.09 29.13L73.74 31.37H78.44L78.47 32.8Z" fill="white"/>
<path d="M80.6901 31C81.3549 31.4404 82.1326 31.68 82.9301 31.69C83.5369 31.7168 84.1321 31.5172 84.6001 31.13C84.8135 30.9405 84.9818 30.7056 85.0926 30.4426C85.2033 30.1796 85.2537 29.895 85.2401 29.61C85.2401 28.2766 84.3934 27.61 82.7001 27.61C82.3001 27.61 81.7367 27.6433 81.0101 27.71V22.21H86.3901V23.59H82.4501V26.34H83.3501C84.2848 26.2881 85.205 26.5877 85.9301 27.18C86.2581 27.4729 86.5176 27.8343 86.6905 28.2387C86.8633 28.6431 86.9451 29.0805 86.9301 29.52C86.9349 29.9889 86.8383 30.4534 86.6467 30.8815C86.455 31.3096 86.1731 31.6912 85.8201 32C85.0448 32.6855 84.034 33.044 83.0001 33C82.2027 33.0406 81.4072 32.8898 80.6801 32.56L80.6901 31Z" fill="white"/>
<path d="M95.1501 32.8H88.5601V31.46L91.6301 28.46C92.1898 27.9315 92.6957 27.3487 93.1401 26.72C93.4602 26.2517 93.631 25.6973 93.6301 25.13C93.6301 23.9567 93.0101 23.37 91.7701 23.37C90.7611 23.4078 89.8037 23.8258 89.0901 24.54V23C89.9597 22.3657 91.014 22.0354 92.0901 22.06C92.9341 22.0181 93.7628 22.2967 94.4101 22.84C94.6993 23.1093 94.9262 23.4386 95.0747 23.8048C95.2233 24.1711 95.29 24.5653 95.2701 24.96C95.2596 25.6405 95.0699 26.3063 94.7201 26.89C94.1895 27.73 93.5469 28.4937 92.8101 29.16L90.4601 31.4H95.1601L95.1501 32.8Z" fill="white"/>
<path d="M97.4 31.17C97.9809 31.5144 98.6446 31.6942 99.32 31.69C99.7348 31.709 100.148 31.6227 100.52 31.4391C100.893 31.2555 101.212 30.9806 101.45 30.64C102.011 29.7444 102.273 28.6942 102.2 27.64C101.978 28.0427 101.645 28.3734 101.241 28.5932C100.837 28.8129 100.379 28.9124 99.92 28.88C99.5035 28.9064 99.0862 28.8413 98.6975 28.6893C98.3088 28.5372 97.9581 28.302 97.67 28C97.092 27.3603 96.7839 26.5218 96.81 25.66C96.795 25.1819 96.8758 24.7056 97.0475 24.2591C97.2193 23.8126 97.4785 23.4049 97.81 23.06C98.1398 22.7249 98.5363 22.4627 98.9739 22.2905C99.4114 22.1182 99.8802 22.0397 100.35 22.06C100.847 22.0438 101.34 22.1514 101.785 22.373C102.23 22.5947 102.613 22.9236 102.9 23.33C103.569 24.4104 103.887 25.6716 103.81 26.94C103.899 28.5055 103.501 30.0601 102.67 31.39C102.304 31.9166 101.81 32.3409 101.234 32.6227C100.658 32.9045 100.02 33.0344 99.38 33C98.6948 33.0179 98.0134 32.8919 97.38 32.63L97.4 31.17ZM98.4 25.46C98.3699 26.0268 98.5477 26.5851 98.9 27.03C99.0734 27.2247 99.2884 27.3778 99.529 27.4782C99.7696 27.5786 100.03 27.6237 100.29 27.61C100.53 27.6167 100.769 27.5729 100.991 27.4816C101.213 27.3904 101.414 27.2535 101.58 27.08C101.75 26.9079 101.884 26.7031 101.974 26.478C102.063 26.2529 102.106 26.0121 102.1 25.77C102.128 25.1417 101.952 24.5211 101.6 24C101.451 23.7868 101.255 23.6111 101.027 23.4866C100.799 23.3621 100.545 23.2923 100.285 23.2826C100.025 23.2729 99.7666 23.3236 99.5298 23.4307C99.293 23.5379 99.0842 23.6985 98.92 23.9C98.5692 24.3419 98.3914 24.8965 98.42 25.46H98.4Z" fill="white"/>
<path d="M31 44.0699L27 53.9999H25.33L29.23 44.7899H24V43.4399H31V44.0699Z" fill="white"/>
<path d="M32.3 48.93C32.2202 47.4532 32.5674 45.9847 33.3 44.7C33.5878 44.2476 33.9876 43.8772 34.4607 43.6249C34.9337 43.3726 35.464 43.2469 36 43.26C38.3 43.26 39.45 45.0666 39.45 48.68C39.5362 50.1053 39.2098 51.5253 38.51 52.77C38.2226 53.2297 37.8186 53.6051 37.3391 53.858C36.8596 54.1109 36.3217 54.2324 35.78 54.21C35.2643 54.2368 34.7508 54.1258 34.2921 53.8886C33.8334 53.6514 33.4461 53.2963 33.17 52.86C32.5118 51.6595 32.2099 50.2961 32.3 48.93ZM33.93 48.87C33.93 51.5366 34.5967 52.87 35.93 52.87C37.2633 52.87 37.9067 51.4933 37.86 48.74C37.86 45.9133 37.23 44.5 35.97 44.5C34.71 44.5 34.03 45.9566 33.93 48.87Z" fill="white"/>
<path d="M41.28 52.4C41.861 52.7444 42.5247 52.9241 43.2 52.9199C43.6148 52.9389 44.0277 52.8526 44.4001 52.669C44.7726 52.4854 45.0925 52.2105 45.33 51.8699C45.8907 50.9743 46.1533 49.9241 46.08 48.8699C45.8579 49.2726 45.5252 49.6034 45.1212 49.8231C44.7172 50.0428 44.2588 50.1423 43.8 50.1099C43.3855 50.1229 42.9732 50.0455 42.5916 49.8832C42.21 49.7208 41.8682 49.4775 41.59 49.1699C41.0121 48.5302 40.7039 47.6917 40.73 46.83C40.7151 46.3518 40.7958 45.8755 40.9676 45.429C41.1393 44.9825 41.3985 44.5748 41.73 44.2299C42.0599 43.8948 42.4564 43.6326 42.8939 43.4604C43.3314 43.2881 43.8002 43.2096 44.27 43.2299C44.767 43.2137 45.2603 43.3213 45.7054 43.543C46.1505 43.7647 46.5335 44.0935 46.82 44.4999C47.489 45.5804 47.8069 46.8415 47.73 48.1099C47.8188 49.6754 47.4206 51.23 46.59 52.5599C46.2262 53.0836 45.7352 53.506 45.1632 53.7877C44.5911 54.0693 43.9569 54.2009 43.32 54.1699C42.6348 54.1879 41.9535 54.0618 41.32 53.7999L41.28 52.4ZM42.28 46.6899C42.2499 47.2567 42.4277 47.815 42.78 48.2599C42.9535 48.4546 43.1684 48.6077 43.409 48.7081C43.6496 48.8085 43.9097 48.8536 44.17 48.8399C44.4101 48.8466 44.649 48.8028 44.8712 48.7116C45.0933 48.6203 45.2939 48.4835 45.46 48.3099C45.634 48.1395 45.7715 47.9355 45.8643 47.7103C45.9572 47.4851 46.0033 47.2435 46 46.9999C46.0183 46.3806 45.8397 45.7714 45.49 45.2599C45.3413 45.0468 45.1451 44.871 44.9169 44.7465C44.6887 44.622 44.4347 44.5522 44.1749 44.5425C43.9152 44.5328 43.6567 44.5835 43.4198 44.6907C43.183 44.7978 42.9743 44.9584 42.81 45.1599C42.4625 45.5925 42.2816 46.1354 42.3 46.6899H42.28Z" fill="white"/>
<path d="M65.16 47.5899L64.08 48.4599C63.8133 48.0339 63.5229 47.6233 63.21 47.2299C59.61 47.6566 56.2767 47.9132 53.21 47.9999L52.92 46.8199C54.2534 46.3866 55.7067 44.9132 57.28 42.3999L58.7 42.6799C57.7819 44.159 56.6647 45.505 55.38 46.6799C57.2067 46.6132 59.5134 46.4299 62.3 46.1299C61.6486 45.4105 60.9432 44.7419 60.19 44.1299L61.27 43.2999C62.7489 44.5534 64.0568 45.9958 65.16 47.5899ZM63.92 54.7299H62.65V54.0999H55.29V54.7299H54V48.9299H63.91L63.92 54.7299ZM62.65 52.8799V50.1499H55.29V52.8799H62.65Z" fill="white"/>
<path d="M79.06 44.9H73.59V46H78.38V53.42C78.4002 53.7596 78.3012 54.0956 78.1 54.37C77.9133 54.5967 77.4567 54.7134 76.73 54.72H75.84L75.38 53.52H76.24C76.5011 53.5404 76.7637 53.5236 77.02 53.47C77.0563 53.4446 77.0848 53.4097 77.1024 53.3691C77.1201 53.3285 77.1262 53.2839 77.12 53.24V47.24H74.61L75.61 47.74C75.4626 48.1517 75.2608 48.5418 75.01 48.9H76.38V50H73.61V51H76.67V52.15H73.61V54.4H72.35V52.15H69.27V51H72.35V50H69.59V48.88H70.86C70.6861 48.4602 70.4718 48.0583 70.22 47.68L71.22 47.22H68.78V54.72H67.52V46H72.32V44.9H66.89V43.74H72.32V42.52H73.59V43.74H79.05L79.06 44.9ZM74.45 47.22H71.45C71.7671 47.7538 72.0477 48.3084 72.29 48.88H73.71C74.0143 48.3542 74.2623 47.7978 74.45 47.22Z" fill="white"/>
<path d="M93 45.2199H87.57V46.9299H92.23V51.9999C92.23 53.0933 91.7833 53.6399 90.89 53.6399H89.21L88.81 52.3599C89.4366 52.3933 90.0233 52.4099 90.57 52.4099C90.6577 52.4071 90.742 52.3754 90.81 52.3199C90.8463 52.2957 90.8762 52.263 90.8971 52.2247C90.918 52.1864 90.9293 52.1436 90.93 52.0999V48.1999H87.57V54.7499H86.3V48.1699H83V53.5899H81.67V46.9299H86.3V45.2199H80.86V43.9999H86.32C86.1093 43.5588 85.8546 43.14 85.56 42.7499L86.92 42.4199C87.2415 42.9269 87.5288 43.4547 87.78 43.9999H93V45.2199Z" fill="white"/>
<path d="M107.06 48.7199H104.32C103.902 49.8056 103.315 50.8182 102.58 51.7199C104.387 52.4732 105.87 53.1599 107.03 53.7799L106.29 54.7799C105.07 54.1132 103.54 53.4032 101.7 52.6499C99.8105 53.952 97.5838 54.678 95.29 54.7399L94.84 53.5499C96.7377 53.4744 98.5967 52.9901 100.29 52.1299C99.0633 51.6632 97.8033 51.2465 96.51 50.8799C97.0433 50.2132 97.57 49.4732 98.09 48.6599H94.87V47.5399H98.87C99.2966 46.8732 99.7266 46.1432 100.16 45.3499L101.49 45.5499C101.063 46.3499 100.69 47.0165 100.37 47.5499H103.45C103.583 47.1832 103.687 46.8499 103.76 46.5499L104.99 46.6799C104.94 46.9666 104.863 47.2479 104.76 47.5199H107.1L107.06 48.7199ZM106.68 46.6199H105.44V44.9999H96.53V46.6299H95.24V43.8199H100.29C100.141 43.4262 99.9432 43.0532 99.7 42.7099L100.96 42.3799C101.269 42.822 101.512 43.3072 101.68 43.8199H106.68V46.6199ZM102.94 48.7199H99.6C99.34 49.1599 99.0066 49.6832 98.6 50.2899C99.4733 50.5832 100.403 50.9165 101.39 51.2899C102.041 50.5215 102.564 49.6538 102.94 48.7199Z" fill="white"/>
<path d="M121.06 44.9H115.6V46H120.39V53.42C120.41 53.7596 120.311 54.0956 120.11 54.37C119.923 54.5967 119.467 54.7134 118.74 54.72H117.85L117.39 53.52H118.25C118.511 53.5404 118.774 53.5236 119.03 53.47C119.066 53.4446 119.095 53.4097 119.112 53.3691C119.13 53.3285 119.136 53.2839 119.13 53.24V47.24H116.61L117.61 47.74C117.463 48.1517 117.261 48.5418 117.01 48.9H118.38V50H115.6V51H118.66V52.15H115.6V54.4H114.34V52.15H111.26V51H114.34V50H111.59V48.88H112.86C112.686 48.4602 112.472 48.0583 112.22 47.68L113.22 47.22H110.75V54.72H109.49V46H114.29V44.9H108.86V43.74H114.29V42.52H115.56V43.74H121.02L121.06 44.9ZM116.45 47.22H113.45C113.767 47.7538 114.048 48.3084 114.29 48.88H115.71C116.014 48.3542 116.262 47.7978 116.45 47.22Z" fill="white"/>
<path d="M135 54.3901H124.77C124.594 54.4001 124.418 54.3702 124.255 54.3026C124.093 54.2351 123.947 54.1317 123.83 54.0001C123.601 53.7185 123.484 53.3626 123.5 53.0001V43.9201H122.85V42.8401H134.85V43.9101H124.71V52.9101C124.712 52.9616 124.725 53.012 124.747 53.0584C124.77 53.1049 124.801 53.1462 124.84 53.1801C124.872 53.2182 124.912 53.2493 124.957 53.2717C125.001 53.294 125.05 53.3071 125.1 53.3101H135V54.3901ZM129.36 52.4901H125.48V48.5901H129.36V52.4901ZM132.86 47.8701H126.64V44.6901H132.86V47.8701ZM128.2 51.4201V49.6401H126.7V51.4201H128.2ZM131.62 46.8301V45.7401H127.91V46.8301H131.62ZM134.12 52.4901H130.18V48.5901H134.12V52.4901ZM133 51.4101V49.6401H131.38V51.4001L133 51.4101Z" fill="white"/>
<path d="M138.21 45.67C138.163 46.8289 137.988 47.9791 137.69 49.1L136.63 48.71C136.934 47.6649 137.112 46.5873 137.16 45.5L138.21 45.67ZM141.14 46.47L140.44 47.47C140.279 47.1805 140.088 46.9089 139.87 46.66V54.66H138.58V42.5H139.87V45.06C140.332 45.4868 140.754 45.9555 141.13 46.46L141.14 46.47ZM149 48L147.85 48.57C147.71 48.1868 147.54 47.8156 147.34 47.46C145.385 47.7765 143.41 47.9569 141.43 48L141.11 47C141.963 46.42 142.83 44.9167 143.71 42.49L145.04 42.7C144.55 44.1596 143.827 45.5305 142.9 46.76C144.209 46.7093 145.514 46.5891 146.81 46.4C146.514 45.8124 146.18 45.2445 145.81 44.7L146.94 44.14C147.749 45.3576 148.439 46.6502 149 48ZM148 54.69H146.7V54.13H143V54.69H141.74V48.9H148V54.69ZM146.71 52.89V50.09H143V52.89H146.71Z" fill="white"/>
<path d="M163.06 48.7199H160.32C159.902 49.8056 159.315 50.8182 158.58 51.7199C160.387 52.4732 161.87 53.1599 163.03 53.7799L162.29 54.7799C161.07 54.1132 159.54 53.4032 157.7 52.6499C155.81 53.952 153.584 54.678 151.29 54.7399L150.84 53.5499C152.738 53.4744 154.597 52.9901 156.29 52.1299C155.063 51.6632 153.803 51.2465 152.51 50.8799C153.043 50.2132 153.57 49.4732 154.09 48.6599H150.88V47.5399H154.88C155.307 46.8732 155.737 46.1432 156.17 45.3499L157.5 45.5499C157.073 46.3499 156.7 47.0165 156.38 47.5499H159.46C159.593 47.1832 159.697 46.8499 159.77 46.5499L161 46.6799C160.95 46.9666 160.873 47.2479 160.77 47.5199H163.11L163.06 48.7199ZM162.68 46.6199H161.44V44.9999H152.53V46.6299H151.24V43.8199H156.29C156.141 43.4262 155.943 43.0532 155.7 42.7099L156.96 42.3799C157.269 42.822 157.512 43.3072 157.68 43.8199H162.68V46.6199ZM158.94 48.7199H155.6C155.34 49.1599 155.007 49.6832 154.6 50.2899C155.473 50.5832 156.403 50.9165 157.39 51.2899C158.041 50.5215 158.564 49.6538 158.94 48.7199Z" fill="white"/>
<path d="M169.8 53.1399C168.265 53.7727 166.684 54.2875 165.07 54.6799L164.75 53.5499L165.35 53.3899V47.9999H166.46V53.0699C166.685 53.0286 166.905 52.9684 167.12 52.8899V46.9999H165.26V42.8699H169.46V46.9999H168.33V48.7999H169.66V49.9999H168.33V52.4699C168.723 52.3499 169.2 52.1766 169.76 51.9499L169.8 53.1399ZM168.22 45.8499V43.9999H166.44V45.7999L168.22 45.8499ZM177.22 48.2399L176.56 49.3299C175.437 48.967 174.368 48.4558 173.38 47.8099C172.386 48.4206 171.338 48.9394 170.25 49.3599L169.57 48.2499C170.545 47.9496 171.479 47.5298 172.35 46.9999C171.916 46.5969 171.548 46.1278 171.26 45.6099C170.967 45.8699 170.663 46.1132 170.35 46.3399L169.61 45.3999C170.72 44.6202 171.634 43.5932 172.28 42.3999L173.46 42.7499C173.358 43.0022 173.231 43.2435 173.08 43.4699H176.33V44.6599C175.812 45.5355 175.161 46.325 174.4 46.9999C175.264 47.5476 176.204 47.9654 177.19 48.2399H177.22ZM176.34 54.7299H175V54.2599H171.73V54.7299H170.47V49.5599H176.28L176.34 54.7299ZM175 53.0899V50.7599H171.73V53.0799L175 53.0899ZM174.92 44.6899H172.19L172.13 44.7599C172.422 45.3549 172.826 45.888 173.32 46.3299C173.934 45.8616 174.479 45.3096 174.94 44.6899H174.92Z" fill="white"/>
<path d="M191 48.93H178.83V47.7H191V48.93Z" fill="white"/>
<path d="M198.47 43.4699C197.279 43.8578 196.053 44.129 194.81 44.2799V45.4299H197.69V46.5299H194.82V47.9999H197.72V49.1199H194.82V50.9999C195.807 50.7932 196.957 50.4866 198.27 50.0799L198.35 51.2399C197.192 51.6134 196.013 51.9206 194.82 52.1599V54.6999H193.58V52.3999L192.99 52.4799L192.78 51.3499L193.58 51.2299V43.3399C195.029 43.1938 196.455 42.8783 197.83 42.3999L198.47 43.4699ZM205.23 53.7399L204.48 54.8199C203.407 54.4049 202.398 53.8429 201.48 53.1499C200.527 53.8833 199.45 54.4389 198.3 54.7899L197.62 53.6999C198.694 53.4277 199.711 52.9635 200.62 52.3299C199.933 51.4858 199.386 50.5371 199 49.5199H198.56V48.3099H204.23V49.5199C203.796 50.5273 203.209 51.4616 202.49 52.2899C203.309 52.9367 204.237 53.4313 205.23 53.7499V53.7399ZM205.03 47.5299H203.31C203.184 47.5338 203.06 47.5088 202.945 47.4568C202.831 47.4048 202.73 47.3271 202.65 47.2299C202.487 47.045 202.398 46.8064 202.4 46.5599V43.9999H200.54C200.631 44.724 200.538 45.4594 200.268 46.1377C199.999 46.8161 199.563 47.4154 199 47.8799L197.91 47.0499C198.399 46.7294 198.788 46.2786 199.033 45.7484C199.279 45.2182 199.371 44.6299 199.3 44.0499V42.8399H203.65V46.1399C203.659 46.2027 203.691 46.2599 203.74 46.2999C203.784 46.3498 203.844 46.3818 203.91 46.3899H205L205.03 47.5299ZM202.84 49.5299H200.29C200.576 50.2723 201.004 50.9518 201.55 51.5299C202.072 50.9258 202.504 50.2487 202.83 49.5199L202.84 49.5299Z" fill="white"/>
<path d="M206.89 52.09C207.595 52.6325 208.461 52.9246 209.35 52.92C209.935 52.9495 210.512 52.7726 210.98 52.42C211.179 52.2597 211.338 52.055 211.444 51.8223C211.55 51.5897 211.6 51.3355 211.59 51.08C211.59 49.8334 210.683 49.21 208.87 49.21H208V47.92H208.85C210.47 47.92 211.28 47.34 211.28 46.18C211.28 45.02 210.663 44.4767 209.43 44.55C208.671 44.5615 207.937 44.8215 207.34 45.29V43.85C208.098 43.4406 208.949 43.2372 209.81 43.26C210.603 43.2508 211.375 43.5118 212 44C212.282 44.2209 212.508 44.5055 212.66 44.8305C212.811 45.1556 212.883 45.5118 212.87 45.87C212.906 46.4966 212.709 47.1144 212.318 47.6052C211.927 48.0959 211.369 48.4252 210.75 48.53C211.427 48.5699 212.067 48.8542 212.55 49.33C212.773 49.5547 212.948 49.8219 213.064 50.1157C213.181 50.4095 213.238 50.7239 213.23 51.04C213.248 51.4853 213.161 51.9287 212.975 52.3337C212.789 52.7387 212.51 53.0938 212.16 53.37C211.356 53.9675 210.37 54.2679 209.37 54.22C208.506 54.2616 207.646 54.0717 206.88 53.67L206.89 52.09Z" fill="white"/>
<path d="M221.74 54H215.51V52.69H217.83V45L215.45 45.64V44.27L219.45 43.27V52.73H221.76L221.74 54Z" fill="white"/>
<path d="M229.65 44.9999C229.117 44.7083 228.518 44.5569 227.91 44.5599C227.48 44.5495 227.055 44.651 226.677 44.8544C226.298 45.0577 225.979 45.356 225.75 45.7199C225.19 46.6169 224.918 47.6638 224.97 48.7199C225.188 48.2901 225.526 47.9329 225.943 47.6915C226.361 47.4501 226.839 47.3349 227.32 47.3599C227.726 47.343 228.131 47.4158 228.506 47.5731C228.881 47.7303 229.217 47.9683 229.49 48.2699C230.049 48.9296 230.338 49.7761 230.3 50.6399C230.311 51.1131 230.228 51.5837 230.057 52.0248C229.885 52.4659 229.628 52.8686 229.3 53.2099C228.981 53.5425 228.595 53.8036 228.167 53.9759C227.74 54.1483 227.281 54.2281 226.82 54.2099C226.307 54.2366 225.796 54.131 225.335 53.9034C224.875 53.6757 224.48 53.3337 224.19 52.9099C223.524 51.8464 223.203 50.6031 223.27 49.3499C223.233 47.8035 223.677 46.2837 224.54 44.9999C224.9 44.4572 225.394 44.016 225.973 43.7184C226.553 43.4208 227.199 43.2767 227.85 43.2999C228.464 43.2745 229.077 43.3767 229.65 43.5999V44.9999ZM225.05 50.5599C225.031 51.1623 225.214 51.7537 225.57 52.2399C225.722 52.4563 225.924 52.6324 226.159 52.7526C226.395 52.8729 226.656 52.9338 226.92 52.9299C227.174 52.9394 227.426 52.8881 227.655 52.7802C227.885 52.6724 228.085 52.5111 228.24 52.3099C228.552 51.8475 228.718 51.3026 228.718 50.7449C228.718 50.1873 228.552 49.6424 228.24 49.1799C228.073 48.9898 227.864 48.8404 227.63 48.7434C227.396 48.6463 227.143 48.6041 226.89 48.6199C226.641 48.614 226.394 48.6608 226.165 48.7574C225.936 48.8539 225.73 48.9979 225.56 49.1799C225.217 49.5521 225.034 50.0441 225.05 50.5499V50.5599Z" fill="white"/>
<path d="M244.18 50.0001L243.59 51.0801C242.713 50.7311 241.894 50.2524 241.16 49.6601V52.0801H235.6V53.0001C235.6 53.2468 235.833 53.3868 236.3 53.4201C236.767 53.4534 237.807 53.4534 239.42 53.4201C240.52 53.4201 241.213 53.4034 241.5 53.3701C241.634 53.3583 241.763 53.3115 241.874 53.2343C241.984 53.1571 242.073 53.0522 242.13 52.9301C242.279 52.5486 242.344 52.1391 242.32 51.7301L243.52 52.1701C243.571 52.7937 243.413 53.4166 243.07 53.9401C242.813 54.2365 242.458 54.4315 242.07 54.4901C241.663 54.5434 240.417 54.5701 238.33 54.5701C236.997 54.5701 236.117 54.5701 235.69 54.5701C235.505 54.5756 235.32 54.5429 235.148 54.4741C234.976 54.4053 234.82 54.3018 234.69 54.1701C234.459 53.8894 234.342 53.5329 234.36 53.1701V49.8801C233.743 50.3462 233.071 50.7357 232.36 51.0401L231.68 50.0001C233.006 49.5279 234.162 48.6715 235 47.5401H232V46.4001H235.26V45.0001H232.6V43.8301H235.26V42.5901H236.5V43.8301H239.32V42.5901H240.56V43.8301H243.22V45.0001H240.6V46.4001H243.86V47.5501H240.86C241.672 48.7046 242.837 49.5644 244.18 50.0001ZM240.27 48.7801C239.975 48.3991 239.717 47.9906 239.5 47.5601H236.5C236.249 47.9887 235.965 48.3966 235.65 48.7801H240.27ZM239.89 51.0001V49.8601H235.59V51.0001H239.89ZM239.36 46.3901V45.0001H236.54V46.4001L239.36 46.3901Z" fill="white"/>
<path d="M252.23 54H245.65V52.69L248.72 49.69C249.28 49.1615 249.786 48.5786 250.23 47.95C250.55 47.4816 250.721 46.9273 250.72 46.36C250.72 45.1867 250.1 44.6 248.86 44.6C247.851 44.6378 246.894 45.0557 246.18 45.77V44.2C247.05 43.5657 248.104 43.2353 249.18 43.26C250.024 43.2181 250.853 43.4967 251.5 44.04C251.789 44.3093 252.016 44.6386 252.165 45.0048C252.313 45.371 252.38 45.7653 252.36 46.16C252.35 46.8405 252.16 47.5062 251.81 48.09C251.279 48.9299 250.637 49.6936 249.9 50.36L247.55 52.6H252.25L252.23 54Z" fill="white"/>
<path d="M260.76 54H254.53V52.69H256.85V45L254.47 45.64V44.27L258.47 43.27V52.73H260.78L260.76 54Z" fill="white"/>
<path d="M274.69 51.41H271.63V54.7401H270.33V51.41H266.91C266.767 52.2529 266.373 53.0332 265.782 53.6501C265.19 54.267 264.426 54.692 263.59 54.87L262.91 53.7401C264.45 53.3467 265.337 52.5734 265.57 51.42H262.49V50.25H265.68V49H267V50.2901H270.34V49H271.64V50.2901H274.7L274.69 51.41ZM274.56 48.53H262.62V47.39H268V46.2001H263.86V45.1H268V43.93H263.21V42.8H274V43.93H269.22V45.1H273.38V46.2001H269.22V47.39H274.54L274.56 48.53Z" fill="white"/>
<path d="M283.1 54H276.87V52.69H279.19V45L276.81 45.64V44.27L280.81 43.27V52.73H283.12L283.1 54Z" fill="white"/>
<path d="M291.25 54H284.67V52.69L287.74 49.69C288.3 49.1615 288.806 48.5786 289.25 47.95C289.57 47.4816 289.741 46.9273 289.74 46.36C289.74 45.1867 289.12 44.6 287.88 44.6C286.871 44.6378 285.914 45.0557 285.2 45.77V44.2C286.07 43.5657 287.124 43.2353 288.2 43.26C289.044 43.2181 289.873 43.4967 290.52 44.04C290.809 44.3093 291.036 44.6386 291.185 45.0048C291.333 45.371 291.4 45.7653 291.38 46.16C291.37 46.8405 291.18 47.5062 290.83 48.09C290.299 48.9299 289.657 49.6936 288.92 50.36L286.57 52.6H291.27L291.25 54Z" fill="white"/>
<path d="M298.11 48.58H295.57L295.22 49.82H297.59C297.51 51.1534 297.43 52.1534 297.35 52.82C297.328 53.255 297.237 53.6837 297.08 54.09C296.956 54.2991 296.776 54.4689 296.56 54.58C296.248 54.7279 295.905 54.7965 295.56 54.78C295.27 54.78 294.89 54.78 294.44 54.78L294.04 53.62H295.2C295.432 53.6373 295.665 53.617 295.89 53.56C295.98 53.514 296.054 53.4405 296.1 53.35C296.189 53.0888 296.24 52.8159 296.25 52.54C296.297 52.1 296.333 51.5767 296.36 50.97H293.71L294.37 48.62H293.21V47.43H298.14L298.11 48.58ZM297.62 46.58H293.62V42.86H297.62V46.58ZM296.47 45.47V44H294.81V45.51L296.47 45.47ZM305.38 45.09C305.314 45.8317 305.128 46.5577 304.83 47.24L303.74 46.89C303.843 46.6685 303.923 46.4374 303.98 46.2H302.27V47L303.6 46.92V47.92L302.27 47.99V48.41C302.265 48.448 302.269 48.4865 302.281 48.5227C302.294 48.5589 302.314 48.5918 302.341 48.6189C302.368 48.6459 302.401 48.6664 302.437 48.6787C302.473 48.6911 302.512 48.6949 302.55 48.69H305.1V49.75H302C301.88 49.75 301.762 49.724 301.653 49.674C301.544 49.6239 301.448 49.5509 301.37 49.46C301.198 49.2871 301.101 49.0537 301.1 48.81V48.06L300.16 48.13V47.13L301.1 47.06V46.21H299.73V49.8C299.791 51.5562 299.343 53.2924 298.44 54.8L297.44 54.03C298.199 52.5725 298.564 50.9421 298.5 49.3V45.1H300.82V42.53H302.04V43.21H304.73V44.3H302.04V45.09H305.38ZM301.64 50.22C301.64 50.5467 301.64 50.82 301.64 51.04C301.665 51.8119 301.547 52.5817 301.29 53.31C301.04 53.9112 300.615 54.4233 300.07 54.78L299.2 53.97C299.629 53.6736 299.974 53.2704 300.2 52.8C300.414 52.2112 300.509 51.5858 300.48 50.96C300.48 50.72 300.48 50.47 300.48 50.21L301.64 50.22ZM305.47 52.14C305.52 52.8661 305.372 53.5922 305.04 54.24C304.874 54.3928 304.678 54.5084 304.464 54.5791C304.25 54.6499 304.024 54.674 303.8 54.65C302.88 54.65 302.42 54.3167 302.42 53.65V50.23H303.61V53.23C303.61 53.43 303.723 53.53 303.95 53.53C304.013 53.5303 304.075 53.5099 304.125 53.472C304.176 53.4341 304.213 53.3808 304.23 53.32C304.336 52.7927 304.4 52.2576 304.42 51.72L305.47 52.14Z" fill="white"/>
</g>
<defs>
<clipPath id="clip0_153_29289">
<rect width="305.48" height="56.46" fill="white"/>
</clipPath>
</defs>
</svg>
