<svg width="527" height="53" viewBox="0 0 527 53" fill="none" xmlns="http://www.w3.org/2000/svg">
<g clip-path="url(#clip0_227_29224)">
<path d="M1.632 21.61H14.352V22.794H1.632V21.61ZM2.368 26.314H13.68V27.482H2.368V26.314ZM0.896 31.418H15.152V32.602H0.896V31.418ZM7.344 22.554H8.64V32.026H7.344V22.554ZM5.968 19.146L6.944 18.474C7.984 19.21 9.28 20.298 9.904 21.066L8.864 21.818C8.288 21.066 7.024 19.93 5.968 19.146ZM21.664 22.106H25.088V23.162H21.664V22.106ZM24.768 22.106H25.776C25.776 22.106 25.76 22.522 25.76 22.65C25.664 29.578 25.584 31.77 25.216 32.378C24.992 32.746 24.736 32.874 24.352 32.922C24.032 32.97 23.552 32.954 23.072 32.938C23.04 32.634 22.944 32.186 22.784 31.914C23.28 31.962 23.696 31.962 23.92 31.962C24.096 31.962 24.208 31.914 24.32 31.706C24.592 31.274 24.688 29.05 24.768 22.378V22.106ZM22.736 18.41H23.728C23.696 24.89 23.552 29.802 21.376 33.162C21.216 32.986 20.784 32.602 20.56 32.442C22.656 29.45 22.768 24.474 22.736 18.41ZM18.704 18.41H19.824V20.986H18.704V18.41ZM16.816 20.554H21.568V21.562H16.816V20.554ZM16.656 24.826H21.744V25.834H16.656V24.826ZM17.328 22.058L18.208 21.834C18.512 22.65 18.72 23.722 18.752 24.426L17.792 24.682C17.792 23.978 17.6 22.874 17.328 22.058ZM20.304 21.77L21.312 21.994C21.024 22.922 20.72 24.026 20.448 24.714L19.632 24.506C19.872 23.77 20.176 22.57 20.304 21.77ZM16.576 28.266C17.872 28.09 19.792 27.786 21.712 27.466L21.776 28.458C20 28.778 18.16 29.098 16.8 29.338L16.576 28.266ZM28.08 18.41H29.2V20.986H28.08V18.41ZM28.08 25.194H29.2V33.162H28.08V25.194ZM26.112 20.538H31.168V21.562H26.112V20.538ZM26.016 24.81H31.36V25.834H26.016V24.81ZM26.176 28.106H31.12V29.13H26.176V28.106ZM26.608 22.058L27.472 21.818C27.808 22.65 28.032 23.754 28.064 24.474L27.136 24.73C27.12 24.01 26.896 22.89 26.608 22.058ZM29.76 21.738L30.8 21.994C30.496 22.922 30.176 24.01 29.872 24.714L29.056 24.49C29.296 23.738 29.632 22.538 29.76 21.738ZM18.704 25.21H19.824V27.994C19.824 29.626 19.488 31.77 17.52 33.146C17.376 32.906 17.04 32.538 16.784 32.346C18.528 31.226 18.704 29.322 18.704 27.994V25.21ZM39.328 23.53H40.56V33.13H39.328V23.53ZM35.696 26.234V27.626H44.4V26.234H35.696ZM35.696 23.946V25.306H44.4V23.946H35.696ZM34.528 22.97H45.616V28.586H34.528V22.97ZM32.912 29.818H47.104V30.874H32.912V29.818ZM35.184 19.85V21.37H38.256V19.85H35.184ZM34.096 19.05H39.376V22.17H34.096V19.05ZM41.76 19.85V21.37H44.864V19.85H41.76ZM40.672 19.05H46V22.17H40.672V19.05ZM57.424 18.602H58.624V22.25H57.424V18.602ZM53.248 21.562H63.024V22.714H53.248V21.562ZM54.576 23.962L55.648 23.786C56.256 25.914 56.816 28.65 56.944 30.234L55.76 30.49C55.648 28.89 55.152 26.106 54.576 23.962ZM60.416 23.642L61.696 23.866C61.104 26.426 60.176 29.706 59.424 31.69L58.352 31.434C59.104 29.418 59.984 26.026 60.416 23.642ZM52.848 31.242H63.424V32.394H52.848V31.242ZM52.416 18.458L53.552 18.826C52.464 21.514 50.752 24.202 48.992 25.962C48.864 25.69 48.528 25.05 48.304 24.762C49.92 23.258 51.488 20.874 52.416 18.458ZM50.752 22.586L51.888 21.45L51.904 21.466V33.098H50.752V22.586Z" fill="black"/>
<path d="M112 25.25L112.5 25.75C112.6 25.95 112.4 26.15 112.3 26.35C112.3 26.35 112.3 26.35 112.3 26.45C112.6 26.75 112.6 26.85 112.2 27.05C111.9 27.25 111.7 27.35 111.4 27.55C111 27.65 110.8 28.05 110.4 28.15C110.1 28.25 109.9 28.35 109.8 28.65C109.6 28.85 109.5 29.15 109.5 29.45C109.5 29.65 109.6 29.65 109.8 29.65C110 29.65 110.2 29.55 110.3 29.65C110.5 29.75 110.6 29.65 110.8 29.65C111 29.65 111.3 29.65 111.5 29.55C111.6 29.55 111.8 29.55 111.9 29.55C112 29.55 112.1 29.55 112.3 29.55C112.6 29.45 112.8 29.45 113.1 29.45C113.5 29.45 113.9 29.35 114.3 29.35C114.4 29.35 114.4 29.35 114.5 29.35H114.6C114.9 29.45 115.2 29.45 115.5 29.65C115.6 29.75 115.6 29.75 115.7 29.75C115.9 29.75 116.1 29.95 116.2 30.05C116.3 30.15 116.4 30.15 116.5 30.15L116.7 30.85C116.6 31.05 116.6 31.15 116.5 31.35C116.4 31.55 116.3 31.75 116.2 31.95C116.1 32.15 116.2 32.35 116 32.45C116 32.45 116 32.55 116 32.65C116 32.75 116.1 32.95 116.1 33.15C116.1 33.55 116.2 34.05 116.1 34.45C116.1 34.75 116.1 35.05 116 35.35V35.45C115.8 35.55 115.8 35.75 115.8 35.95C115.5 36.45 115.5 37.05 115.3 37.55C115.2 37.85 115 38.05 114.9 38.35C114.8 38.55 114.6 38.65 114.5 38.85C114.5 38.95 114.3 38.85 114.1 38.95L113.9 39.15H113.8C113.6 39.05 113.4 39.05 113.3 38.75C113.3 38.75 113.2 38.65 113.1 38.65C113 38.65 112.8 38.55 112.7 38.55C112.6 38.25 112.4 37.95 112.1 37.85C112 37.75 111.8 37.65 111.7 37.55C111.6 37.45 111.4 37.45 111.2 37.45V36.85L111.8 36.75C111.9 36.55 112.2 36.35 112.5 36.35C112.7 36.35 113 36.15 113.2 35.95C113.2 35.75 113.2 35.55 113.4 35.45C113.4 35.45 113.4 35.35 113.5 35.35C113.6 35.05 113.6 34.75 113.7 34.45C113.7 34.25 113.7 33.95 113.8 33.75C113.8 33.75 113.8 33.65 113.8 33.55L113.7 33.45C113.9 33.05 113.7 32.65 113.8 32.25C113.8 32.15 113.8 32.15 113.8 32.05C113.8 31.65 113.8 31.35 113.7 30.95C113.7 30.65 113.7 30.45 113.7 30.25C113.7 30.15 113.6 30.05 113.5 30.05C113.2 30.05 112.9 30.05 112.7 30.05C112.3 30.15 111.9 30.25 111.5 30.25C111.3 30.25 111 30.45 110.8 30.55C110.6 30.85 110.3 31.05 110 31.25C109.9 31.35 109.9 31.45 109.8 31.65C110 31.75 110.1 31.75 110.2 31.75C110.3 31.75 110.5 31.85 110.6 31.85C110.7 31.95 110.8 32.05 110.7 32.25C110.7 32.35 110.6 32.45 110.6 32.55L109.8 32.95C110 33.25 110.1 33.45 110.4 33.55C110.5 33.55 110.6 33.75 110.8 33.85C110.6 34.25 110.3 34.65 110 34.95V35.05C110.1 35.35 110.1 35.65 110 35.85C109.9 36.15 109.8 36.45 109.8 36.75C109.8 36.95 109.8 37.15 109.6 37.25V37.35C109.6 37.75 109.4 38.05 109.1 38.35C109 38.35 109 38.45 109 38.55C108.9 38.65 108.9 38.65 108.8 38.75L108.5 38.55C108.5 38.25 108.5 38.05 108.5 37.75C108.5 37.45 108.5 37.15 108.4 36.85C108.4 36.65 108.3 36.35 108.4 36.15C108.4 35.95 108.4 35.85 108.2 35.75C108 35.65 107.9 35.75 107.8 35.95C107.8 35.95 107.8 35.95 107.7 36.05C107.5 36.05 107.2 36.05 107 36.15C106.7 36.25 106.3 36.25 105.9 36.25C105.8 36.25 105.7 36.05 105.6 35.95C105.5 35.75 105.4 35.65 105.4 35.45C105.5 35.25 105.8 35.15 106 35.15C106.2 35.15 106.3 35.15 106.4 34.95C106.4 34.95 106.5 34.85 106.6 34.85C106.9 34.75 107.3 34.65 107.6 34.45C107.7 34.45 107.9 34.35 108 34.25C108.2 34.25 108.2 34.05 108.2 33.95C108 33.95 107.9 33.95 107.7 33.95C107.6 33.95 107.4 33.95 107.3 34.05C107.1 34.25 106.9 34.25 106.4 34.15C106.3 33.95 106.3 33.85 106.2 33.65C106.1 33.45 106.2 33.15 106.4 32.95C106.7 32.75 106.6 32.45 106.4 32.25L106.3 32.15C106 31.75 105.6 31.85 105.3 31.95C105.2 32.05 105 32.05 104.9 32.15C104.6 32.25 104.3 32.25 104 32.05C103.7 31.95 103.6 31.95 103.6 32.25C103.6 32.35 103.6 32.35 103.6 32.45C103.5 32.85 103.4 33.15 103.6 33.55C103.7 33.75 103.7 33.95 103.7 34.15C103.7 34.25 103.7 34.45 103.7 34.55C103.8 34.95 103.9 35.45 104 35.85C104 35.95 104 35.95 104 36.05C104 36.35 104 36.75 104.1 37.05C104.1 37.05 104 37.05 104 37.15C103.7 37.25 103.7 37.25 103.8 37.65C103.8 37.75 103.7 37.75 103.6 37.75C103.6 37.75 103.5 37.75 103.5 37.65C103.3 37.35 103.1 36.95 103 36.55C103 36.45 102.9 36.35 102.9 36.25C102.8 36.15 102.8 36.05 102.8 35.85C102.8 35.55 102.7 35.35 102.7 35.05C102.7 34.85 102.7 34.65 102.6 34.55C102.8 34.25 102.6 33.95 102.6 33.55C102.6 33.45 102.5 33.35 102.6 33.25C102.7 33.05 102.7 32.75 102.7 32.45C102.7 32.35 102.7 32.25 102.7 32.15C102.6 32.05 102.6 31.95 102.7 31.95C102.7 31.85 102.7 31.75 102.6 31.65C102.7 31.45 102.9 31.35 103.2 31.35L103.3 31.25L103.4 31.15C103.7 31.05 104 30.95 104.3 30.75C104.4 30.75 104.4 30.65 104.5 30.55C104.6 30.35 104.7 30.25 104.9 30.25C105 29.95 105 29.95 105.3 29.85C105.6 29.75 105.8 29.85 106 29.85C106.1 29.85 106.2 29.75 106.3 29.65C106.4 29.55 106.5 29.45 106.6 29.45C106.7 29.45 106.8 29.35 106.9 29.35C107 29.25 107.1 29.25 107.2 29.25C107.5 29.25 107.8 29.15 108 28.95C108.1 28.85 108.1 28.75 108 28.65C108 28.55 107.9 28.55 107.7 28.55C107.6 28.55 107.5 28.55 107.4 28.55C107.1 28.55 106.9 28.55 106.6 28.55C106.3 28.55 106 28.45 105.8 28.25C105.7 28.15 105.5 28.05 105.3 27.95C105.3 27.65 104.9 27.45 105.1 27.15C104.9 27.05 104.8 27.05 104.7 26.85C104.6 26.55 104.7 26.35 105.1 26.15C105.2 26.05 105.4 25.95 105.5 26.05C105.5 26.05 105.5 26.05 105.6 26.05L106.7 25.95C106.8 25.95 106.9 25.95 107 25.95C107.1 25.95 107.3 25.95 107.4 25.85C107.6 25.65 107.8 25.65 108 25.65C108.2 25.65 108.3 25.55 108.3 25.35C108.3 25.25 108.3 25.15 108.4 25.15C108.5 24.95 108.5 24.75 108.3 24.65C108.2 24.45 108 24.25 107.9 24.05L108.1 23.25C108.3 23.25 108.5 23.25 108.6 23.25C108.7 23.25 108.8 23.25 108.9 23.15C109.2 22.95 109.6 22.95 109.8 23.25C109.9 23.35 110 23.45 110 23.55C110.1 23.85 110.1 24.25 110.2 24.55C110.2 24.75 110.3 24.95 110.4 25.05C110.5 25.15 110.6 25.15 110.7 25.05C110.9 24.85 111.2 24.95 111.5 24.85C111.6 25.25 111.8 25.25 112 25.25Z" fill="#0D1319"/>
<path d="M86.6 31.35H86.7C87 31.15 87.3 31.15 87.6 30.95C87.7 30.85 87.8 30.85 88 30.75C88.2 30.75 88.4 30.65 88.5 30.45H88.7C88.9 30.35 89.1 30.25 89.3 30.15C89.4 30.15 89.5 30.05 89.6 30.05C89.9 30.05 90.1 30.05 90.4 29.95C90.5 29.95 90.6 29.95 90.6 29.85C90.9 29.75 91.2 29.65 91.5 29.55C91.5 29.55 91.6 29.55 91.6 29.45C91.5 29.25 91.4 29.25 91.3 29.25C90.9 29.25 90.6 29.15 90.2 29.15C90.1 29.15 90 29.05 89.9 28.85C89.8 28.65 89.7 28.45 89.6 28.25C89.6 28.15 89.7 28.15 89.7 28.05C89.9 27.85 90.1 27.65 90.3 27.35C90.4 27.25 90.4 27.15 90.5 27.05L91.4 26.65C91.5 26.55 91.5 26.45 91.4 26.35C91.3 26.25 91.2 26.25 91.1 26.25C90.8 26.35 90.4 26.35 90.2 26.65C89.9 26.75 89.6 27.05 89.3 26.95C89.2 26.95 89 26.85 88.9 26.85C88.9 26.85 88.9 26.75 88.8 26.75C88.5 26.65 88.5 26.45 88.5 26.15C88.5 25.95 88.6 25.75 88.6 25.55C88.7 25.35 88.8 25.25 89 25.15C89.2 25.05 89.4 24.95 89.5 24.75C89.8 25.05 90 25.05 90.3 25.05C90.7 25.15 91.1 25.05 91.4 24.95C91.6 24.95 91.7 24.95 91.9 24.95C92.2 25.05 92.2 25.05 92.3 24.75C92.3 24.65 92.4 24.55 92.4 24.45C92.5 24.15 92.3 23.95 92 24.05C91.7 24.15 91.3 24.15 91 24.15C90.9 24.15 90.7 24.25 90.6 24.35L89 23.65C89.1 23.35 89 23.15 88.8 22.95L88.7 22.85C88.6 22.55 88.6 22.55 88.5 22.35C88.7 22.25 88.9 22.15 89.1 22.05C89.2 21.95 89.3 21.95 89.4 21.85C89.5 21.85 89.5 21.85 89.6 21.85C89.8 21.95 89.9 21.85 90.1 21.85C90.3 21.75 90.5 21.75 90.8 21.65C90.8 21.45 90.8 21.35 91 21.35C91.3 21.35 91.4 21.25 91.5 20.95C91.7 20.85 91.9 20.95 92 21.05C92.3 21.15 92.5 21.15 92.5 20.75C92.6 20.05 92.5 19.55 92.2 19.05C92.3 18.75 92.4 18.35 92.4 18.05C92.4 17.95 92.5 17.85 92.6 17.75C92.8 17.65 93 17.45 93.2 17.35C94 17.25 94 17.25 94.5 17.75C94.5 17.95 94.6 18.25 94.5 18.45C94.5 18.55 94.6 18.65 94.6 18.75C94.5 18.95 94.4 19.25 94.4 19.45C94.3 19.75 94.4 20.05 94.7 20.15C94.8 20.15 94.8 20.15 94.9 20.15C95 20.15 95.1 20.15 95.2 20.15C95.3 20.15 95.4 20.15 95.5 20.15C95.6 20.15 95.6 20.15 95.7 20.15C95.8 20.35 95.8 20.35 95.7 20.95L96.1 21.15C96.1 21.25 96.1 21.45 96 21.45C95.8 21.65 95.9 21.85 95.8 22.05C95.8 22.05 95.8 22.15 95.8 22.35C95.5 22.55 95.3 22.75 95 23.05C94.9 23.05 94.9 23.15 94.8 23.15C94.7 23.25 94.6 23.35 94.5 23.45C94.4 23.55 94.4 23.65 94.3 23.75C94.1 23.85 94.1 23.95 94.1 24.25C94.1 24.35 94.1 24.45 94.3 24.55L94.4 24.35C94.7 24.25 94.9 24.15 95.2 23.95H95.3C95.7 23.95 96 23.75 96.4 23.55C96.6 23.45 96.7 23.45 96.9 23.45C96.8 24.05 96.4 24.45 95.9 24.65C95.8 24.75 95.7 24.75 95.6 24.85C95.5 24.95 95.4 25.05 95.3 25.05C95 25.05 94.9 25.25 94.7 25.35C94.5 25.45 94.3 25.55 94.1 25.75C94.1 26.05 93.9 26.25 93.6 26.35C93.5 26.35 93.3 26.45 93.2 26.55C93.2 26.65 93.3 26.75 93.4 26.75C93.4 26.75 93.4 26.75 93.5 26.75C93.6 26.75 93.7 26.65 93.8 26.65C94.1 26.45 94.4 26.45 94.7 26.55C94.9 26.55 95.2 26.55 95.4 26.55L95.8 27.05C95.6 27.35 95.5 27.65 95.4 27.95C95.2 28.15 94.9 28.25 94.8 28.65C94.6 28.75 94.5 29.05 94.3 29.15C94.1 29.35 93.8 29.45 93.6 29.35C93.5 29.35 93.3 29.35 93.2 29.35C93 29.35 93 29.45 93 29.65C93 29.75 93.2 29.85 93.3 29.85C93.8 29.75 94.4 29.65 94.9 29.45C95 29.45 95 29.35 95.1 29.45C95.4 29.45 95.8 29.45 96.1 29.35C96.4 29.25 96.8 29.25 97.1 29.25C97.2 29.25 97.3 29.25 97.3 29.25C97.6 29.35 98 29.45 98.3 29.45C98.3 29.75 98.6 29.75 98.8 29.75C99 29.95 99 30.25 99.3 30.45C99.4 30.55 99.4 30.85 99.3 31.05C99.2 31.15 99.1 31.25 99.1 31.25C98.6 30.95 98.4 31.05 98.2 31.05C98 31.05 97.8 31.15 97.5 31.05C97.5 30.85 97.4 30.85 97.2 30.75C96.8 30.65 96.4 30.65 96 30.75C95.8 30.85 95.5 30.85 95.3 30.85C95.2 30.85 95.2 30.85 95.1 30.95C95 30.95 95 30.95 94.9 30.95C95.1 30.65 95.4 30.45 95.7 30.25C95.9 30.15 96.1 29.95 96.1 29.75C96 29.75 95.9 29.75 95.9 29.75C95.7 29.75 95.5 29.85 95.4 29.85C94.9 29.85 94.4 29.85 93.9 29.95C93.7 29.95 93.4 30.05 93.2 30.15C92.8 30.25 92.6 30.65 92.1 30.65C91.9 30.65 91.7 30.75 91.5 30.85C91 31.05 90.5 31.35 89.9 31.55C89.4 31.75 89 31.95 88.6 32.15C88.6 32.25 88.6 32.35 88.5 32.35C88.3 32.45 88.1 32.65 87.9 32.75C87.8 32.75 87.7 32.85 87.6 32.85C87.5 32.85 87.3 32.95 87.3 33.05C87.2 33.25 87 33.35 86.7 33.35L86.5 33.65C86.1 33.65 86 33.95 85.7 34.15C85.6 34.25 85.5 34.35 85.4 34.35C85.2 34.45 84.9 34.45 84.8 34.75C84.6 34.65 84.5 34.65 84.4 34.65C84.2 34.55 84.1 34.45 84.1 34.25C84.1 34.15 84 33.95 84 33.85C84.1 33.75 84.1 33.55 84.1 33.35C84 33.15 84.1 33.05 84.3 32.95C84.5 32.85 84.7 32.75 84.7 32.55C84.7 32.45 84.8 32.45 84.8 32.35C84.8 32.25 85.2 31.75 85.2 31.75C85.2 31.45 85.4 31.35 85.5 31.25C85.8 31.25 86 31.05 86.2 30.95L86.6 31.35ZM92.8 27.85C93 27.95 93.2 27.85 93.4 27.65C93.5 27.55 93.5 27.55 93.6 27.55C94 27.55 94.2 27.25 94.4 27.05C94.5 26.95 94.6 26.75 94.5 26.65C94.4 26.45 94.3 26.45 94.1 26.55C94 26.55 94 26.55 93.9 26.55C93.5 26.75 93 26.95 92.6 27.15L92.5 27.25C92.4 27.35 92.4 27.45 92.3 27.45C92.3 27.55 92.2 27.65 92.3 27.65C92.3 27.65 92.4 27.75 92.5 27.75C92.6 27.85 92.7 27.85 92.8 27.85Z" fill="#0D1319"/>
<path d="M91.2 39.05C91.1 39.25 90.9 39.35 90.7 39.35C90.5 39.35 90.3 39.45 90.1 39.45C90 39.45 90 39.45 89.9 39.45C89.7 39.35 89.6 39.25 89.5 39.15C89.5 38.75 89.7 38.35 89.9 38.05C90 37.85 90.2 37.65 90.3 37.45C90.3 37.35 90.4 37.25 90.4 37.05C89.9 37.15 89.7 36.75 89.3 36.65C89.2 36.65 89.1 36.55 89 36.55C88.9 36.35 88.9 36.25 89.2 36.05V35.75C89.9 35.25 90.7 34.85 91.5 34.65C91.5 34.65 91.5 34.65 91.5 34.55L90.8 34.45C90.8 34.35 90.7 34.25 90.7 34.15C90.8 34.05 90.8 33.85 91 33.75C91.3 33.75 91.4 33.35 91.6 33.25C91.7 33.15 91.7 33.05 91.6 32.75C91.5 32.65 91.3 32.65 91.2 32.75H91.1C90.8 32.55 90.4 32.65 90.2 32.35C90.3 32.15 90.6 32.05 90.4 31.85C90.5 31.85 90.6 31.85 90.6 31.75C90.8 31.75 91 31.65 91.2 31.55C91.3 31.55 91.3 31.45 91.4 31.45C92 31.35 92.6 31.25 93.1 31.35H93.2C93.5 31.25 93.8 31.45 93.9 31.75C93.6 31.95 93.5 32.35 93.1 32.35C93.2 32.75 92.8 32.85 92.6 33.05C92.6 33.15 92.5 33.15 92.5 33.25L92.2 33.35C92.2 33.55 92.3 33.55 92.4 33.55C92.5 33.55 92.6 33.55 92.7 33.55C93.1 33.65 93.4 33.95 93.5 34.35C93.5 34.45 93.5 34.45 93.5 34.55C93.3 34.85 93.2 35.05 93.2 35.25C93.1 35.45 93 35.65 92.9 35.75C92.8 35.85 92.8 35.95 92.7 36.05C92.5 36.15 92.4 36.35 92.4 36.65C92.4 36.75 92.3 36.75 92.3 36.75C92.1 36.75 92 36.95 91.9 37.15C91.8 37.25 91.8 37.35 91.8 37.45C91.8 37.55 92 37.55 92.1 37.55C92.5 37.55 93 37.45 93.4 37.35C93.5 37.35 93.7 37.25 93.8 37.25C94 37.25 94.3 37.15 94.5 36.95L94.2 36.65C94.3 36.55 94.3 36.45 94.3 36.25C94.3 36.15 94.2 36.05 94.2 35.95L94.1 35.85C94 35.65 94 35.45 93.9 35.35C93.9 34.95 93.9 34.65 94 34.35C94 34.25 94.1 34.15 94.2 34.05C94.4 33.75 94.5 33.55 94.9 33.55C95 33.55 95.1 33.55 95.2 33.45C95.4 33.35 95.6 33.25 95.8 33.25C95.9 33.25 96 33.25 96.2 33.25C96.4 33.35 96.3 33.55 96.3 33.75C96.4 33.75 96.4 33.85 96.5 33.85C96.6 33.95 96.7 34.05 96.8 34.25C96.9 34.65 96.8 35.05 96.7 35.45C96.7 35.55 96.7 35.55 96.7 35.65C96.4 35.55 96.2 35.75 95.9 35.85C95.7 35.95 95.6 36.05 95.7 36.25C95.8 36.45 95.9 36.75 96 36.95C96.1 37.05 96.2 37.25 96.3 37.35C96.3 37.45 96.3 37.45 96.3 37.55C96.3 37.65 96.3 37.65 96.4 37.75C96.4 37.85 96.5 37.95 96.5 38.05C96.4 38.15 96.2 38.25 96.1 38.35C96 38.45 96 38.45 95.9 38.45C95.9 38.45 95.8 38.45 95.8 38.55C95.6 38.85 95.3 38.85 95 38.95C94.7 39.05 94.3 39.05 94 39.15C93.5 39.15 93 39.15 92.5 39.25C92 39.05 91.6 39.05 91.2 39.05Z" fill="#0D1319"/>
<path d="M130.03 31.85C129.03 33.45 128.13 34.95 127.13 36.55C125.43 39.15 123.83 41.85 122.13 44.45C121.53 45.35 121.03 46.25 120.43 47.15C126.33 46.65 132.13 45.85 137.93 44.65C138.13 40.65 138.63 36.65 139.43 32.65L130.03 31.85Z" fill="#B10023"/>
<path d="M151.43 14.65L144.33 26.65C144.33 26.65 156.03 26.35 162.53 21.95C165.33 19.85 167.73 17.25 169.43 14.15C171.83 9.84999 173.53 5.04999 174.13 0.0499878C174.13 0.0499878 165.03 6.74999 151.43 14.65Z" fill="#C07D00"/>
<path d="M145.43 35.35C145.03 33.65 142.33 31.75 142.33 31.75C142.33 31.75 139.73 41.65 139.03 45.45C138.43 48.55 143.23 52.25 145.63 52.65C146.63 50.95 147.33 49.05 147.43 47.05C146.93 43.55 145.43 35.35 145.43 35.35Z" fill="#0D1319"/>
<path d="M139.33 15.75C140.33 14.45 143.33 16.35 144.63 18.95C145.93 21.55 141.83 28.05 141.83 28.05C141.83 28.05 137.63 25.65 137.13 23.35C136.63 21.05 138.43 17.05 139.33 15.75Z" fill="#0D1319"/>
<path d="M136.63 23.45C136.43 22.05 136.53 20.65 137.03 19.35C130.53 19.05 124.03 17.85 117.83 15.75C120.13 23.05 127.13 27.95 134.83 27.55C136.33 27.45 137.83 27.15 139.33 26.85C138.03 26.05 137.13 24.85 136.63 23.45Z" fill="#C07D00"/>
<path d="M167.13 50.75L154.23 27.15L143.13 29.95C143.33 30.75 143.53 31.45 143.63 32.25C144.63 33.05 145.43 34.15 145.83 35.35C145.83 35.45 147.33 43.55 147.83 47.05V47.15V47.25C147.83 47.75 147.73 48.25 147.63 48.65C153.73 49.75 162.33 50.95 167.13 50.75Z" fill="#B10023"/>
<path d="M91 42.25V42.65H89.4V47.05H88.3V42.65H86.6V42.25H91Z" fill="#695444"/>
<path d="M93.9 42.25L96.1 47.05H94.9L94.3 45.75H92.5L91.9 47.05H91.1L93.4 42.25H93.9ZM92.7 45.25H94.1L93.4 43.75L92.7 45.25Z" fill="#695444"/>
<path d="M98.1 42.25H97V47.05H98.1V42.25Z" fill="#695444"/>
<path d="M99.7 42.25H100.4L103.1 45.25V42.25H103.8V47.05H103.3L100.4 43.75V47.05H99.7V42.25Z" fill="#695444"/>
<path d="M110.5 42.25H111.2L113.9 45.25V42.25H114.6V47.05H114.1L111.2 43.75V47.05H110.5V42.25Z" fill="#695444"/>
<path d="M107.5 42.25L109.7 47.05H108.5L107.9 45.75H106.1L105.5 47.05H104.7L107 42.25H107.5ZM106.3 45.25H107.7L107 43.75L106.3 45.25Z" fill="#695444"/>
<path d="M204.306 26.826H208.61V27.786H204.306V26.826ZM200.466 20.17H207.794V21.162H200.466V20.17ZM198.978 26.826H203.218V27.786H198.978V26.826ZM194.754 22.65H199.778V23.754H194.754V22.65ZM196.738 18.426H197.906V33.13H196.738V18.426ZM202.866 26.826H203.874C203.874 26.826 203.874 27.162 203.858 27.306C203.73 30.986 203.602 32.266 203.266 32.698C203.058 32.97 202.818 33.082 202.482 33.098C202.194 33.146 201.746 33.146 201.282 33.114C201.266 32.826 201.186 32.41 201.026 32.154C201.474 32.202 201.842 32.202 202.034 32.202C202.21 32.202 202.306 32.17 202.402 32.026C202.626 31.754 202.754 30.506 202.866 27.034V26.826ZM208.274 26.826H209.298C209.298 26.826 209.298 27.162 209.282 27.306C209.17 30.97 209.058 32.266 208.722 32.698C208.498 32.97 208.274 33.066 207.922 33.098C207.618 33.146 207.122 33.146 206.61 33.114C206.578 32.81 206.482 32.394 206.338 32.122C206.834 32.17 207.25 32.17 207.442 32.17C207.634 32.17 207.73 32.154 207.842 32.01C208.05 31.738 208.162 30.506 208.274 27.034V26.826ZM207.554 20.17H208.674C208.674 20.17 208.642 20.49 208.626 20.65C208.418 23.018 208.21 23.978 207.826 24.362C207.57 24.634 207.298 24.73 206.882 24.762C206.53 24.778 205.874 24.794 205.202 24.746C205.17 24.426 205.058 23.994 204.882 23.722C205.538 23.786 206.178 23.786 206.434 23.786C206.674 23.786 206.802 23.77 206.914 23.658C207.186 23.402 207.378 22.522 207.554 20.33V20.17ZM203.762 18.41H204.898C204.674 21.658 203.794 23.85 200.45 25.098C200.338 24.842 200.05 24.442 199.842 24.25C202.93 23.178 203.586 21.242 203.762 18.41ZM200.658 25.178H201.714C201.618 28.618 201.186 31.466 199.202 33.162C199.058 32.938 198.754 32.586 198.53 32.426C200.306 30.922 200.578 28.298 200.658 25.178ZM205.922 25.146H206.994C206.898 28.682 206.45 31.45 204.386 33.13C204.242 32.89 203.922 32.538 203.682 32.362C205.554 30.906 205.858 28.346 205.922 25.146ZM215.794 22.106H219.218V23.162H215.794V22.106ZM218.898 22.106H219.906C219.906 22.106 219.89 22.522 219.89 22.65C219.794 29.578 219.714 31.77 219.346 32.378C219.122 32.746 218.866 32.874 218.482 32.922C218.162 32.97 217.682 32.954 217.202 32.938C217.17 32.634 217.074 32.186 216.914 31.914C217.41 31.962 217.826 31.962 218.05 31.962C218.226 31.962 218.338 31.914 218.45 31.706C218.722 31.274 218.818 29.05 218.898 22.378V22.106ZM216.866 18.41H217.858C217.826 24.89 217.682 29.802 215.506 33.162C215.346 32.986 214.914 32.602 214.69 32.442C216.786 29.45 216.898 24.474 216.866 18.41ZM212.834 18.41H213.954V20.986H212.834V18.41ZM210.946 20.554H215.698V21.562H210.946V20.554ZM210.786 24.826H215.874V25.834H210.786V24.826ZM211.458 22.058L212.338 21.834C212.642 22.65 212.85 23.722 212.882 24.426L211.922 24.682C211.922 23.978 211.73 22.874 211.458 22.058ZM214.434 21.77L215.442 21.994C215.154 22.922 214.85 24.026 214.578 24.714L213.762 24.506C214.002 23.77 214.306 22.57 214.434 21.77ZM210.706 28.266C212.002 28.09 213.922 27.786 215.842 27.466L215.906 28.458C214.13 28.778 212.29 29.098 210.93 29.338L210.706 28.266ZM222.21 18.41H223.33V20.986H222.21V18.41ZM222.21 25.194H223.33V33.162H222.21V25.194ZM220.242 20.538H225.298V21.562H220.242V20.538ZM220.146 24.81H225.49V25.834H220.146V24.81ZM220.306 28.106H225.25V29.13H220.306V28.106ZM220.738 22.058L221.602 21.818C221.938 22.65 222.162 23.754 222.194 24.474L221.266 24.73C221.25 24.01 221.026 22.89 220.738 22.058ZM223.89 21.738L224.93 21.994C224.626 22.922 224.306 24.01 224.002 24.714L223.186 24.49C223.426 23.738 223.762 22.538 223.89 21.738ZM212.834 25.21H213.954V27.994C213.954 29.626 213.618 31.77 211.65 33.146C211.506 32.906 211.17 32.538 210.914 32.346C212.658 31.226 212.834 29.322 212.834 27.994V25.21ZM233.458 23.53H234.69V33.13H233.458V23.53ZM229.826 26.234V27.626H238.53V26.234H229.826ZM229.826 23.946V25.306H238.53V23.946H229.826ZM228.658 22.97H239.746V28.586H228.658V22.97ZM227.042 29.818H241.234V30.874H227.042V29.818ZM229.314 19.85V21.37H232.386V19.85H229.314ZM228.226 19.05H233.506V22.17H228.226V19.05ZM235.89 19.85V21.37H238.994V19.85H235.89ZM234.802 19.05H240.13V22.17H234.802V19.05ZM251.554 18.602H252.754V22.25H251.554V18.602ZM247.378 21.562H257.154V22.714H247.378V21.562ZM248.706 23.962L249.778 23.786C250.386 25.914 250.946 28.65 251.074 30.234L249.89 30.49C249.778 28.89 249.282 26.106 248.706 23.962ZM254.546 23.642L255.826 23.866C255.234 26.426 254.306 29.706 253.554 31.69L252.482 31.434C253.234 29.418 254.114 26.026 254.546 23.642ZM246.978 31.242H257.554V32.394H246.978V31.242ZM246.546 18.458L247.682 18.826C246.594 21.514 244.882 24.202 243.122 25.962C242.994 25.69 242.658 25.05 242.434 24.762C244.05 23.258 245.618 20.874 246.546 18.458ZM244.882 22.586L246.018 21.45L246.034 21.466V33.098H244.882V22.586Z" fill="black"/>
<path d="M302.73 33.9C302.43 34.2 302.03 34.5 301.63 34.8C301.53 34.9 301.43 34.9 301.43 35C298.43 37.3 296.03 39.5 297.33 43.9C298.93 43.1 300.53 42.1 301.93 40.9C301.63 40.2 301.33 39.5 301.33 38.7C301.13 36.9 301.73 35.2 302.73 33.9Z" fill="white"/>
<path d="M310.13 33C310.33 33.4 310.43 33.9 310.63 34.3C310.63 34.4 310.73 34.5 310.73 34.6C312.03 38.2 313.33 41.1 317.93 41.3C317.63 39.5 317.13 37.7 316.53 36C315.73 36.1 315.03 36.1 314.23 35.9C312.53 35.4 311.03 34.4 310.13 33Z" fill="white"/>
<path d="M311.53 25.7C312.03 25.7 312.43 25.6 312.93 25.6H313.23C317.03 25.5 320.23 25.1 321.83 20.9C320.03 20.6 318.13 20.5 316.33 20.6C316.23 21.4 315.93 22.1 315.53 22.7C314.53 24.2 313.13 25.3 311.53 25.7Z" fill="white"/>
<path d="M305.03 22.1C305.13 21.7 305.23 21.2 305.43 20.8C305.43 20.7 305.53 20.6 305.53 20.5C306.63 16.9 307.23 13.7 303.63 10.9C302.83 12.5 302.13 14.3 301.63 16C302.33 16.4 302.93 16.8 303.43 17.4C304.53 18.8 305.13 20.5 305.03 22.1C305.03 22.2 305.03 22.2 305.03 22.1Z" fill="white"/>
<path d="M299.63 27.2C299.23 27 298.83 26.7 298.43 26.4C298.33 26.3 298.23 26.3 298.23 26.2C295.13 24.1 292.33 22.5 288.53 25C289.83 26.3 291.23 27.5 292.83 28.5C293.33 28 294.03 27.5 294.73 27.3C296.23 26.6 298.03 26.6 299.63 27.2Z" fill="white"/>
<path d="M305.83 29.1C304.13 40 286.73 36.4 288.73 52.6C290.23 43.2 308.73 45.8 305.83 29.1Z" fill="#355297"/>
<path d="M302.83 34.6C301.73 35.9 301.23 37.7 301.33 39.4C301.63 44.4 307.73 44.8 305.83 52.7C303.43 47.7 299.13 48.9 297.33 44.6C296.13 40.2 298.43 38 301.43 35.7C301.63 35.5 302.53 34.8 302.83 34.6Z" fill="#B3B301"/>
<path d="M302.73 34.6C302.43 34.9 302.03 35.2 301.63 35.5C301.53 35.6 301.43 35.6 301.43 35.7C298.43 38 296.03 40.2 297.33 44.6C298.93 43.8 300.53 42.8 301.93 41.6C301.63 40.9 301.33 40.2 301.33 39.4C301.23 37.6 301.73 35.9 302.73 34.6Z" fill="#242D0C"/>
<path d="M305.83 29.1C315.73 34.1 306.83 49.5 322.93 52.6C314.43 48.3 322.63 31.5 305.83 29.1Z" fill="#355297"/>
<path d="M310.13 33.6C311.03 35.1 312.53 36.1 314.23 36.5C319.13 37.7 321.33 32.1 328.23 36.3C322.73 37 322.53 41.5 317.93 41.9C313.33 41.7 312.03 38.8 310.73 35.2C310.63 35 310.23 33.9 310.13 33.6Z" fill="#B3B301"/>
<path d="M310.13 33.7C310.33 34.1 310.43 34.6 310.63 35C310.63 35.1 310.73 35.2 310.73 35.3C312.03 38.9 313.33 41.8 317.93 42C317.63 40.2 317.13 38.4 316.53 36.7C315.73 36.8 315.03 36.8 314.23 36.6C312.53 36.1 311.03 35.1 310.13 33.7Z" fill="#242D0C"/>
<path d="M305.83 29.1C313.63 21.2 325.53 34.4 333.53 20.1C326.73 26.8 313.23 13.8 305.83 29.1Z" fill="#355297"/>
<path d="M311.43 26.4C313.13 26 314.53 24.9 315.43 23.4C318.13 19.2 313.43 15.3 319.63 10C318.63 15.5 322.83 17.1 321.73 21.6C320.13 25.9 316.93 26.2 313.13 26.4C312.93 26.4 311.73 26.4 311.43 26.4Z" fill="#B3B301"/>
<path d="M311.53 26.4C312.03 26.4 312.43 26.3 312.93 26.3C313.03 26.3 313.13 26.3 313.23 26.3C317.03 26.2 320.23 25.8 321.83 21.6C320.03 21.3 318.13 21.2 316.33 21.3C316.23 22.1 315.93 22.8 315.53 23.4C314.53 24.9 313.13 26 311.53 26.4Z" fill="#242D0C"/>
<path d="M305.83 29.1C300.73 19.3 316.93 12 305.83 0C310.13 8.5 293.53 17.3 305.83 29.1Z" fill="#355297"/>
<path d="M305.03 22.9C305.13 21.2 304.53 19.5 303.43 18.2C300.23 14.3 295.13 17.6 291.93 10.1C296.83 12.7 299.63 9.20001 303.63 11.6C307.23 14.4 306.53 17.6 305.53 21.2C305.43 21.5 305.13 22.6 305.03 22.9Z" fill="#B3B301"/>
<path d="M305.03 22.8C305.13 22.4 305.23 21.9 305.43 21.5C305.43 21.4 305.53 21.3 305.53 21.2C306.63 17.6 307.23 14.4 303.63 11.6C302.83 13.2 302.13 15 301.63 16.7C302.33 17.1 302.93 17.5 303.43 18.1C304.53 19.5 305.13 21.2 305.03 22.8C305.03 22.9 305.03 22.9 305.03 22.8Z" fill="#242D0C"/>
<path d="M305.83 29.1C294.93 30.9 293.03 13.2 278.13 20.1C287.53 18.6 290.83 37.1 305.83 29.1Z" fill="#355297"/>
<path d="M299.63 27.9C298.03 27.3 296.23 27.3 294.63 28C289.93 29.8 291.53 35.7 283.43 36.4C287.43 32.6 285.03 28.8 288.53 25.8C292.33 23.3 295.13 24.9 298.23 27C298.43 27.1 299.43 27.8 299.63 27.9Z" fill="#B3B301"/>
<path d="M299.63 27.9C299.23 27.7 298.83 27.4 298.43 27.1C298.33 27 298.23 27 298.23 26.9C295.13 24.8 292.33 23.2 288.53 25.7C289.83 27 291.23 28.2 292.83 29.2C293.33 28.7 294.03 28.2 294.73 28C296.23 27.3 298.03 27.3 299.63 27.9Z" fill="#242D0C"/>
<path d="M387.471 27.436C385.671 27.636 384.871 26.136 382.971 26.236C382.671 25.936 382.171 25.936 381.871 25.636C381.571 25.536 381.071 25.736 380.971 25.536C381.171 24.936 381.271 24.336 381.171 23.736C381.671 23.536 382.071 23.136 382.771 23.336C383.271 22.536 384.771 23.336 384.471 21.736C383.871 21.436 383.171 21.336 382.471 21.336C381.971 20.736 381.571 19.936 380.471 19.836C379.971 20.836 380.371 22.036 379.071 22.336C377.971 22.636 376.071 21.636 375.271 22.936C375.071 23.236 375.371 23.236 375.471 23.536C376.771 23.036 378.071 23.536 379.371 23.636C379.571 23.936 379.671 24.236 379.771 24.536C379.171 25.436 377.771 25.636 376.371 26.136C375.371 26.436 374.371 26.936 373.371 27.436C373.071 27.636 372.871 28.036 372.371 28.136C372.171 27.936 371.971 27.636 371.971 27.336H370.771C369.871 28.136 370.571 28.936 370.871 29.736C371.371 31.136 372.071 33.436 373.671 33.336C373.671 32.236 373.971 31.336 373.271 30.336C374.371 28.436 376.371 27.436 378.471 26.636C379.271 26.836 379.971 26.036 380.271 26.736C379.971 27.136 379.971 27.936 379.471 28.136C378.771 27.936 378.571 26.736 377.471 27.336C377.871 28.036 378.171 29.436 376.771 29.236V29.936C377.871 30.036 378.371 29.136 379.471 29.536C379.871 32.236 376.771 31.336 376.271 33.136C377.171 33.436 377.971 32.836 378.871 32.836C379.271 33.636 378.571 35.536 380.071 35.336C380.171 34.536 380.271 33.636 380.571 32.836C381.271 32.836 381.971 32.736 382.571 32.436C382.971 30.936 380.171 31.536 380.571 30.236C380.771 29.536 382.171 30.036 382.671 29.436C382.671 29.136 382.471 28.936 382.571 28.536C382.271 28.336 381.471 28.536 381.271 28.436C381.371 27.036 382.471 27.236 383.971 27.136C384.771 27.936 386.571 27.836 387.071 28.936C386.671 30.436 386.071 31.836 384.371 32.136C384.771 33.036 383.671 33.736 384.271 34.836C385.571 34.736 386.071 33.836 387.071 33.436C387.871 31.936 389.671 30.836 389.571 28.736C388.971 28.236 388.071 27.936 387.471 27.436Z" fill="black"/>
<path d="M360.971 35.136C360.871 34.836 360.871 34.436 360.871 34.136C361.171 33.736 361.871 33.736 362.071 33.236C362.171 32.936 361.971 32.836 361.871 32.636C361.771 32.436 361.071 32.736 360.971 32.436C360.871 31.836 361.171 31.136 361.771 30.936C362.571 31.136 363.271 31.736 363.971 31.136C363.671 29.936 362.571 29.036 361.271 29.236C361.071 29.436 361.271 29.936 361.071 30.136C360.071 30.136 359.671 30.736 358.671 30.436C359.471 29.536 360.171 28.736 361.071 27.936C361.471 27.636 361.971 27.836 361.771 27.136C361.471 26.036 359.871 27.136 359.371 27.336C358.171 27.736 355.571 27.336 355.771 28.836C356.971 28.836 357.471 28.136 358.471 28.436C357.471 28.536 357.571 29.636 356.471 29.636C356.271 30.636 354.771 30.436 354.771 31.736C355.371 32.336 356.571 31.836 357.071 31.536C357.971 31.536 358.671 31.636 359.371 31.636C360.071 33.236 357.471 33.036 356.871 33.936C357.271 34.636 358.671 33.836 359.171 34.036C358.971 34.436 358.871 34.836 358.871 35.336C356.771 35.736 354.671 36.036 352.571 36.136V36.636C353.571 37.236 355.871 37.236 357.171 36.836C358.271 37.236 360.071 36.836 360.871 36.736C362.271 36.536 363.871 37.636 365.571 37.336C365.671 36.936 365.671 36.436 365.371 36.136C363.871 35.536 362.371 35.536 360.971 35.136Z" fill="black"/>
<path d="M403.144 26.886C403.244 25.686 403.544 24.486 404.044 23.386C406.244 23.086 408.544 23.886 410.144 22.786C409.144 22.086 407.844 21.786 406.644 21.986C404.944 22.686 403.144 22.386 401.144 22.586C400.544 22.686 399.844 22.986 399.244 22.986C398.044 22.986 397.444 23.486 396.144 23.786C394.644 24.086 393.144 24.386 391.644 24.886C391.044 24.386 390.244 23.886 389.444 24.486C389.544 25.486 389.944 26.086 390.044 26.986C390.744 27.486 392.444 26.086 393.244 25.686C394.044 25.286 394.844 24.986 395.644 24.786C397.444 24.286 400.244 22.886 402.044 23.486C401.544 24.386 401.844 25.986 401.444 27.086C399.944 27.586 399.244 27.086 397.944 27.586C397.744 29.386 396.144 29.886 395.244 30.886C395.544 31.686 394.744 31.886 395.044 32.586C397.644 32.386 398.944 29.986 400.044 27.986C400.444 27.986 401.344 27.886 401.444 27.986C401.044 31.586 400.944 35.186 401.344 38.786C401.744 38.886 401.844 39.186 402.244 39.286C403.244 37.186 403.144 34.786 403.444 31.986C404.144 32.286 404.344 31.786 405.144 31.786C406.644 30.486 408.144 29.186 408.244 26.486C406.944 25.186 404.944 26.986 403.144 26.886ZM403.344 31.586C403.044 30.286 402.944 28.986 403.244 27.686C404.044 27.386 404.944 27.286 405.844 27.186C406.044 29.086 405.044 30.886 403.344 31.586Z" fill="black"/>
<path d="M415.496 33.677C415.496 32.477 414.796 31.277 414.696 30.077C414.696 29.477 415.096 28.477 414.496 27.977H414.296C413.796 29.777 413.996 32.277 413.696 34.377C413.196 34.477 412.896 34.777 412.996 35.477C414.196 35.977 414.596 34.877 415.496 34.677C415.796 34.577 416.296 34.777 416.696 34.677C417.496 34.577 418.296 34.177 418.896 34.077C419.896 33.977 421.596 34.677 421.596 33.377C419.996 32.777 417.396 33.377 415.496 33.677Z" fill="black"/>
<path d="M418.296 32.677C418.496 32.877 418.896 32.577 419.296 32.577C419.896 31.577 419.696 30.177 419.796 29.077C420.296 28.977 420.696 28.977 421.196 28.977C421.396 28.277 422.296 28.277 422.396 27.577C421.696 27.277 420.896 27.277 420.196 27.577C420.096 25.877 420.596 24.777 421.896 24.477C421.496 23.177 419.496 24.077 418.396 24.077C417.296 24.877 414.796 24.377 414.296 25.877C415.796 25.577 417.296 25.377 418.796 25.277C419.196 27.477 417.696 30.277 418.296 32.677Z" fill="black"/>
<path d="M429.496 32.277C430.796 30.877 429.896 29.577 429.696 27.577C430.696 27.177 432.496 27.477 432.396 25.977C430.596 25.077 428.696 26.877 426.796 27.177C427.096 26.577 427.296 25.977 427.496 25.277C427.796 24.077 427.596 22.577 427.796 21.577C427.996 20.577 428.296 19.577 427.196 19.677C426.596 19.777 426.796 20.077 426.596 20.477C426.396 20.877 426.196 20.777 426.096 21.077C425.996 21.577 426.196 21.877 426.296 22.377C425.696 23.477 426.096 24.677 425.596 25.777C425.396 26.277 424.896 26.577 424.696 27.077C424.596 27.377 424.696 27.877 424.496 28.177C423.996 29.177 422.496 29.577 421.896 30.377C423.696 30.477 425.796 30.777 426.796 32.177C425.396 33.477 423.596 34.377 421.696 34.677C423.696 36.577 426.396 33.677 428.196 33.077C429.796 35.077 431.696 36.177 435.196 36.377C435.496 35.977 435.996 35.877 436.096 35.377C434.096 34.177 430.796 34.277 429.496 32.277ZM427.796 31.277C427.096 30.577 425.696 30.577 424.496 30.277C425.496 29.077 426.996 28.177 428.596 27.877C428.696 29.177 428.696 30.677 427.796 31.277Z" fill="black"/>
<path d="M451.971 20.736V19.636C450.671 19.536 447.771 19.136 447.071 20.236C448.171 20.936 450.571 22.036 451.971 20.736Z" fill="black"/>
<path d="M400.071 20.836C400.571 22.236 402.071 21.836 403.371 21.436C403.671 21.136 403.871 20.736 403.971 20.236C402.471 19.736 399.971 18.636 398.571 19.936C398.971 20.336 399.471 20.736 400.071 20.836Z" fill="black"/>
<path d="M516.471 30.636C514.171 30.336 511.771 30.536 509.571 31.236C509.071 32.436 510.271 33.336 510.471 34.436C510.971 34.436 511.171 34.736 511.871 34.636C512.371 33.936 511.771 33.136 511.671 32.436C511.871 31.636 513.371 31.536 514.371 31.736C513.771 32.336 513.771 33.436 512.571 33.536V34.236C513.571 34.736 515.171 34.336 516.571 34.336C516.571 34.236 516.571 34.136 516.671 34.136C516.771 33.436 516.271 33.336 515.971 33.136C516.771 32.536 517.571 31.436 516.471 30.636Z" fill="black"/>
<path d="M487.071 23.836C485.271 24.536 483.571 25.536 482.071 26.736C481.571 26.936 481.171 27.036 481.171 27.736C483.571 27.436 485.371 25.736 488.271 25.636C488.871 25.336 489.471 25.036 490.071 24.836C490.071 24.536 490.071 24.336 490.171 24.036C489.571 23.236 487.571 22.536 487.071 23.836Z" fill="black"/>
<path d="M498.371 32.136C496.071 31.736 493.271 32.736 491.771 31.636C491.671 30.236 491.871 28.836 492.371 27.436C494.771 27.036 497.371 27.236 499.771 26.936C499.871 25.536 498.571 25.536 498.171 24.636C496.971 24.436 496.571 24.836 495.871 25.236C494.771 25.736 493.671 26.136 492.571 26.436C492.971 25.436 494.071 23.636 492.671 22.836C490.371 23.436 491.471 25.836 490.871 28.536C490.871 28.736 490.671 28.836 490.571 29.036C490.371 30.136 490.271 31.336 490.371 32.436C490.871 33.636 491.971 33.436 493.171 33.436C495.271 33.536 497.371 33.736 499.471 34.136C500.371 33.336 500.771 32.036 500.271 30.936C499.471 31.136 499.171 31.836 498.371 32.136Z" fill="black"/>
<path d="M445.271 22.936C444.371 22.636 443.871 23.436 443.471 23.836C443.271 26.336 442.671 29.436 441.271 31.536C440.071 32.136 438.971 33.036 438.171 34.236C438.271 34.536 438.471 34.536 438.671 34.736C442.971 33.736 444.571 29.936 444.671 24.936C444.971 24.436 445.571 23.736 445.271 22.936Z" fill="black"/>
<path d="M472.671 20.136C471.871 19.036 470.371 18.536 469.071 18.936C469.171 20.736 472.671 23.736 472.671 20.136Z" fill="black"/>
<path d="M485.471 28.536C485.471 28.636 485.271 28.636 485.171 28.636C484.971 29.136 485.271 29.536 485.471 29.936C485.271 31.536 484.471 32.536 484.071 33.936C484.571 34.936 485.671 35.436 486.771 35.136C487.471 33.236 487.271 29.736 485.471 28.536Z" fill="black"/>
<path d="M510.971 28.136C510.871 26.536 512.071 26.136 512.371 24.936C513.371 23.436 516.771 24.336 517.871 23.236C518.071 22.736 516.771 22.536 516.771 22.036C516.771 21.636 516.971 21.936 517.171 21.736C517.771 21.036 519.571 21.236 519.871 20.536C520.471 19.036 517.571 18.836 516.071 19.036C515.371 19.136 514.671 19.336 514.071 19.836C514.271 20.336 515.171 20.136 515.571 20.336C515.971 21.536 514.771 22.636 513.671 23.036C513.671 22.536 513.671 22.036 513.771 21.536C513.371 21.336 512.971 21.236 512.471 21.236C510.971 22.336 510.471 23.936 510.071 26.136C509.271 27.036 509.071 28.636 508.471 29.836C507.871 29.936 507.271 30.236 506.871 30.636C505.671 31.036 503.771 31.236 503.871 32.536C504.771 32.636 505.371 32.036 506.271 31.836C507.171 31.736 507.971 31.536 508.771 31.136C509.471 30.636 509.371 29.436 510.371 29.436C510.471 29.236 510.471 28.736 510.771 28.736C513.071 29.136 514.671 27.836 517.271 28.036C519.271 28.236 521.171 28.736 523.071 29.536C522.771 30.936 522.371 32.836 521.271 33.736C520.371 33.636 520.271 34.136 519.671 34.036C519.771 35.236 520.171 36.236 521.371 36.436C521.771 36.336 521.771 35.736 522.471 35.936C522.471 35.336 522.971 35.236 523.171 34.936C523.671 34.136 524.071 33.336 524.371 32.536C524.871 31.636 526.071 30.436 526.071 29.136C524.471 27.836 521.171 28.236 519.171 27.336C516.471 27.236 513.671 27.536 510.971 28.136Z" fill="black"/>
<path d="M452.571 32.536C453.671 32.636 454.271 32.136 454.271 31.136C453.571 30.536 451.971 30.836 451.071 30.436C451.071 30.836 450.971 31.236 450.871 31.636C451.471 31.936 452.371 31.936 452.571 32.536Z" fill="black"/>
<path d="M475.571 34.036C474.971 33.236 472.271 32.836 471.971 31.736C471.871 31.136 472.471 30.536 472.671 29.636C472.771 29.236 472.571 28.736 472.671 28.436C472.771 27.936 473.271 27.536 473.271 27.136C473.171 26.636 472.671 26.236 472.171 26.336C472.171 26.336 472.171 26.336 472.071 26.336C471.671 26.936 471.871 28.236 471.571 29.036C471.471 29.236 471.271 29.436 471.171 29.636C470.971 30.236 470.771 30.836 470.271 30.836C469.771 30.536 469.271 30.236 468.771 29.836C467.871 29.236 466.771 29.036 465.671 29.236C465.871 30.836 468.171 30.536 468.971 31.636C468.571 32.736 466.771 32.336 466.071 33.236C465.271 33.236 464.471 33.436 463.771 33.936C464.771 35.236 466.071 34.236 466.971 33.936C468.071 33.636 469.071 33.236 470.071 32.636C471.471 33.536 472.271 35.036 474.171 35.536C474.271 35.736 474.471 35.936 474.671 36.136C476.671 36.136 479.671 36.936 479.871 34.236C478.471 34.036 477.071 33.936 475.571 34.036Z" fill="black"/>
<path d="M456.271 26.636C455.771 25.736 456.671 24.736 456.371 23.836C454.571 23.736 455.571 25.836 454.971 26.936C452.871 26.936 451.671 27.836 449.771 28.036C449.471 27.736 449.071 27.636 448.671 27.636C448.271 26.636 449.471 26.436 449.971 25.936C450.171 25.636 450.171 25.336 450.371 25.036C451.071 24.136 451.871 23.336 452.771 22.536C453.071 22.436 453.471 22.436 453.471 21.936C452.971 21.236 451.771 21.736 450.871 21.736C449.571 22.636 447.571 22.936 445.971 23.636C446.771 24.636 448.571 23.636 449.771 23.736C448.971 24.636 448.671 25.536 447.571 26.436C446.771 27.036 444.971 27.336 444.971 28.436C446.071 29.336 447.171 27.636 448.171 27.836C448.071 28.036 447.871 28.036 447.871 28.336C447.771 29.436 448.171 30.636 448.071 31.736C447.971 32.836 446.971 33.136 446.671 34.136C447.171 34.536 447.271 35.436 448.371 35.336C448.571 34.836 449.171 34.836 449.471 34.336C450.171 33.336 449.771 31.736 449.771 30.136C450.671 28.736 453.071 28.236 454.871 28.036C455.071 30.236 454.871 32.036 455.171 34.636C454.271 35.636 452.871 35.936 451.671 35.336C451.971 35.836 452.071 36.836 452.571 37.136C453.471 37.736 454.571 36.936 455.371 36.536C455.671 36.736 456.071 36.736 456.471 36.736C456.371 36.236 456.771 36.036 456.971 35.636C456.671 33.136 456.371 30.636 456.071 28.036C456.771 27.336 458.771 27.936 459.171 26.836C458.471 26.336 457.371 26.536 456.271 26.636Z" fill="black"/>
<path d="M468.371 26.436C469.871 25.136 472.771 26.136 474.971 26.136C475.771 26.136 476.471 25.836 476.971 26.336C477.271 26.036 477.671 25.936 477.671 25.436C477.571 25.136 477.371 24.836 477.171 24.636C476.171 23.936 475.071 24.536 474.071 24.736C473.871 24.736 473.671 24.636 473.471 24.636C472.871 24.736 472.171 25.036 471.471 25.136C470.371 25.236 469.071 24.936 468.071 25.136C467.671 25.236 467.371 25.436 466.971 25.636C465.771 25.936 464.571 26.336 463.371 26.836C464.271 28.936 466.271 26.136 468.371 26.436Z" fill="black"/>
<path d="M355.971 18.736C355.971 19.036 356.071 19.336 356.171 19.536C356.571 19.836 357.371 19.736 358.071 19.736C359.271 18.736 361.571 19.036 363.071 18.636C363.071 18.336 362.871 18.136 362.971 17.736C362.471 17.436 361.971 17.136 361.471 17.036C361.471 16.936 361.471 16.836 361.371 16.736C361.471 16.336 362.171 16.436 362.571 16.336C362.771 16.036 363.071 15.836 362.971 15.236C362.571 14.736 361.971 14.436 361.271 14.536C360.771 13.836 359.871 13.636 359.171 14.136C358.771 14.436 358.471 14.836 358.471 15.336C357.771 15.336 356.871 15.436 356.571 16.036C357.071 16.436 358.171 16.236 358.471 16.836C358.371 17.036 358.371 17.336 358.271 17.636C357.371 17.836 357.071 18.636 355.971 18.736Z" fill="black"/>
<path d="M358.371 24.236C358.971 24.036 358.871 23.336 359.471 23.036C360.271 23.236 360.371 22.836 360.971 22.736C361.371 22.836 361.371 23.236 361.971 23.036C362.471 22.636 362.871 22.036 362.971 21.336C363.471 21.036 363.971 20.836 364.171 20.236C363.471 19.436 361.871 18.936 361.071 19.936C359.771 19.836 358.471 20.636 357.271 21.036C356.471 20.636 354.971 19.836 353.971 20.436C354.071 21.036 354.271 21.636 354.371 22.136C355.471 22.436 356.971 24.636 358.371 24.236ZM361.171 20.736C360.971 21.836 358.971 22.736 358.171 22.036C358.971 21.736 359.671 20.636 361.171 20.736Z" fill="black"/>
<path d="M367.271 23.836C366.971 23.736 366.271 24.236 365.871 24.336C363.571 24.936 360.971 24.536 358.571 24.636C356.771 25.336 353.371 25.436 351.571 26.836C350.571 26.436 350.571 25.036 349.071 25.036C348.571 25.636 347.671 26.236 347.371 27.136C347.071 28.136 347.571 29.136 347.971 30.236C348.571 30.336 348.871 30.736 349.671 30.636C349.671 30.136 350.271 30.036 350.471 29.636C350.771 29.136 350.671 28.436 351.171 28.036C351.171 27.536 351.071 27.436 351.371 27.136C352.271 27.136 353.071 27.036 353.971 26.936C354.971 26.436 356.071 26.136 357.271 26.136C359.171 25.336 362.571 25.436 364.871 25.836C364.571 25.936 364.071 25.936 364.171 26.536C365.671 26.536 367.071 26.336 368.571 26.036C369.271 25.936 369.971 26.136 370.071 25.536C370.171 24.536 367.971 24.236 367.271 23.836Z" fill="black"/>
</g>
<defs>
<clipPath id="clip0_227_29224">
<rect width="526.071" height="52.7" fill="white"/>
</clipPath>
</defs>
</svg>
