<svg width="327" height="128" viewBox="0 0 327 128" fill="none" xmlns="http://www.w3.org/2000/svg">
<g clip-path="url(#clip0_130_42597)">
<path d="M1.632 28.397H14.352V29.581H1.632V28.397ZM2.368 33.101H13.68V34.269H2.368V33.101ZM0.896 38.205H15.152V39.389H0.896V38.205ZM7.344 29.341H8.64V38.813H7.344V29.341ZM5.968 25.933L6.944 25.261C7.984 25.997 9.28 27.085 9.904 27.853L8.864 28.605C8.288 27.853 7.024 26.717 5.968 25.933ZM21.664 28.893H25.088V29.949H21.664V28.893ZM24.768 28.893H25.776C25.776 28.893 25.76 29.309 25.76 29.437C25.664 36.365 25.584 38.557 25.216 39.165C24.992 39.533 24.736 39.661 24.352 39.709C24.032 39.757 23.552 39.741 23.072 39.725C23.04 39.421 22.944 38.973 22.784 38.701C23.28 38.749 23.696 38.749 23.92 38.749C24.096 38.749 24.208 38.701 24.32 38.493C24.592 38.061 24.688 35.837 24.768 29.165V28.893ZM22.736 25.197H23.728C23.696 31.677 23.552 36.589 21.376 39.949C21.216 39.773 20.784 39.389 20.56 39.229C22.656 36.237 22.768 31.261 22.736 25.197ZM18.704 25.197H19.824V27.773H18.704V25.197ZM16.816 27.341H21.568V28.349H16.816V27.341ZM16.656 31.613H21.744V32.621H16.656V31.613ZM17.328 28.845L18.208 28.621C18.512 29.437 18.72 30.509 18.752 31.213L17.792 31.469C17.792 30.765 17.6 29.661 17.328 28.845ZM20.304 28.557L21.312 28.781C21.024 29.709 20.72 30.813 20.448 31.501L19.632 31.293C19.872 30.557 20.176 29.357 20.304 28.557ZM16.576 35.053C17.872 34.877 19.792 34.573 21.712 34.253L21.776 35.245C20 35.565 18.16 35.885 16.8 36.125L16.576 35.053ZM28.08 25.197H29.2V27.773H28.08V25.197ZM28.08 31.981H29.2V39.949H28.08V31.981ZM26.112 27.325H31.168V28.349H26.112V27.325ZM26.016 31.597H31.36V32.621H26.016V31.597ZM26.176 34.893H31.12V35.917H26.176V34.893ZM26.608 28.845L27.472 28.605C27.808 29.437 28.032 30.541 28.064 31.261L27.136 31.517C27.12 30.797 26.896 29.677 26.608 28.845ZM29.76 28.525L30.8 28.781C30.496 29.709 30.176 30.797 29.872 31.501L29.056 31.277C29.296 30.525 29.632 29.325 29.76 28.525ZM18.704 31.997H19.824V34.781C19.824 36.413 19.488 38.557 17.52 39.933C17.376 39.693 17.04 39.325 16.784 39.133C18.528 38.013 18.704 36.109 18.704 34.781V31.997ZM39.328 30.317H40.56V39.917H39.328V30.317ZM35.696 33.021V34.413H44.4V33.021H35.696ZM35.696 30.733V32.093H44.4V30.733H35.696ZM34.528 29.757H45.616V35.373H34.528V29.757ZM32.912 36.605H47.104V37.661H32.912V36.605ZM35.184 26.637V28.157H38.256V26.637H35.184ZM34.096 25.837H39.376V28.957H34.096V25.837ZM41.76 26.637V28.157H44.864V26.637H41.76ZM40.672 25.837H46V28.957H40.672V25.837ZM57.424 25.389H58.624V29.037H57.424V25.389ZM53.248 28.349H63.024V29.501H53.248V28.349ZM54.576 30.749L55.648 30.573C56.256 32.701 56.816 35.437 56.944 37.021L55.76 37.277C55.648 35.677 55.152 32.893 54.576 30.749ZM60.416 30.429L61.696 30.653C61.104 33.213 60.176 36.493 59.424 38.477L58.352 38.221C59.104 36.205 59.984 32.813 60.416 30.429ZM52.848 38.029H63.424V39.181H52.848V38.029ZM52.416 25.245L53.552 25.613C52.464 28.301 50.752 30.989 48.992 32.749C48.864 32.477 48.528 31.837 48.304 31.549C49.92 30.045 51.488 27.661 52.416 25.245ZM50.752 29.373L51.888 28.237L51.904 28.253V39.885H50.752V29.373Z" fill="black"/>
<path d="M10.176 101.613H14.48V102.573H10.176V101.613ZM6.336 94.957H13.664V95.949H6.336V94.957ZM4.848 101.613H9.088V102.573H4.848V101.613ZM0.624 97.437H5.648V98.541H0.624V97.437ZM2.608 93.213H3.776V107.917H2.608V93.213ZM8.736 101.613H9.744C9.744 101.613 9.744 101.949 9.728 102.093C9.6 105.773 9.472 107.053 9.136 107.485C8.928 107.757 8.688 107.869 8.352 107.885C8.064 107.933 7.616 107.933 7.152 107.901C7.136 107.613 7.056 107.197 6.896 106.941C7.344 106.989 7.712 106.989 7.904 106.989C8.08 106.989 8.176 106.957 8.272 106.813C8.496 106.541 8.624 105.293 8.736 101.821V101.613ZM14.144 101.613H15.168C15.168 101.613 15.168 101.949 15.152 102.093C15.04 105.757 14.928 107.053 14.592 107.485C14.368 107.757 14.144 107.853 13.792 107.885C13.488 107.933 12.992 107.933 12.48 107.901C12.448 107.597 12.352 107.181 12.208 106.909C12.704 106.957 13.12 106.957 13.312 106.957C13.504 106.957 13.6 106.941 13.712 106.797C13.92 106.525 14.032 105.293 14.144 101.821V101.613ZM13.424 94.957H14.544C14.544 94.957 14.512 95.277 14.496 95.437C14.288 97.805 14.08 98.765 13.696 99.149C13.44 99.421 13.168 99.517 12.752 99.549C12.4 99.565 11.744 99.581 11.072 99.533C11.04 99.213 10.928 98.781 10.752 98.509C11.408 98.573 12.048 98.573 12.304 98.573C12.544 98.573 12.672 98.557 12.784 98.445C13.056 98.189 13.248 97.309 13.424 95.117V94.957ZM9.632 93.197H10.768C10.544 96.445 9.664 98.637 6.32 99.885C6.208 99.629 5.92 99.229 5.712 99.037C8.8 97.965 9.456 96.029 9.632 93.197ZM6.528 99.965H7.584C7.488 103.405 7.056 106.253 5.072 107.949C4.928 107.725 4.624 107.373 4.4 107.213C6.176 105.709 6.448 103.085 6.528 99.965ZM11.792 99.933H12.864C12.768 103.469 12.32 106.237 10.256 107.917C10.112 107.677 9.792 107.325 9.552 107.149C11.424 105.693 11.728 103.133 11.792 99.933ZM21.664 96.893H25.088V97.949H21.664V96.893ZM24.768 96.893H25.776C25.776 96.893 25.76 97.309 25.76 97.437C25.664 104.365 25.584 106.557 25.216 107.165C24.992 107.533 24.736 107.661 24.352 107.709C24.032 107.757 23.552 107.741 23.072 107.725C23.04 107.421 22.944 106.973 22.784 106.701C23.28 106.749 23.696 106.749 23.92 106.749C24.096 106.749 24.208 106.701 24.32 106.493C24.592 106.061 24.688 103.837 24.768 97.165V96.893ZM22.736 93.197H23.728C23.696 99.677 23.552 104.589 21.376 107.949C21.216 107.773 20.784 107.389 20.56 107.229C22.656 104.237 22.768 99.261 22.736 93.197ZM18.704 93.197H19.824V95.773H18.704V93.197ZM16.816 95.341H21.568V96.349H16.816V95.341ZM16.656 99.613H21.744V100.621H16.656V99.613ZM17.328 96.845L18.208 96.621C18.512 97.437 18.72 98.509 18.752 99.213L17.792 99.469C17.792 98.765 17.6 97.661 17.328 96.845ZM20.304 96.557L21.312 96.781C21.024 97.709 20.72 98.813 20.448 99.501L19.632 99.293C19.872 98.557 20.176 97.357 20.304 96.557ZM16.576 103.053C17.872 102.877 19.792 102.573 21.712 102.253L21.776 103.245C20 103.565 18.16 103.885 16.8 104.125L16.576 103.053ZM28.08 93.197H29.2V95.773H28.08V93.197ZM28.08 99.981H29.2V107.949H28.08V99.981ZM26.112 95.325H31.168V96.349H26.112V95.325ZM26.016 99.597H31.36V100.621H26.016V99.597ZM26.176 102.893H31.12V103.917H26.176V102.893ZM26.608 96.845L27.472 96.605C27.808 97.437 28.032 98.541 28.064 99.261L27.136 99.517C27.12 98.797 26.896 97.677 26.608 96.845ZM29.76 96.525L30.8 96.781C30.496 97.709 30.176 98.797 29.872 99.501L29.056 99.277C29.296 98.525 29.632 97.325 29.76 96.525ZM18.704 99.997H19.824V102.781C19.824 104.413 19.488 106.557 17.52 107.933C17.376 107.693 17.04 107.325 16.784 107.133C18.528 106.013 18.704 104.109 18.704 102.781V99.997ZM39.328 98.317H40.56V107.917H39.328V98.317ZM35.696 101.021V102.413H44.4V101.021H35.696ZM35.696 98.733V100.093H44.4V98.733H35.696ZM34.528 97.757H45.616V103.373H34.528V97.757ZM32.912 104.605H47.104V105.661H32.912V104.605ZM35.184 94.637V96.157H38.256V94.637H35.184ZM34.096 93.837H39.376V96.957H34.096V93.837ZM41.76 94.637V96.157H44.864V94.637H41.76ZM40.672 93.837H46V96.957H40.672V93.837ZM57.424 93.389H58.624V97.037H57.424V93.389ZM53.248 96.349H63.024V97.501H53.248V96.349ZM54.576 98.749L55.648 98.573C56.256 100.701 56.816 103.437 56.944 105.021L55.76 105.277C55.648 103.677 55.152 100.893 54.576 98.749ZM60.416 98.429L61.696 98.653C61.104 101.213 60.176 104.493 59.424 106.477L58.352 106.221C59.104 104.205 59.984 100.813 60.416 98.429ZM52.848 106.029H63.424V107.181H52.848V106.029ZM52.416 93.245L53.552 93.613C52.464 96.301 50.752 98.989 48.992 100.749C48.864 100.477 48.528 99.837 48.304 99.549C49.92 98.045 51.488 95.661 52.416 93.245ZM50.752 97.373L51.888 96.237L51.904 96.253V107.885H50.752V97.373Z" fill="black"/>
<path d="M103.6 109.218C103.3 109.518 102.9 109.818 102.5 110.118C102.4 110.218 102.3 110.218 102.3 110.318C99.2999 112.618 96.8999 114.818 98.1999 119.218C99.7999 118.418 101.4 117.418 102.8 116.218C102.5 115.518 102.2 114.818 102.2 114.018C102 112.218 102.6 110.518 103.6 109.218Z" fill="white"/>
<path d="M111 108.318C111.2 108.718 111.3 109.218 111.5 109.618C111.5 109.718 111.6 109.818 111.6 109.918C112.9 113.518 114.2 116.418 118.8 116.618C118.5 114.818 118 113.018 117.4 111.318C116.6 111.418 115.9 111.418 115.1 111.218C113.4 110.718 111.9 109.718 111 108.318Z" fill="white"/>
<path d="M112.4 101.018C112.9 101.018 113.3 100.918 113.8 100.918H114.1C117.9 100.818 121.1 100.418 122.7 96.218C120.9 95.918 119 95.818 117.2 95.918C117.1 96.718 116.8 97.418 116.4 98.018C115.4 99.518 114 100.618 112.4 101.018Z" fill="white"/>
<path d="M105.9 97.418C106 97.018 106.1 96.518 106.3 96.118C106.3 96.018 106.4 95.918 106.4 95.818C107.5 92.218 108.1 89.018 104.5 86.218C103.7 87.818 103 89.618 102.5 91.318C103.2 91.718 103.8 92.118 104.3 92.718C105.4 94.118 106 95.818 105.9 97.418C105.9 97.518 105.9 97.518 105.9 97.418Z" fill="white"/>
<path d="M100.5 102.518C100.1 102.318 99.7 102.018 99.3 101.718C99.2 101.618 99.1 101.618 99.1 101.518C96 99.418 93.2 97.818 89.4 100.318C90.7 101.618 92.1 102.818 93.7 103.818C94.2 103.318 94.9 102.818 95.6 102.618C97.1 101.918 98.9 101.918 100.5 102.518Z" fill="white"/>
<path d="M106.7 104.418C105 115.318 87.6 111.718 89.6 127.918C91.1 118.518 109.6 121.118 106.7 104.418Z" fill="#355297"/>
<path d="M103.7 109.918C102.6 111.218 102.1 113.018 102.2 114.718C102.5 119.718 108.6 120.118 106.7 128.018C104.3 123.018 100 124.218 98.2 119.918C97 115.518 99.3 113.318 102.3 111.018C102.5 110.818 103.4 110.118 103.7 109.918Z" fill="#B3B301"/>
<path d="M103.6 109.918C103.3 110.218 102.9 110.518 102.5 110.818C102.4 110.918 102.3 110.918 102.3 111.018C99.2999 113.318 96.8999 115.518 98.1999 119.918C99.7999 119.118 101.4 118.118 102.8 116.918C102.5 116.218 102.2 115.518 102.2 114.718C102.1 112.918 102.6 111.218 103.6 109.918Z" fill="#242D0C"/>
<path d="M106.7 104.418C116.6 109.418 107.7 124.818 123.8 127.918C115.3 123.618 123.5 106.818 106.7 104.418Z" fill="#355297"/>
<path d="M111 108.918C111.9 110.418 113.4 111.418 115.1 111.818C120 113.018 122.2 107.418 129.1 111.618C123.6 112.318 123.4 116.818 118.8 117.218C114.2 117.018 112.9 114.118 111.6 110.518C111.5 110.318 111.1 109.218 111 108.918Z" fill="#B3B301"/>
<path d="M111 109.018C111.2 109.418 111.3 109.918 111.5 110.318C111.5 110.418 111.6 110.518 111.6 110.618C112.9 114.218 114.2 117.118 118.8 117.318C118.5 115.518 118 113.718 117.4 112.018C116.6 112.118 115.9 112.118 115.1 111.918C113.4 111.418 111.9 110.418 111 109.018Z" fill="#242D0C"/>
<path d="M106.7 104.418C114.5 96.518 126.4 109.718 134.4 95.418C127.6 102.118 114.1 89.118 106.7 104.418Z" fill="#355297"/>
<path d="M112.3 101.718C114 101.318 115.4 100.218 116.3 98.718C119 94.518 114.3 90.618 120.5 85.318C119.5 90.818 123.7 92.418 122.6 96.918C121 101.218 117.8 101.518 114 101.718C113.8 101.718 112.6 101.718 112.3 101.718Z" fill="#B3B301"/>
<path d="M112.4 101.718C112.9 101.718 113.3 101.618 113.8 101.618C113.9 101.618 114 101.618 114.1 101.618C117.9 101.518 121.1 101.118 122.7 96.918C120.9 96.618 119 96.518 117.2 96.618C117.1 97.418 116.8 98.118 116.4 98.718C115.4 100.218 114 101.318 112.4 101.718Z" fill="#242D0C"/>
<path d="M106.7 104.418C101.6 94.618 117.8 87.318 106.7 75.318C111 83.818 94.4 92.618 106.7 104.418Z" fill="#355297"/>
<path d="M105.9 98.218C106 96.518 105.4 94.818 104.3 93.518C101.1 89.618 96 92.918 92.8 85.418C97.7 88.018 100.5 84.518 104.5 86.918C108.1 89.718 107.4 92.918 106.4 96.518C106.3 96.818 106 97.918 105.9 98.218Z" fill="#B3B301"/>
<path d="M105.9 98.118C106 97.718 106.1 97.218 106.3 96.818C106.3 96.718 106.4 96.618 106.4 96.518C107.5 92.918 108.1 89.718 104.5 86.918C103.7 88.518 103 90.318 102.5 92.018C103.2 92.418 103.8 92.818 104.3 93.418C105.4 94.818 106 96.518 105.9 98.118C105.9 98.218 105.9 98.218 105.9 98.118Z" fill="#242D0C"/>
<path d="M106.7 104.418C95.8 106.218 93.9 88.518 79 95.418C88.4 93.918 91.7 112.418 106.7 104.418Z" fill="#355297"/>
<path d="M100.5 103.218C98.9 102.618 97.1 102.618 95.5 103.318C90.8 105.118 92.4 111.018 84.3 111.718C88.3 107.918 85.9 104.118 89.4 101.118C93.2 98.618 96 100.218 99.1 102.318C99.3 102.418 100.3 103.118 100.5 103.218Z" fill="#B3B301"/>
<path d="M100.5 103.218C100.1 103.018 99.7 102.718 99.3 102.418C99.2 102.318 99.1 102.318 99.1 102.218C96 100.118 93.2 98.518 89.4 101.018C90.7 102.318 92.1 103.518 93.7 104.518C94.2 104.018 94.9 103.518 95.6 103.318C97.1 102.618 98.9 102.618 100.5 103.218Z" fill="#242D0C"/>
<path d="M188.341 102.754C186.541 102.954 185.741 101.454 183.841 101.554C183.541 101.254 183.041 101.254 182.741 100.954C182.441 100.854 181.941 101.054 181.841 100.854C182.041 100.254 182.141 99.654 182.041 99.054C182.541 98.854 182.941 98.454 183.641 98.654C184.141 97.854 185.641 98.654 185.341 97.054C184.741 96.754 184.041 96.654 183.341 96.654C182.841 96.054 182.441 95.254 181.341 95.154C180.841 96.154 181.241 97.354 179.941 97.654C178.841 97.954 176.941 96.954 176.141 98.254C175.941 98.554 176.241 98.554 176.341 98.854C177.641 98.354 178.941 98.854 180.241 98.954C180.441 99.254 180.541 99.554 180.641 99.854C180.041 100.754 178.641 100.954 177.241 101.454C176.241 101.754 175.241 102.254 174.241 102.754C173.941 102.954 173.741 103.354 173.241 103.454C173.041 103.254 172.841 102.954 172.841 102.654H171.641C170.741 103.454 171.441 104.254 171.741 105.054C172.241 106.454 172.941 108.754 174.541 108.654C174.541 107.554 174.841 106.654 174.141 105.654C175.241 103.754 177.241 102.754 179.341 101.954C180.141 102.154 180.841 101.354 181.141 102.054C180.841 102.454 180.841 103.254 180.341 103.454C179.641 103.254 179.441 102.054 178.341 102.654C178.741 103.354 179.041 104.754 177.641 104.554V105.254C178.741 105.354 179.241 104.454 180.341 104.854C180.741 107.554 177.641 106.654 177.141 108.454C178.041 108.754 178.841 108.154 179.741 108.154C180.141 108.954 179.441 110.854 180.941 110.654C181.041 109.854 181.141 108.954 181.441 108.154C182.141 108.154 182.841 108.054 183.441 107.754C183.841 106.254 181.041 106.854 181.441 105.554C181.641 104.854 183.041 105.354 183.541 104.754C183.541 104.454 183.341 104.254 183.441 103.854C183.141 103.654 182.341 103.854 182.141 103.754C182.241 102.354 183.341 102.554 184.841 102.454C185.641 103.254 187.441 103.154 187.941 104.254C187.541 105.754 186.941 107.154 185.241 107.454C185.641 108.354 184.541 109.054 185.141 110.154C186.441 110.054 186.941 109.154 187.941 108.754C188.741 107.254 190.541 106.154 190.441 104.054C189.841 103.554 188.941 103.254 188.341 102.754Z" fill="black"/>
<path d="M161.841 110.454C161.741 110.154 161.741 109.754 161.741 109.454C162.041 109.054 162.741 109.054 162.941 108.554C163.041 108.254 162.841 108.154 162.741 107.954C162.641 107.754 161.941 108.054 161.841 107.754C161.741 107.154 162.041 106.454 162.641 106.254C163.441 106.454 164.141 107.054 164.841 106.454C164.541 105.254 163.441 104.354 162.141 104.554C161.941 104.754 162.141 105.254 161.941 105.454C160.941 105.454 160.541 106.054 159.541 105.754C160.341 104.854 161.041 104.054 161.941 103.254C162.341 102.954 162.841 103.154 162.641 102.454C162.341 101.354 160.741 102.454 160.241 102.654C159.041 103.054 156.441 102.654 156.641 104.154C157.841 104.154 158.341 103.454 159.341 103.754C158.341 103.854 158.441 104.954 157.341 104.954C157.141 105.954 155.641 105.754 155.641 107.054C156.241 107.654 157.441 107.154 157.941 106.854C158.841 106.854 159.541 106.954 160.241 106.954C160.941 108.554 158.341 108.354 157.741 109.254C158.141 109.954 159.541 109.154 160.041 109.354C159.841 109.754 159.741 110.154 159.741 110.654C157.641 111.054 155.541 111.354 153.441 111.454V111.954C154.441 112.554 156.741 112.554 158.041 112.154C159.141 112.554 160.941 112.154 161.741 112.054C163.141 111.854 164.741 112.954 166.441 112.654C166.541 112.254 166.541 111.754 166.241 111.454C164.741 110.854 163.241 110.854 161.841 110.454Z" fill="black"/>
<path d="M204.014 102.204C204.114 101.004 204.414 99.804 204.914 98.704C207.114 98.404 209.414 99.204 211.014 98.104C210.014 97.404 208.714 97.104 207.514 97.304C205.814 98.004 204.014 97.704 202.014 97.904C201.414 98.004 200.714 98.304 200.114 98.304C198.914 98.304 198.314 98.804 197.014 99.104C195.514 99.404 194.014 99.704 192.514 100.204C191.914 99.704 191.114 99.204 190.314 99.804C190.414 100.804 190.814 101.404 190.914 102.304C191.614 102.804 193.314 101.404 194.114 101.004C194.914 100.604 195.714 100.304 196.514 100.104C198.314 99.604 201.114 98.204 202.914 98.804C202.414 99.704 202.714 101.304 202.314 102.404C200.814 102.904 200.114 102.404 198.814 102.904C198.614 104.704 197.014 105.204 196.114 106.204C196.414 107.004 195.614 107.204 195.914 107.904C198.514 107.704 199.814 105.304 200.914 103.304C201.314 103.304 202.214 103.204 202.314 103.304C201.914 106.904 201.814 110.504 202.214 114.104C202.614 114.204 202.714 114.504 203.114 114.604C204.114 112.504 204.014 110.104 204.314 107.304C205.014 107.604 205.214 107.104 206.014 107.104C207.514 105.804 209.014 104.504 209.114 101.804C207.814 100.504 205.814 102.304 204.014 102.204ZM204.214 106.904C203.914 105.604 203.814 104.304 204.114 103.004C204.914 102.704 205.814 102.604 206.714 102.504C206.914 104.404 205.914 106.204 204.214 106.904Z" fill="black"/>
<path d="M216.366 108.995C216.366 107.795 215.666 106.595 215.566 105.395C215.566 104.795 215.966 103.795 215.366 103.295H215.166C214.666 105.095 214.866 107.595 214.566 109.695C214.066 109.795 213.766 110.095 213.866 110.795C215.066 111.295 215.466 110.195 216.366 109.995C216.666 109.895 217.166 110.095 217.566 109.995C218.366 109.895 219.166 109.495 219.766 109.395C220.766 109.295 222.466 109.995 222.466 108.695C220.866 108.095 218.266 108.695 216.366 108.995Z" fill="black"/>
<path d="M219.166 107.995C219.366 108.195 219.766 107.895 220.166 107.895C220.766 106.895 220.566 105.495 220.666 104.395C221.166 104.295 221.566 104.295 222.066 104.295C222.266 103.595 223.166 103.595 223.266 102.895C222.566 102.595 221.766 102.595 221.066 102.895C220.966 101.195 221.466 100.095 222.766 99.795C222.366 98.495 220.366 99.395 219.266 99.395C218.166 100.195 215.666 99.695 215.166 101.195C216.666 100.895 218.166 100.695 219.666 100.595C220.066 102.795 218.566 105.595 219.166 107.995Z" fill="black"/>
<path d="M230.366 107.595C231.666 106.195 230.766 104.895 230.566 102.895C231.566 102.495 233.366 102.795 233.266 101.295C231.466 100.395 229.566 102.195 227.666 102.495C227.966 101.895 228.166 101.295 228.366 100.595C228.666 99.395 228.466 97.895 228.666 96.895C228.866 95.895 229.166 94.895 228.066 94.995C227.466 95.095 227.666 95.395 227.466 95.795C227.266 96.195 227.066 96.095 226.966 96.395C226.866 96.895 227.066 97.195 227.166 97.695C226.566 98.795 226.966 99.995 226.466 101.095C226.266 101.595 225.766 101.895 225.566 102.395C225.466 102.695 225.566 103.195 225.366 103.495C224.866 104.495 223.366 104.895 222.766 105.695C224.566 105.795 226.666 106.095 227.666 107.495C226.266 108.795 224.466 109.695 222.566 109.995C224.566 111.895 227.266 108.995 229.066 108.395C230.666 110.395 232.566 111.495 236.066 111.695C236.366 111.295 236.866 111.195 236.966 110.695C234.966 109.495 231.666 109.595 230.366 107.595ZM228.666 106.595C227.966 105.895 226.566 105.895 225.366 105.595C226.366 104.395 227.866 103.495 229.466 103.195C229.566 104.495 229.566 105.995 228.666 106.595Z" fill="black"/>
<path d="M252.841 96.054V94.954C251.541 94.854 248.641 94.454 247.941 95.554C249.041 96.254 251.441 97.354 252.841 96.054Z" fill="black"/>
<path d="M200.941 96.154C201.441 97.554 202.941 97.154 204.241 96.754C204.541 96.454 204.741 96.054 204.841 95.554C203.341 95.054 200.841 93.954 199.441 95.254C199.841 95.654 200.341 96.054 200.941 96.154Z" fill="black"/>
<path d="M317.341 105.954C315.041 105.654 312.641 105.854 310.441 106.554C309.941 107.754 311.141 108.654 311.341 109.754C311.841 109.754 312.041 110.054 312.741 109.954C313.241 109.254 312.641 108.454 312.541 107.754C312.741 106.954 314.241 106.854 315.241 107.054C314.641 107.654 314.641 108.754 313.441 108.854V109.554C314.441 110.054 316.041 109.654 317.441 109.654C317.441 109.554 317.441 109.454 317.541 109.454C317.641 108.754 317.141 108.654 316.841 108.454C317.641 107.854 318.441 106.754 317.341 105.954Z" fill="black"/>
<path d="M287.941 99.154C286.141 99.854 284.441 100.854 282.941 102.054C282.441 102.254 282.041 102.354 282.041 103.054C284.441 102.754 286.241 101.054 289.141 100.954C289.741 100.654 290.341 100.354 290.941 100.154C290.941 99.854 290.941 99.654 291.041 99.354C290.441 98.554 288.441 97.854 287.941 99.154Z" fill="black"/>
<path d="M299.241 107.454C296.941 107.054 294.141 108.054 292.641 106.954C292.541 105.554 292.741 104.154 293.241 102.754C295.641 102.354 298.241 102.554 300.641 102.254C300.741 100.854 299.441 100.854 299.041 99.954C297.841 99.754 297.441 100.154 296.741 100.554C295.641 101.054 294.541 101.454 293.441 101.754C293.841 100.754 294.941 98.954 293.541 98.154C291.241 98.754 292.341 101.154 291.741 103.854C291.741 104.054 291.541 104.154 291.441 104.354C291.241 105.454 291.141 106.654 291.241 107.754C291.741 108.954 292.841 108.754 294.041 108.754C296.141 108.854 298.241 109.054 300.341 109.454C301.241 108.654 301.641 107.354 301.141 106.254C300.341 106.454 300.041 107.154 299.241 107.454Z" fill="black"/>
<path d="M246.141 98.254C245.241 97.954 244.741 98.754 244.341 99.154C244.141 101.654 243.541 104.754 242.141 106.854C240.941 107.454 239.841 108.354 239.041 109.554C239.141 109.854 239.341 109.854 239.541 110.054C243.841 109.054 245.441 105.254 245.541 100.254C245.841 99.754 246.441 99.054 246.141 98.254Z" fill="black"/>
<path d="M273.541 95.454C272.741 94.354 271.241 93.854 269.941 94.254C270.041 96.054 273.541 99.054 273.541 95.454Z" fill="black"/>
<path d="M286.341 103.854C286.341 103.954 286.141 103.954 286.041 103.954C285.841 104.454 286.141 104.854 286.341 105.254C286.141 106.854 285.341 107.854 284.941 109.254C285.441 110.254 286.541 110.754 287.641 110.454C288.341 108.554 288.141 105.054 286.341 103.854Z" fill="black"/>
<path d="M311.841 103.454C311.741 101.854 312.941 101.454 313.241 100.254C314.241 98.754 317.641 99.654 318.741 98.554C318.941 98.054 317.641 97.854 317.641 97.354C317.641 96.954 317.841 97.254 318.041 97.054C318.641 96.354 320.441 96.554 320.741 95.854C321.341 94.354 318.441 94.154 316.941 94.354C316.241 94.454 315.541 94.654 314.941 95.154C315.141 95.654 316.041 95.454 316.441 95.654C316.841 96.854 315.641 97.954 314.541 98.354C314.541 97.854 314.541 97.354 314.641 96.854C314.241 96.654 313.841 96.554 313.341 96.554C311.841 97.654 311.341 99.254 310.941 101.454C310.141 102.354 309.941 103.954 309.341 105.154C308.741 105.254 308.141 105.554 307.741 105.954C306.541 106.354 304.641 106.554 304.741 107.854C305.641 107.954 306.241 107.354 307.141 107.154C308.041 107.054 308.841 106.854 309.641 106.454C310.341 105.954 310.241 104.754 311.241 104.754C311.341 104.554 311.341 104.054 311.641 104.054C313.941 104.454 315.541 103.154 318.141 103.354C320.141 103.554 322.041 104.054 323.941 104.854C323.641 106.254 323.241 108.154 322.141 109.054C321.241 108.954 321.141 109.454 320.541 109.354C320.641 110.554 321.041 111.554 322.241 111.754C322.641 111.654 322.641 111.054 323.341 111.254C323.341 110.654 323.841 110.554 324.041 110.254C324.541 109.454 324.941 108.654 325.241 107.854C325.741 106.954 326.941 105.754 326.941 104.454C325.341 103.154 322.041 103.554 320.041 102.654C317.341 102.554 314.541 102.854 311.841 103.454Z" fill="black"/>
<path d="M253.441 107.854C254.541 107.954 255.141 107.454 255.141 106.454C254.441 105.854 252.841 106.154 251.941 105.754C251.941 106.154 251.841 106.554 251.741 106.954C252.341 107.254 253.241 107.254 253.441 107.854Z" fill="black"/>
<path d="M276.441 109.354C275.841 108.554 273.141 108.154 272.841 107.054C272.741 106.454 273.341 105.854 273.541 104.954C273.641 104.554 273.441 104.054 273.541 103.754C273.641 103.254 274.141 102.854 274.141 102.454C274.041 101.954 273.541 101.554 273.041 101.654C273.041 101.654 273.041 101.654 272.941 101.654C272.541 102.254 272.741 103.554 272.441 104.354C272.341 104.554 272.141 104.754 272.041 104.954C271.841 105.554 271.641 106.154 271.141 106.154C270.641 105.854 270.141 105.554 269.641 105.154C268.741 104.554 267.641 104.354 266.541 104.554C266.741 106.154 269.041 105.854 269.841 106.954C269.441 108.054 267.641 107.654 266.941 108.554C266.141 108.554 265.341 108.754 264.641 109.254C265.641 110.554 266.941 109.554 267.841 109.254C268.941 108.954 269.941 108.554 270.941 107.954C272.341 108.854 273.141 110.354 275.041 110.854C275.141 111.054 275.341 111.254 275.541 111.454C277.541 111.454 280.541 112.254 280.741 109.554C279.341 109.354 277.941 109.254 276.441 109.354Z" fill="black"/>
<path d="M257.141 101.954C256.641 101.054 257.541 100.054 257.241 99.154C255.441 99.054 256.441 101.154 255.841 102.254C253.741 102.254 252.541 103.154 250.641 103.354C250.341 103.054 249.941 102.954 249.541 102.954C249.141 101.954 250.341 101.754 250.841 101.254C251.041 100.954 251.041 100.654 251.241 100.354C251.941 99.454 252.741 98.654 253.641 97.854C253.941 97.754 254.341 97.754 254.341 97.254C253.841 96.554 252.641 97.054 251.741 97.054C250.441 97.954 248.441 98.254 246.841 98.954C247.641 99.954 249.441 98.954 250.641 99.054C249.841 99.954 249.541 100.854 248.441 101.754C247.641 102.354 245.841 102.654 245.841 103.754C246.941 104.654 248.041 102.954 249.041 103.154C248.941 103.354 248.741 103.354 248.741 103.654C248.641 104.754 249.041 105.954 248.941 107.054C248.841 108.154 247.841 108.454 247.541 109.454C248.041 109.854 248.141 110.754 249.241 110.654C249.441 110.154 250.041 110.154 250.341 109.654C251.041 108.654 250.641 107.054 250.641 105.454C251.541 104.054 253.941 103.554 255.741 103.354C255.941 105.554 255.741 107.354 256.041 109.954C255.141 110.954 253.741 111.254 252.541 110.654C252.841 111.154 252.941 112.154 253.441 112.454C254.341 113.054 255.441 112.254 256.241 111.854C256.541 112.054 256.941 112.054 257.341 112.054C257.241 111.554 257.641 111.354 257.841 110.954C257.541 108.454 257.241 105.954 256.941 103.354C257.641 102.654 259.641 103.254 260.041 102.154C259.341 101.654 258.241 101.854 257.141 101.954Z" fill="black"/>
<path d="M269.241 101.754C270.741 100.454 273.641 101.454 275.841 101.454C276.641 101.454 277.341 101.154 277.841 101.654C278.141 101.354 278.541 101.254 278.541 100.754C278.441 100.454 278.241 100.154 278.041 99.954C277.041 99.254 275.941 99.854 274.941 100.054C274.741 100.054 274.541 99.954 274.341 99.954C273.741 100.054 273.041 100.354 272.341 100.454C271.241 100.554 269.941 100.254 268.941 100.454C268.541 100.554 268.241 100.754 267.841 100.954C266.641 101.254 265.441 101.654 264.241 102.154C265.141 104.254 267.141 101.454 269.241 101.754Z" fill="black"/>
<path d="M156.841 94.054C156.841 94.354 156.941 94.654 157.041 94.854C157.441 95.154 158.241 95.054 158.941 95.054C160.141 94.054 162.441 94.354 163.941 93.954C163.941 93.654 163.741 93.454 163.841 93.054C163.341 92.754 162.841 92.454 162.341 92.354C162.341 92.254 162.341 92.154 162.241 92.054C162.341 91.654 163.041 91.754 163.441 91.654C163.641 91.354 163.941 91.154 163.841 90.554C163.441 90.054 162.841 89.754 162.141 89.854C161.641 89.154 160.741 88.954 160.041 89.454C159.641 89.754 159.341 90.154 159.341 90.654C158.641 90.654 157.741 90.754 157.441 91.354C157.941 91.754 159.041 91.554 159.341 92.154C159.241 92.354 159.241 92.654 159.141 92.954C158.241 93.154 157.941 93.954 156.841 94.054Z" fill="black"/>
<path d="M159.241 99.554C159.841 99.354 159.741 98.654 160.341 98.354C161.141 98.554 161.241 98.154 161.841 98.054C162.241 98.154 162.241 98.554 162.841 98.354C163.341 97.954 163.741 97.354 163.841 96.654C164.341 96.354 164.841 96.154 165.041 95.554C164.341 94.754 162.741 94.254 161.941 95.254C160.641 95.154 159.341 95.954 158.141 96.354C157.341 95.954 155.841 95.154 154.841 95.754C154.941 96.354 155.141 96.954 155.241 97.454C156.341 97.754 157.841 99.954 159.241 99.554ZM162.041 96.054C161.841 97.154 159.841 98.054 159.041 97.354C159.841 97.054 160.541 95.954 162.041 96.054Z" fill="black"/>
<path d="M168.141 99.154C167.841 99.054 167.141 99.554 166.741 99.654C164.441 100.254 161.841 99.854 159.441 99.954C157.641 100.654 154.241 100.754 152.441 102.154C151.441 101.754 151.441 100.354 149.941 100.354C149.441 100.954 148.541 101.554 148.241 102.454C147.941 103.454 148.441 104.454 148.841 105.554C149.441 105.654 149.741 106.054 150.541 105.954C150.541 105.454 151.141 105.354 151.341 104.954C151.641 104.454 151.541 103.754 152.041 103.354C152.041 102.854 151.941 102.754 152.241 102.454C153.141 102.454 153.941 102.354 154.841 102.254C155.841 101.754 156.941 101.454 158.141 101.454C160.041 100.654 163.441 100.754 165.741 101.154C165.441 101.254 164.941 101.254 165.041 101.854C166.541 101.854 167.941 101.654 169.441 101.354C170.141 101.254 170.841 101.454 170.941 100.854C171.041 99.854 168.841 99.554 168.141 99.154Z" fill="black"/>
<path d="M106.8 25.2L107.3 25.7C107.4 25.9 107.2 26.1 107.1 26.3C107.1 26.3 107.1 26.3 107.1 26.4C107.4 26.7 107.4 26.8 107 27C106.7 27.2 106.5 27.3 106.2 27.5C105.8 27.6 105.6 28 105.2 28.1C104.9 28.2 104.7 28.3 104.6 28.6C104.4 28.8 104.3 29.1 104.3 29.4C104.3 29.6 104.4 29.6 104.6 29.6C104.8 29.6 105 29.5 105.1 29.6C105.3 29.7 105.4 29.6 105.6 29.6C105.8 29.6 106.1 29.6 106.3 29.5C106.4 29.5 106.6 29.5 106.7 29.5C106.8 29.5 106.9 29.5 107.1 29.5C107.4 29.4 107.6 29.4 107.9 29.4C108.3 29.4 108.7 29.3 109.1 29.3C109.2 29.3 109.2 29.3 109.3 29.3H109.4C109.7 29.4 110 29.4 110.3 29.6C110.4 29.7 110.4 29.7 110.5 29.7C110.7 29.7 110.9 29.9 111 30C111.1 30.1 111.2 30.1 111.3 30.1L111.5 30.8C111.4 31 111.4 31.1 111.3 31.3C111.2 31.5 111.1 31.7 111 31.9C110.9 32.1 111 32.3 110.8 32.4C110.8 32.4 110.8 32.5 110.8 32.6C110.8 32.7 110.9 32.9 110.9 33.1C110.9 33.5 111 34 110.9 34.4C110.9 34.7 110.9 35 110.8 35.3V35.4C110.6 35.5 110.6 35.7 110.6 35.9C110.3 36.4 110.3 37 110.1 37.5C110 37.8 109.8 38 109.7 38.3C109.6 38.5 109.4 38.6 109.3 38.8C109.3 38.9 109.1 38.8 108.9 38.9L108.7 39.1H108.6C108.4 39 108.2 39 108.1 38.7C108.1 38.7 108 38.6 107.9 38.6C107.8 38.6 107.6 38.5 107.5 38.5C107.4 38.2 107.2 37.9 106.9 37.8C106.8 37.7 106.6 37.6 106.5 37.5C106.4 37.4 106.2 37.4 106 37.4V36.8L106.6 36.7C106.7 36.5 107 36.3 107.3 36.3C107.5 36.3 107.8 36.1 108 35.9C108 35.7 108 35.5 108.2 35.4C108.2 35.4 108.2 35.3 108.3 35.3C108.4 35 108.4 34.7 108.5 34.4C108.5 34.2 108.5 33.9 108.6 33.7C108.6 33.7 108.6 33.6 108.6 33.5L108.5 33.4C108.7 33 108.5 32.6 108.6 32.2C108.6 32.1 108.6 32.1 108.6 32C108.6 31.6 108.6 31.3 108.5 30.9C108.5 30.6 108.5 30.4 108.5 30.2C108.5 30.1 108.4 30 108.3 30C108 30 107.7 30 107.5 30C107.1 30.1 106.7 30.2 106.3 30.2C106.1 30.2 105.8 30.4 105.6 30.5C105.4 30.8 105.1 31 104.8 31.2C104.7 31.3 104.7 31.4 104.6 31.6C104.8 31.7 104.9 31.7 105 31.7C105.1 31.7 105.3 31.8 105.4 31.8C105.5 31.9 105.6 32 105.5 32.2C105.5 32.3 105.4 32.4 105.4 32.5L104.6 32.9C104.8 33.2 104.9 33.4 105.2 33.5C105.3 33.5 105.4 33.7 105.6 33.8C105.4 34.2 105.1 34.6 104.8 34.9V35C104.9 35.3 104.9 35.6 104.8 35.8C104.7 36.1 104.6 36.4 104.6 36.7C104.6 36.9 104.6 37.1 104.4 37.2V37.3C104.4 37.7 104.2 38 103.9 38.3C103.8 38.3 103.8 38.4 103.8 38.5C103.7 38.6 103.7 38.6 103.6 38.7L103.3 38.5C103.3 38.2 103.3 38 103.3 37.7C103.3 37.4 103.3 37.1 103.2 36.8C103.2 36.6 103.1 36.3 103.2 36.1C103.2 35.9 103.2 35.8 103 35.7C102.8 35.6 102.7 35.7 102.6 35.9C102.6 35.9 102.6 35.9 102.5 36C102.3 36 102 36 101.8 36.1C101.5 36.2 101.1 36.2 100.7 36.2C100.6 36.2 100.5 36 100.4 35.9C100.3 35.7 100.2 35.6 100.2 35.4C100.3 35.2 100.6 35.1 100.8 35.1C101 35.1 101.1 35.1 101.2 34.9C101.2 34.9 101.3 34.8 101.4 34.8C101.7 34.7 102.1 34.6 102.4 34.4C102.5 34.4 102.7 34.3 102.8 34.2C103 34.2 103 34 103 33.9C102.8 33.9 102.7 33.9 102.5 33.9C102.4 33.9 102.2 33.9 102.1 34C101.9 34.2 101.7 34.2 101.2 34.1C101.1 33.9 101.1 33.8 101 33.6C100.9 33.4 101 33.1 101.2 32.9C101.5 32.7 101.4 32.4 101.2 32.2L101.1 32.1C100.8 31.7 100.4 31.8 100.1 31.9C100 32 99.8 32 99.7 32.1C99.4 32.2 99.1 32.2 98.8 32C98.5 31.9 98.4 31.9 98.4 32.2C98.4 32.3 98.4 32.3 98.4 32.4C98.3 32.8 98.2 33.1 98.4 33.5C98.5 33.7 98.5 33.9 98.5 34.1C98.5 34.2 98.5 34.4 98.5 34.5C98.6 34.9 98.7 35.4 98.8 35.8C98.8 35.9 98.8 35.9 98.8 36C98.8 36.3 98.8 36.7 98.9 37C98.9 37 98.8 37 98.8 37.1C98.5 37.2 98.5 37.2 98.6 37.6C98.6 37.7 98.5 37.7 98.4 37.7C98.4 37.7 98.3 37.7 98.3 37.6C98.1 37.3 97.9 36.9 97.8 36.5C97.8 36.4 97.7 36.3 97.7 36.2C97.6 36.1 97.6 36 97.6 35.8C97.6 35.5 97.5 35.3 97.5 35C97.5 34.8 97.5 34.6 97.4 34.5C97.6 34.2 97.4 33.9 97.4 33.5C97.4 33.4 97.3 33.3 97.4 33.2C97.5 33 97.5 32.7 97.5 32.4C97.5 32.3 97.5 32.2 97.5 32.1C97.4 32 97.4 31.9 97.5 31.9C97.5 31.8 97.5 31.7 97.4 31.6C97.5 31.4 97.7 31.3 98 31.3L98.1 31.2L98.2 31.1C98.5 31 98.8 30.9 99.1 30.7C99.2 30.7 99.2 30.6 99.3 30.5C99.4 30.3 99.5 30.2 99.7 30.2C99.8 29.9 99.8 29.9 100.1 29.8C100.4 29.7 100.6 29.8 100.8 29.8C100.9 29.8 101 29.7 101.1 29.6C101.2 29.5 101.3 29.4 101.4 29.4C101.5 29.4 101.6 29.3 101.7 29.3C101.8 29.2 101.9 29.2 102 29.2C102.3 29.2 102.6 29.1 102.8 28.9C102.9 28.8 102.9 28.7 102.8 28.6C102.8 28.5 102.7 28.5 102.5 28.5C102.4 28.5 102.3 28.5 102.2 28.5C101.9 28.5 101.7 28.5 101.4 28.5C101.1 28.5 100.8 28.4 100.6 28.2C100.5 28.1 100.3 28 100.1 27.9C100.1 27.6 99.7 27.4 99.9 27.1C99.7 27 99.6 27 99.5 26.8C99.4 26.5 99.5 26.3 99.9 26.1C100 26 100.2 25.9 100.3 26C100.3 26 100.3 26 100.4 26L101.5 25.9C101.6 25.9 101.7 25.9 101.8 25.9C101.9 25.9 102.1 25.9 102.2 25.8C102.4 25.6 102.6 25.6 102.8 25.6C103 25.6 103.1 25.5 103.1 25.3C103.1 25.2 103.1 25.1 103.2 25.1C103.3 24.9 103.3 24.7 103.1 24.6C103 24.4 102.8 24.2 102.7 24L102.9 23.2C103.1 23.2 103.3 23.2 103.4 23.2C103.5 23.2 103.6 23.2 103.7 23.1C104 22.9 104.4 22.9 104.6 23.2C104.7 23.3 104.8 23.4 104.8 23.5C104.9 23.8 104.9 24.2 105 24.5C105 24.7 105.1 24.9 105.2 25C105.3 25.1 105.4 25.1 105.5 25C105.7 24.8 106 24.9 106.3 24.8C106.4 25.2 106.6 25.2 106.8 25.2Z" fill="#0D1319"/>
<path d="M81.4 31.3H81.5C81.8 31.1 82.1 31.1 82.4 30.9C82.5 30.8 82.6 30.8 82.8 30.7C83 30.7 83.2 30.6 83.3 30.4H83.5C83.7 30.3 83.9 30.2 84.1 30.1C84.2 30.1 84.3 30 84.4 30C84.7 30 84.9 30 85.2 29.9C85.3 29.9 85.4 29.9 85.4 29.8C85.7 29.7 86 29.6 86.3 29.5C86.3 29.5 86.4 29.5 86.4 29.4C86.3 29.2 86.2 29.2 86.1 29.2C85.7 29.2 85.4 29.1 85 29.1C84.9 29.1 84.8 29 84.7 28.8C84.6 28.6 84.5 28.4 84.4 28.2C84.4 28.1 84.5 28.1 84.5 28C84.7 27.8 84.9 27.6 85.1 27.3C85.2 27.2 85.2 27.1 85.3 27L86.2 26.6C86.3 26.5 86.3 26.4 86.2 26.3C86.1 26.2 86 26.2 85.9 26.2C85.6 26.3 85.2 26.3 85 26.6C84.7 26.7 84.4 27 84.1 26.9C84 26.9 83.8 26.8 83.7 26.8C83.7 26.8 83.7 26.7 83.6 26.7C83.3 26.6 83.3 26.4 83.3 26.1C83.3 25.9 83.4 25.7 83.4 25.5C83.5 25.3 83.6 25.2 83.8 25.1C84 25 84.2 24.9 84.3 24.7C84.6 25 84.8 25 85.1 25C85.5 25.1 85.9 25 86.2 24.9C86.4 24.9 86.5 24.9 86.7 24.9C87 25 87 25 87.1 24.7C87.1 24.6 87.2 24.5 87.2 24.4C87.3 24.1 87.1 23.9 86.8 24C86.5 24.1 86.1 24.1 85.8 24.1C85.7 24.1 85.5 24.2 85.4 24.3L83.8 23.6C83.9 23.3 83.8 23.1 83.6 22.9L83.5 22.8C83.4 22.5 83.4 22.5 83.3 22.3C83.5 22.2 83.7 22.1 83.9 22C84 21.9 84.1 21.9 84.2 21.8C84.3 21.8 84.3 21.8 84.4 21.8C84.6 21.9 84.7 21.8 84.9 21.8C85.1 21.7 85.3 21.7 85.6 21.6C85.6 21.4 85.6 21.3 85.8 21.3C86.1 21.3 86.2 21.2 86.3 20.9C86.5 20.8 86.7 20.9 86.8 21C87.1 21.1 87.3 21.1 87.3 20.7C87.4 20 87.3 19.5 87 19C87.1 18.7 87.2 18.3 87.2 18C87.2 17.9 87.3 17.8 87.4 17.7C87.6 17.6 87.8 17.4 88 17.3C88.8 17.2 88.8 17.2 89.3 17.7C89.3 17.9 89.4 18.2 89.3 18.4C89.3 18.5 89.4 18.6 89.4 18.7C89.3 18.9 89.2 19.2 89.2 19.4C89.1 19.7 89.2 20 89.5 20.1C89.6 20.1 89.6 20.1 89.7 20.1C89.8 20.1 89.9 20.1 90 20.1C90.1 20.1 90.2 20.1 90.3 20.1C90.4 20.1 90.4 20.1 90.5 20.1C90.6 20.3 90.6 20.3 90.5 20.9L90.9 21.1C90.9 21.2 90.9 21.4 90.8 21.4C90.6 21.6 90.7 21.8 90.6 22C90.6 22 90.6 22.1 90.6 22.3C90.3 22.5 90.1 22.7 89.8 23C89.7 23 89.7 23.1 89.6 23.1C89.5 23.2 89.4 23.3 89.3 23.4C89.2 23.5 89.2 23.6 89.1 23.7C88.9 23.8 88.9 23.9 88.9 24.2C88.9 24.3 88.9 24.4 89.1 24.5L89.2 24.3C89.5 24.2 89.7 24.1 90 23.9H90.1C90.5 23.9 90.8 23.7 91.2 23.5C91.4 23.4 91.5 23.4 91.7 23.4C91.6 24 91.2 24.4 90.7 24.6C90.6 24.7 90.5 24.7 90.4 24.8C90.3 24.9 90.2 25 90.1 25C89.8 25 89.7 25.2 89.5 25.3C89.3 25.4 89.1 25.5 88.9 25.7C88.9 26 88.7 26.2 88.4 26.3C88.3 26.3 88.1 26.4 88 26.5C88 26.6 88.1 26.7 88.2 26.7C88.2 26.7 88.2 26.7 88.3 26.7C88.4 26.7 88.5 26.6 88.6 26.6C88.9 26.4 89.2 26.4 89.5 26.5C89.7 26.5 90 26.5 90.2 26.5L90.6 27C90.4 27.3 90.3 27.6 90.2 27.9C90 28.1 89.7 28.2 89.6 28.6C89.4 28.7 89.3 29 89.1 29.1C88.9 29.3 88.6 29.4 88.4 29.3C88.3 29.3 88.1 29.3 88 29.3C87.8 29.3 87.8 29.4 87.8 29.6C87.8 29.7 88 29.8 88.1 29.8C88.6 29.7 89.2 29.6 89.7 29.4C89.8 29.4 89.8 29.3 89.9 29.4C90.2 29.4 90.6 29.4 90.9 29.3C91.2 29.2 91.6 29.2 91.9 29.2C92 29.2 92.1 29.2 92.1 29.2C92.4 29.3 92.8 29.4 93.1 29.4C93.1 29.7 93.4 29.7 93.6 29.7C93.8 29.9 93.8 30.2 94.1 30.4C94.2 30.5 94.2 30.8 94.1 31C94 31.1 93.9 31.2 93.9 31.2C93.4 30.9 93.2 31 93 31C92.8 31 92.6 31.1 92.3 31C92.3 30.8 92.2 30.8 92 30.7C91.6 30.6 91.2 30.6 90.8 30.7C90.6 30.8 90.3 30.8 90.1 30.8C90 30.8 90 30.8 89.9 30.9C89.8 30.9 89.8 30.9 89.7 30.9C89.9 30.6 90.2 30.4 90.5 30.2C90.7 30.1 90.9 29.9 90.9 29.7C90.8 29.7 90.7 29.7 90.7 29.7C90.5 29.7 90.3 29.8 90.2 29.8C89.7 29.8 89.2 29.8 88.7 29.9C88.5 29.9 88.2 30 88 30.1C87.6 30.2 87.4 30.6 86.9 30.6C86.7 30.6 86.5 30.7 86.3 30.8C85.8 31 85.3 31.3 84.7 31.5C84.2 31.7 83.8 31.9 83.4 32.1C83.4 32.2 83.4 32.3 83.3 32.3C83.1 32.4 82.9 32.6 82.7 32.7C82.6 32.7 82.5 32.8 82.4 32.8C82.3 32.8 82.1 32.9 82.1 33C82 33.2 81.8 33.3 81.5 33.3L81.3 33.6C80.9 33.6 80.8 33.9 80.5 34.1C80.4 34.2 80.3 34.3 80.2 34.3C80 34.4 79.7 34.4 79.6 34.7C79.4 34.6 79.3 34.6 79.2 34.6C79 34.5 78.9 34.4 78.9 34.2C78.9 34.1 78.8 33.9 78.8 33.8C78.9 33.7 78.9 33.5 78.9 33.3C78.8 33.1 78.9 33 79.1 32.9C79.3 32.8 79.5 32.7 79.5 32.5C79.5 32.4 79.6 32.4 79.6 32.3C79.6 32.2 80 31.7 80 31.7C80 31.4 80.2 31.3 80.3 31.2C80.6 31.2 80.8 31 81 30.9L81.4 31.3ZM87.6 27.8C87.8 27.9 88 27.8 88.2 27.6C88.3 27.5 88.3 27.5 88.4 27.5C88.8 27.5 89 27.2 89.2 27C89.3 26.9 89.4 26.7 89.3 26.6C89.2 26.4 89.1 26.4 88.9 26.5C88.8 26.5 88.8 26.5 88.7 26.5C88.3 26.7 87.8 26.9 87.4 27.1L87.3 27.2C87.2 27.3 87.2 27.4 87.1 27.4C87.1 27.5 87 27.6 87.1 27.6C87.1 27.6 87.2 27.7 87.3 27.7C87.4 27.8 87.5 27.8 87.6 27.8Z" fill="#0D1319"/>
<path d="M86 39C85.9 39.2 85.7 39.3 85.5 39.3C85.3 39.3 85.1 39.4 84.9 39.4C84.8 39.4 84.8 39.4 84.7 39.4C84.5 39.3 84.4 39.2 84.3 39.1C84.3 38.7 84.5 38.3 84.7 38C84.8 37.8 85 37.6 85.1 37.4C85.1 37.3 85.2 37.2 85.2 37C84.7 37.1 84.5 36.7 84.1 36.6C84 36.6 83.9 36.5 83.8 36.5C83.7 36.3 83.7 36.2 84 36V35.7C84.7 35.2 85.5 34.8 86.3 34.6C86.3 34.6 86.3 34.6 86.3 34.5L85.6 34.4C85.6 34.3 85.5 34.2 85.5 34.1C85.6 34 85.6 33.8 85.8 33.7C86.1 33.7 86.2 33.3 86.4 33.2C86.5 33.1 86.5 33 86.4 32.7C86.3 32.6 86.1 32.6 86 32.7H85.9C85.6 32.5 85.2 32.6 85 32.3C85.1 32.1 85.4 32 85.2 31.8C85.3 31.8 85.4 31.8 85.4 31.7C85.6 31.7 85.8 31.6 86 31.5C86.1 31.5 86.1 31.4 86.2 31.4C86.8 31.3 87.4 31.2 87.9 31.3H88C88.3 31.2 88.6 31.4 88.7 31.7C88.4 31.9 88.3 32.3 87.9 32.3C88 32.7 87.6 32.8 87.4 33C87.4 33.1 87.3 33.1 87.3 33.2L87 33.3C87 33.5 87.1 33.5 87.2 33.5C87.3 33.5 87.4 33.5 87.5 33.5C87.9 33.6 88.2 33.9 88.3 34.3C88.3 34.4 88.3 34.4 88.3 34.5C88.1 34.8 88 35 88 35.2C87.9 35.4 87.8 35.6 87.7 35.7C87.6 35.8 87.6 35.9 87.5 36C87.3 36.1 87.2 36.3 87.2 36.6C87.2 36.7 87.1 36.7 87.1 36.7C86.9 36.7 86.8 36.9 86.7 37.1C86.6 37.2 86.6 37.3 86.6 37.4C86.6 37.5 86.8 37.5 86.9 37.5C87.3 37.5 87.8 37.4 88.2 37.3C88.3 37.3 88.5 37.2 88.6 37.2C88.8 37.2 89.1 37.1 89.3 36.9L89 36.6C89.1 36.5 89.1 36.4 89.1 36.2C89.1 36.1 89 36 89 35.9L88.9 35.8C88.8 35.6 88.8 35.4 88.7 35.3C88.7 34.9 88.7 34.6 88.8 34.3C88.8 34.2 88.9 34.1 89 34C89.2 33.7 89.3 33.5 89.7 33.5C89.8 33.5 89.9 33.5 90 33.4C90.2 33.3 90.4 33.2 90.6 33.2C90.7 33.2 90.8 33.2 91 33.2C91.2 33.3 91.1 33.5 91.1 33.7C91.2 33.7 91.2 33.8 91.3 33.8C91.4 33.9 91.5 34 91.6 34.2C91.7 34.6 91.6 35 91.5 35.4C91.5 35.5 91.5 35.5 91.5 35.6C91.2 35.5 91 35.7 90.7 35.8C90.5 35.9 90.4 36 90.5 36.2C90.6 36.4 90.7 36.7 90.8 36.9C90.9 37 91 37.2 91.1 37.3C91.1 37.4 91.1 37.4 91.1 37.5C91.1 37.6 91.1 37.6 91.2 37.7C91.2 37.8 91.3 37.9 91.3 38C91.2 38.1 91 38.2 90.9 38.3C90.8 38.4 90.8 38.4 90.7 38.4C90.7 38.4 90.6 38.4 90.6 38.5C90.4 38.8 90.1 38.8 89.8 38.9C89.5 39 89.1 39 88.8 39.1C88.3 39.1 87.8 39.1 87.3 39.2C86.8 39 86.4 39 86 39Z" fill="#0D1319"/>
<path d="M124.83 31.8C123.83 33.4 122.93 34.9 121.93 36.5C120.23 39.1 118.63 41.8 116.93 44.4C116.33 45.3 115.83 46.2 115.23 47.1C121.13 46.6 126.93 45.8 132.73 44.6C132.93 40.6 133.43 36.6 134.23 32.6L124.83 31.8Z" fill="#B10023"/>
<path d="M146.23 14.6L139.13 26.6C139.13 26.6 150.83 26.3 157.33 21.9C160.13 19.8 162.53 17.2 164.23 14.1C166.63 9.8 168.33 5 168.93 0C168.93 0 159.83 6.7 146.23 14.6Z" fill="#C07D00"/>
<path d="M140.23 35.3C139.83 33.6 137.13 31.7 137.13 31.7C137.13 31.7 134.53 41.6 133.83 45.4C133.23 48.5 138.03 52.2 140.43 52.6C141.43 50.9 142.13 49 142.23 47C141.73 43.5 140.23 35.3 140.23 35.3Z" fill="#0D1319"/>
<path d="M134.13 15.7C135.13 14.4 138.13 16.3 139.43 18.9C140.73 21.5 136.63 28 136.63 28C136.63 28 132.43 25.6 131.93 23.3C131.43 21 133.23 17 134.13 15.7Z" fill="#0D1319"/>
<path d="M131.43 23.4C131.23 22 131.33 20.6 131.83 19.3C125.33 19 118.83 17.8 112.63 15.7C114.93 23 121.93 27.9 129.63 27.5C131.13 27.4 132.63 27.1 134.13 26.8C132.83 26 131.93 24.8 131.43 23.4Z" fill="#C07D00"/>
<path d="M161.93 50.7L149.03 27.1L137.93 29.9C138.13 30.7 138.33 31.4 138.43 32.2C139.43 33 140.23 34.1 140.63 35.3C140.63 35.4 142.13 43.5 142.63 47V47.1V47.2C142.63 47.7 142.53 48.2 142.43 48.6C148.53 49.7 157.13 50.9 161.93 50.7Z" fill="#B10023"/>
<path d="M85.8 42.2V42.6H84.2V47H83.1V42.6H81.4V42.2H85.8Z" fill="#695444"/>
<path d="M88.7 42.2L90.9 47H89.7L89.1 45.7H87.3L86.7 47H85.9L88.2 42.2H88.7ZM87.5 45.2H88.9L88.2 43.7L87.5 45.2Z" fill="#695444"/>
<path d="M92.9 42.2H91.8V47H92.9V42.2Z" fill="#695444"/>
<path d="M94.5 42.2H95.2L97.9 45.2V42.2H98.6V47H98.1L95.2 43.7V47H94.5V42.2Z" fill="#695444"/>
<path d="M105.3 42.2H106L108.7 45.2V42.2H109.4V47H108.9L106 43.7V47H105.3V42.2Z" fill="#695444"/>
<path d="M102.3 42.2L104.5 47H103.3L102.7 45.7H100.9L100.3 47H99.5L101.8 42.2H102.3ZM101.1 45.2H102.5L101.8 43.7L101.1 45.2Z" fill="#695444"/>
</g>
<defs>
<clipPath id="clip0_130_42597">
<rect width="326.9" height="128" fill="white"/>
</clipPath>
</defs>
</svg>
