<svg width="163" height="76" viewBox="0 0 163 76" fill="none" xmlns="http://www.w3.org/2000/svg">
<g clip-path="url(#clip0_153_29363)">
<mask id="mask0_153_29363" style="mask-type:luminance" maskUnits="userSpaceOnUse" x="0" y="0" width="163" height="77">
<path d="M162.01 0.5H0V76.45H162.01V0.5Z" fill="white"/>
</mask>
<g mask="url(#mask0_153_29363)">
<path d="M98.0901 37.57C101.86 37.95 104.63 39.15 108.86 39.57C110.512 39.7141 112.172 39.3957 113.654 38.6504C115.136 37.9051 116.381 36.7624 117.25 35.35C117.86 34.24 118.05 31.18 117.76 28.57C117.47 25.96 119 24.78 122.23 23.12C126.1 21.12 126.6 20.12 126.66 16.78C127.09 10.66 129.54 9.69997 133.83 9.23997C137.888 8.81951 141.903 8.05339 145.83 6.94997C148.517 5.78821 151.091 4.38231 153.52 2.74997C154.08 2.49997 154.98 1.49997 155.37 1.69997C155.955 1.91904 156.46 2.31088 156.817 2.82348C157.174 3.33608 157.367 3.94519 157.37 4.56997C157.58 7.28997 156.98 8.15997 155 14.97C153.514 19.572 151.067 23.8056 147.82 27.39C145 30.5259 141.728 33.2224 138.11 35.39C135.95 36.78 134.37 39.17 132.74 41.27C130.83 43.73 129.06 44.27 126.23 43.74C120.901 42.5239 115.319 43.1113 110.36 45.41C107.07 47 103.93 48.69 100.2 48.9C99.2901 48.95 98.5301 49.01 99.2001 47.78C100.433 46.0743 102.087 44.7169 104 43.84C104.1 43.79 104.15 43.64 103.75 43.58C97.0901 42.64 94.5101 40.58 93.1701 39.48C92.4001 38.86 92.1701 38.07 92.9501 37.76C93.7301 37.45 94.9501 37.27 98.1101 37.58M149.37 21.96C149.48 21.77 149.37 21.62 149.04 21.72C147.715 22.0548 146.331 22.081 144.994 21.7967C143.658 21.5124 142.404 20.9251 141.33 20.08C140.379 19.1999 139.718 18.0511 139.436 16.7864C139.154 15.5216 139.263 14.2009 139.75 13C139.85 12.7 139.54 12.67 139.25 12.78C136.537 13.8647 134.023 15.3921 131.81 17.3C126.89 20.93 122.6 30.58 119.26 35.72C117.812 37.8962 115.838 39.6711 113.52 40.88C113.44 41.66 114 42.06 114.9 41.88C118.221 41.3422 121.49 40.5192 124.67 39.42C131.003 36.8795 137.004 33.5786 142.54 29.59C145.379 27.5967 147.72 24.9754 149.38 21.93M142.82 18.5C143.489 18.9971 144.249 19.3574 145.057 19.5602C145.865 19.763 146.705 19.8042 147.529 19.6816C148.353 19.5589 149.145 19.2748 149.859 18.8455C150.573 18.4163 151.195 17.8503 151.69 17.18C153.88 14.3 154.37 10.69 155.69 6.70997C155.8 6.36997 155.94 5.56997 155.69 5.38997C155.429 5.96741 155.035 6.47467 154.54 6.86997C154.08 7.10997 153.17 6.77997 153.66 6.27997C154.351 5.68891 154.838 4.89434 155.05 4.00997C155.15 3.50997 154.85 3.39997 154.52 3.75997C153.396 4.48712 152.344 5.32098 151.38 6.24997C151.25 6.37997 151.16 6.58997 151.27 6.66997C153.59 7.93997 153.88 10.29 153.27 12.57C152.964 13.7674 152.226 14.8092 151.197 15.4943C150.169 16.1794 148.923 16.4593 147.7 16.28C145.13 15.76 143.54 13.35 144.38 10.28C144.44 10.05 144.38 9.94997 144.13 10.08C140.85 12.18 140.35 16.37 142.77 18.46M152.05 11.77C152.54 8.93997 151.44 7.64997 149.2 7.70997C145.88 7.78997 144.73 12.53 146.83 14.1C149.09 15.78 151.67 13.9 152.04 11.78M128.77 54.75C127.136 55.0337 125.548 55.5383 124.05 56.25C122.84 56.73 118.36 59.03 117.88 59.03C117.17 59.03 116.88 58.82 117.09 57.8C117.649 56.4481 118.604 55.2975 119.83 54.5C120.24 54.25 120.22 54.07 119.77 54.02C117.007 53.718 114.445 52.4333 112.55 50.4C112.06 49.81 111.86 49 112.83 48.75C113.8 48.5 117.29 49.41 119.56 49.98C122.56 50.73 128.68 51.39 131.97 49.83C135.51 48.16 136.97 41.83 138.47 39.83C139.97 37.83 141.52 37.74 144.47 36.45C148.77 34.54 151.33 30.62 152.88 28.45C155.76 24.45 158.82 19.68 159.41 18.78C160 17.88 161.23 19.17 161.47 20.12C161.92 21.87 162.57 26.21 161.37 33.22C160.71 37.06 158.58 43.06 156.27 46.28C153.03 50.8 150.37 53.74 141.84 54.58C138.24 54.93 130.19 54.67 128.84 54.73M158.26 38.2C158.34 37.95 158.51 37.53 158.01 37.98C156.994 38.8452 155.745 39.3914 154.42 39.55C153.2 39.76 149.42 39.55 149.04 36.55C149.04 36.32 148.83 36.46 148.68 36.63C145.273 40.6245 141.63 44.4112 137.77 47.97C135.38 50.2859 132.342 51.8204 129.06 52.37C128.84 52.37 128.4 53.23 129.2 53.37C133.07 53.17 140.2 53.04 143.27 52.47C151.76 50.9 155.89 45.79 158.27 38.16M155.57 33.27C158.41 34.49 160 32.67 160.21 31.02C160.305 30.5263 160.28 30.0168 160.136 29.5351C159.992 29.0533 159.734 28.6135 159.383 28.2531C159.033 27.8927 158.6 27.6223 158.122 27.4651C157.645 27.3078 157.136 27.2683 156.64 27.35C153.69 27.74 153.01 32.18 155.56 33.27M120.98 11.31C120.1 11.31 118.87 12.13 113.35 13.55C111.01 14.05 108.23 14.79 106.65 15.13C104.11 15.66 102.14 15.07 100.57 16.31C99.3601 17.31 98.8801 19.31 98.4501 20.83C97.1201 25.36 92.1501 26.22 89.2601 25.06C84.2601 23.06 80.5801 19.19 79.2601 19.06C78.8601 19.06 78.5201 19.79 78.5001 20.21C78.3401 22.49 79.8701 24.26 83.4001 26.21C83.7701 26.42 84.3501 26.5 83.4801 26.65C80.9801 27.08 79.6201 27.81 79.3901 28.23C79.1601 28.65 79.4501 29.95 81.2901 30.41C83.2944 30.5316 85.3059 30.4377 87.2901 30.13C89.9901 29.73 91.6801 29.13 93.6301 29.35C95.5801 29.57 102.55 31.22 106.49 30.43C110.43 29.64 111.21 28.3 114.93 24.28C117.62 21.38 120.55 17.55 121.73 13.66C122 12.78 121.89 11.27 121 11.3M90.2801 27.97C87.4734 28.8503 84.5515 29.3086 81.6101 29.33C80.7801 29.08 80.6101 28.7 80.8901 28.57C82.1601 27.95 85.2901 27.64 87.5401 27.57C88.5401 27.57 88.8901 27.24 88.1601 26.98C86.9801 26.5 80.8401 24.55 79.7901 21.29C79.5801 20.63 79.8701 20.37 80.2801 20.7C84.2801 23.93 86.0501 25.81 90.2801 26.76C90.406 26.8034 90.5152 26.885 90.5925 26.9935C90.6698 27.1019 90.7114 27.2318 90.7114 27.365C90.7114 27.4981 90.6698 27.628 90.5925 27.7365C90.5152 27.8449 90.406 27.9265 90.2801 27.97ZM102.43 16.97C103.49 16.75 104.57 16.64 105.96 16.35C106.31 16.28 106.18 16.52 106.09 16.58C103.32 18.5 100.98 20.5 99.9801 21.27C99.8701 21.36 99.8701 21.15 99.9101 21.01C100.48 19.18 100.8 17.34 102.41 17.01M107.11 25.5C104.687 26.8355 101.859 27.2374 99.1601 26.63C99.1228 26.6078 99.0919 26.5764 99.0704 26.5387C99.049 26.501 99.0377 26.4583 99.0377 26.415C99.0377 26.3716 99.049 26.329 99.0704 26.2913C99.0919 26.2536 99.1228 26.2221 99.1601 26.2C100.31 25.31 103.99 22.61 104.84 22.09C105.69 21.57 107.14 20.54 107.65 21.78C108.16 23.02 108.79 24.34 107.16 25.51M115.35 21.62C113.86 22.84 110.16 24.41 108.94 21.18C108.736 20.6476 108.64 20.0803 108.656 19.5105C108.673 18.9408 108.802 18.38 109.036 17.8603C109.271 17.3407 109.605 16.8726 110.021 16.4829C110.437 16.0933 110.926 15.7898 111.46 15.59C111.6 15.52 111.93 15.49 111.86 15.59C111.548 16.207 111.375 16.8853 111.354 17.5766C111.333 18.2679 111.465 18.9553 111.74 19.59C112.064 20.2672 112.623 20.8042 113.312 21.102C114.001 21.3997 114.775 21.4381 115.49 21.21C115.74 21.14 115.57 21.38 115.35 21.57M117.88 17.87C117.5 20.12 114.36 20.92 113.14 19.09C111.92 17.26 113.64 14.24 115.81 14.41C117.42 14.54 118.27 15.63 117.89 17.87M119.32 13.5C119.236 13.5004 119.153 13.5242 119.081 13.5686C119.009 13.6131 118.95 13.6765 118.912 13.752C118.874 13.8274 118.857 13.912 118.864 13.9963C118.871 14.0806 118.9 14.1615 118.95 14.23C119.21 14.53 119.67 14.53 120.22 14.29C120.35 14.24 120.37 14.29 120.33 14.42C120.076 15.042 119.74 15.6272 119.33 16.16C119.304 16.1929 119.27 16.2182 119.231 16.2332C119.192 16.2482 119.15 16.2523 119.109 16.2451C119.068 16.2379 119.03 16.2197 118.998 16.1923C118.967 16.165 118.943 16.1296 118.93 16.09C118.927 15.7289 118.834 15.3743 118.66 15.0582C118.485 14.7421 118.234 14.4746 117.93 14.28C117.887 14.2531 117.851 14.2155 117.826 14.1709C117.801 14.1263 117.788 14.076 117.788 14.025C117.788 13.9739 117.801 13.9237 117.826 13.879C117.851 13.8344 117.887 13.7969 117.93 13.77C118.762 13.2423 119.684 12.8727 120.65 12.68C120.65 12.97 120.41 13.32 119.33 13.5M135.71 18.71C133.338 20.3174 131.32 22.3934 129.78 24.81C128.93 25.97 123.68 33.62 122.38 35.9C122.27 36.09 122.66 36.43 123.04 36.28C127.654 34.558 132.171 32.5851 136.57 30.37C137.786 29.6874 138.794 28.6883 139.488 27.4787C140.182 26.2691 140.535 24.8942 140.51 23.5C140.51 21.27 138.73 16.86 135.7 18.78M148.98 13.64C151.87 13.51 152.45 9.02997 149.55 8.78997C146.65 8.54997 146.09 13.79 148.98 13.64ZM139.2 49.79C138.98 50.18 139.6 50.51 140.76 50.51C144.406 50.3617 147.923 49.1253 150.86 46.96C153.56 45.14 153.97 43.24 153.78 42.28C153.38 40.28 149.72 38.66 148.12 40.72C145.915 43.7749 143.32 46.5283 140.4 48.91C139.981 49.1766 139.58 49.4705 139.2 49.79ZM157.05 28.5C154.38 28.5 154.27 32.5 156.79 32.5C159.54 32.5 159.68 28.5 157.05 28.5ZM115.63 19.17C118.07 18.79 117.29 14.91 115.38 15.38C113.47 15.85 112.98 19.59 115.63 19.17Z" fill="black"/>
<path d="M102.68 74.5H91.9801V73.26H102.68V74.5ZM102.04 66.07H92.5701V64.84H102.04V66.07ZM101.33 70.07H93.2801V68.86H101.33V70.07Z" fill="black"/>
<path d="M102.68 74.5H91.98C91.9561 74.5 91.9333 74.4905 91.9164 74.4736C91.8995 74.4568 91.89 74.4339 91.89 74.41V73.26C91.89 73.2361 91.8995 73.2132 91.9164 73.1964C91.9333 73.1795 91.9561 73.17 91.98 73.17H102.68C102.704 73.17 102.727 73.1795 102.744 73.1964C102.761 73.2132 102.77 73.2361 102.77 73.26V74.5C102.77 74.5239 102.761 74.5468 102.744 74.5636C102.727 74.5805 102.704 74.59 102.68 74.59M92.04 74.41H102.59V73.41H92.04V74.41ZM101.34 70.19H93.28C93.2561 70.19 93.2332 70.1805 93.2164 70.1636C93.1995 70.1468 93.19 70.1239 93.19 70.1V68.87C93.19 68.8461 93.1995 68.8232 93.2164 68.8064C93.2332 68.7895 93.2561 68.78 93.28 68.78H101.33C101.354 68.78 101.377 68.7895 101.394 68.8064C101.411 68.8232 101.42 68.8461 101.42 68.87V70.06C101.42 70.0839 101.411 70.1068 101.394 70.1236C101.377 70.1405 101.354 70.15 101.33 70.15M93.33 69.97H101.2V68.97H93.37L93.33 69.97ZM102 66.11H92.57C92.5582 66.11 92.5465 66.1077 92.5356 66.1031C92.5246 66.0986 92.5147 66.092 92.5064 66.0836C92.498 66.0753 92.4914 66.0654 92.4869 66.0544C92.4823 66.0435 92.48 66.0318 92.48 66.02V64.84C92.48 64.8161 92.4895 64.7932 92.5064 64.7764C92.5232 64.7595 92.5461 64.75 92.57 64.75H102.04C102.064 64.75 102.087 64.7595 102.104 64.7764C102.121 64.7932 102.13 64.8161 102.13 64.84V66.02C102.13 66.0439 102.121 66.0668 102.104 66.0836C102.087 66.1005 102.064 66.11 102.04 66.11M92.66 65.93H101.98V64.93H92.66V65.93Z" fill="black"/>
<path d="M109.98 69.94H108.26L109.98 73.6H108.73L107.5 71.01L106.2 74.82H104.98L106.67 69.94H104.79V68.81H106.86V66.65H105.86L105.44 68.08H104.28L105.43 64.08H106.62L106.27 65.5H109.72V66.62H107.98V68.78H109.98V69.94ZM110.77 65.6H115.42V73.92H110.78L110.77 65.6ZM114.33 66.71H111.89V72.82H114.33V66.71Z" fill="black"/>
<path d="M106.22 74.91H104.98C104.956 74.91 104.933 74.9005 104.916 74.8836C104.9 74.8668 104.89 74.8439 104.89 74.82L106.54 70.06H104.78C104.756 70.06 104.733 70.0505 104.716 70.0336C104.7 70.0168 104.69 69.9939 104.69 69.97V68.81C104.69 68.7861 104.7 68.7632 104.716 68.7464C104.733 68.7295 104.756 68.72 104.78 68.72H106.78V66.72H105.98L105.57 68.09C105.564 68.1084 105.551 68.1242 105.535 68.135C105.519 68.1459 105.5 68.1511 105.48 68.15H104.32C104.309 68.1547 104.297 68.1571 104.285 68.1571C104.273 68.1571 104.261 68.1547 104.25 68.15C104.244 68.1376 104.241 68.1239 104.241 68.11C104.241 68.0961 104.244 68.0824 104.25 68.07L105.4 64.07C105.405 64.0497 105.416 64.0317 105.433 64.0189C105.449 64.0062 105.469 63.9995 105.49 64H106.68C106.691 63.9953 106.703 63.9929 106.715 63.9929C106.727 63.9929 106.739 63.9953 106.75 64C106.756 64.0124 106.759 64.0261 106.759 64.04C106.759 64.0539 106.756 64.0676 106.75 64.08L106.36 65.4H109.69C109.714 65.4 109.737 65.4095 109.754 65.4264C109.771 65.4432 109.78 65.4661 109.78 65.49V66.61C109.78 66.6339 109.771 66.6568 109.754 66.6736C109.737 66.6905 109.714 66.7 109.69 66.7H108.08V68.7H109.98C110.004 68.7 110.027 68.7095 110.044 68.7264C110.061 68.7432 110.07 68.7661 110.07 68.79V69.92C110.07 69.9439 110.061 69.9668 110.044 69.9836C110.027 70.0005 110.004 70.01 109.98 70.01H108.41L110.09 73.54C110.098 73.5537 110.102 73.5692 110.102 73.585C110.102 73.6008 110.098 73.6163 110.09 73.63C110.078 73.6362 110.064 73.6394 110.05 73.6394C110.036 73.6394 110.023 73.6362 110.01 73.63H108.76C108.743 73.6299 108.727 73.6252 108.713 73.6163C108.699 73.6075 108.688 73.5949 108.68 73.58L107.54 71.18L106.31 74.78C106.304 74.7968 106.293 74.8115 106.279 74.8221C106.265 74.8328 106.248 74.839 106.23 74.84M105.15 74.66H106.15L107.43 70.91C107.436 70.8932 107.447 70.8786 107.461 70.8679C107.475 70.8572 107.492 70.851 107.51 70.85C107.528 70.8481 107.547 70.8519 107.563 70.8609C107.579 70.8698 107.592 70.8835 107.6 70.9L108.82 73.5H109.82L108.14 69.97C108.132 69.9563 108.128 69.9408 108.128 69.925C108.128 69.9092 108.132 69.8937 108.14 69.88C108.153 69.8738 108.166 69.8706 108.18 69.8706C108.194 69.8706 108.208 69.8738 108.22 69.88H109.85V68.88H107.98C107.956 68.88 107.933 68.8705 107.916 68.8536C107.9 68.8368 107.89 68.8139 107.89 68.79V66.65C107.89 66.6261 107.9 66.6032 107.916 66.5864C107.933 66.5695 107.956 66.56 107.98 66.56H109.59V65.62H106.23C106.206 65.62 106.183 65.6105 106.166 65.5936C106.15 65.5768 106.14 65.5539 106.14 65.53L106.53 64.21H105.53L104.43 68.02H105.43L105.84 66.65C105.846 66.6332 105.857 66.6185 105.871 66.6079C105.885 66.5972 105.902 66.591 105.92 66.59H106.92C106.944 66.59 106.967 66.5995 106.984 66.6164C107.001 66.6332 107.01 66.6561 107.01 66.68V68.84C107.01 68.8518 107.008 68.8635 107.003 68.8744C106.999 68.8854 106.992 68.8953 106.984 68.9036C106.975 68.912 106.965 68.9186 106.955 68.9232C106.944 68.9277 106.932 68.93 106.92 68.93H104.92V69.93H106.72C106.744 69.93 106.767 69.9395 106.784 69.9564C106.801 69.9732 106.81 69.9961 106.81 70.02L105.15 74.66ZM115.43 73.95H110.78C110.768 73.95 110.757 73.9477 110.746 73.9431C110.735 73.9386 110.725 73.932 110.716 73.9236C110.708 73.9153 110.701 73.9054 110.697 73.8944C110.692 73.8835 110.69 73.8718 110.69 73.86V65.6C110.69 65.5761 110.7 65.5532 110.716 65.5364C110.733 65.5195 110.756 65.51 110.78 65.51H115.43C115.454 65.51 115.477 65.5195 115.494 65.5364C115.511 65.5532 115.52 65.5761 115.52 65.6V73.92C115.52 73.9439 115.511 73.9668 115.494 73.9836C115.477 74.0005 115.454 74.01 115.43 74.01M110.87 73.83H115.34V65.7H110.87V73.83ZM114.34 72.9H111.9C111.876 72.9 111.853 72.8905 111.836 72.8736C111.82 72.8568 111.81 72.8339 111.81 72.81V66.71C111.81 66.6861 111.82 66.6632 111.836 66.6464C111.853 66.6295 111.876 66.62 111.9 66.62H114.34C114.364 66.62 114.387 66.6295 114.404 66.6464C114.421 66.6632 114.43 66.6861 114.43 66.71V72.82C114.43 72.8439 114.421 72.8668 114.404 72.8836C114.387 72.9005 114.364 72.91 114.34 72.91M111.98 72.73H114.24V66.8H111.98V72.73Z" fill="black"/>
<path d="M117.12 66.5L119.73 63.78L122.52 66.5H121.09L119.76 65.19L118.51 66.5H117.12ZM121.59 67.39V71.08H118.7V71.86H121.58V72.76H118.7V73.55H121.58V74.5H118.7V75.11H117.81V67.39H121.59ZM118.7 68.82H120.7V68.1H118.7V68.82ZM120.7 69.64H118.7V70.31H120.7V69.64ZM120.59 66.79H118.98V66.04H120.6L120.59 66.79ZM125.59 65.56L123.69 67.94H122.36L125.54 63.94L129.07 67.94H127.68L125.59 65.56ZM122.59 74.28L123.29 71.85H124.38L123.67 74.28H122.59ZM127.21 67.6V68.66H126.15V69.57H128.49V70.57H126.15V75.12H125.15V70.62H122.81V69.62H125.15V68.71H124.15V67.6H127.21ZM127.01 71.85H128.13L128.91 74.27H127.8L127.01 71.85Z" fill="black"/>
<path d="M126.14 75.2599H125.14C125.128 75.2599 125.117 75.2576 125.106 75.2531C125.095 75.2486 125.085 75.2419 125.076 75.2336C125.068 75.2252 125.061 75.2153 125.057 75.2044C125.052 75.1935 125.05 75.1818 125.05 75.1699V70.7099H122.8C122.776 70.7099 122.753 70.7005 122.736 70.6836C122.72 70.6667 122.71 70.6438 122.71 70.6199V69.6199C122.71 69.6081 122.712 69.5964 122.717 69.5855C122.721 69.5746 122.728 69.5647 122.736 69.5563C122.745 69.5479 122.755 69.5413 122.766 69.5368C122.777 69.5323 122.788 69.5299 122.8 69.5299H124.98V68.7999H123.98C123.956 68.7999 123.933 68.7905 123.916 68.7736C123.9 68.7567 123.89 68.7338 123.89 68.7099V67.7099L123.65 68.0099C123.639 68.0146 123.627 68.017 123.615 68.017C123.603 68.017 123.591 68.0146 123.58 68.0099H122.25C122.232 68.0105 122.215 68.0059 122.2 67.9967C122.185 67.9875 122.173 67.974 122.166 67.958C122.158 67.9421 122.156 67.9243 122.158 67.9068C122.161 67.8894 122.168 67.8731 122.18 67.8599L125.36 63.8599C125.371 63.8546 125.383 63.8519 125.395 63.8519C125.407 63.8519 125.419 63.8546 125.43 63.8599C125.441 63.8553 125.453 63.8529 125.465 63.8529C125.477 63.8529 125.489 63.8553 125.5 63.8599L129.03 67.8599C129.042 67.8731 129.049 67.8894 129.052 67.9068C129.055 67.9243 129.052 67.9421 129.045 67.958C129.037 67.974 129.025 67.9875 129.01 67.9967C128.995 68.0059 128.978 68.0105 128.96 68.0099H127.57C127.559 68.0146 127.547 68.017 127.535 68.017C127.523 68.017 127.511 68.0146 127.5 68.0099L127.22 67.6899V68.6899C127.22 68.7018 127.218 68.7135 127.213 68.7244C127.209 68.7353 127.202 68.7452 127.194 68.7536C127.185 68.7619 127.175 68.7686 127.165 68.7731C127.154 68.7776 127.142 68.7799 127.13 68.7799H126.13V69.4999H128.38C128.404 69.4999 128.427 69.5094 128.444 69.5263C128.461 69.5432 128.47 69.5661 128.47 69.5899V70.6399C128.47 70.6638 128.461 70.6867 128.444 70.7036C128.427 70.7205 128.404 70.7299 128.38 70.7299H126.13V75.1899C126.13 75.2018 126.128 75.2135 126.123 75.2244C126.119 75.2353 126.112 75.2452 126.104 75.2536C126.095 75.2619 126.085 75.2686 126.075 75.2731C126.064 75.2776 126.052 75.2799 126.04 75.2799M125.1 75.0999H125.95V70.6199C125.95 70.5961 125.96 70.5732 125.976 70.5563C125.993 70.5394 126.016 70.5299 126.04 70.5299H128.29V69.6599H126.04C126.016 69.6599 125.993 69.6505 125.976 69.6336C125.96 69.6167 125.95 69.5938 125.95 69.5699V68.6599C125.95 68.6361 125.96 68.6132 125.976 68.5963C125.993 68.5794 126.016 68.5699 126.04 68.5699H127.04V67.6899H124.04V68.5699H125.04C125.064 68.5699 125.087 68.5794 125.104 68.5963C125.121 68.6132 125.13 68.6361 125.13 68.6599V69.5699C125.13 69.5938 125.121 69.6167 125.104 69.6336C125.087 69.6505 125.064 69.6599 125.04 69.6599H122.79V70.4999H125.04C125.064 70.4999 125.087 70.5094 125.104 70.5263C125.121 70.5432 125.13 70.5661 125.13 70.5899L125.1 75.0999ZM127.59 67.8699H128.74L125.41 64.0899L122.41 67.8699H123.51L125.48 65.4999C125.503 65.4923 125.527 65.4923 125.55 65.4999C125.561 65.4953 125.573 65.4929 125.585 65.4929C125.597 65.4929 125.609 65.4953 125.62 65.4999L127.59 67.8699ZM124.11 67.4999H127.11L125.52 65.6899L124.11 67.4999ZM118.69 75.1799H117.8C117.788 75.1799 117.777 75.1776 117.766 75.1731C117.755 75.1686 117.745 75.1619 117.736 75.1536C117.728 75.1452 117.721 75.1353 117.717 75.1244C117.712 75.1135 117.71 75.1018 117.71 75.0899V67.3899C117.71 67.3781 117.712 67.3664 117.717 67.3555C117.721 67.3446 117.728 67.3347 117.736 67.3263C117.745 67.3179 117.755 67.3113 117.766 67.3068C117.777 67.3023 117.788 67.2999 117.8 67.2999H121.59C121.614 67.2999 121.637 67.3094 121.654 67.3263C121.671 67.3432 121.68 67.3661 121.68 67.3899V71.0799C121.68 71.1038 121.671 71.1267 121.654 71.1436C121.637 71.1605 121.614 71.1699 121.59 71.1699H118.79V71.7699H121.57C121.594 71.7699 121.617 71.7794 121.634 71.7963C121.651 71.8132 121.66 71.8361 121.66 71.8599V72.7599C121.66 72.7838 121.651 72.8067 121.634 72.8236C121.617 72.8405 121.594 72.8499 121.57 72.8499H118.78V73.4999H121.56C121.584 73.4999 121.607 73.5094 121.624 73.5263C121.641 73.5432 121.65 73.5661 121.65 73.5899V74.4999C121.65 74.5238 121.641 74.5467 121.624 74.5636C121.607 74.5805 121.584 74.5899 121.56 74.5899H118.78V75.1199C118.78 75.1318 118.778 75.1435 118.773 75.1544C118.769 75.1653 118.762 75.1752 118.754 75.1836C118.745 75.1919 118.735 75.1986 118.725 75.2031C118.714 75.2076 118.702 75.2099 118.69 75.2099M117.89 75.0299H118.6V74.4999C118.6 74.4761 118.61 74.4532 118.626 74.4363C118.643 74.4194 118.666 74.4099 118.69 74.4099H121.48V73.6199H118.7C118.7 73.6199 118.61 73.6199 118.61 73.5599V72.7699C118.61 72.7461 118.62 72.7232 118.636 72.7063C118.653 72.6894 118.676 72.6799 118.7 72.6799H121.49V71.9599H118.71C118.698 71.9599 118.687 71.9576 118.676 71.9531C118.665 71.9486 118.655 71.9419 118.646 71.9336C118.638 71.9252 118.631 71.9153 118.627 71.9044C118.622 71.8935 118.62 71.8818 118.62 71.8699V71.0999C118.62 71.0881 118.622 71.0764 118.627 71.0655C118.631 71.0546 118.638 71.0447 118.646 71.0363C118.655 71.0279 118.665 71.0213 118.676 71.0168C118.687 71.0123 118.698 71.0099 118.71 71.0099H121.51V67.4999H117.91L117.89 75.0299ZM128.89 74.3899H127.79C127.772 74.389 127.755 74.3828 127.741 74.3721C127.727 74.3614 127.716 74.3467 127.71 74.3299L126.92 71.8999C126.914 71.8875 126.911 71.8738 126.911 71.8599C126.911 71.8461 126.914 71.8324 126.92 71.8199C126.931 71.8153 126.943 71.8129 126.955 71.8129C126.967 71.8129 126.979 71.8153 126.99 71.8199H128.11C128.128 71.8209 128.145 71.8271 128.159 71.8378C128.173 71.8485 128.184 71.8631 128.19 71.8799L128.97 74.3099C128.976 74.3325 128.974 74.3566 128.962 74.3771C128.951 74.3976 128.932 74.413 128.91 74.4199M127.91 74.2399H128.83L128.11 71.9899H127.18L127.91 74.2399ZM123.71 74.4199H122.58C122.556 74.4199 122.533 74.4105 122.516 74.3936C122.5 74.3767 122.49 74.3538 122.49 74.3299L123.19 71.8999C123.195 71.8797 123.206 71.8616 123.223 71.8489C123.239 71.8361 123.259 71.8294 123.28 71.8299H124.37C124.385 71.8291 124.4 71.8319 124.413 71.8382C124.427 71.8444 124.438 71.8539 124.447 71.8658C124.456 71.8777 124.462 71.8916 124.464 71.9063C124.466 71.9209 124.465 71.9359 124.46 71.9499L123.75 74.3799C123.744 74.3983 123.731 74.4141 123.715 74.425C123.699 74.4358 123.68 74.441 123.66 74.4399M122.66 74.2599H123.55L124.21 72.0099H123.31L122.66 74.2599ZM120.66 70.4699H118.66C118.636 70.4699 118.613 70.4605 118.596 70.4436C118.58 70.4267 118.57 70.4038 118.57 70.3799V69.7099C118.57 69.6861 118.58 69.6632 118.596 69.6463C118.613 69.6294 118.636 69.6199 118.66 69.6199H120.66C120.684 69.6199 120.707 69.6294 120.724 69.6463C120.741 69.6632 120.75 69.6861 120.75 69.7099V70.3799C120.75 70.4038 120.741 70.4267 120.724 70.4436C120.707 70.4605 120.684 70.4699 120.66 70.4699ZM118.74 70.2899H120.57V69.7999H118.78L118.74 70.2899ZM120.66 68.9699H118.66C118.636 68.9699 118.613 68.9605 118.596 68.9436C118.58 68.9267 118.57 68.9038 118.57 68.8799V68.0999C118.57 68.0761 118.58 68.0532 118.596 68.0363C118.613 68.0194 118.636 68.0099 118.66 68.0099H120.66C120.684 68.0099 120.707 68.0194 120.724 68.0363C120.741 68.0532 120.75 68.0761 120.75 68.0999V68.8099C120.75 68.8338 120.741 68.8567 120.724 68.8736C120.707 68.8905 120.684 68.8999 120.66 68.8999M118.74 68.7199H120.57V68.1899H118.78L118.74 68.7199ZM120.55 66.8799H118.98C118.956 66.8799 118.933 66.8705 118.916 66.8536C118.9 66.8367 118.89 66.8138 118.89 66.7899V66.2299L118.58 66.5599C118.561 66.5668 118.539 66.5668 118.52 66.5599H117.13C117.113 66.5598 117.097 66.5551 117.083 66.5463C117.069 66.5374 117.057 66.5249 117.05 66.5099C117.04 66.4951 117.035 66.4777 117.035 66.4599C117.035 66.4421 117.04 66.4247 117.05 66.4099L119.66 63.6899H119.73H119.79L122.58 66.4099C122.59 66.4247 122.595 66.4421 122.595 66.4599C122.595 66.4777 122.59 66.4951 122.58 66.5099C122.574 66.5267 122.563 66.5414 122.549 66.5521C122.535 66.5628 122.518 66.569 122.5 66.5699H121.07H121.01L120.67 66.2299V66.7999C120.67 66.8238 120.661 66.8467 120.644 66.8636C120.627 66.8805 120.604 66.8899 120.58 66.8899M119.05 66.7099H120.49V66.1399H119.05V66.7099ZM121.11 66.4099H122.29L119.72 63.9099L117.32 66.4099H118.46L119.68 65.1299C119.68 65.1299 119.68 65.1299 119.74 65.1299C119.759 65.1222 119.781 65.1222 119.8 65.1299L121.11 66.4099ZM119.11 65.9499H120.36L119.71 65.3199L119.11 65.9499Z" fill="black"/>
<path d="M140.74 66.6299H138.8L136.16 71.3599L140.49 74.6899H138.63L135.44 72.2099L132.44 74.6899H130.67L134.67 71.3899L131.84 66.6399H130.08V65.4999H134.86V64.0699H135.98V65.4999H140.76L140.74 66.6299ZM135.39 70.4199L137.53 66.6299H133.12L135.39 70.4199Z" fill="black"/>
<path d="M140.49 74.77H138.63H138.57L135.44 72.33L132.44 74.77H132.38H130.61C130.592 74.769 130.575 74.7628 130.561 74.7521C130.547 74.7414 130.536 74.7268 130.53 74.71C130.52 74.6952 130.515 74.6778 130.515 74.66C130.515 74.6422 130.52 74.6248 130.53 74.61L134.53 71.36L131.76 66.72H130.05C130.026 66.72 130.003 66.7105 129.986 66.6936C129.97 66.6767 129.96 66.6538 129.96 66.63V65.5C129.96 65.4761 129.97 65.4532 129.986 65.4363C130.003 65.4195 130.026 65.41 130.05 65.41H134.74V64.07C134.74 64.0461 134.75 64.0232 134.766 64.0063C134.783 63.9895 134.806 63.98 134.83 63.98H135.98C136.004 63.98 136.027 63.9895 136.044 64.0063C136.061 64.0232 136.07 64.0461 136.07 64.07V65.4H140.76C140.784 65.4 140.807 65.4095 140.824 65.4263C140.841 65.4432 140.85 65.4661 140.85 65.49V66.62C140.85 66.6439 140.841 66.6667 140.824 66.6836C140.807 66.7005 140.784 66.71 140.76 66.71H138.87L136.3 71.32L140.56 74.6C140.574 74.6113 140.585 74.6266 140.59 74.6439C140.595 74.6613 140.595 74.6798 140.59 74.697C140.584 74.7143 140.574 74.7296 140.56 74.7408C140.545 74.752 140.528 74.7587 140.51 74.76M138.68 74.58H140.24L136.12 71.41C136.108 71.3942 136.101 71.3749 136.101 71.355C136.101 71.3351 136.108 71.3157 136.12 71.3L138.76 66.58C138.773 66.5738 138.786 66.5706 138.8 66.5706C138.814 66.5706 138.828 66.5738 138.84 66.58H140.69V65.58H135.98C135.968 65.58 135.957 65.5777 135.946 65.5731C135.935 65.5686 135.925 65.562 135.916 65.5536C135.908 65.5453 135.901 65.5353 135.897 65.5244C135.892 65.5135 135.89 65.5018 135.89 65.49V64.16H134.98V65.5C134.98 65.5239 134.971 65.5467 134.954 65.5636C134.937 65.5805 134.914 65.59 134.89 65.59H130.2V66.59H131.87C131.883 66.5838 131.896 66.5806 131.91 66.5806C131.924 66.5806 131.938 66.5838 131.95 66.59L134.78 71.34C134.795 71.3565 134.803 71.3778 134.803 71.4C134.803 71.4221 134.795 71.4435 134.78 71.46L130.95 74.61H132.44L135.44 72.15C135.456 72.1378 135.475 72.1312 135.495 72.1312C135.515 72.1312 135.534 72.1378 135.55 72.15L138.68 74.58ZM135.4 70.5C135.388 70.5061 135.374 70.5094 135.36 70.5094C135.346 70.5094 135.333 70.5061 135.32 70.5L133.05 66.71C133.042 66.6963 133.038 66.6808 133.038 66.665C133.038 66.6492 133.042 66.6337 133.05 66.62C133.063 66.6138 133.076 66.6106 133.09 66.6106C133.104 66.6106 133.118 66.6138 133.13 66.62H137.54C137.553 66.6138 137.566 66.6106 137.58 66.6106C137.594 66.6106 137.608 66.6138 137.62 66.62C137.628 66.6337 137.632 66.6492 137.632 66.665C137.632 66.6808 137.628 66.6963 137.62 66.71L135.48 70.5C135.468 70.507 135.454 70.5107 135.44 70.5107C135.426 70.5107 135.412 70.507 135.4 70.5ZM133.29 66.71L135.4 70.23L137.4 66.71H133.29Z" fill="black"/>
<path d="M144.51 64.82H145.83L144.83 66.54V74.83H143.7V68.5L142.89 69.86H141.59L144.51 64.82ZM148.15 73.5H152.82V74.62H147.04V64.75H148.16V68.96L150.49 67.06H152.26L148.17 70.41L148.15 73.5Z" fill="black"/>
<path d="M144.81 74.92H143.68C143.668 74.92 143.657 74.9177 143.646 74.9132C143.635 74.9087 143.625 74.902 143.616 74.8937C143.608 74.8853 143.601 74.8754 143.597 74.8645C143.592 74.8536 143.59 74.8419 143.59 74.83V68.83L142.98 69.88C142.968 69.8862 142.954 69.8894 142.94 69.8894C142.926 69.8894 142.913 69.8862 142.9 69.88H141.6C141.588 69.8862 141.574 69.8894 141.56 69.8894C141.546 69.8894 141.533 69.8862 141.52 69.88C141.512 69.8663 141.508 69.8508 141.508 69.835C141.508 69.8192 141.512 69.8037 141.52 69.79L144.47 64.79C144.483 64.7839 144.496 64.7807 144.51 64.7807C144.524 64.7807 144.538 64.7839 144.55 64.79H145.87C145.887 64.789 145.904 64.7928 145.918 64.8007C145.933 64.8087 145.945 64.8207 145.954 64.8352C145.962 64.8498 145.966 64.8664 145.965 64.8831C145.965 64.8999 145.959 64.9161 145.95 64.93L144.95 66.62V74.89C144.95 74.9139 144.941 74.9368 144.924 74.9537C144.907 74.9705 144.884 74.98 144.86 74.98M143.86 74.8H144.86V66.5L145.8 64.92H144.69L141.85 69.75H142.95L143.73 68.43C143.744 68.4187 143.762 68.4125 143.78 68.4125C143.798 68.4125 143.816 68.4187 143.83 68.43C143.85 68.4346 143.868 68.4461 143.881 68.4625C143.894 68.4789 143.901 68.4993 143.9 68.52L143.86 74.8ZM152.92 74.8H147.14C147.116 74.8 147.093 74.7905 147.076 74.7737C147.06 74.7568 147.05 74.7339 147.05 74.71V64.75C147.05 64.7262 147.06 64.7033 147.076 64.6864C147.093 64.6695 147.116 64.66 147.14 64.66H148.26C148.284 64.66 148.307 64.6695 148.324 64.6864C148.341 64.7033 148.35 64.7262 148.35 64.75V68.75L150.53 66.97H150.59H152.36C152.379 66.9693 152.398 66.9745 152.413 66.985C152.429 66.9955 152.441 67.0106 152.448 67.0284C152.455 67.0461 152.455 67.0654 152.45 67.0837C152.445 67.1019 152.435 67.1182 152.42 67.13L148.24 70.5V73.5H152.82C152.844 73.5 152.867 73.5095 152.884 73.5264C152.901 73.5433 152.91 73.5662 152.91 73.59V74.71C152.91 74.7339 152.901 74.7568 152.884 74.7737C152.867 74.7905 152.844 74.8 152.82 74.8M147.12 74.5H152.72V73.56H148.14C148.128 73.56 148.117 73.5577 148.106 73.5532C148.095 73.5487 148.085 73.542 148.076 73.5337C148.068 73.5253 148.061 73.5154 148.057 73.5045C148.052 73.4936 148.05 73.4819 148.05 73.47V70.37C148.045 70.359 148.043 70.3471 148.043 70.335C148.043 70.323 148.045 70.3111 148.05 70.3L151.95 67.11H150.46L148.16 68.99C148.145 68.9999 148.128 69.0052 148.11 69.0052C148.092 69.0052 148.075 68.9999 148.06 68.99C148.045 68.9826 148.033 68.9712 148.024 68.9571C148.015 68.943 148.01 68.9267 148.01 68.91V64.84H147.07L147.12 74.5Z" fill="black"/>
<path d="M31.5901 19.58C31.5901 19.33 31.5901 19.3 31.3301 19.12C30.4817 18.1008 29.5072 17.1935 28.4301 16.42C28.3092 16.31 28.1748 16.2159 28.0301 16.14C27.8889 16.0333 27.7219 15.966 27.5463 15.9449C27.3706 15.9238 27.1924 15.9497 27.0301 16.02C26.8413 16.076 26.6466 16.1095 26.4501 16.12C26.1841 16.1467 25.916 16.1467 25.6501 16.12C25.4201 16.12 21.0001 15.8 20.6501 15.76C20.3959 15.7528 20.1438 15.7125 19.9001 15.64C19.7101 15.57 19.7101 15.58 19.7401 15.39L19.5601 15.24C19.6594 15.16 19.7529 15.0731 19.8401 14.98C19.9101 14.9 21.0101 13.62 21.3501 13.33L21.4301 13.27C21.4584 13.2618 21.4831 13.2441 21.5001 13.22C21.7721 13.0493 21.9959 12.8117 22.1501 12.53C22.3345 12.1578 22.3771 11.7313 22.2701 11.33C22.0041 10.9546 21.6637 10.6381 21.2701 10.4C21.1601 10.31 21.0201 10.26 20.9201 10.17C20.599 9.99974 20.2645 9.85593 19.9201 9.74C19.8589 9.69343 19.8143 9.6285 19.7927 9.55472C19.7711 9.48095 19.7737 9.4022 19.8001 9.33C19.9701 9.11 20.4201 8.54 20.5901 8.33C20.7601 8.12 20.5901 7.62 20.3801 7.33C20.1701 7.04 19.3801 7.07 19.3201 7.07C19.2829 7.06827 19.2459 7.07451 19.2114 7.08831C19.1769 7.10211 19.1457 7.12315 19.1201 7.15C19.1201 7.15 19.0101 7.15 18.9501 7.15C18.7604 7.13288 18.5697 7.13288 18.3801 7.15C18.1298 7.206 17.8703 7.206 17.6201 7.15C17.5073 7.11553 17.4067 7.04962 17.3301 6.96C17.3301 6.96 17.3301 6.82 17.3301 6.74C17.3311 6.68238 17.3499 6.62648 17.3839 6.57995C17.4179 6.53342 17.4655 6.49852 17.5201 6.48C17.5632 6.45636 17.5954 6.41693 17.6101 6.37V6.32C18.3301 6.18 19.8801 6.02 19.8801 6.02C19.9286 6.03676 19.9815 6.03676 20.0301 6.02C20.1742 5.95861 20.3145 5.88848 20.4501 5.81C20.7178 5.64209 21.0119 5.5204 21.3201 5.45C21.3774 5.44313 21.4323 5.42255 21.4801 5.39C21.5265 5.3519 21.5583 5.29889 21.5701 5.24C21.5701 5.24 21.5001 5.17 21.4501 5.14H21.3901C21.2001 5.02 20.7601 4.24 20.5401 4.02L20.3801 3.87C20.2643 3.69001 20.1302 3.52246 19.9801 3.37C19.8787 3.30735 19.7669 3.26332 19.6501 3.24C19.4517 3.17647 19.2384 3.17647 19.0401 3.24H18.9901C18.7412 3.24747 18.4935 3.27759 18.2501 3.33H18.1201L17.7901 3.39C17.7577 3.37856 17.7224 3.37856 17.6901 3.39H17.6401C17.5701 3.39 17.5101 3.32 17.4601 3.29C17.2653 3.02059 17.1041 2.72843 16.9801 2.42C16.8901 2.21 16.9001 2.07 16.7301 1.71C16.6399 1.48322 16.5223 1.2683 16.3801 1.07L16.2301 0.84C16.1101 0.61 15.9801 0.5 15.8701 0.5C15.7827 0.549349 15.7075 0.617698 15.6501 0.7C15.0544 1.6805 14.5682 2.72341 14.2001 3.81C14.0971 3.8808 13.9818 3.93168 13.8601 3.96L13.5901 4.04L12.9601 4.22C12.8791 4.22575 12.8005 4.24968 12.7301 4.29C12.0446 4.48261 11.3758 4.73008 10.7301 5.03C10.6467 5.05554 10.5687 5.09621 10.5001 5.15C10.1823 5.29333 9.91932 5.53531 9.75005 5.84C9.72019 5.92066 9.72019 6.00934 9.75005 6.09C9.85005 7.09 10.5701 6.97 10.5701 6.97L10.9201 7.2L11.1601 7.37C11.2265 7.42935 11.3049 7.47369 11.3901 7.5C11.7901 7.76 12.1201 7.5 12.6701 7.32H12.8401H12.9001C13.1816 7.27495 13.4685 7.27495 13.7501 7.32C13.7758 7.34565 13.794 7.37783 13.8028 7.41306C13.8116 7.4483 13.8107 7.48527 13.8001 7.52C13.7798 7.70583 13.7326 7.88773 13.6601 8.06C13.6322 8.13855 13.5748 8.20312 13.5001 8.24L12.9301 8.53H12.7701C12.6101 8.53 12.4401 8.53 12.2801 8.62C11.9414 8.70542 11.6076 8.8089 11.2801 8.93C11.0801 9.01 10.8301 9.01 10.6601 9.18C10.4901 9.35 10.6001 9.18 10.5701 9.18C10.5063 9.20516 10.4489 9.24426 10.4022 9.29444C10.3555 9.34461 10.3206 9.4046 10.3001 9.47C10.3001 9.66 10.2101 9.73 10.0101 9.7C9.81005 9.67 9.81005 9.76 9.76005 9.84C9.71533 9.92098 9.67526 10.0045 9.64005 10.09C9.8071 10.2402 10.0168 10.3346 10.2401 10.36C10.3358 10.3665 10.4301 10.3867 10.5201 10.42L11.5201 10.78C11.7801 10.87 11.8901 11.04 11.8401 11.27C11.7001 11.35 11.5101 11.39 11.4201 11.51C11.3829 11.5681 11.3256 11.6104 11.2592 11.6288C11.1927 11.6473 11.1218 11.6406 11.0601 11.61C11.0601 11.66 11.0001 11.72 10.9601 11.74C10.5677 11.8593 10.2197 12.0925 9.96005 12.41C9.96005 12.41 9.91005 12.41 9.88005 12.47C9.85005 12.53 9.73005 12.58 9.71005 12.66C9.64984 12.8191 9.55002 12.9602 9.42005 13.07C9.26005 13.23 9.20005 13.5 9.35005 13.62C9.54314 13.8278 9.76548 14.0063 10.0101 14.15C10.1468 14.2361 10.2685 14.3443 10.3701 14.47C10.4055 14.5117 10.4389 14.5551 10.4701 14.6C10.5849 14.7096 10.6887 14.8302 10.7801 14.96C10.8501 15.09 10.9901 15.17 11.0401 15.32C11.0901 15.47 11.4201 15.8 11.3601 16.12C11.3601 16.12 11.3601 16.18 11.3601 16.21C11.0401 16.21 10.7401 16.28 10.4401 16.34L8.26005 16.75C7.93005 16.82 5.44005 17.28 5.33005 17.38C5.19344 17.3823 5.05815 17.3528 4.93492 17.2938C4.81168 17.2348 4.70388 17.1479 4.62005 17.04C4.54586 16.948 4.46205 16.8642 4.37005 16.79C4.24457 16.7235 4.11419 16.6667 3.98005 16.62C3.87317 16.5637 3.75863 16.5232 3.64005 16.5C3.22337 16.4166 2.81251 16.3064 2.41005 16.17C2.35005 16.17 2.30005 16.11 2.26005 16.12C2.22005 16.13 2.08005 16.12 2.06005 16.21C1.97005 16.43 1.77005 16.54 1.63005 16.71C1.51729 16.8363 1.45655 17.0007 1.46005 17.17C1.46005 17.43 1.52005 18.27 1.46005 18.36C1.40005 18.45 1.46005 19.36 1.40005 19.52C1.35691 19.7848 1.27255 20.0413 1.15005 20.28C0.952356 20.6206 0.710232 20.9333 0.430054 21.21L0.0900537 21.58C0.0305702 21.6627 -0.0229004 21.7496 -0.0699463 21.84C0.0370921 21.9972 0.153993 22.1475 0.280054 22.29C0.669356 22.6265 1.08023 22.9371 1.51005 23.22C1.67746 23.291 1.85171 23.3446 2.03005 23.38C2.21306 23.4071 2.39999 23.3828 2.57005 23.31C2.85668 23.1735 3.12537 23.0022 3.37005 22.8C3.66005 22.57 3.85005 21 3.84005 20.93C3.83005 20.86 3.84005 20.8 3.78005 20.74C4.165 20.4402 4.58066 20.1821 5.02005 19.97C5.27915 19.8767 5.54282 19.7966 5.81005 19.73C6.17005 19.62 6.53005 19.51 6.90005 19.42C7.27005 19.33 7.75005 19.26 8.17005 19.16L10.3401 18.65C10.6701 18.57 12.0401 18.28 12.4101 18.21L13.0301 18.1L13.5301 18.02C13.9041 17.9249 14.2854 17.8613 14.6701 17.83C15.0047 17.8313 15.3389 17.8079 15.6701 17.76C15.7701 17.76 15.8901 17.76 15.9801 17.7C16.0701 17.64 16.1801 17.78 16.3001 17.7C16.4265 17.6888 16.5536 17.6888 16.6801 17.7C16.7356 17.687 16.7941 17.6952 16.844 17.7229C16.8939 17.7507 16.9317 17.7959 16.9501 17.85C16.8801 17.91 16.8101 17.94 16.7901 18C16.7666 18.0504 16.7319 18.0946 16.6885 18.1293C16.6451 18.164 16.5943 18.1882 16.5401 18.2C16.5401 18.2 16.4201 18.2 16.4201 18.26C16.4201 18.32 16.3301 18.35 16.2601 18.38L15.6701 18.58C15.3479 18.705 15.0123 18.7923 14.6701 18.84C14.4101 18.84 14.1501 18.92 13.8901 18.94C13.4601 18.94 13.0201 19.01 12.5901 19.02C12.3066 19.0193 12.0327 19.1225 11.8201 19.31L11.1301 19.97C11.0503 20.0382 10.9885 20.1249 10.9501 20.2225C10.9118 20.3202 10.898 20.4258 10.9101 20.53L11.2401 20.75C11.2631 20.7598 11.2839 20.7741 11.3014 20.7919C11.3189 20.8098 11.3327 20.831 11.342 20.8542C11.3513 20.8775 11.3559 20.9023 11.3556 20.9273C11.3552 20.9523 11.35 20.977 11.3401 21L11.2801 21.16C11.2698 21.1954 11.2488 21.2269 11.2201 21.25C10.9001 21.44 10.5801 21.62 10.2201 21.81C9.86005 22 9.74005 22.15 9.50005 22.32C9.50005 22.32 9.50005 22.32 9.44005 22.32C9.38005 22.32 9.30005 22.62 9.24005 22.78C9.18865 22.9597 9.18865 23.1503 9.24005 23.33C9.38779 23.8037 9.64077 24.2379 9.98005 24.6C10.0716 24.6446 10.1694 24.6749 10.2701 24.69H10.6201C10.8781 24.7577 11.1433 24.7946 11.4101 24.8C11.7744 24.7895 12.1366 24.7392 12.4901 24.65C12.6145 24.5865 12.7452 24.5362 12.8801 24.5C13.1946 24.4549 13.5123 24.4348 13.8301 24.44C14.0101 24.44 14.1401 24.66 14.0501 24.78C13.9508 24.9219 13.8164 25.0356 13.6601 25.11C13.5301 25.18 12.7501 25.42 12.5001 25.5C12.2501 25.58 11.8201 25.63 11.7401 25.64C11.3058 25.7267 10.8621 25.757 10.4201 25.73C10.1471 25.7086 9.87297 25.7086 9.60005 25.73C9.35005 25.73 9.28005 25.92 9.34005 26.12C9.46994 26.3699 9.56739 26.6354 9.63005 26.91C9.63005 26.91 9.63005 26.96 9.69005 26.99L9.84005 27.19C9.99129 27.3295 10.1048 27.5049 10.1701 27.7C10.1701 27.7 10.1701 27.7 10.2201 27.76C10.42 27.9629 10.6672 28.113 10.9395 28.1968C11.2118 28.2806 11.5006 28.2954 11.7801 28.24L12.0501 28.17L13.2601 27.88C13.448 27.8359 13.6383 27.8025 13.8301 27.78C14.0101 27.78 14.0601 27.78 14.0801 27.98C14.0915 28.0661 14.0685 28.1533 14.0161 28.2225C13.9636 28.2918 13.886 28.3376 13.8001 28.35L13.4501 28.42L11.9801 28.64C11.8507 28.6582 11.7194 28.6582 11.5901 28.64C11.4108 28.6173 11.2293 28.6173 11.0501 28.64C10.9692 28.6374 10.8893 28.6583 10.8201 28.7C10.6861 28.8164 10.5653 28.9471 10.4601 29.09C10.2801 29.34 10.1401 29.6 9.96005 29.85C9.91167 29.9073 9.88039 29.9771 9.86978 30.0514C9.85917 30.1257 9.86966 30.2014 9.90005 30.27L10.0401 30.64C10.1693 30.8688 10.3309 31.0776 10.5201 31.26C10.579 31.3494 10.6572 31.4245 10.7489 31.4799C10.8406 31.5352 10.9435 31.5694 11.0501 31.58L11.4301 31.64C11.6882 31.7142 11.9619 31.7142 12.2201 31.64C12.2801 31.64 12.3501 31.64 12.4201 31.64C12.7001 31.57 13.0001 31.78 13.2701 31.64L14.7501 31.5L16.5901 31.36C16.8101 31.36 17.0201 31.28 17.2401 31.26L18.2401 31.19C18.4422 31.1914 18.6437 31.1679 18.8401 31.12C19.4223 31.0321 20.0119 31.002 20.6001 31.03C20.8032 31.0192 21.0069 31.0192 21.2101 31.03C21.4298 31.0445 21.6503 31.0445 21.8701 31.03H22.7001C22.7909 31.0263 22.8797 31.0024 22.9601 30.96C23.1196 30.7067 23.2473 30.4346 23.3401 30.15C23.336 30.0967 23.336 30.0433 23.3401 29.99C23.3496 29.9535 23.3666 29.9195 23.3901 29.89C23.4219 29.8428 23.4441 29.7898 23.4553 29.734C23.4665 29.6782 23.4666 29.6207 23.4554 29.5649C23.4443 29.5091 23.4221 29.4561 23.3903 29.4089C23.3585 29.3617 23.3176 29.3213 23.2701 29.29C23.134 29.2237 23.0118 29.1321 22.9101 29.02C22.6301 28.76 22.3201 28.53 22.0401 28.28C21.9809 28.2235 21.9095 28.1815 21.8315 28.1572C21.7534 28.1329 21.6708 28.127 21.5901 28.14C21.5077 28.1582 21.4224 28.1582 21.3401 28.14C21.1901 28.09 21.1601 27.88 20.9001 27.95C20.6455 28.114 20.3379 28.1748 20.0401 28.12C19.7701 28.12 18.6401 28.12 18.4001 28.12H18.3301C18.1069 27.9618 17.9335 27.7432 17.8301 27.49C17.8301 27.4 17.8301 27.34 17.9201 27.31C18.0638 27.2734 18.2118 27.2566 18.3601 27.26C18.7201 27.26 19.0801 27.26 19.4401 27.26C19.9266 27.2874 20.4146 27.247 20.8901 27.14C21.1939 27.0556 21.5055 27.002 21.8201 26.98C21.9004 26.9766 21.9785 26.9527 22.0469 26.9106C22.1154 26.8684 22.1719 26.8094 22.211 26.7392C22.2501 26.6689 22.2706 26.5898 22.2704 26.5095C22.2702 26.4291 22.2495 26.3501 22.2101 26.28C22.167 26.1999 22.143 26.1109 22.1401 26.02C22.1394 25.9566 22.1247 25.8941 22.097 25.8371C22.0693 25.78 22.0294 25.7298 21.9801 25.69C21.7401 25.51 21.5901 25.23 21.3201 25.07C21.2736 25.032 21.236 24.9842 21.2101 24.93C21.1429 24.8201 21.0351 24.741 20.9101 24.71C20.7139 24.6716 20.5202 24.6215 20.3301 24.56C20.033 24.4653 19.718 24.4413 19.4101 24.49C19.3138 24.4781 19.2164 24.4781 19.1201 24.49C18.8901 24.57 18.6801 24.67 18.4501 24.74C18.3429 24.7751 18.2272 24.7751 18.1201 24.74C17.9834 24.6929 17.8606 24.6124 17.7628 24.5059C17.6651 24.3994 17.5954 24.2702 17.5601 24.13C17.6457 24.0432 17.7434 23.9691 17.8501 23.91C17.9805 23.874 18.1148 23.8538 18.2501 23.85L18.7301 23.79H18.8701L19.1701 23.64C19.2064 23.5729 19.2365 23.5026 19.2601 23.43C19.2601 23.43 19.2601 23.35 19.2101 23.32C19.1601 23.29 19.1301 23.32 19.1201 23.32C19.1101 23.32 18.9601 23.04 18.9601 22.86C18.9601 22.68 19.0101 22.51 18.9001 22.34C18.7901 22.17 18.9001 22.26 18.9001 22.22C18.9001 22.18 18.9001 22.02 18.9001 21.89H19.4701C19.6701 21.89 19.7401 21.89 19.8001 22.07C19.8446 22.1943 19.8813 22.3212 19.9101 22.45C19.9495 22.6776 20.0596 22.887 20.2247 23.0486C20.3898 23.2101 20.6016 23.3156 20.8301 23.35C21.0358 23.3812 21.2395 23.4246 21.4401 23.48C21.7677 23.5674 22.1124 23.5674 22.4401 23.48C22.8201 23.4 22.8501 23.4 22.7101 22.96C22.6909 22.9084 22.6909 22.8516 22.7101 22.8C22.7901 22.64 22.8901 22.49 22.9801 22.33C22.9902 22.174 22.9401 22.0201 22.8401 21.9C22.7767 21.843 22.7197 21.7793 22.6701 21.71L22.1601 21.1C22.0801 21.01 22.0001 20.92 21.9201 20.82C21.8255 20.6867 21.7184 20.5628 21.6001 20.45C21.4453 20.3023 21.2435 20.2137 21.0301 20.2L20.4701 20.12C20.3501 20.12 20.1101 19.83 20.1401 19.72C20.1701 19.61 20.1401 19.34 20.3301 19.22C20.3673 19.1939 20.3944 19.1559 20.4072 19.1123C20.4199 19.0687 20.4174 19.022 20.4001 18.98C20.4001 18.98 20.4001 18.87 20.4001 18.84C20.1901 18.64 20.0901 18.36 19.8501 18.21C19.7124 18.1157 19.6048 17.9838 19.5401 17.83C19.5837 17.7661 19.6441 17.7154 19.7147 17.6836C19.7853 17.6519 19.8633 17.6402 19.9401 17.65C20.5301 17.65 21.1201 17.76 21.7201 17.73C22.1617 17.7257 22.6031 17.7558 23.0401 17.82L25.5101 18.1C25.7101 18.1 25.9101 18.18 26.1101 18.23C26.1101 18.48 25.8301 18.42 25.7201 18.57C25.7456 18.6225 25.7757 18.6727 25.8101 18.72C26.0427 18.9785 26.3006 19.213 26.5801 19.42C26.9658 19.728 27.33 20.0621 27.6701 20.42C27.9452 20.7064 28.2541 20.9582 28.5901 21.17C28.7562 21.2827 28.9432 21.3609 29.1401 21.4C29.7613 21.4965 30.3968 21.3765 30.9401 21.06C31.0813 20.993 31.2072 20.8977 31.3101 20.78C31.3701 20.69 31.5801 20.5 31.5801 20.41C31.5801 20.32 31.7101 20.25 31.6901 20.12C31.6701 19.99 31.6901 19.75 31.6901 19.71M14.0601 15.92C13.9499 15.9347 13.8378 15.9263 13.7311 15.8953C13.6243 15.8643 13.5252 15.8114 13.4401 15.74C13.3729 15.6813 13.322 15.6063 13.2923 15.5222C13.2625 15.4382 13.2549 15.3479 13.2701 15.26H13.5301C13.6613 15.2759 13.7881 15.3177 13.9031 15.3829C14.0181 15.4481 14.119 15.5355 14.2001 15.64C14.3001 15.75 14.2001 15.89 14.0601 15.91M16.2801 13.5C16.2645 13.5194 16.2447 13.5349 16.2221 13.5454C16.1996 13.5558 16.1749 13.5608 16.1501 13.56C15.9743 13.5615 15.8008 13.599 15.6401 13.67C15.4254 13.764 15.1944 13.815 14.9601 13.82C14.7661 13.8374 14.5767 13.8881 14.4001 13.97C14.1901 13.92 14.0601 14.1 13.8601 14.1C13.8601 14.1 13.8601 14.1 13.7901 14.16C13.7201 14.22 13.7901 14.22 13.7301 14.22C13.6701 14.22 13.5101 14.37 13.3901 14.43C13.2676 14.4883 13.1281 14.5002 12.9975 14.4634C12.8669 14.4266 12.7541 14.3437 12.6801 14.23C12.438 13.8743 12.2619 13.478 12.1601 13.06C12.1601 12.94 11.9801 12.86 12.0301 12.71C12.0801 12.56 11.9801 12.5 11.9801 12.5L12.3601 12.39C12.4675 12.4349 12.5712 12.4884 12.6701 12.55C12.8301 12.67 12.9801 12.81 13.1501 12.93C13.3201 13.05 13.5801 13.21 13.8101 13.33C13.8918 13.3531 13.9783 13.3531 14.0601 13.33C14.6489 13.2733 15.2313 13.1629 15.8001 13H15.9701C16.2801 12.93 16.2201 12.9 16.4501 13.2C16.4053 13.296 16.3552 13.3895 16.3001 13.48M16.9201 10.34L16.0601 10.45C15.9239 10.48 15.7902 10.5201 15.6601 10.57C15.5621 10.6183 15.4577 10.652 15.3501 10.67C15.0333 10.7103 14.7193 10.7704 14.4101 10.85C14.2098 10.9015 14.0128 10.9649 13.8201 11.04C13.6501 11.04 13.4701 11.14 13.3001 11.17C13.2219 11.1768 13.1439 11.1555 13.0801 11.11C12.9901 11.05 12.9101 10.9 12.8301 10.9C12.7501 10.9 12.6901 10.74 12.5801 10.67C12.66 10.6359 12.744 10.6124 12.8301 10.6C13.1391 10.5647 13.4419 10.4874 13.7301 10.37C13.9101 10.37 14.0801 10.23 14.2601 10.17C14.4498 10.0937 14.6478 10.04 14.8501 10.01L15.2001 9.95C15.7045 9.80672 16.2194 9.70308 16.7401 9.64C17.0401 9.64 17.3401 9.55 17.6401 9.49H17.7301C17.7754 9.45641 17.8274 9.43281 17.8826 9.42074C17.9377 9.40868 17.9948 9.40842 18.0501 9.42C18.3093 9.44849 18.5708 9.44849 18.8301 9.42C18.9904 9.37339 19.1627 9.39134 19.3101 9.47C19.2779 9.51901 19.2542 9.5731 19.2401 9.63C19.2401 9.73 19.1701 9.77 19.1001 9.8L18.5801 10.04L18.3401 10.11C17.8748 10.2541 17.3954 10.348 16.9101 10.39M19.0501 21.39C18.9001 21.51 18.7101 21.6 18.5601 21.72C18.5185 21.7569 18.4678 21.7819 18.4133 21.7924C18.3587 21.803 18.3024 21.7987 18.2501 21.78C18.1501 21.78 18.0601 21.7 17.9601 21.67C17.8601 21.64 17.6901 21.56 17.5401 21.67C17.3901 21.78 17.3101 21.67 17.2001 21.67L16.2001 21.82C16.0517 21.8086 15.9046 21.7852 15.7601 21.75C15.6401 21.75 15.5501 21.75 15.5401 21.6C15.5301 21.45 15.6701 21.34 15.7801 21.38C15.8407 21.3977 15.9046 21.4015 15.9669 21.3911C16.0292 21.3808 16.0884 21.3564 16.1401 21.32L16.5901 21.2C16.761 21.1737 16.9265 21.1196 17.0801 21.04C17.3662 20.9548 17.6566 20.8847 17.9501 20.83C18.2601 20.72 18.5801 20.65 18.8901 20.55C18.967 20.5089 19.0528 20.4873 19.1401 20.4873C19.2273 20.4873 19.3131 20.5089 19.3901 20.55C19.403 20.7058 19.3768 20.8624 19.314 21.0056C19.2511 21.1488 19.1535 21.274 19.0301 21.37" fill="black"/>
<path d="M28.44 61.9901C28.2332 61.5868 27.9593 61.2216 27.63 60.9101C27.0165 60.3972 26.3453 59.9576 25.63 59.6001C25.42 59.5201 25.31 59.3601 25.1 59.3501C24.4442 59.1695 23.7756 59.0391 23.1 58.9601H22.57C22.2541 58.9557 21.9453 59.054 21.69 59.2401C21.62 59.3001 20.29 59.3901 19.48 59.5201C18.67 59.6501 16.87 59.9601 16.63 59.9201C16.5792 59.9182 16.5294 59.9053 16.4841 59.8822C16.4388 59.8592 16.3991 59.8265 16.3677 59.7865C16.3363 59.7466 16.314 59.7002 16.3023 59.6508C16.2906 59.6013 16.2898 59.5499 16.3 59.5001C16.322 59.412 16.3487 59.3252 16.38 59.2401C16.49 58.9201 16.63 58.6101 16.71 58.2401C16.7527 58.0539 16.8568 57.8876 17.0056 57.7679C17.1543 57.6481 17.3391 57.582 17.53 57.5801L18.83 57.3901C19.3858 57.346 19.9442 57.346 20.5 57.3901C20.9249 57.4716 21.358 57.5018 21.79 57.4801C22.0998 57.464 22.4102 57.464 22.72 57.4801C23.2065 57.5348 23.6986 57.4516 24.14 57.2401C24.3552 57.1294 24.5457 56.9764 24.7 56.7901C24.7534 56.7195 24.787 56.636 24.7976 56.5482C24.8081 56.4603 24.7951 56.3713 24.76 56.2901C24.7 56.1001 24.65 55.9001 24.59 55.7101C24.5044 55.4323 24.3651 55.1741 24.18 54.9501C24.0338 54.7614 23.8697 54.5872 23.69 54.4301C23.4643 54.2072 23.1855 54.0455 22.88 53.9601C22.3563 53.8685 21.8386 53.745 21.33 53.5901C21.0334 53.4788 20.7066 53.4788 20.41 53.5901C20.3015 53.6477 20.1877 53.6946 20.07 53.7301C19.8286 53.7546 19.5994 53.8484 19.41 54.0001C18.8029 54.3049 18.1618 54.5366 17.5 54.6901C17.21 54.6901 17.02 54.8801 17.13 54.2201C17.13 54.2201 17.13 54.0901 17.13 54.0501C17.62 52.2401 18.23 52.6901 18.45 51.9701C18.5 51.8101 18.27 51.4201 18.16 51.3101C17.6568 50.747 17.0532 50.2824 16.38 49.9401C15.7124 49.6531 15.0147 49.4418 14.3 49.3101L13.98 49.3301C13.878 49.3138 13.7735 49.3247 13.677 49.3616C13.5804 49.3984 13.4953 49.46 13.43 49.5401C13.3008 49.6689 13.205 49.8273 13.151 50.0016C13.097 50.1759 13.0863 50.3607 13.12 50.5401C13.17 50.8701 13.26 51.2001 13.34 51.5401C13.4115 51.8889 13.5328 52.2257 13.7 52.5401C13.8687 53.1312 13.9397 53.746 13.91 54.3601C13.91 54.5301 13.91 54.7101 13.91 54.8901C13.9191 54.9898 13.9191 55.0903 13.91 55.1901C13.8945 55.2722 13.8564 55.3484 13.8 55.4101C13.65 55.5701 13.43 55.5601 13.22 55.5901C12.72 55.6601 12.22 55.7101 11.73 55.8101C11.39 55.8801 9.46002 56.1001 9.36002 56.1001L8.36002 56.1601C8.22392 56.1776 8.08612 56.1776 7.95002 56.1601C7.35889 56.0877 6.76115 56.0877 6.17002 56.1601C5.94153 56.1723 5.71386 56.124 5.51002 56.0201C5.38632 55.9597 5.25518 55.916 5.12002 55.8901C4.87002 55.8401 4.69002 55.8901 4.69002 56.2601C4.69002 56.2601 4.69002 56.3201 4.69002 56.3501C4.7406 56.6677 4.87139 56.9671 5.07002 57.2201C5.35899 57.6098 5.69485 57.9624 6.07002 58.2701C6.12469 58.3301 6.18888 58.3808 6.26002 58.4201C6.49002 58.5201 6.63002 58.7301 6.83002 58.8601C6.9611 58.952 7.10196 59.0291 7.25002 59.0901C7.43002 59.1601 7.63002 59.2001 7.81002 59.2501C8.07731 59.3313 8.36272 59.3313 8.63002 59.2501C8.99002 59.1401 10.31 58.8001 10.42 58.7701C10.79 58.6701 11.16 58.6001 11.52 58.4901C11.88 58.3801 13.28 58.0901 13.47 58.0401C13.5167 58.0205 13.5674 58.0126 13.6179 58.0171C13.6683 58.0217 13.7168 58.0385 13.7592 58.0661C13.8016 58.0937 13.8367 58.1313 13.8612 58.1756C13.8857 58.2198 13.8991 58.2694 13.9 58.3201C13.8903 58.4933 13.8903 58.6669 13.9 58.8401C13.9 59.1601 13.97 59.6201 13.99 59.7801C14.0085 59.8552 14.0082 59.9338 13.989 60.0089C13.9698 60.0839 13.9324 60.153 13.88 60.2101C13.72 60.3701 13.63 60.3701 13.27 60.4401C12.91 60.5101 12.09 60.5601 12.08 60.5601L10.89 60.7601C10.0797 60.8519 9.27513 60.9888 8.48002 61.1701C8.32002 61.1701 6.84002 61.4301 6.63002 61.4801C6.18002 61.5901 5.72002 61.6801 5.26002 61.7901C4.92599 61.8726 4.57394 61.8409 4.26002 61.7001C4.03498 61.5954 3.78099 61.5707 3.54002 61.6301C3.42145 61.6451 3.3134 61.7057 3.23874 61.799C3.16408 61.8924 3.12867 62.0111 3.14002 62.1301C3.14002 62.2601 3.25002 63.2201 3.29002 63.3401C3.40496 63.759 3.64582 64.1325 3.98002 64.4101L4.21002 64.5901C4.36344 64.6739 4.49219 64.7965 4.58343 64.9457C4.67467 65.0948 4.72521 65.2653 4.73002 65.4401C4.73002 65.5701 4.87002 68.0701 4.89002 68.3901C4.9425 68.7622 4.91176 69.1413 4.80002 69.5001C4.65295 69.9243 4.65295 70.3858 4.80002 70.8101C5.04998 71.5563 5.38555 72.2711 5.80002 72.9401C5.92896 73.1732 6.13885 73.3511 6.39002 73.4401C6.71002 73.5701 6.92002 73.4401 7.01002 73.1601C7.01684 73.0902 7.01684 73.0199 7.01002 72.9501C7.01002 72.6801 7.06002 72.4201 7.07002 72.1501C7.07002 71.6801 7.07002 71.2101 7.07002 70.7501C7.07002 70.2901 7.02002 69.8701 6.99002 69.4401C6.87002 67.8801 6.72002 65.8101 6.63002 65.4401C6.56583 65.1613 6.48229 64.8873 6.38002 64.6201C6.21898 64.2874 6.01379 63.9779 5.77002 63.7001C5.72847 63.6572 5.70524 63.5998 5.70524 63.5401C5.70524 63.4803 5.72847 63.423 5.77002 63.3801C5.87002 63.2701 6.01002 63.3201 6.13002 63.3801L6.63002 63.6401C6.69075 63.6805 6.76207 63.702 6.83502 63.702C6.90797 63.702 6.97929 63.6805 7.04002 63.6401L7.31002 63.5001C7.9497 63.2007 8.62041 62.9726 9.31002 62.8201C9.44592 62.8206 9.57845 62.8624 9.69002 62.9401C9.84008 63.0666 9.95683 63.2279 10.03 63.4101C10.19 63.7301 10.34 64.0601 10.5 64.4101L10.58 64.5301C10.66 64.6601 10.76 64.7901 10.83 64.9301C10.9 65.0701 10.93 65.2201 10.83 65.3101C10.7547 65.3757 10.6597 65.4144 10.56 65.4201H10.15C9.97054 65.4318 9.79198 65.3863 9.64002 65.2901L9.22002 65.0401C9.09848 64.9718 8.95845 64.9438 8.82002 64.9601C8.75533 64.9573 8.69209 64.9797 8.64359 65.0226C8.5951 65.0655 8.56514 65.1255 8.56002 65.1901C8.55154 65.2565 8.55154 65.3237 8.56002 65.3901L8.72002 66.1401C8.74721 66.3007 8.79077 66.4582 8.85002 66.6101C8.93305 66.7535 9.02664 66.8905 9.13002 67.0201C9.24882 67.2011 9.41478 67.3463 9.61002 67.4401C10.2032 67.6977 10.867 67.7436 11.49 67.5701C11.7626 67.541 12.029 67.4702 12.28 67.3601C12.36 67.3601 14.18 66.8101 14.28 66.7901C14.3815 66.7987 14.4769 66.8423 14.5499 66.9134C14.6228 66.9846 14.6688 67.0788 14.68 67.1801C14.7081 67.4928 14.7081 67.8074 14.68 68.1201C14.6849 68.2309 14.6504 68.3398 14.5827 68.4277C14.515 68.5155 14.4184 68.5766 14.31 68.6001C14 68.6701 11.4 69.2001 10.31 69.2901C9.93944 69.3543 9.56059 69.3543 9.19002 69.2901H8.97002C8.64002 69.2901 8.47002 69.4501 8.52002 69.7601C8.5308 69.8388 8.55094 69.916 8.58002 69.9901L8.91002 70.7401C8.94487 70.8033 8.98501 70.8635 9.03002 70.9201L9.39002 71.4501C9.45936 71.5551 9.53982 71.6523 9.63002 71.7401C9.79002 71.8801 9.97002 72.0101 10.14 72.1401C10.2983 72.2588 10.4883 72.3278 10.6859 72.3385C10.8835 72.3492 11.0798 72.301 11.25 72.2001C12.0182 71.8213 12.8179 71.5102 13.64 71.2701H13.69L14.21 71.1401C14.2745 71.1439 14.3367 71.1656 14.3897 71.2027C14.4426 71.2398 14.4843 71.2908 14.51 71.3501C14.5676 71.4761 14.6015 71.6117 14.61 71.7501C14.61 71.9901 14.61 72.2301 14.61 72.4701C14.6141 72.6478 14.6479 72.8235 14.71 72.9901C14.89 73.4101 15.09 73.8201 15.29 74.2201C15.3997 74.4228 15.5198 74.6198 15.65 74.8101C15.701 74.8984 15.7736 74.9724 15.8611 75.0249C15.9486 75.0774 16.048 75.1067 16.15 75.1101C16.3353 75.11 16.5157 75.0508 16.665 74.9411C16.8143 74.8314 16.9246 74.6769 16.98 74.5001C17.09 74.0501 17.18 73.6001 17.26 73.1501C17.32 72.9376 17.3601 72.72 17.38 72.5001C17.38 72.2401 17.38 71.9701 17.38 71.7101C17.38 71.4501 17.38 71.3601 17.38 71.0701V70.5001L18.47 70.3101L19.09 70.2001C19.74 70.1001 20.34 70.0601 20.4 70.0501C20.7766 69.9983 21.1417 69.8833 21.48 69.7101C21.86 69.5001 21.98 69.2301 21.88 68.9201C21.8254 68.7488 21.7586 68.5817 21.68 68.4201C21.6264 68.3157 21.5514 68.2237 21.46 68.1501C21.265 68.0162 21.0363 67.94 20.8 67.9301C20.5649 67.9208 20.3324 67.877 20.11 67.8001C19.7575 67.6246 19.3731 67.5226 18.98 67.5001C18.8121 67.4626 18.6379 67.4626 18.47 67.5001C18.3672 67.5348 18.2721 67.5891 18.19 67.6601L18.03 67.7601H17.86L17.42 67.8601V67.2201C17.42 66.6401 17.42 66.1601 17.42 65.9301C18.2046 65.7421 18.9992 65.5986 19.8 65.5001H20.28C20.4597 65.5163 20.6404 65.5163 20.82 65.5001C21.37 65.4401 21.52 65.0801 21.37 64.6601C21.2598 64.435 21.086 64.2472 20.87 64.1201C20.6821 63.9898 20.472 63.8949 20.25 63.8401C19.86 63.7301 19.63 63.8401 19.81 63.0401C19.87 62.7801 19.92 62.5201 19.97 62.2601C19.97 62.1701 19.97 62.0801 20.03 61.9901C20.0443 61.9317 20.08 61.8808 20.13 61.8475C20.18 61.8142 20.2407 61.8008 20.3 61.8101H20.57L22.42 62.2901C22.5562 62.3085 22.6857 62.3601 22.7973 62.4403C22.9089 62.5205 22.9991 62.6269 23.06 62.7501C23.1641 63.0094 23.2314 63.2821 23.26 63.5601C23.32 64.0001 23.34 64.4501 23.37 64.8901C23.37 65.6001 23.37 67.8901 23.37 68.3801C23.37 68.8701 23.37 69.3801 23.37 69.8101C23.2966 70.2766 23.0998 70.7151 22.8 71.0801C22.6 71.3001 22.49 71.5201 22.18 71.5601H22.06C22.0185 71.5641 21.9785 71.578 21.9435 71.6007C21.9085 71.6234 21.8795 71.6542 21.8589 71.6905C21.8383 71.7268 21.8268 71.7675 21.8252 71.8092C21.8237 71.8509 21.8322 71.8923 21.85 71.9301C21.8658 72.0069 21.8927 72.081 21.93 72.1501C22.13 72.4801 22.28 72.8301 22.5 73.1501C22.72 73.4701 23.07 73.9301 23.38 74.3001C23.43 74.3601 23.48 74.4301 23.53 74.4801L24.12 75.0701C24.24 75.1901 24.36 75.3301 24.49 75.4501L25.19 76.0501C25.2706 76.1184 25.3577 76.1787 25.45 76.2301C25.5723 76.3296 25.7274 76.3796 25.8847 76.3704C26.0421 76.3611 26.1903 76.2932 26.3 76.1801C26.3618 76.1243 26.4156 76.0604 26.46 75.9901C26.5468 75.8817 26.6269 75.7681 26.7 75.6501C26.771 75.5233 26.828 75.3892 26.87 75.2501C27.1237 74.4962 27.2816 73.7134 27.34 72.9201C27.34 72.6701 27.34 71.1001 27.4 70.5801C27.46 70.0601 27.4 67.4401 27.4 67.2801C27.4 66.7201 27.4 66.1601 27.4 65.5901C27.4 65.2101 27.4 64.8401 27.4 64.4601C27.3883 64.3347 27.4156 64.2088 27.4783 64.0995C27.5409 63.9903 27.6359 63.9032 27.75 63.8501C27.97 63.7401 28.1 63.4901 28.39 63.1001C28.4902 62.9732 28.5526 62.8207 28.57 62.6601C28.634 62.4095 28.6092 62.1445 28.5 61.9101M13.66 64.9101C13.25 65.0001 12.84 65.0601 12.45 65.1101C12.4047 65.0816 12.3679 65.0416 12.3433 64.9941C12.3187 64.9466 12.3072 64.8935 12.31 64.8401C12.31 64.5301 12.03 63.3301 11.98 63.0301C11.98 62.8901 11.93 62.7601 11.9 62.6201C11.8661 62.4923 11.8661 62.3578 11.9 62.2301C12.74 62.0801 13.73 61.9301 14.9 61.7801L15.42 61.7101L16.68 61.5801H17.01C17.0889 61.6163 17.1591 61.6689 17.216 61.7344C17.2729 61.8 17.3152 61.8769 17.34 61.9601C17.3876 62.4823 17.3876 63.0078 17.34 63.5301C17.34 63.7801 17.34 64.0001 17.18 64.1701L15.58 64.5201L13.69 64.9301" fill="black"/>
<path d="M7.78011 37.18C7.76424 37.4164 7.76424 37.6536 7.78011 37.89H6.75011C6.76638 37.6536 6.76638 37.4164 6.75011 37.18V34.8H6.22011C5.97696 34.7868 5.73327 34.7868 5.49011 34.8V33.9C5.72994 33.913 5.97029 33.913 6.21011 33.9H8.32011C8.5699 33.9145 8.82032 33.9145 9.07011 33.9V34.8C8.82033 34.7853 8.56989 34.7853 8.32011 34.8H7.78011V37.18Z" fill="black"/>
<path d="M11.54 37.89C11.5152 37.7176 11.4784 37.5472 11.43 37.38L11.3 36.98H9.92005L9.79005 37.38C9.73317 37.5456 9.69297 37.7164 9.67005 37.89H8.55005C8.63979 37.7055 8.71664 37.5151 8.78005 37.32L9.78005 34.48C9.84583 34.315 9.89605 34.1443 9.93005 33.97H11.18C11.221 34.1436 11.2745 34.314 11.34 34.48L12.34 37.32C12.43 37.57 12.51 37.76 12.57 37.89H11.54ZM10.6 34.77L10.15 36.19H11.05L10.6 34.77Z" fill="black"/>
<path d="M13.81 33.96C13.791 34.1929 13.791 34.427 13.81 34.66V37.19C13.7919 37.4229 13.7919 37.657 13.81 37.89H12.76C12.7789 37.657 12.7789 37.4229 12.76 37.19V34.66C12.7793 34.427 12.7793 34.1929 12.76 33.96H13.81Z" fill="black"/>
<path d="M20.9801 37.89C20.9552 37.7176 20.9185 37.5472 20.8701 37.38L20.7401 36.98H19.3501L19.2201 37.38C19.1632 37.5456 19.123 37.7164 19.1001 37.89H17.9801C18.0694 37.7053 18.1463 37.5149 18.2101 37.32L19.2101 34.48C19.2755 34.3149 19.3257 34.1442 19.3601 33.97H20.6101C20.6511 34.1436 20.7045 34.314 20.7701 34.48L21.7701 37.32C21.8601 37.57 21.9401 37.76 22.0001 37.89H20.9801ZM19.9801 34.77L19.5301 36.19H20.4301L19.9801 34.77Z" fill="black"/>
<path d="M24.47 35.89C24.5964 36.0704 24.7132 36.2573 24.82 36.45C24.82 36.23 24.82 36.02 24.82 35.75V34.68C24.8371 34.4403 24.8371 34.1997 24.82 33.96H25.82C25.8029 34.1997 25.8029 34.4403 25.82 34.68V37.19C25.8054 37.4231 25.8054 37.6569 25.82 37.89H24.72C24.6142 37.6818 24.4939 37.4813 24.36 37.29L23.47 35.97C23.3417 35.7839 23.2248 35.5902 23.12 35.39C23.1325 35.6231 23.1325 35.8568 23.12 36.09V37.15C23.102 37.3963 23.102 37.6436 23.12 37.89H22.12C22.139 37.6437 22.139 37.3963 22.12 37.15V34.67C22.1357 34.4369 22.1357 34.203 22.12 33.97H23.12C23.2115 34.1784 23.3255 34.3762 23.46 34.56L24.47 35.89Z" fill="black"/>
<path d="M16.73 35.89C16.8564 36.0704 16.9732 36.2573 17.08 36.45C17.08 36.23 17.08 36.02 17.08 35.75V34.68C17.0971 34.4403 17.0971 34.1997 17.08 33.96H18.08C18.0629 34.1997 18.0629 34.4403 18.08 34.68V37.19C18.0654 37.4231 18.0654 37.6569 18.08 37.89H16.98C16.8742 37.6818 16.7539 37.4813 16.62 37.29L15.73 35.97C15.6017 35.7839 15.4848 35.5902 15.38 35.39C15.3925 35.6231 15.3925 35.8568 15.38 36.09V37.15C15.3621 37.3963 15.3621 37.6436 15.38 37.89H14.38C14.399 37.6437 14.399 37.3963 14.38 37.15V34.67C14.3958 34.4369 14.3958 34.203 14.38 33.97H15.38C15.4715 34.1784 15.5856 34.3762 15.72 34.56L16.73 35.89Z" fill="black"/>
<path d="M5.59009 43.76C6.01009 43.3 6.01009 43.3 6.48009 42.76L8.48009 40.4001C8.79394 40.0555 9.08142 39.6878 9.34009 39.3H11.2401C11.1872 39.8116 11.1638 40.3258 11.1701 40.84V43.84H11.4401C11.748 43.8387 12.0555 43.8153 12.3601 43.7701V45.5C12.0583 45.4611 11.7544 45.4411 11.4501 45.44H11.1701V45.9001C11.1599 46.2814 11.1833 46.6628 11.2401 47.0401H9.35009C9.40103 46.6555 9.42442 46.2679 9.42009 45.8801V45.43H6.80009C6.20009 45.43 5.94009 45.43 5.59009 45.43V43.76ZM9.43009 42.76C9.43009 42.34 9.43009 41.83 9.49009 41.42C9.30009 41.68 9.16009 41.86 8.92009 42.18L7.56009 43.8601H9.43009V42.76Z" fill="black"/>
<path d="M13.6801 46.31C13.3861 46.0277 13.1545 45.6871 13.0001 45.31C12.7567 44.6299 12.6348 43.9123 12.6401 43.19C12.6191 42.2986 12.8183 41.4159 13.2201 40.62C13.4965 40.1393 13.9008 39.7446 14.388 39.4799C14.8752 39.2151 15.4263 39.0905 15.9801 39.12C16.8142 39.0983 17.623 39.4075 18.2301 39.98C18.524 40.2622 18.7556 40.6028 18.9101 40.98C19.1548 41.6632 19.2767 42.3843 19.2701 43.11C19.2906 44.0045 19.0915 44.8903 18.6901 45.69C18.4111 46.1536 18.0119 46.5331 17.5348 46.7884C17.0578 47.0436 16.5205 47.1651 15.9801 47.14C15.5681 47.1538 15.1576 47.0848 14.7729 46.9371C14.3881 46.7893 14.0369 46.5659 13.7401 46.28M14.6001 43.05C14.6001 44.71 15.0701 45.56 15.9901 45.56C16.9101 45.56 17.3601 44.72 17.3601 43.07C17.3601 41.42 16.8801 40.65 15.9801 40.65C15.0801 40.65 14.6001 41.53 14.6001 43.04" fill="black"/>
<path d="M20.62 46.31C20.3265 46.0274 20.0949 45.6869 19.94 45.31C19.6966 44.6299 19.5748 43.9123 19.58 43.19C19.559 42.2987 19.7582 41.416 20.16 40.62C20.4356 40.1542 20.8321 39.7717 21.3074 39.5129C21.7827 39.2541 22.3192 39.1287 22.86 39.15C23.6941 39.1284 24.503 39.4375 25.11 40.01C25.4035 40.2926 25.6351 40.6332 25.79 41.01C26.0343 41.6933 26.1562 42.4144 26.15 43.14C26.1706 44.0345 25.9714 44.9204 25.57 45.72C25.291 46.1836 24.8919 46.5632 24.4148 46.8184C23.9377 47.0737 23.4005 47.1952 22.86 47.17C22.4464 47.1852 22.034 47.1169 21.6474 46.9691C21.2609 46.8213 20.908 46.5972 20.61 46.31M21.47 43.08C21.47 44.74 21.94 45.59 22.86 45.59C23.78 45.59 24.23 44.75 24.23 43.1C24.23 41.45 23.75 40.68 22.85 40.68C21.95 40.68 21.47 41.56 21.47 43.07" fill="black"/>
<path d="M63.3801 47.09C63.1735 47.0892 62.9757 47.0065 62.8301 46.86L47.1601 31.19C47.0142 31.0428 46.9328 30.8437 46.9337 30.6365C46.9347 30.4292 47.0179 30.2309 47.1651 30.085C47.3123 29.9391 47.5114 29.8577 47.7186 29.8587C47.9258 29.8596 48.1242 29.9428 48.2701 30.09L63.9801 45.76C64.0885 45.8691 64.1623 46.0078 64.1922 46.1587C64.222 46.3096 64.2066 46.4659 64.1478 46.6081C64.089 46.7502 63.9895 46.8718 63.8618 46.9576C63.7341 47.0433 63.5839 47.0894 63.4301 47.09" fill="black"/>
<path d="M47.71 47.0901C47.5562 47.0894 47.406 47.0434 47.2783 46.9576C47.1506 46.8719 47.0511 46.7503 46.9923 46.6081C46.9335 46.466 46.9181 46.3096 46.9479 46.1587C46.9778 46.0078 47.0516 45.8691 47.16 45.76L62.83 30.0901C62.9759 29.9376 63.1764 29.8492 63.3874 29.8446C63.5983 29.8399 63.8025 29.9192 63.955 30.0651C64.1075 30.2109 64.1958 30.4114 64.2005 30.6224C64.2052 30.8334 64.1259 31.0376 63.98 31.1901L48.27 46.8601C48.1244 47.0065 47.9266 47.0892 47.72 47.0901" fill="black"/>
</g>
</g>
<defs>
<clipPath id="clip0_153_29363">
<rect width="162.02" height="75.95" fill="white"/>
</clipPath>
</defs>
</svg>
