<svg width="166" height="40" viewBox="0 0 166 40" fill="none" xmlns="http://www.w3.org/2000/svg">
<g clip-path="url(#clip0_130_42676)">
<path d="M13.8 25.0299C16.445 25.2949 18.4 26.1299 21.37 26.4389C22.5294 26.5419 23.6947 26.3213 24.7362 25.8018C25.7778 25.2822 26.6549 24.4841 27.27 23.4959C27.7514 21.9684 27.8739 20.3505 27.628 18.7679C27.428 16.9729 28.501 16.1269 30.771 14.9679C33.495 13.5799 33.839 12.8799 33.884 10.5439C34.184 6.27393 35.908 5.60393 38.92 5.28393C41.7708 4.98918 44.5915 4.45394 47.352 3.68393C49.2375 2.87487 51.045 1.89512 52.752 0.756929C53.146 0.536929 53.752 -0.10607 54.052 0.0109298C54.4583 0.164996 54.8083 0.438599 55.056 0.795649C55.3036 1.1527 55.4371 1.57642 55.439 2.01093C55.588 3.91093 55.166 4.51593 53.771 9.26393C52.7265 12.4785 51.0071 15.4328 48.728 17.9289C46.7427 20.1186 44.4413 21.9994 41.9 23.5089C40.4281 24.6613 39.154 26.0462 38.128 27.6089C37.6603 28.3573 36.9594 28.9311 36.1334 29.2419C35.3074 29.5527 34.4021 29.5833 33.557 29.3289C29.813 28.4833 25.8947 28.8949 22.408 30.4999C20.095 31.6089 17.887 32.7859 15.266 32.9319C14.628 32.9669 14.091 33.0049 14.554 32.1499C15.423 30.9571 16.5861 30.0096 17.93 29.3999C18.001 29.3639 18.03 29.2569 17.759 29.2179C13.08 28.5589 11.267 27.1179 10.326 26.3569C9.78703 25.9219 9.65303 25.3759 10.168 25.1569C10.683 24.9379 11.608 24.8129 13.795 25.0319M49.813 14.1319C49.89 14.0019 49.837 13.8919 49.583 13.9649C48.6527 14.1983 47.6815 14.2167 46.7431 14.0187C45.8046 13.8206 44.9237 13.4113 44.167 12.8219C43.4987 12.2108 43.0338 11.4096 42.8348 10.5262C42.6358 9.64274 42.7123 8.71954 43.054 7.88093C43.126 7.67293 42.906 7.64793 42.7 7.72793C40.7952 8.48395 39.0287 9.55002 37.472 10.8829C34.015 13.4109 30.999 20.1429 28.653 23.7329C27.6316 25.2538 26.2427 26.4921 24.615 27.3329C24.561 27.8749 24.952 28.1529 25.583 28.0429C27.9159 27.669 30.2126 27.0966 32.448 26.3319C36.897 24.5631 41.1151 22.2613 45.01 19.4769C46.9997 18.0889 48.6423 16.2605 49.81 14.1339M45.228 11.7339C46.1775 12.4339 47.3651 12.7302 48.5321 12.5582C49.6991 12.3863 50.7508 11.76 51.458 10.8159C52.995 8.80793 53.34 6.28693 54.258 3.51593C54.336 3.27893 54.43 2.72293 54.283 2.59793C54.1018 3.00126 53.8277 3.35594 53.483 3.63293C53.159 3.79793 52.523 3.56693 52.864 3.22393C53.3512 2.8129 53.6948 2.25739 53.845 1.63793C53.912 1.29293 53.705 1.20993 53.474 1.45993C52.6868 1.96828 51.9501 2.55095 51.274 3.19993C51.185 3.28793 51.117 3.43893 51.195 3.49493C52.825 4.38093 53.027 6.01893 52.605 7.60693C52.385 8.44369 51.8645 9.17009 51.1429 9.64747C50.4213 10.1248 49.5492 10.3197 48.693 10.1949C48.2466 10.1092 47.8242 9.92705 47.4555 9.66113C47.0867 9.39521 46.7805 9.05198 46.5582 8.6554C46.3359 8.25883 46.2029 7.8185 46.1685 7.36518C46.1341 6.91187 46.1991 6.45651 46.359 6.03093C46.403 5.86893 46.33 5.80093 46.188 5.89093C43.888 7.35493 43.532 10.2759 45.234 11.7379M51.757 7.07193C52.103 5.09993 51.326 4.19893 49.757 4.23893C47.422 4.29893 46.616 7.60293 48.094 8.69193C48.4256 8.91682 48.8089 9.05367 49.208 9.08962C49.607 9.12557 50.0086 9.05943 50.375 8.89741C50.7414 8.7354 51.0606 8.48285 51.3026 8.16351C51.5445 7.84416 51.7002 7.46853 51.757 7.07193ZM35.358 37.0249C34.2094 37.2212 33.0925 37.572 32.038 38.0679C31.189 38.4019 28.038 40.0059 27.704 40.0059C27.204 40.0059 27.004 39.8569 27.146 39.1499C27.5386 38.2009 28.2107 37.3938 29.073 36.8359C29.362 36.6589 29.349 36.5359 29.031 36.5019C27.0931 36.2923 25.294 35.3963 23.959 33.9759C23.616 33.5639 23.477 32.9959 24.153 32.8289C24.91 32.6409 27.284 33.2839 28.884 33.6849C30.966 34.2069 35.289 34.6669 37.607 33.5849C40.095 32.4189 41.107 28.0169 42.173 26.6349C43.225 25.2779 44.317 25.1749 46.358 24.2769C49.378 22.9469 51.179 20.2109 52.264 18.7039C54.286 15.8949 56.441 12.5859 56.851 11.9559C57.261 11.3259 58.131 12.2299 58.301 12.8889C58.8982 15.9074 58.8744 19.0159 58.231 22.0249C57.6243 25.2606 56.4088 28.3517 54.649 31.1339C52.37 34.2879 50.5 36.3399 44.507 36.9249C41.973 37.1719 36.323 36.9899 35.358 37.0299M56.033 25.4879C56.089 25.3109 56.212 25.0179 55.86 25.3309C55.1451 25.9371 54.2677 26.3197 53.337 26.4309C52.479 26.5789 49.819 26.4119 49.554 24.3529C49.534 24.1949 49.406 24.2869 49.303 24.4099C46.9073 27.1965 44.3468 29.8369 41.635 32.3169C39.9511 33.934 37.8173 35.0035 35.514 35.3849C35.359 35.4059 35.052 35.9849 35.614 36.1049C38.336 35.9649 43.314 35.8759 45.499 35.4759C51.464 34.3829 54.368 30.8149 56.036 25.4919M54.136 22.0779C56.136 22.9289 57.248 21.6599 57.399 20.5069C57.4647 20.1616 57.4461 19.8056 57.3449 19.469C57.2437 19.1324 57.0628 18.8251 56.8176 18.5733C56.5723 18.3215 56.27 18.1326 55.9362 18.0225C55.6024 17.9124 55.2469 17.8844 54.9 17.9409C52.826 18.2129 52.352 21.3109 54.143 22.0739M29.864 6.71393C29.243 6.72993 28.379 7.28493 24.499 8.27593C22.855 8.62293 20.899 9.14193 19.799 9.37593C18.018 9.74893 16.63 9.33093 15.526 10.1979C14.676 10.8649 14.337 12.3199 14.033 13.3499C13.1 16.5079 9.60003 17.0999 7.57203 16.2999C4.04003 14.8999 1.47203 12.2059 0.544026 12.1119C0.263026 12.0839 0.0280259 12.6179 0.00802591 12.9119C-0.102974 14.5059 0.970026 15.7379 3.45103 17.1119C3.71003 17.2559 4.11803 17.3119 3.50503 17.4199C1.74803 17.7199 0.791026 18.2289 0.633026 18.5199C0.462026 18.8389 0.673026 19.7199 1.96903 20.0439C3.37216 20.126 4.78004 20.0589 6.16903 19.8439C7.62907 19.4935 9.12454 19.3119 10.626 19.3029C12.094 19.4429 16.895 20.6099 19.665 20.0579C22.465 19.4989 22.98 18.5709 25.599 15.7669C27.7052 13.668 29.3356 11.1409 30.38 8.35693C30.567 7.74593 30.489 6.69093 29.869 6.70793M8.30603 18.3389C6.33039 18.953 4.27486 19.2718 2.20603 19.2849C1.62503 19.1109 1.51203 18.8449 1.70603 18.7529C3.21966 18.2831 4.79516 18.0428 6.38003 18.0399C7.04903 18.0109 7.33103 17.8069 6.81503 17.6289C5.96103 17.3349 1.67703 15.9499 0.936026 13.6779C0.786026 13.2149 0.995026 13.0369 1.28303 13.2659C4.11103 15.5199 5.33903 16.8309 8.33803 17.4929C8.4248 17.5267 8.49888 17.5867 8.54998 17.6646C8.60107 17.7424 8.62664 17.8343 8.62312 17.9273C8.6196 18.0204 8.58717 18.11 8.53034 18.1838C8.47351 18.2576 8.3951 18.3118 8.30603 18.3389ZM16.844 10.6889C17.594 10.5329 18.344 10.4599 19.325 10.2589C19.573 10.2079 19.477 10.3779 19.418 10.4179C17.472 11.7299 15.841 13.1029 15.133 13.6629C15.052 13.7279 15.053 13.5809 15.085 13.4819C15.485 12.2069 15.708 10.9239 16.844 10.6889ZM20.136 16.6459C18.4308 17.5774 16.4453 17.8574 14.549 17.4339C14.5205 17.4222 14.4956 17.4029 14.4771 17.3783C14.4585 17.3536 14.447 17.3244 14.4436 17.2937C14.4402 17.263 14.4452 17.232 14.4579 17.2039C14.4707 17.1758 14.4907 17.1516 14.516 17.1339C15.326 16.5159 17.907 14.6339 18.507 14.2639C19.19 13.8439 20.126 13.1819 20.483 14.0459C20.8 14.8099 21.283 15.8299 20.136 16.6459ZM25.89 13.9349C24.844 14.7839 22.245 15.8819 21.383 13.6249C21.2401 13.253 21.1725 12.8563 21.1842 12.458C21.1959 12.0596 21.2867 11.6676 21.4513 11.3047C21.616 10.9418 21.8511 10.6153 22.143 10.344C22.435 10.0728 22.778 9.86238 23.152 9.72493C23.252 9.67893 23.481 9.65593 23.436 9.75693C23.2151 10.1882 23.093 10.6632 23.0785 11.1475C23.064 11.6318 23.1574 12.1132 23.352 12.5569C23.5821 13.031 23.9754 13.4063 24.4597 13.6138C24.9441 13.8214 25.4871 13.8474 25.989 13.6869C26.164 13.6349 26.048 13.8069 25.89 13.9349ZM27.663 11.3539C27.5957 11.7086 27.4287 12.0368 27.1817 12.3C26.9346 12.5632 26.6177 12.7506 26.2679 12.8402C25.9182 12.9298 25.5502 12.9179 25.207 12.806C24.8638 12.694 24.5596 12.4865 24.33 12.2079C24.1588 11.8754 24.0735 11.5054 24.0818 11.1315C24.0902 10.7576 24.1919 10.3918 24.3778 10.0673C24.5637 9.74275 24.8277 9.46988 25.146 9.27351C25.4643 9.07713 25.8266 8.96349 26.2 8.94293C27.334 9.02993 27.924 9.79493 27.659 11.3539M28.709 8.27293C28.356 8.32993 28.324 8.64093 28.446 8.77893C28.63 8.98693 28.946 8.98793 29.339 8.82093C29.429 8.78293 29.448 8.82093 29.413 8.91393C29.2348 9.34734 28.9994 9.75496 28.713 10.1259C28.6954 10.1501 28.6714 10.1688 28.6437 10.1801C28.616 10.1914 28.5857 10.1947 28.5562 10.1897C28.5267 10.1847 28.4992 10.1716 28.4767 10.1519C28.4543 10.1321 28.4378 10.1065 28.429 10.0779C28.4274 9.82524 28.3624 9.57699 28.2401 9.35585C28.1179 9.1347 27.9421 8.94771 27.729 8.81193C27.6983 8.7938 27.6729 8.76799 27.6553 8.73704C27.6376 8.70609 27.6283 8.67107 27.6283 8.63543C27.6283 8.59979 27.6376 8.56477 27.6553 8.53382C27.6729 8.50287 27.6983 8.47706 27.729 8.45893C28.3148 8.09032 28.9637 7.83333 29.643 7.70093C29.672 7.90093 29.474 8.14993 28.716 8.27293M40.228 11.9049C38.5626 13.0233 37.1444 14.4715 36.061 16.1599C35.466 16.9679 31.772 22.3069 30.861 23.8919C30.785 24.0259 31.061 24.2579 31.328 24.1529C34.57 22.952 37.7443 21.576 40.837 20.0309C41.697 19.5551 42.41 18.8525 42.8986 17.9997C43.3871 17.1469 43.6325 16.1765 43.608 15.1939C43.608 13.6419 42.359 10.5599 40.226 11.9039M49.526 8.34093C51.556 8.24793 51.964 5.12793 49.926 4.95593C47.888 4.78393 47.494 8.43293 49.526 8.34093ZM42.657 33.5539C42.503 33.8269 42.937 34.0539 43.75 34.0539C46.3101 33.9513 48.7817 33.089 50.85 31.5769C52.75 30.3059 53.034 28.9769 52.901 28.3129C52.619 26.8949 50.047 25.7859 48.927 27.2279C47.3755 29.3616 45.551 31.2826 43.5 32.9419C43.2065 33.1272 42.9256 33.3316 42.659 33.5539M55.231 18.6929C53.356 18.6929 53.276 21.5119 55.052 21.5109C56.982 21.5109 57.082 18.6889 55.231 18.6929ZM26.124 12.1849C27.839 11.9179 27.288 9.21493 25.946 9.54293C24.604 9.87093 24.257 12.4759 26.124 12.1849Z" fill="white"/>
<path d="M89.652 27.615H73.267V25.798H89.652V27.615ZM88.678 14.736H74.219V12.936H88.678V14.736ZM87.594 20.905H75.302V19.087H87.594V20.905Z" fill="white"/>
<path d="M89.652 27.7479H73.267C73.2307 27.7479 73.1958 27.7335 73.1701 27.7078C73.1444 27.6821 73.13 27.6473 73.13 27.6109V25.7979C73.1299 25.7799 73.1333 25.762 73.1402 25.7453C73.147 25.7287 73.1571 25.7135 73.1698 25.7008C73.1826 25.688 73.1977 25.6779 73.2144 25.6711C73.2311 25.6642 73.249 25.6608 73.267 25.6609H89.652C89.6883 25.6609 89.7232 25.6754 89.7489 25.701C89.7746 25.7267 89.789 25.7616 89.789 25.7979V27.6139C89.789 27.6503 89.7746 27.6851 89.7489 27.7108C89.7232 27.7365 89.6883 27.7509 89.652 27.7509M73.404 27.4769H89.515V25.9339H73.404V27.4769ZM87.594 21.0479H75.301C75.2647 21.0479 75.2298 21.0335 75.2041 21.0078C75.1784 20.9821 75.164 20.9473 75.164 20.9109V19.0869C75.164 19.0506 75.1784 19.0157 75.2041 18.99C75.2298 18.9644 75.2647 18.9499 75.301 18.9499H87.594C87.6121 18.9498 87.63 18.9532 87.6467 18.9601C87.6635 18.9669 87.6787 18.977 87.6915 18.9897C87.7044 19.0024 87.7145 19.0176 87.7215 19.0343C87.7284 19.051 87.732 19.0688 87.732 19.0869V20.9059C87.732 20.924 87.7284 20.9419 87.7215 20.9586C87.7145 20.9753 87.7044 20.9904 87.6915 21.0032C87.6787 21.0159 87.6635 21.026 87.6467 21.0328C87.63 21.0396 87.6121 21.0431 87.594 21.0429M75.438 20.7689H87.458V19.2239H75.439L75.438 20.7689ZM88.677 14.8689H74.219C74.1827 14.8689 74.1478 14.8545 74.1221 14.8288C74.0964 14.8031 74.082 14.7683 74.082 14.7319V12.9319C74.082 12.8956 74.0964 12.8607 74.1221 12.835C74.1478 12.8094 74.1827 12.7949 74.219 12.7949H88.678C88.7143 12.7949 88.7492 12.8094 88.7749 12.835C88.8006 12.8607 88.815 12.8956 88.815 12.9319V14.7319C88.815 14.7683 88.8006 14.8031 88.7749 14.8288C88.7492 14.8545 88.7133 14.8689 88.677 14.8689ZM74.356 14.5949H88.541V13.0779H74.356V14.5949Z" fill="white"/>
<path d="M100.637 20.7361H98.0169L100.68 26.3201H98.7799L96.8969 22.3591L94.8999 28.1821H93.0609L95.6369 20.7361H92.7579V19.0041H95.9179V15.7151H94.4679L93.8189 17.9001H92.0439L93.7969 11.8181H95.6149L94.9659 14.0041H100.226V15.7151H97.6259V19.0041H100.637V20.7361ZM101.85 14.1121H108.95V26.8181H101.85V14.1121ZM107.283 15.8001H103.56V25.1301H107.283V15.8001Z" fill="white"/>
<path d="M94.899 28.3201H93.06C93.0381 28.32 93.0166 28.3147 92.9973 28.3046C92.9779 28.2946 92.9611 28.2801 92.9485 28.2623C92.9358 28.2445 92.9275 28.224 92.9243 28.2024C92.921 28.1808 92.923 28.1588 92.93 28.1381L95.443 20.8721H92.757C92.7206 20.8721 92.6858 20.8576 92.6601 20.832C92.6344 20.8063 92.62 20.7714 92.62 20.7351V19.0041C92.62 18.9677 92.6344 18.9329 92.6601 18.9072C92.6858 18.8815 92.7206 18.8671 92.757 18.8671H95.78V15.8521H94.569L93.949 17.9401C93.9409 17.9689 93.9236 17.9942 93.8998 18.0123C93.8759 18.0303 93.8469 18.0401 93.817 18.0401H92.043C92.0217 18.0401 92.0008 18.0352 91.9817 18.0259C91.9626 18.0165 91.9459 18.0029 91.933 17.9861C91.9202 17.9692 91.9116 17.9495 91.9077 17.9287C91.9039 17.9079 91.905 17.8864 91.911 17.8661L93.664 11.7841C93.6722 11.7554 93.6895 11.7301 93.7133 11.7121C93.7371 11.6941 93.7661 11.6842 93.796 11.6841H95.614C95.6353 11.684 95.6564 11.689 95.6755 11.6985C95.6946 11.7081 95.7112 11.722 95.724 11.7391C95.7364 11.7564 95.7447 11.7762 95.7483 11.7972C95.752 11.8181 95.7508 11.8396 95.745 11.8601L95.145 13.8701H100.222C100.258 13.8701 100.293 13.8845 100.319 13.9102C100.345 13.9359 100.359 13.9707 100.359 14.0071V15.7171C100.359 15.7534 100.345 15.7883 100.319 15.814C100.293 15.8396 100.258 15.8541 100.222 15.8541H97.764V18.8701H100.636C100.654 18.8701 100.672 18.8736 100.688 18.8805C100.705 18.8874 100.72 18.8975 100.733 18.9102C100.746 18.9229 100.756 18.938 100.763 18.9547C100.769 18.9713 100.773 18.9891 100.773 19.0071V20.7381C100.773 20.7744 100.759 20.8093 100.733 20.835C100.707 20.8606 100.672 20.8751 100.636 20.8751H98.236L100.805 26.2641C100.815 26.2848 100.819 26.3077 100.818 26.3306C100.816 26.3535 100.809 26.3757 100.797 26.3951C100.785 26.4148 100.768 26.4311 100.747 26.4425C100.727 26.4538 100.704 26.4599 100.681 26.4601H98.781C98.7551 26.4603 98.7298 26.4531 98.7079 26.4393C98.6861 26.4254 98.6688 26.4056 98.658 26.3821L96.912 22.7221L95.029 28.2271C95.0196 28.2542 95.0021 28.2777 94.9788 28.2943C94.9555 28.311 94.9276 28.32 94.899 28.3201ZM93.252 28.0461H94.801L96.762 22.3161C96.7702 22.29 96.7862 22.267 96.8078 22.2503C96.8294 22.2335 96.8556 22.2236 96.883 22.2221C96.9102 22.2214 96.937 22.2285 96.9604 22.2425C96.9838 22.2565 97.0027 22.2768 97.015 22.3011L98.861 26.1831H100.461L97.892 20.7941C97.8818 20.7734 97.8773 20.7505 97.8787 20.7275C97.8801 20.7046 97.8874 20.6824 97.9 20.6631C97.912 20.6433 97.9288 20.6269 97.949 20.6156C97.9691 20.6042 97.9918 20.5982 98.015 20.5981H100.498V19.1411H97.627C97.5906 19.1411 97.5558 19.1266 97.5301 19.101C97.5044 19.0753 97.49 19.0404 97.49 19.0041V15.7141C97.49 15.6777 97.5044 15.6429 97.5301 15.6172C97.5558 15.5915 97.5906 15.5771 97.627 15.5771H100.088V14.1411H94.965C94.9437 14.1412 94.9227 14.1364 94.9036 14.1271C94.8845 14.1177 94.8678 14.104 94.855 14.0871C94.8423 14.07 94.8337 14.0501 94.8298 14.0291C94.826 14.0082 94.8271 13.9866 94.833 13.9661L95.433 11.9551H93.899L92.225 17.7631H93.715L94.336 15.6761C94.3438 15.6474 94.3609 15.622 94.3846 15.604C94.4082 15.5859 94.4372 15.5761 94.467 15.5761H95.917C95.9533 15.5761 95.9881 15.5905 96.0138 15.6162C96.0395 15.6419 96.054 15.6767 96.054 15.7131V19.0031C96.054 19.0394 96.0395 19.0743 96.0138 19.1C95.9881 19.1256 95.9533 19.1401 95.917 19.1401H92.894V20.5971H95.636C95.6578 20.5972 95.6793 20.6025 95.6987 20.6126C95.718 20.6226 95.7348 20.6371 95.7475 20.6549C95.7601 20.6726 95.7684 20.6932 95.7717 20.7147C95.7749 20.7363 95.7729 20.7584 95.766 20.7791L93.252 28.0461ZM108.947 26.9521H101.847C101.829 26.9522 101.811 26.9488 101.794 26.9419C101.777 26.9351 101.762 26.925 101.749 26.9123C101.737 26.8996 101.726 26.8844 101.719 26.8677C101.713 26.8511 101.709 26.8332 101.709 26.8151V14.1121C101.709 14.094 101.713 14.0761 101.719 14.0594C101.726 14.0427 101.737 14.0276 101.749 14.0149C101.762 14.0021 101.777 13.992 101.794 13.9852C101.811 13.9784 101.829 13.975 101.847 13.9751H108.947C108.983 13.9751 109.018 13.9895 109.044 14.0152C109.07 14.0409 109.084 14.0757 109.084 14.1121V26.8181C109.084 26.8544 109.07 26.8893 109.044 26.915C109.018 26.9406 108.983 26.9551 108.947 26.9551M101.985 26.6801H108.81V14.2521H101.985V26.6801ZM107.28 25.2671H103.557C103.539 25.2671 103.521 25.2635 103.505 25.2567C103.488 25.2498 103.473 25.2397 103.46 25.227C103.447 25.2142 103.437 25.1991 103.43 25.1825C103.423 25.1659 103.42 25.1481 103.42 25.1301V15.8001C103.42 15.7637 103.434 15.7289 103.46 15.7032C103.486 15.6775 103.521 15.6631 103.557 15.6631H107.28C107.316 15.6631 107.351 15.6775 107.377 15.7032C107.403 15.7289 107.417 15.7637 107.417 15.8001V25.1301C107.417 25.1481 107.413 25.1659 107.407 25.1825C107.4 25.1991 107.39 25.2142 107.377 25.227C107.364 25.2397 107.349 25.2498 107.332 25.2567C107.316 25.2635 107.298 25.2671 107.28 25.2671ZM103.694 24.9931H107.143V15.9371H103.694V24.9931Z" fill="white"/>
<path d="M111.368 15.4761L115.35 11.3201L119.614 15.4761H117.428L115.393 13.4851L113.493 15.4761H111.368ZM118.186 16.8361V22.4721H113.768V23.6571H118.162V25.0301H113.768V26.2401H118.162V27.6681H113.768V28.6131H112.405V16.8361H118.186ZM113.768 19.0181H116.841V17.9291H113.768V19.0181ZM116.842 20.2771H113.768V21.3051H116.841L116.842 20.2771ZM116.669 15.9301H114.201V14.7831H116.668L116.669 15.9301ZM124.245 14.0471L121.345 17.6841H119.31L124.159 11.5581L129.549 17.6841H127.427L124.245 14.0471ZM119.699 27.3581L120.76 23.6581H122.426L121.344 27.3581H119.699ZM126.756 17.1641V18.7871H125.132V20.1731H128.704V21.7731H125.132V28.7221H123.552V21.7741H119.98V20.1741H123.552V18.7871H121.952V17.1641H126.756ZM126.456 23.6571H128.165L129.356 27.3571H127.668L126.456 23.6571Z" fill="white"/>
<path d="M125.132 28.8599H123.552C123.516 28.8599 123.481 28.8455 123.455 28.8198C123.429 28.7941 123.415 28.7593 123.415 28.7229V21.9109H119.981C119.963 21.9111 119.945 21.9076 119.928 21.9008C119.912 21.8939 119.897 21.8839 119.884 21.8711C119.871 21.8584 119.861 21.8432 119.854 21.8265C119.847 21.8098 119.844 21.792 119.844 21.7739V20.1739C119.844 20.1559 119.847 20.1379 119.854 20.1212C119.861 20.1045 119.871 20.0892 119.884 20.0765C119.896 20.0637 119.912 20.0536 119.928 20.0468C119.945 20.04 119.963 20.0367 119.981 20.0369H123.415V18.9239H121.95C121.914 18.9239 121.879 18.9095 121.853 18.8838C121.827 18.8581 121.813 18.8233 121.813 18.7869V17.3149L121.452 17.7689C121.439 17.7849 121.422 17.7977 121.404 17.8065C121.385 17.8154 121.365 17.8199 121.344 17.8199H119.309C119.283 17.8199 119.258 17.8127 119.236 17.7991C119.215 17.7854 119.197 17.766 119.186 17.7429C119.175 17.7199 119.17 17.6941 119.173 17.6686C119.176 17.6431 119.186 17.6189 119.202 17.5989L124.051 11.4739C124.063 11.4564 124.079 11.4422 124.097 11.4329C124.116 11.4236 124.137 11.4195 124.158 11.4209C124.177 11.4213 124.196 11.4256 124.213 11.4335C124.23 11.4415 124.245 11.4528 124.258 11.4669L129.647 17.5919C129.664 17.612 129.676 17.6365 129.68 17.6626C129.684 17.6888 129.68 17.7156 129.67 17.7399C129.659 17.7637 129.641 17.7839 129.619 17.798C129.597 17.8122 129.571 17.8198 129.545 17.8199H127.424C127.405 17.8196 127.386 17.8152 127.369 17.8071C127.352 17.799 127.336 17.7874 127.324 17.7729L126.893 17.2819V18.7819C126.893 18.8 126.89 18.8178 126.883 18.8345C126.876 18.8512 126.866 18.8664 126.853 18.8791C126.84 18.8919 126.825 18.9019 126.809 18.9088C126.792 18.9156 126.774 18.9191 126.756 18.9189H125.268V20.0309H128.703C128.721 20.0308 128.739 20.0343 128.756 20.0411C128.772 20.0479 128.787 20.058 128.8 20.0708C128.813 20.0835 128.823 20.0987 128.83 20.1154C128.837 20.132 128.84 20.1499 128.84 20.1679V21.7679C128.84 21.8043 128.826 21.8391 128.8 21.8648C128.774 21.8905 128.739 21.9049 128.703 21.9049H125.268V28.7169C125.268 28.7533 125.254 28.7881 125.228 28.8138C125.202 28.8395 125.167 28.8539 125.131 28.8539M123.688 28.5789H124.994V21.7739C124.994 21.7376 125.008 21.7028 125.034 21.6771C125.06 21.6514 125.095 21.6369 125.131 21.6369H128.568V20.3099H125.133C125.097 20.3099 125.062 20.2955 125.036 20.2698C125.01 20.2441 124.996 20.2093 124.996 20.1729V18.7869C124.996 18.7506 125.01 18.7158 125.036 18.6901C125.062 18.6644 125.097 18.6499 125.133 18.6499H126.62V17.3009H122.088V18.6509H123.553C123.589 18.6509 123.624 18.6654 123.65 18.6911C123.676 18.7168 123.69 18.7516 123.69 18.7879V20.1739C123.69 20.2103 123.676 20.2451 123.65 20.2708C123.624 20.2965 123.589 20.3109 123.553 20.3109H120.118V21.6379H123.552C123.588 21.6379 123.623 21.6524 123.649 21.6781C123.675 21.7038 123.689 21.7386 123.689 21.7749L123.688 28.5789ZM127.488 17.5399H129.244L124.168 11.7719L119.598 17.5459H121.283L124.143 13.9609C124.172 13.9322 124.21 13.9139 124.25 13.9089C124.269 13.9093 124.288 13.9138 124.305 13.9221C124.322 13.9304 124.338 13.9423 124.35 13.9569L127.488 17.5399ZM122.043 17.0209H126.668L124.247 14.2549L122.043 17.0209ZM113.768 28.7509H112.405C112.369 28.7509 112.334 28.7365 112.308 28.7108C112.282 28.6851 112.268 28.6503 112.268 28.6139V16.8359C112.268 16.7996 112.282 16.7648 112.308 16.7391C112.334 16.7134 112.369 16.6989 112.405 16.6989H118.184C118.22 16.6989 118.255 16.7134 118.281 16.7391C118.307 16.7648 118.321 16.7996 118.321 16.8359V22.4719C118.321 22.5083 118.307 22.5431 118.281 22.5688C118.255 22.5945 118.22 22.6089 118.184 22.6089H113.905V23.5189H118.162C118.198 23.5189 118.233 23.5334 118.259 23.5591C118.285 23.5848 118.299 23.6196 118.299 23.6559V25.0299C118.299 25.048 118.296 25.0658 118.289 25.0825C118.282 25.0992 118.272 25.1144 118.259 25.1271C118.246 25.1399 118.231 25.1499 118.215 25.1568C118.198 25.1636 118.18 25.1671 118.162 25.1669H113.905V26.1019H118.162C118.198 26.1019 118.233 26.1164 118.259 26.1421C118.285 26.1678 118.299 26.2026 118.299 26.2389V27.6689C118.299 27.7053 118.285 27.7401 118.259 27.7658C118.233 27.7915 118.198 27.8059 118.162 27.8059H113.905V28.6129C113.905 28.6493 113.891 28.6841 113.865 28.7098C113.839 28.7355 113.804 28.7509 113.768 28.7509ZM112.542 28.4759H113.631V27.6689C113.631 27.6509 113.634 27.6329 113.641 27.6162C113.648 27.5995 113.658 27.5842 113.671 27.5714C113.684 27.5586 113.699 27.5484 113.715 27.5415C113.732 27.5345 113.75 27.5309 113.768 27.5309H118.024V26.3309H113.768C113.693 26.3309 113.631 26.3159 113.631 26.2399V25.0299C113.631 24.9936 113.645 24.9588 113.671 24.9331C113.697 24.9074 113.732 24.8929 113.768 24.8929H118.024V23.7929H113.768C113.732 23.7929 113.697 23.7785 113.671 23.7528C113.645 23.7271 113.631 23.6923 113.631 23.6559V22.4719C113.631 22.4356 113.645 22.4008 113.671 22.3751C113.697 22.3494 113.732 22.3349 113.768 22.3349H118.047V16.9729H112.547L112.542 28.4759ZM129.353 27.4959H127.668C127.638 27.4954 127.61 27.4853 127.587 27.4673C127.563 27.4493 127.546 27.4243 127.538 27.3959L126.327 23.6959C126.32 23.6753 126.318 23.6533 126.322 23.6318C126.325 23.6103 126.334 23.5899 126.346 23.5723C126.359 23.5547 126.376 23.5404 126.395 23.5306C126.415 23.5208 126.436 23.5158 126.458 23.5159H128.166C128.196 23.5161 128.225 23.526 128.248 23.544C128.272 23.5621 128.289 23.5873 128.297 23.6159L129.487 27.3159C129.494 27.3364 129.496 27.3582 129.492 27.3794C129.489 27.4007 129.48 27.4207 129.467 27.4379C129.454 27.4554 129.438 27.4697 129.419 27.4796C129.4 27.4895 129.379 27.4948 129.357 27.4949M127.768 27.2209H129.168L128.068 23.7919H126.648L127.768 27.2209ZM121.348 27.4949H119.703C119.682 27.4949 119.661 27.4899 119.642 27.4804C119.623 27.4708 119.607 27.457 119.594 27.4399C119.581 27.423 119.573 27.4034 119.569 27.3826C119.565 27.3618 119.565 27.3404 119.571 27.3199L120.632 23.6199C120.64 23.5912 120.658 23.566 120.681 23.5479C120.705 23.5299 120.734 23.5201 120.764 23.5199H122.431C122.452 23.5202 122.473 23.5254 122.492 23.535C122.511 23.5447 122.527 23.5585 122.54 23.5755C122.553 23.5925 122.562 23.6122 122.566 23.6331C122.57 23.654 122.569 23.6755 122.563 23.6959L121.48 27.3959C121.472 27.4247 121.455 27.4501 121.431 27.4681C121.407 27.4862 121.378 27.495 121.348 27.4949ZM119.885 27.2219H121.246L122.246 23.7929H120.865L119.885 27.2219ZM116.846 21.4419H113.768C113.732 21.4419 113.697 21.4275 113.671 21.4018C113.645 21.3761 113.631 21.3413 113.631 21.3049V20.2769C113.631 20.2406 113.645 20.2058 113.671 20.1801C113.697 20.1544 113.732 20.1399 113.768 20.1399H116.842C116.878 20.1399 116.913 20.1544 116.939 20.1801C116.965 20.2058 116.979 20.2406 116.979 20.2769V21.3049C116.979 21.3413 116.965 21.3761 116.939 21.4018C116.913 21.4275 116.878 21.4419 116.842 21.4419M113.905 21.1679H116.705V20.4139H113.905V21.1679ZM116.842 19.1509H113.768C113.732 19.1509 113.697 19.1365 113.671 19.1108C113.645 19.0851 113.631 19.0503 113.631 19.0139V17.9239C113.631 17.8877 113.646 17.853 113.671 17.8274C113.697 17.8017 113.732 17.7872 113.768 17.7869H116.842C116.878 17.7872 116.913 17.8017 116.939 17.8274C116.964 17.853 116.979 17.8877 116.979 17.9239V19.0139C116.979 19.0503 116.965 19.0851 116.939 19.1108C116.913 19.1365 116.878 19.1509 116.842 19.1509ZM113.905 18.8769H116.705V18.0609H113.905V18.8769ZM116.669 16.0629H114.201C114.165 16.0629 114.13 16.0485 114.104 16.0228C114.078 15.9971 114.064 15.9623 114.064 15.9259V15.0709L113.586 15.5709C113.573 15.5848 113.558 15.5957 113.541 15.6031C113.523 15.6106 113.505 15.6142 113.486 15.6139H111.368C111.341 15.6139 111.315 15.606 111.292 15.5911C111.27 15.5763 111.252 15.5552 111.241 15.5304C111.231 15.5056 111.228 15.4782 111.232 15.4516C111.237 15.4251 111.249 15.4005 111.268 15.3809L115.25 11.2249C115.278 11.2013 115.313 11.1867 115.35 11.1829C115.368 11.1823 115.387 11.1855 115.404 11.1922C115.421 11.1989 115.437 11.209 115.45 11.2219L119.713 15.3779C119.733 15.3969 119.746 15.4213 119.752 15.448C119.758 15.4746 119.756 15.5025 119.746 15.5279C119.735 15.5532 119.718 15.5747 119.695 15.59C119.672 15.6053 119.645 15.6136 119.618 15.6139H117.432C117.413 15.6145 117.395 15.6112 117.378 15.6043C117.361 15.5975 117.345 15.5871 117.332 15.5739L116.808 15.0609V15.9309C116.808 15.9673 116.794 16.0021 116.768 16.0278C116.742 16.0535 116.707 16.0679 116.671 16.0679M114.34 15.7939H116.534V14.9209H114.338L114.34 15.7939ZM117.484 15.3399H119.277L115.354 11.5149L111.689 15.3399H113.431L115.294 13.3909C115.32 13.3639 115.355 13.3629 115.394 13.3479C115.413 13.3474 115.431 13.3507 115.448 13.3575C115.465 13.3644 115.481 13.3748 115.494 13.3879L117.484 15.3399ZM114.468 14.6509H116.38L115.393 13.6839L114.468 14.6509Z" fill="white"/>
<path d="M147.126 15.6729H144.166L140.139 22.8809L146.739 27.9659H143.903L139.034 24.1789L134.423 27.9659H131.717L137.866 22.9229L133.538 15.6729H130.854V13.9409H138.148V11.7759H139.836V13.9409H147.131L147.126 15.6729ZM138.966 21.4529L142.234 15.6739H135.503L138.966 21.4529Z" fill="white"/>
<path d="M146.737 28.1039H143.901C143.87 28.1038 143.84 28.0936 143.816 28.0749L139.033 24.3549L134.507 28.0729C134.483 28.0931 134.452 28.1041 134.421 28.1039H131.715C131.687 28.1039 131.659 28.0952 131.636 28.0789C131.613 28.0626 131.596 28.0395 131.586 28.0129C131.576 27.9864 131.575 27.9574 131.583 27.9301C131.59 27.9029 131.606 27.8787 131.628 27.8609L137.684 22.8919L133.455 15.8099H130.849C130.813 15.8099 130.778 15.7955 130.752 15.7698C130.726 15.7441 130.712 15.7093 130.712 15.6729V13.9409C130.712 13.9046 130.726 13.8697 130.752 13.844C130.778 13.8183 130.813 13.8039 130.849 13.8039H138.006V11.7759C138.006 11.7396 138.02 11.7047 138.046 11.679C138.072 11.6534 138.107 11.6389 138.143 11.6389H139.832C139.868 11.6389 139.903 11.6534 139.929 11.679C139.955 11.7047 139.969 11.7396 139.969 11.7759V13.8039H147.127C147.163 13.8039 147.198 13.8183 147.224 13.844C147.25 13.8697 147.264 13.9046 147.264 13.9409V15.6729C147.264 15.7093 147.25 15.7441 147.224 15.7698C147.198 15.7955 147.163 15.8099 147.127 15.8099H144.241L140.312 22.8439L146.821 27.8589C146.844 27.876 146.861 27.9 146.869 27.9274C146.877 27.9547 146.877 27.984 146.867 28.0109C146.858 28.0382 146.84 28.0618 146.817 28.0785C146.794 28.0952 146.766 28.1041 146.737 28.1039ZM143.948 27.8299H146.335L140.051 22.9889C140.025 22.9688 140.007 22.9401 140.001 22.908C139.994 22.876 139.999 22.8426 140.015 22.8139L144.041 15.6069C144.053 15.5856 144.07 15.5677 144.091 15.5553C144.113 15.5428 144.137 15.5361 144.161 15.5359H146.99V14.0779H139.832C139.796 14.0779 139.761 14.0635 139.735 14.0378C139.709 14.0121 139.695 13.9773 139.695 13.9409V11.9129H138.28V13.9409C138.28 13.9773 138.266 14.0121 138.24 14.0378C138.214 14.0635 138.179 14.0779 138.143 14.0779H130.986V15.5359H133.533C133.557 15.5362 133.58 15.5423 133.6 15.5539C133.621 15.5654 133.638 15.5819 133.651 15.6019L137.979 22.8529C137.996 22.8811 138.002 22.9144 137.997 22.9467C137.991 22.9791 137.974 23.0083 137.948 23.0289L132.099 27.8289H134.366L138.939 24.0719C138.963 24.0522 138.993 24.0414 139.025 24.0414C139.056 24.0414 139.086 24.0522 139.11 24.0719L143.948 27.8299ZM138.966 21.5889C138.942 21.5892 138.919 21.5832 138.898 21.5716C138.878 21.56 138.86 21.5433 138.848 21.5229L135.384 15.7439C135.372 15.7228 135.366 15.6991 135.366 15.6749C135.366 15.6507 135.372 15.627 135.384 15.6059C135.396 15.5848 135.413 15.5671 135.434 15.5548C135.455 15.5425 135.479 15.536 135.503 15.5359H142.235C142.259 15.5359 142.283 15.5422 142.304 15.5541C142.324 15.566 142.342 15.5832 142.354 15.6039C142.366 15.6245 142.373 15.648 142.373 15.6719C142.373 15.6959 142.366 15.7193 142.354 15.7399L139.085 21.5199C139.074 21.5416 139.057 21.5596 139.036 21.5718C139.015 21.584 138.991 21.59 138.967 21.5889M135.745 15.8099L138.963 21.1799L142.001 15.8099H135.745Z" fill="white"/>
<path d="M152.872 12.9149H154.884L153.326 15.5339V28.1959H151.594V18.4779L150.366 20.5559H148.366L152.872 12.9149ZM158.434 26.1829H165.555V27.8929H156.725V12.8069H158.434V19.2349L161.984 16.3349H164.69L158.434 21.4449V26.1829Z" fill="white"/>
<path d="M153.326 28.3329H151.594C151.558 28.3329 151.523 28.3185 151.497 28.2928C151.471 28.2671 151.457 28.2323 151.457 28.1959V18.9769L150.479 20.6259C150.467 20.6462 150.449 20.6631 150.429 20.6748C150.408 20.6865 150.385 20.6928 150.361 20.6929H148.366C148.342 20.6926 148.319 20.6863 148.298 20.6744C148.277 20.6625 148.259 20.6454 148.247 20.6249C148.235 20.6041 148.228 20.5802 148.228 20.5559C148.228 20.5316 148.235 20.5078 148.247 20.4869L152.747 12.8449C152.759 12.8246 152.777 12.8078 152.797 12.796C152.818 12.7843 152.841 12.7781 152.865 12.7779H154.878C154.902 12.7779 154.926 12.7844 154.947 12.7967C154.967 12.809 154.984 12.8267 154.996 12.8479C155.009 12.8686 155.015 12.8923 155.015 12.9164C155.015 12.9406 155.009 12.9643 154.996 12.9849L153.466 15.5709V28.1959C153.466 28.2323 153.452 28.2671 153.426 28.2928C153.4 28.3185 153.365 28.3329 153.329 28.3329M151.735 28.0589H153.192V15.5339C153.192 15.5093 153.198 15.485 153.211 15.4639L154.647 13.0519H152.953L148.613 20.4189H150.286L151.48 18.4079C151.494 18.3813 151.518 18.3605 151.546 18.3491C151.574 18.3378 151.605 18.3367 151.634 18.3459C151.663 18.354 151.688 18.3713 151.706 18.3951C151.724 18.4189 151.734 18.448 151.734 18.4779L151.735 28.0589ZM165.558 28.0299H156.728C156.692 28.0299 156.657 28.0155 156.631 27.9898C156.605 27.9641 156.591 27.9293 156.591 27.8929V12.8069C156.591 12.7706 156.605 12.7357 156.631 12.71C156.657 12.6844 156.692 12.6699 156.728 12.6699H158.437C158.473 12.6699 158.508 12.6844 158.534 12.71C158.56 12.7357 158.574 12.7706 158.574 12.8069V18.9449L161.9 16.2279C161.924 16.2075 161.955 16.1965 161.987 16.1969H164.693C164.721 16.1969 164.749 16.2056 164.772 16.2218C164.795 16.2381 164.813 16.2611 164.822 16.2877C164.832 16.3144 164.833 16.3433 164.825 16.3705C164.818 16.3978 164.802 16.422 164.78 16.4399L158.566 21.5089V26.0449H165.55C165.568 26.0448 165.586 26.0482 165.603 26.0551C165.62 26.0619 165.635 26.072 165.648 26.0847C165.66 26.0974 165.671 26.1126 165.678 26.1293C165.684 26.146 165.688 26.1638 165.688 26.1819V27.8919C165.688 27.91 165.684 27.9279 165.678 27.9446C165.671 27.9613 165.66 27.9764 165.648 27.9892C165.635 28.0019 165.62 28.012 165.603 28.0188C165.586 28.0256 165.568 28.0291 165.55 28.0289M156.857 27.7549H165.413V26.3199H158.429C158.393 26.3199 158.358 26.3055 158.332 26.2798C158.306 26.2541 158.292 26.2193 158.292 26.1829V21.4449C158.292 21.4246 158.296 21.4046 158.305 21.3862C158.314 21.3679 158.326 21.3517 158.342 21.3389L164.301 16.4729H162.028L158.52 19.3449C158.5 19.3615 158.476 19.3721 158.45 19.3753C158.424 19.3786 158.398 19.3744 158.375 19.3632C158.351 19.3521 158.331 19.3344 158.318 19.3124C158.304 19.2904 158.297 19.2649 158.297 19.2389V12.9449H156.866L156.857 27.7549Z" fill="white"/>
</g>
<defs>
<clipPath id="clip0_130_42676">
<rect width="165.693" height="40" fill="white"/>
</clipPath>
</defs>
</svg>
