<svg width="169" height="53" viewBox="0 0 169 53" fill="none" xmlns="http://www.w3.org/2000/svg">
<path d="M1.632 28.397H14.352V29.581H1.632V28.397ZM2.368 33.101H13.68V34.269H2.368V33.101ZM0.896 38.205H15.152V39.389H0.896V38.205ZM7.344 29.341H8.64V38.813H7.344V29.341ZM5.968 25.933L6.944 25.261C7.984 25.997 9.28 27.085 9.904 27.853L8.864 28.605C8.288 27.853 7.024 26.717 5.968 25.933ZM21.664 28.893H25.088V29.949H21.664V28.893ZM24.768 28.893H25.776C25.776 28.893 25.76 29.309 25.76 29.437C25.664 36.365 25.584 38.557 25.216 39.165C24.992 39.533 24.736 39.661 24.352 39.709C24.032 39.757 23.552 39.741 23.072 39.725C23.04 39.421 22.944 38.973 22.784 38.701C23.28 38.749 23.696 38.749 23.92 38.749C24.096 38.749 24.208 38.701 24.32 38.493C24.592 38.061 24.688 35.837 24.768 29.165V28.893ZM22.736 25.197H23.728C23.696 31.677 23.552 36.589 21.376 39.949C21.216 39.773 20.784 39.389 20.56 39.229C22.656 36.237 22.768 31.261 22.736 25.197ZM18.704 25.197H19.824V27.773H18.704V25.197ZM16.816 27.341H21.568V28.349H16.816V27.341ZM16.656 31.613H21.744V32.621H16.656V31.613ZM17.328 28.845L18.208 28.621C18.512 29.437 18.72 30.509 18.752 31.213L17.792 31.469C17.792 30.765 17.6 29.661 17.328 28.845ZM20.304 28.557L21.312 28.781C21.024 29.709 20.72 30.813 20.448 31.501L19.632 31.293C19.872 30.557 20.176 29.357 20.304 28.557ZM16.576 35.053C17.872 34.877 19.792 34.573 21.712 34.253L21.776 35.245C20 35.565 18.16 35.885 16.8 36.125L16.576 35.053ZM28.08 25.197H29.2V27.773H28.08V25.197ZM28.08 31.981H29.2V39.949H28.08V31.981ZM26.112 27.325H31.168V28.349H26.112V27.325ZM26.016 31.597H31.36V32.621H26.016V31.597ZM26.176 34.893H31.12V35.917H26.176V34.893ZM26.608 28.845L27.472 28.605C27.808 29.437 28.032 30.541 28.064 31.261L27.136 31.517C27.12 30.797 26.896 29.677 26.608 28.845ZM29.76 28.525L30.8 28.781C30.496 29.709 30.176 30.797 29.872 31.501L29.056 31.277C29.296 30.525 29.632 29.325 29.76 28.525ZM18.704 31.997H19.824V34.781C19.824 36.413 19.488 38.557 17.52 39.933C17.376 39.693 17.04 39.325 16.784 39.133C18.528 38.013 18.704 36.109 18.704 34.781V31.997ZM39.328 30.317H40.56V39.917H39.328V30.317ZM35.696 33.021V34.413H44.4V33.021H35.696ZM35.696 30.733V32.093H44.4V30.733H35.696ZM34.528 29.757H45.616V35.373H34.528V29.757ZM32.912 36.605H47.104V37.661H32.912V36.605ZM35.184 26.637V28.157H38.256V26.637H35.184ZM34.096 25.837H39.376V28.957H34.096V25.837ZM41.76 26.637V28.157H44.864V26.637H41.76ZM40.672 25.837H46V28.957H40.672V25.837ZM57.424 25.389H58.624V29.037H57.424V25.389ZM53.248 28.349H63.024V29.501H53.248V28.349ZM54.576 30.749L55.648 30.573C56.256 32.701 56.816 35.437 56.944 37.021L55.76 37.277C55.648 35.677 55.152 32.893 54.576 30.749ZM60.416 30.429L61.696 30.653C61.104 33.213 60.176 36.493 59.424 38.477L58.352 38.221C59.104 36.205 59.984 32.813 60.416 30.429ZM52.848 38.029H63.424V39.181H52.848V38.029ZM52.416 25.245L53.552 25.613C52.464 28.301 50.752 30.989 48.992 32.749C48.864 32.477 48.528 31.837 48.304 31.549C49.92 30.045 51.488 27.661 52.416 25.245ZM50.752 29.373L51.888 28.237L51.904 28.253V39.885H50.752V29.373Z" fill="black"/>
<path d="M106.8 25.2L107.3 25.7C107.4 25.9 107.2 26.1 107.1 26.3C107.1 26.3 107.1 26.3 107.1 26.4C107.4 26.7 107.4 26.8 107 27C106.7 27.2 106.5 27.3 106.2 27.5C105.8 27.6 105.6 28 105.2 28.1C104.9 28.2 104.7 28.3 104.6 28.6C104.4 28.8 104.3 29.1 104.3 29.4C104.3 29.6 104.4 29.6 104.6 29.6C104.8 29.6 105 29.5 105.1 29.6C105.3 29.7 105.4 29.6 105.6 29.6C105.8 29.6 106.1 29.6 106.3 29.5C106.4 29.5 106.6 29.5 106.7 29.5C106.8 29.5 106.9 29.5 107.1 29.5C107.4 29.4 107.6 29.4 107.9 29.4C108.3 29.4 108.7 29.3 109.1 29.3C109.2 29.3 109.2 29.3 109.3 29.3H109.4C109.7 29.4 110 29.4 110.3 29.6C110.4 29.7 110.4 29.7 110.5 29.7C110.7 29.7 110.9 29.9 111 30C111.1 30.1 111.2 30.1 111.3 30.1L111.5 30.8C111.4 31 111.4 31.1 111.3 31.3C111.2 31.5 111.1 31.7 111 31.9C110.9 32.1 111 32.3 110.8 32.4C110.8 32.4 110.8 32.5 110.8 32.6C110.8 32.7 110.9 32.9 110.9 33.1C110.9 33.5 111 34 110.9 34.4C110.9 34.7 110.9 35 110.8 35.3V35.4C110.6 35.5 110.6 35.7 110.6 35.9C110.3 36.4 110.3 37 110.1 37.5C110 37.8 109.8 38 109.7 38.3C109.6 38.5 109.4 38.6 109.3 38.8C109.3 38.9 109.1 38.8 108.9 38.9L108.7 39.1H108.6C108.4 39 108.2 39 108.1 38.7C108.1 38.7 108 38.6 107.9 38.6C107.8 38.6 107.6 38.5 107.5 38.5C107.4 38.2 107.2 37.9 106.9 37.8C106.8 37.7 106.6 37.6 106.5 37.5C106.4 37.4 106.2 37.4 106 37.4V36.8L106.6 36.7C106.7 36.5 107 36.3 107.3 36.3C107.5 36.3 107.8 36.1 108 35.9C108 35.7 108 35.5 108.2 35.4C108.2 35.4 108.2 35.3 108.3 35.3C108.4 35 108.4 34.7 108.5 34.4C108.5 34.2 108.5 33.9 108.6 33.7C108.6 33.7 108.6 33.6 108.6 33.5L108.5 33.4C108.7 33 108.5 32.6 108.6 32.2C108.6 32.1 108.6 32.1 108.6 32C108.6 31.6 108.6 31.3 108.5 30.9C108.5 30.6 108.5 30.4 108.5 30.2C108.5 30.1 108.4 30 108.3 30C108 30 107.7 30 107.5 30C107.1 30.1 106.7 30.2 106.3 30.2C106.1 30.2 105.8 30.4 105.6 30.5C105.4 30.8 105.1 31 104.8 31.2C104.7 31.3 104.7 31.4 104.6 31.6C104.8 31.7 104.9 31.7 105 31.7C105.1 31.7 105.3 31.8 105.4 31.8C105.5 31.9 105.6 32 105.5 32.2C105.5 32.3 105.4 32.4 105.4 32.5L104.6 32.9C104.8 33.2 104.9 33.4 105.2 33.5C105.3 33.5 105.4 33.7 105.6 33.8C105.4 34.2 105.1 34.6 104.8 34.9V35C104.9 35.3 104.9 35.6 104.8 35.8C104.7 36.1 104.6 36.4 104.6 36.7C104.6 36.9 104.6 37.1 104.4 37.2V37.3C104.4 37.7 104.2 38 103.9 38.3C103.8 38.3 103.8 38.4 103.8 38.5C103.7 38.6 103.7 38.6 103.6 38.7L103.3 38.5C103.3 38.2 103.3 38 103.3 37.7C103.3 37.4 103.3 37.1 103.2 36.8C103.2 36.6 103.1 36.3 103.2 36.1C103.2 35.9 103.2 35.8 103 35.7C102.8 35.6 102.7 35.7 102.6 35.9C102.6 35.9 102.6 35.9 102.5 36C102.3 36 102 36 101.8 36.1C101.5 36.2 101.1 36.2 100.7 36.2C100.6 36.2 100.5 36 100.4 35.9C100.3 35.7 100.2 35.6 100.2 35.4C100.3 35.2 100.6 35.1 100.8 35.1C101 35.1 101.1 35.1 101.2 34.9C101.2 34.9 101.3 34.8 101.4 34.8C101.7 34.7 102.1 34.6 102.4 34.4C102.5 34.4 102.7 34.3 102.8 34.2C103 34.2 103 34 103 33.9C102.8 33.9 102.7 33.9 102.5 33.9C102.4 33.9 102.2 33.9 102.1 34C101.9 34.2 101.7 34.2 101.2 34.1C101.1 33.9 101.1 33.8 101 33.6C100.9 33.4 101 33.1 101.2 32.9C101.5 32.7 101.4 32.4 101.2 32.2L101.1 32.1C100.8 31.7 100.4 31.8 100.1 31.9C100 32 99.8 32 99.7 32.1C99.4 32.2 99.1 32.2 98.8 32C98.5 31.9 98.4 31.9 98.4 32.2C98.4 32.3 98.4 32.3 98.4 32.4C98.3 32.8 98.2 33.1 98.4 33.5C98.5 33.7 98.5 33.9 98.5 34.1C98.5 34.2 98.5 34.4 98.5 34.5C98.6 34.9 98.7 35.4 98.8 35.8C98.8 35.9 98.8 35.9 98.8 36C98.8 36.3 98.8 36.7 98.9 37C98.9 37 98.8 37 98.8 37.1C98.5 37.2 98.5 37.2 98.6 37.6C98.6 37.7 98.5 37.7 98.4 37.7C98.4 37.7 98.3 37.7 98.3 37.6C98.1 37.3 97.9 36.9 97.8 36.5C97.8 36.4 97.7 36.3 97.7 36.2C97.6 36.1 97.6 36 97.6 35.8C97.6 35.5 97.5 35.3 97.5 35C97.5 34.8 97.5 34.6 97.4 34.5C97.6 34.2 97.4 33.9 97.4 33.5C97.4 33.4 97.3 33.3 97.4 33.2C97.5 33 97.5 32.7 97.5 32.4C97.5 32.3 97.5 32.2 97.5 32.1C97.4 32 97.4 31.9 97.5 31.9C97.5 31.8 97.5 31.7 97.4 31.6C97.5 31.4 97.7 31.3 98 31.3L98.1 31.2L98.2 31.1C98.5 31 98.8 30.9 99.1 30.7C99.2 30.7 99.2 30.6 99.3 30.5C99.4 30.3 99.5 30.2 99.7 30.2C99.8 29.9 99.8 29.9 100.1 29.8C100.4 29.7 100.6 29.8 100.8 29.8C100.9 29.8 101 29.7 101.1 29.6C101.2 29.5 101.3 29.4 101.4 29.4C101.5 29.4 101.6 29.3 101.7 29.3C101.8 29.2 101.9 29.2 102 29.2C102.3 29.2 102.6 29.1 102.8 28.9C102.9 28.8 102.9 28.7 102.8 28.6C102.8 28.5 102.7 28.5 102.5 28.5C102.4 28.5 102.3 28.5 102.2 28.5C101.9 28.5 101.7 28.5 101.4 28.5C101.1 28.5 100.8 28.4 100.6 28.2C100.5 28.1 100.3 28 100.1 27.9C100.1 27.6 99.7 27.4 99.9 27.1C99.7 27 99.6 27 99.5 26.8C99.4 26.5 99.5 26.3 99.9 26.1C100 26 100.2 25.9 100.3 26C100.3 26 100.3 26 100.4 26L101.5 25.9C101.6 25.9 101.7 25.9 101.8 25.9C101.9 25.9 102.1 25.9 102.2 25.8C102.4 25.6 102.6 25.6 102.8 25.6C103 25.6 103.1 25.5 103.1 25.3C103.1 25.2 103.1 25.1 103.2 25.1C103.3 24.9 103.3 24.7 103.1 24.6C103 24.4 102.8 24.2 102.7 24L102.9 23.2C103.1 23.2 103.3 23.2 103.4 23.2C103.5 23.2 103.6 23.2 103.7 23.1C104 22.9 104.4 22.9 104.6 23.2C104.7 23.3 104.8 23.4 104.8 23.5C104.9 23.8 104.9 24.2 105 24.5C105 24.7 105.1 24.9 105.2 25C105.3 25.1 105.4 25.1 105.5 25C105.7 24.8 106 24.9 106.3 24.8C106.4 25.2 106.6 25.2 106.8 25.2Z" fill="#0D1319"/>
<path d="M81.4 31.3H81.5C81.8 31.1 82.1 31.1 82.4 30.9C82.5 30.8 82.6 30.8 82.8 30.7C83 30.7 83.2 30.6 83.3 30.4H83.5C83.7 30.3 83.9 30.2 84.1 30.1C84.2 30.1 84.3 30 84.4 30C84.7 30 84.9 30 85.2 29.9C85.3 29.9 85.4 29.9 85.4 29.8C85.7 29.7 86 29.6 86.3 29.5C86.3 29.5 86.4 29.5 86.4 29.4C86.3 29.2 86.2 29.2 86.1 29.2C85.7 29.2 85.4 29.1 85 29.1C84.9 29.1 84.8 29 84.7 28.8C84.6 28.6 84.5 28.4 84.4 28.2C84.4 28.1 84.5 28.1 84.5 28C84.7 27.8 84.9 27.6 85.1 27.3C85.2 27.2 85.2 27.1 85.3 27L86.2 26.6C86.3 26.5 86.3 26.4 86.2 26.3C86.1 26.2 86 26.2 85.9 26.2C85.6 26.3 85.2 26.3 85 26.6C84.7 26.7 84.4 27 84.1 26.9C84 26.9 83.8 26.8 83.7 26.8C83.7 26.8 83.7 26.7 83.6 26.7C83.3 26.6 83.3 26.4 83.3 26.1C83.3 25.9 83.4 25.7 83.4 25.5C83.5 25.3 83.6 25.2 83.8 25.1C84 25 84.2 24.9 84.3 24.7C84.6 25 84.8 25 85.1 25C85.5 25.1 85.9 25 86.2 24.9C86.4 24.9 86.5 24.9 86.7 24.9C87 25 87 25 87.1 24.7C87.1 24.6 87.2 24.5 87.2 24.4C87.3 24.1 87.1 23.9 86.8 24C86.5 24.1 86.1 24.1 85.8 24.1C85.7 24.1 85.5 24.2 85.4 24.3L83.8 23.6C83.9 23.3 83.8 23.1 83.6 22.9L83.5 22.8C83.4 22.5 83.4 22.5 83.3 22.3C83.5 22.2 83.7 22.1 83.9 22C84 21.9 84.1 21.9 84.2 21.8C84.3 21.8 84.3 21.8 84.4 21.8C84.6 21.9 84.7 21.8 84.9 21.8C85.1 21.7 85.3 21.7 85.6 21.6C85.6 21.4 85.6 21.3 85.8 21.3C86.1 21.3 86.2 21.2 86.3 20.9C86.5 20.8 86.7 20.9 86.8 21C87.1 21.1 87.3 21.1 87.3 20.7C87.4 20 87.3 19.5 87 19C87.1 18.7 87.2 18.3 87.2 18C87.2 17.9 87.3 17.8 87.4 17.7C87.6 17.6 87.8 17.4 88 17.3C88.8 17.2 88.8 17.2 89.3 17.7C89.3 17.9 89.4 18.2 89.3 18.4C89.3 18.5 89.4 18.6 89.4 18.7C89.3 18.9 89.2 19.2 89.2 19.4C89.1 19.7 89.2 20 89.5 20.1C89.6 20.1 89.6 20.1 89.7 20.1C89.8 20.1 89.9 20.1 90 20.1C90.1 20.1 90.2 20.1 90.3 20.1C90.4 20.1 90.4 20.1 90.5 20.1C90.6 20.3 90.6 20.3 90.5 20.9L90.9 21.1C90.9 21.2 90.9 21.4 90.8 21.4C90.6 21.6 90.7 21.8 90.6 22C90.6 22 90.6 22.1 90.6 22.3C90.3 22.5 90.1 22.7 89.8 23C89.7 23 89.7 23.1 89.6 23.1C89.5 23.2 89.4 23.3 89.3 23.4C89.2 23.5 89.2 23.6 89.1 23.7C88.9 23.8 88.9 23.9 88.9 24.2C88.9 24.3 88.9 24.4 89.1 24.5L89.2 24.3C89.5 24.2 89.7 24.1 90 23.9H90.1C90.5 23.9 90.8 23.7 91.2 23.5C91.4 23.4 91.5 23.4 91.7 23.4C91.6 24 91.2 24.4 90.7 24.6C90.6 24.7 90.5 24.7 90.4 24.8C90.3 24.9 90.2 25 90.1 25C89.8 25 89.7 25.2 89.5 25.3C89.3 25.4 89.1 25.5 88.9 25.7C88.9 26 88.7 26.2 88.4 26.3C88.3 26.3 88.1 26.4 88 26.5C88 26.6 88.1 26.7 88.2 26.7C88.2 26.7 88.2 26.7 88.3 26.7C88.4 26.7 88.5 26.6 88.6 26.6C88.9 26.4 89.2 26.4 89.5 26.5C89.7 26.5 90 26.5 90.2 26.5L90.6 27C90.4 27.3 90.3 27.6 90.2 27.9C90 28.1 89.7 28.2 89.6 28.6C89.4 28.7 89.3 29 89.1 29.1C88.9 29.3 88.6 29.4 88.4 29.3C88.3 29.3 88.1 29.3 88 29.3C87.8 29.3 87.8 29.4 87.8 29.6C87.8 29.7 88 29.8 88.1 29.8C88.6 29.7 89.2 29.6 89.7 29.4C89.8 29.4 89.8 29.3 89.9 29.4C90.2 29.4 90.6 29.4 90.9 29.3C91.2 29.2 91.6 29.2 91.9 29.2C92 29.2 92.1 29.2 92.1 29.2C92.4 29.3 92.8 29.4 93.1 29.4C93.1 29.7 93.4 29.7 93.6 29.7C93.8 29.9 93.8 30.2 94.1 30.4C94.2 30.5 94.2 30.8 94.1 31C94 31.1 93.9 31.2 93.9 31.2C93.4 30.9 93.2 31 93 31C92.8 31 92.6 31.1 92.3 31C92.3 30.8 92.2 30.8 92 30.7C91.6 30.6 91.2 30.6 90.8 30.7C90.6 30.8 90.3 30.8 90.1 30.8C90 30.8 90 30.8 89.9 30.9C89.8 30.9 89.8 30.9 89.7 30.9C89.9 30.6 90.2 30.4 90.5 30.2C90.7 30.1 90.9 29.9 90.9 29.7C90.8 29.7 90.7 29.7 90.7 29.7C90.5 29.7 90.3 29.8 90.2 29.8C89.7 29.8 89.2 29.8 88.7 29.9C88.5 29.9 88.2 30 88 30.1C87.6 30.2 87.4 30.6 86.9 30.6C86.7 30.6 86.5 30.7 86.3 30.8C85.8 31 85.3 31.3 84.7 31.5C84.2 31.7 83.8 31.9 83.4 32.1C83.4 32.2 83.4 32.3 83.3 32.3C83.1 32.4 82.9 32.6 82.7 32.7C82.6 32.7 82.5 32.8 82.4 32.8C82.3 32.8 82.1 32.9 82.1 33C82 33.2 81.8 33.3 81.5 33.3L81.3 33.6C80.9 33.6 80.8 33.9 80.5 34.1C80.4 34.2 80.3 34.3 80.2 34.3C80 34.4 79.7 34.4 79.6 34.7C79.4 34.6 79.3 34.6 79.2 34.6C79 34.5 78.9 34.4 78.9 34.2C78.9 34.1 78.8 33.9 78.8 33.8C78.9 33.7 78.9 33.5 78.9 33.3C78.8 33.1 78.9 33 79.1 32.9C79.3 32.8 79.5 32.7 79.5 32.5C79.5 32.4 79.6 32.4 79.6 32.3C79.6 32.2 80 31.7 80 31.7C80 31.4 80.2 31.3 80.3 31.2C80.6 31.2 80.8 31 81 30.9L81.4 31.3ZM87.6 27.8C87.8 27.9 88 27.8 88.2 27.6C88.3 27.5 88.3 27.5 88.4 27.5C88.8 27.5 89 27.2 89.2 27C89.3 26.9 89.4 26.7 89.3 26.6C89.2 26.4 89.1 26.4 88.9 26.5C88.8 26.5 88.8 26.5 88.7 26.5C88.3 26.7 87.8 26.9 87.4 27.1L87.3 27.2C87.2 27.3 87.2 27.4 87.1 27.4C87.1 27.5 87 27.6 87.1 27.6C87.1 27.6 87.2 27.7 87.3 27.7C87.4 27.8 87.5 27.8 87.6 27.8Z" fill="#0D1319"/>
<path d="M86 39C85.9 39.2 85.7 39.3 85.5 39.3C85.3 39.3 85.1 39.4 84.9 39.4C84.8 39.4 84.8 39.4 84.7 39.4C84.5 39.3 84.4 39.2 84.3 39.1C84.3 38.7 84.5 38.3 84.7 38C84.8 37.8 85 37.6 85.1 37.4C85.1 37.3 85.2 37.2 85.2 37C84.7 37.1 84.5 36.7 84.1 36.6C84 36.6 83.9 36.5 83.8 36.5C83.7 36.3 83.7 36.2 84 36V35.7C84.7 35.2 85.5 34.8 86.3 34.6C86.3 34.6 86.3 34.6 86.3 34.5L85.6 34.4C85.6 34.3 85.5 34.2 85.5 34.1C85.6 34 85.6 33.8 85.8 33.7C86.1 33.7 86.2 33.3 86.4 33.2C86.5 33.1 86.5 33 86.4 32.7C86.3 32.6 86.1 32.6 86 32.7H85.9C85.6 32.5 85.2 32.6 85 32.3C85.1 32.1 85.4 32 85.2 31.8C85.3 31.8 85.4 31.8 85.4 31.7C85.6 31.7 85.8 31.6 86 31.5C86.1 31.5 86.1 31.4 86.2 31.4C86.8 31.3 87.4 31.2 87.9 31.3H88C88.3 31.2 88.6 31.4 88.7 31.7C88.4 31.9 88.3 32.3 87.9 32.3C88 32.7 87.6 32.8 87.4 33C87.4 33.1 87.3 33.1 87.3 33.2L87 33.3C87 33.5 87.1 33.5 87.2 33.5C87.3 33.5 87.4 33.5 87.5 33.5C87.9 33.6 88.2 33.9 88.3 34.3C88.3 34.4 88.3 34.4 88.3 34.5C88.1 34.8 88 35 88 35.2C87.9 35.4 87.8 35.6 87.7 35.7C87.6 35.8 87.6 35.9 87.5 36C87.3 36.1 87.2 36.3 87.2 36.6C87.2 36.7 87.1 36.7 87.1 36.7C86.9 36.7 86.8 36.9 86.7 37.1C86.6 37.2 86.6 37.3 86.6 37.4C86.6 37.5 86.8 37.5 86.9 37.5C87.3 37.5 87.8 37.4 88.2 37.3C88.3 37.3 88.5 37.2 88.6 37.2C88.8 37.2 89.1 37.1 89.3 36.9L89 36.6C89.1 36.5 89.1 36.4 89.1 36.2C89.1 36.1 89 36 89 35.9L88.9 35.8C88.8 35.6 88.8 35.4 88.7 35.3C88.7 34.9 88.7 34.6 88.8 34.3C88.8 34.2 88.9 34.1 89 34C89.2 33.7 89.3 33.5 89.7 33.5C89.8 33.5 89.9 33.5 90 33.4C90.2 33.3 90.4 33.2 90.6 33.2C90.7 33.2 90.8 33.2 91 33.2C91.2 33.3 91.1 33.5 91.1 33.7C91.2 33.7 91.2 33.8 91.3 33.8C91.4 33.9 91.5 34 91.6 34.2C91.7 34.6 91.6 35 91.5 35.4C91.5 35.5 91.5 35.5 91.5 35.6C91.2 35.5 91 35.7 90.7 35.8C90.5 35.9 90.4 36 90.5 36.2C90.6 36.4 90.7 36.7 90.8 36.9C90.9 37 91 37.2 91.1 37.3C91.1 37.4 91.1 37.4 91.1 37.5C91.1 37.6 91.1 37.6 91.2 37.7C91.2 37.8 91.3 37.9 91.3 38C91.2 38.1 91 38.2 90.9 38.3C90.8 38.4 90.8 38.4 90.7 38.4C90.7 38.4 90.6 38.4 90.6 38.5C90.4 38.8 90.1 38.8 89.8 38.9C89.5 39 89.1 39 88.8 39.1C88.3 39.1 87.8 39.1 87.3 39.2C86.8 39 86.4 39 86 39Z" fill="#0D1319"/>
<path d="M124.83 31.8C123.83 33.4 122.93 34.9 121.93 36.5C120.23 39.1 118.63 41.8 116.93 44.4C116.33 45.3 115.83 46.2 115.23 47.1C121.13 46.6 126.93 45.8 132.73 44.6C132.93 40.6 133.43 36.6 134.23 32.6L124.83 31.8Z" fill="#B10023"/>
<path d="M146.23 14.6L139.13 26.6C139.13 26.6 150.83 26.3 157.33 21.9C160.13 19.8 162.53 17.2 164.23 14.1C166.63 9.8 168.33 5 168.93 0C168.93 0 159.83 6.7 146.23 14.6Z" fill="#C07D00"/>
<path d="M140.23 35.3C139.83 33.6 137.13 31.7 137.13 31.7C137.13 31.7 134.53 41.6 133.83 45.4C133.23 48.5 138.03 52.2 140.43 52.6C141.43 50.9 142.13 49 142.23 47C141.73 43.5 140.23 35.3 140.23 35.3Z" fill="#0D1319"/>
<path d="M134.13 15.7C135.13 14.4 138.13 16.3 139.43 18.9C140.73 21.5 136.63 28 136.63 28C136.63 28 132.43 25.6 131.93 23.3C131.43 21 133.23 17 134.13 15.7Z" fill="#0D1319"/>
<path d="M131.43 23.4C131.23 22 131.33 20.6 131.83 19.3C125.33 19 118.83 17.8 112.63 15.7C114.93 23 121.93 27.9 129.63 27.5C131.13 27.4 132.63 27.1 134.13 26.8C132.83 26 131.93 24.8 131.43 23.4Z" fill="#C07D00"/>
<path d="M161.93 50.7L149.03 27.1L137.93 29.9C138.13 30.7 138.33 31.4 138.43 32.2C139.43 33 140.23 34.1 140.63 35.3C140.63 35.4 142.13 43.5 142.63 47V47.1V47.2C142.63 47.7 142.53 48.2 142.43 48.6C148.53 49.7 157.13 50.9 161.93 50.7Z" fill="#B10023"/>
<path d="M85.8 42.2V42.6H84.2V47H83.1V42.6H81.4V42.2H85.8Z" fill="#695444"/>
<path d="M88.7 42.2L90.9 47H89.7L89.1 45.7H87.3L86.7 47H85.9L88.2 42.2H88.7ZM87.5 45.2H88.9L88.2 43.7L87.5 45.2Z" fill="#695444"/>
<path d="M92.9 42.2H91.8V47H92.9V42.2Z" fill="#695444"/>
<path d="M94.5 42.2H95.2L97.9 45.2V42.2H98.6V47H98.1L95.2 43.7V47H94.5V42.2Z" fill="#695444"/>
<path d="M105.3 42.2H106L108.7 45.2V42.2H109.4V47H108.9L106 43.7V47H105.3V42.2Z" fill="#695444"/>
<path d="M102.3 42.2L104.5 47H103.3L102.7 45.7H100.9L100.3 47H99.5L101.8 42.2H102.3ZM101.1 45.2H102.5L101.8 43.7L101.1 45.2Z" fill="#695444"/>
</svg>
